<svg id="Capa_1" data-name="Capa 1" xmlns="http://www.w3.org/2000/svg" viewBox="0 0 172.04 166.01"><defs><style>.cls-1{fill:#fff;}.cls-2{fill:none;stroke:#0eb193;stroke-miterlimit:10;stroke-width:2px;}.cls-3{font-size:15px;fill:#0eb193;}.cls-3,.cls-7{font-family:Byom-Bold, Byom;font-weight:700;}.cls-4{letter-spacing:-0.02em;}.cls-5{letter-spacing:0.02em;}.cls-6{font-family:Byom;font-weight:400;}.cls-7{letter-spacing:0em;}.cls-8{letter-spacing:0.01em;}.cls-9{letter-spacing:-0.01em;}.cls-10{fill:#e2b723;}</style></defs><rect class="cls-1" x="1" y="1.76" width="170.04" height="163.25"/><polyline class="cls-2" points="125.06 31.92 171.04 31.92 171.04 165.01 1 165.01 1 31.92 45.08 31.92"/><text class="cls-3" transform="translate(46.23 95.67)"><tspan class="cls-4">A</tspan><tspan class="cls-5" x="9.83" y="0">C</tspan><tspan x="19.49" y="0">ABADOS</tspan><tspan class="cls-6"><tspan x="-4.62" y="18">DE </tspan><tspan class="cls-7" x="17.91" y="18">PRIMERA</tspan><tspan class="cls-8" x="9.96" y="36">C</tspan><tspan x="19.32" y="36">ALI</tspan><tspan class="cls-9" x="41.02" y="36">D</tspan><tspan x="51.24" y="36">AD</tspan></tspan></text><path class="cls-10" d="M468.76,337.5c-2,3.11-3.85,6.09-5.77,9.12h11.55l-5.78-9.12m10.54,9.13h11.57l-5.79-9.13-5.78,9.13m-21.06,0c-2-3.11-3.85-6.09-5.79-9.15-2,3.08-3.85,6.07-5.8,9.15Zm24.47-10.23H471.14c1.94,3.07,3.84,6.05,5.79,9.13l5.78-9.13m-22.1,9.13,5.77-9.12H454.83c1.95,3.08,3.83,6.06,5.78,9.12m8.05,27.61h.21q3-11.93,6-23.86H462.7l6,23.86m8.84-23.88q-3,11.91-5.94,23.76l.14.07c6.26-7.91,12.51-15.82,18.86-23.83Zm-30.52,0,18.87,23.83.12-.08q-3-11.88-5.93-23.75ZM494.62,348a11.88,11.88,0,0,1-.7,1.16Q483.32,362.61,472.7,376l-2.45,3.1c-1.17,1.47-1.8,1.46-3,0L445,351c-.53-.67-1.06-1.35-1.6-2a1.48,1.48,0,0,1-.09-1.92q3.93-6.18,7.83-12.37a1.74,1.74,0,0,1,1.59-.89q16,0,32,0a1.79,1.79,0,0,1,1.65.93c2.59,4.1,5.2,8.19,7.79,12.3a7.92,7.92,0,0,1,.46,1" transform="translate(-383.17 -323.5)"/><path class="cls-10" d="M484.23,326.08c0-.45,0-.91,0-1.36a1.28,1.28,0,0,1,2.56,0q0,1.32,0,2.64a1.26,1.26,0,0,1-1.29,1.26,1.27,1.27,0,0,1-1.27-1.28c0-.42,0-.85,0-1.28" transform="translate(-383.17 -323.5)"/><path class="cls-10" d="M494.53,336.37c-.45,0-.91,0-1.36,0A1.29,1.29,0,0,1,492,335a1.26,1.26,0,0,1,1.25-1.22c.88,0,1.76,0,2.64,0a1.25,1.25,0,0,1,1.25,1.29,1.28,1.28,0,0,1-1.21,1.26,5.77,5.77,0,0,1-.72,0h-.64Z" transform="translate(-383.17 -323.5)"/><path class="cls-10" d="M494.07,327.52c0,1.09-2.29,3.45-3.08,3.36a1.56,1.56,0,0,1-1.08-.65,1.49,1.49,0,0,1,.06-1.32,11.6,11.6,0,0,1,2.1-2.1,1.51,1.51,0,0,1,1.32-.08c.35.13.55.63.68.79" transform="translate(-383.17 -323.5)"/></svg>