<svg id="Capa_1" data-name="Capa 1" xmlns="http://www.w3.org/2000/svg" viewBox="0 0 172.04 166.01"><rect x="1" y="1.76" width="170.04" height="163.25" style="fill:#fff"/><polyline points="125.06 31.92 171.04 31.92 171.04 165.01 1 165.01 1 31.92 45.08 31.92" style="fill:none;stroke:#0eb193;stroke-miterlimit:10;stroke-width:2px"/><path d="M655.49,405.5H650.7l-.37,1.1a3,3,0,0,1-.27.59,1.08,1.08,0,0,1-.32.32,1.06,1.06,0,0,1-.39.13l-.49,0a1,1,0,0,1-.39-.07.55.55,0,0,1-.28-.24.83.83,0,0,1-.11-.45,2,2,0,0,1,.13-.68l2.76-7.87a2.54,2.54,0,0,1,.42-.81,1.49,1.49,0,0,1,.49-.4,1.44,1.44,0,0,1,.53-.14l.56,0h.25l.56,0a1.54,1.54,0,0,1,.54.14,1.6,1.6,0,0,1,.49.4,2.76,2.76,0,0,1,.41.81l2.76,7.87a2,2,0,0,1,.13.68.83.83,0,0,1-.11.45.55.55,0,0,1-.28.24,1,1,0,0,1-.39.07l-.49,0a1,1,0,0,1-.39-.13,1,1,0,0,1-.32-.32,2.18,2.18,0,0,1-.27-.59Zm-4.22-1.68h3.66l-1.62-4.77a1.71,1.71,0,0,0-.07-.18.1.1,0,0,0-.09-.06H653a.1.1,0,0,0-.09.06,1.71,1.71,0,0,0-.07.18Z" transform="translate(-601.82 -311.9)" style="fill:#0eb193"/><path d="M665.06,397.09a4.42,4.42,0,0,1,1.06.33,1.78,1.78,0,0,1,.67.5,1,1,0,0,1,.24.66,1,1,0,0,1,0,.29.87.87,0,0,1-.14.27.74.74,0,0,1-.25.21.8.8,0,0,1-.36.08,1.16,1.16,0,0,1-.34-.05l-.3-.11-.33-.15a2.05,2.05,0,0,0-.42-.15,4,4,0,0,0-.58-.11,5.78,5.78,0,0,0-.78-.05h-.1a3.81,3.81,0,0,0-1.34.19,1.55,1.55,0,0,0-.78.58,2.46,2.46,0,0,0-.36,1,10.78,10.78,0,0,0-.09,1.5v.46a10.53,10.53,0,0,0,.09,1.49,2.36,2.36,0,0,0,.36,1,1.61,1.61,0,0,0,.78.58,4.09,4.09,0,0,0,1.34.18h.1a5.94,5.94,0,0,0,.78,0,5.85,5.85,0,0,0,.58-.12,2.05,2.05,0,0,0,.42-.15l.33-.15.3-.11a1.16,1.16,0,0,1,.34-.05.69.69,0,0,1,.36.09.71.71,0,0,1,.25.2,1.16,1.16,0,0,1,.14.27,1,1,0,0,1,0,.29,1,1,0,0,1-.24.66,1.91,1.91,0,0,1-.67.51,4.43,4.43,0,0,1-1.06.32,8.55,8.55,0,0,1-1.4.11h-.26a7.6,7.6,0,0,1-1.84-.19,4.18,4.18,0,0,1-1.28-.54,2.66,2.66,0,0,1-.83-.84A3.78,3.78,0,0,1,659,405a6.89,6.89,0,0,1-.22-1.26c0-.45,0-.92,0-1.4v0c0-.48,0-.95,0-1.4a6.85,6.85,0,0,1,.22-1.27,3.78,3.78,0,0,1,.48-1.08,2.66,2.66,0,0,1,.83-.84,4.18,4.18,0,0,1,1.28-.54,7.09,7.09,0,0,1,1.84-.2h.26A8.55,8.55,0,0,1,665.06,397.09Z" transform="translate(-601.82 -311.9)" style="fill:#0eb193"/><path d="M675,405.5h-4.79l-.37,1.1a2.18,2.18,0,0,1-.27.59,1,1,0,0,1-.32.32,1.06,1.06,0,0,1-.39.13l-.49,0a1,1,0,0,1-.39-.07.6.6,0,0,1-.28-.24.93.93,0,0,1-.11-.45,2,2,0,0,1,.14-.68l2.76-7.87a2.54,2.54,0,0,1,.41-.81,1.49,1.49,0,0,1,.49-.4,1.44,1.44,0,0,1,.54-.14l.55,0h.26l.55,0a1.49,1.49,0,0,1,.54.14,1.6,1.6,0,0,1,.49.4,2.76,2.76,0,0,1,.41.81l2.76,7.87a2,2,0,0,1,.14.68,1.06,1.06,0,0,1-.11.45.6.6,0,0,1-.28.24,1,1,0,0,1-.39.07l-.5,0a1,1,0,0,1-.39-.13,1,1,0,0,1-.32-.32,2.2,2.2,0,0,1-.26-.59Zm-4.22-1.68h3.66l-1.61-4.77a1.59,1.59,0,0,0-.08-.18.1.1,0,0,0-.09-.06h-.1a.11.11,0,0,0-.1.06l-.07.18Z" transform="translate(-601.82 -311.9)" style="fill:#0eb193"/><path d="M682.23,397.07h.39a7.91,7.91,0,0,1,.8,0,5.8,5.8,0,0,1,.89.17,4.58,4.58,0,0,1,.87.33,2.6,2.6,0,0,1,.76.55,2.64,2.64,0,0,1,.53.82,3.07,3.07,0,0,1,.2,1.15v0a2.49,2.49,0,0,1-.11.76,2.33,2.33,0,0,1-.3.59,2.06,2.06,0,0,1-.46.42,3,3,0,0,1-.57.28,5.13,5.13,0,0,1,.78.27,2.29,2.29,0,0,1,.65.45,1.9,1.9,0,0,1,.44.69,2.53,2.53,0,0,1,.17,1v0a3.25,3.25,0,0,1-.18,1.14,2.48,2.48,0,0,1-.46.81,2.28,2.28,0,0,1-.67.53,4,4,0,0,1-.81.32,5,5,0,0,1-.87.16,8.13,8.13,0,0,1-.84,0c-.27,0-.52,0-.75,0h-3a2.75,2.75,0,0,1-.58-.05.5.5,0,0,1-.3-.2.86.86,0,0,1-.11-.39c0-.17,0-.39,0-.65v-8.37a.92.92,0,0,1,.05-.25.75.75,0,0,1,.17-.28.91.91,0,0,1,.33-.22,1.31,1.31,0,0,1,.52-.09Zm.13,4.37a3.44,3.44,0,0,0,1.58-.3,1,1,0,0,0,.61-.93v-.08a1,1,0,0,0-.61-1,2.48,2.48,0,0,0-.76-.19,8,8,0,0,0-1-.06h-1.35v6.84h1.74c.52,0,1,0,1.29-.05a2.83,2.83,0,0,0,.8-.17.77.77,0,0,0,.42-.34,1.43,1.43,0,0,0,.11-.6A1.38,1.38,0,0,0,685,404a.88.88,0,0,0-.42-.41,2.45,2.45,0,0,0-.81-.23,11.39,11.39,0,0,0-1.29-.06h-.69a.52.52,0,0,1-.31-.09.74.74,0,0,1-.2-.23,1,1,0,0,1-.1-.3,1.53,1.53,0,0,1,0-.3,1.56,1.56,0,0,1,0-.3.75.75,0,0,1,.09-.3.54.54,0,0,1,.17-.22.47.47,0,0,1,.32-.09Z" transform="translate(-601.82 -311.9)" style="fill:#0eb193"/><path d="M695.28,405.5h-4.8l-.36,1.1a3,3,0,0,1-.27.59,1.21,1.21,0,0,1-.32.32,1.06,1.06,0,0,1-.39.13l-.49,0a1,1,0,0,1-.39-.07.62.62,0,0,1-.29-.24.94.94,0,0,1-.1-.45,2,2,0,0,1,.13-.68l2.76-7.87a2.76,2.76,0,0,1,.41-.81,1.52,1.52,0,0,1,.5-.4,1.44,1.44,0,0,1,.53-.14l.56,0H693l.56,0a1.44,1.44,0,0,1,.53.14,1.49,1.49,0,0,1,.49.4,2.54,2.54,0,0,1,.42.81l2.76,7.87a2,2,0,0,1,.13.68.83.83,0,0,1-.11.45.6.6,0,0,1-.28.24,1,1,0,0,1-.39.07l-.49,0a1,1,0,0,1-.4-.13,1.08,1.08,0,0,1-.32-.32,2.57,2.57,0,0,1-.26-.59Zm-4.23-1.68h3.66l-1.61-4.77a1.71,1.71,0,0,0-.07-.18.1.1,0,0,0-.09-.06h-.11a.1.1,0,0,0-.09.06.75.75,0,0,0-.07.18Z" transform="translate(-601.82 -311.9)" style="fill:#0eb193"/><path d="M700,407.57l-.41,0a1.47,1.47,0,0,1-.33-.07.61.61,0,0,1-.24-.17A.47.47,0,0,1,699,407v-9.19a1.68,1.68,0,0,1,.08-.24.76.76,0,0,1,.18-.26,1.08,1.08,0,0,1,.32-.19,1.3,1.3,0,0,1,.48-.08h3.12a7.54,7.54,0,0,1,1.84.19,3.86,3.86,0,0,1,1.28.53,2.83,2.83,0,0,1,.84.81,4.07,4.07,0,0,1,.47,1.06,6.93,6.93,0,0,1,.22,1.25c0,.45.05.92.05,1.4v0c0,.48,0,.94-.05,1.39a6.93,6.93,0,0,1-.22,1.25,4,4,0,0,1-.47,1.05,2.71,2.71,0,0,1-.84.81,4,4,0,0,1-1.29.53,7.65,7.65,0,0,1-1.84.19H700Zm3.08-8.67h-2v6.84h2.24a3.86,3.86,0,0,0,1.26-.2,1.5,1.5,0,0,0,.73-.55,2.31,2.31,0,0,0,.34-1,11.78,11.78,0,0,0,.08-1.45v-.46a10.28,10.28,0,0,0-.09-1.48,2.23,2.23,0,0,0-.36-1,1.56,1.56,0,0,0-.78-.55,4.38,4.38,0,0,0-1.33-.16h-.06Z" transform="translate(-601.82 -311.9)" style="fill:#0eb193"/><path d="M714.21,407.68a7.47,7.47,0,0,1-1.83-.2,4.25,4.25,0,0,1-1.29-.54,2.77,2.77,0,0,1-.83-.84,3.78,3.78,0,0,1-.48-1.08,6.24,6.24,0,0,1-.21-1.27c0-.45-.05-.92-.05-1.4v0c0-.48,0-.95.05-1.4a6.12,6.12,0,0,1,.21-1.27,3.78,3.78,0,0,1,.48-1.08,2.66,2.66,0,0,1,.83-.84,4.25,4.25,0,0,1,1.29-.54,7,7,0,0,1,1.83-.2h.06a7,7,0,0,1,1.84.2,4.25,4.25,0,0,1,1.29.54,2.77,2.77,0,0,1,.83.84,3.78,3.78,0,0,1,.48,1.08,6.12,6.12,0,0,1,.21,1.27c0,.45.05.92.05,1.4v0c0,.48,0,.95-.05,1.4a6.24,6.24,0,0,1-.21,1.27,3.78,3.78,0,0,1-.48,1.08,2.88,2.88,0,0,1-.83.84,4.25,4.25,0,0,1-1.29.54,7.5,7.5,0,0,1-1.84.2Zm0-8.85a4.09,4.09,0,0,0-1.34.18,1.5,1.5,0,0,0-.78.58,2.36,2.36,0,0,0-.36,1,10.78,10.78,0,0,0-.09,1.5v.46a10.53,10.53,0,0,0,.09,1.49,2.36,2.36,0,0,0,.36,1,1.61,1.61,0,0,0,.78.58,4.09,4.09,0,0,0,1.34.18h.09a4.13,4.13,0,0,0,1.34-.18,1.63,1.63,0,0,0,.77-.58,2.36,2.36,0,0,0,.36-1,10.53,10.53,0,0,0,.09-1.49v-.46a10.78,10.78,0,0,0-.09-1.5,2.36,2.36,0,0,0-.36-1,1.51,1.51,0,0,0-.77-.58,4.13,4.13,0,0,0-1.34-.18Z" transform="translate(-601.82 -311.9)" style="fill:#0eb193"/><path d="M722.44,399.79a.89.89,0,0,0,.26.65,2.15,2.15,0,0,0,.68.43,5.42,5.42,0,0,0,1,.3l1.13.28c.39.1.77.22,1.15.35a4.5,4.5,0,0,1,1.05.53,3.33,3.33,0,0,1,.79.8,2.71,2.71,0,0,1,.41,1.17,2.68,2.68,0,0,1,0,.69,2.73,2.73,0,0,1-.24.75,3.25,3.25,0,0,1-.52.72,3.31,3.31,0,0,1-.85.61,5.3,5.3,0,0,1-1.26.43,8.05,8.05,0,0,1-1.72.16,14.36,14.36,0,0,1-1.54-.08,5.51,5.51,0,0,1-1.21-.24,2.52,2.52,0,0,1-.85-.44,1.29,1.29,0,0,1-.44-.65.65.65,0,0,1,0-.39.73.73,0,0,1,.2-.26.71.71,0,0,1,.29-.14,1.1,1.1,0,0,1,.31,0l.62.12.68.18c.24.06.51.11.8.16a5.83,5.83,0,0,0,1,.08,4.63,4.63,0,0,0,1.1-.1,2.74,2.74,0,0,0,.81-.3,1.51,1.51,0,0,0,.5-.47,1.13,1.13,0,0,0,.17-.6.78.78,0,0,0-.28-.6,2.23,2.23,0,0,0-.72-.41,7,7,0,0,0-1-.31l-1.17-.29c-.41-.1-.8-.22-1.19-.35a4.69,4.69,0,0,1-1-.5,2.68,2.68,0,0,1-.75-.71,1.89,1.89,0,0,1-.3-1,3.2,3.2,0,0,1,.2-1.19,2.61,2.61,0,0,1,.65-1,3.54,3.54,0,0,1,1.13-.75,4.85,4.85,0,0,1,1.62-.33h.57l.88,0c.33,0,.67.07,1,.13a4,4,0,0,1,1,.28,1.94,1.94,0,0,1,.71.48,1,1,0,0,1,.28.74,1,1,0,0,1,0,.25.38.38,0,0,1-.1.2.55.55,0,0,1-.23.11,1.14,1.14,0,0,1-.39,0l-.7-.09L726,399l-1-.12c-.32,0-.64-.05-1-.05a3.68,3.68,0,0,0-.58.05,1.46,1.46,0,0,0-.51.16.92.92,0,0,0-.36.28A.67.67,0,0,0,722.44,399.79Z" transform="translate(-601.82 -311.9)" style="fill:#0eb193"/><path d="M645.29,425.57a1.12,1.12,0,0,1-.38-.06.62.62,0,0,1-.25-.09.25.25,0,0,1-.09-.22v-9.63a.42.42,0,0,1,.18-.35.83.83,0,0,1,.54-.15h3.26a7,7,0,0,1,1.78.19,3.94,3.94,0,0,1,1.24.54,2.71,2.71,0,0,1,.8.82,3.87,3.87,0,0,1,.46,1.06,6.16,6.16,0,0,1,.21,1.25c0,.44.05.9.05,1.37v.05c0,.47,0,.93-.05,1.37a5.94,5.94,0,0,1-.21,1.24,3.56,3.56,0,0,1-.46,1.05,2.6,2.6,0,0,1-.8.82,3.72,3.72,0,0,1-1.24.54,7,7,0,0,1-1.78.2h-3.26Zm3.23-9.47h-2.77v8.44h2.87a5.36,5.36,0,0,0,1.29-.14,2.66,2.66,0,0,0,.9-.39,1.87,1.87,0,0,0,.59-.6,3,3,0,0,0,.34-.81,4.91,4.91,0,0,0,.15-1c0-.35,0-.72,0-1.12v-.35c0-.4,0-.77,0-1.12a4.8,4.8,0,0,0-.15-1,3,3,0,0,0-.34-.81,1.81,1.81,0,0,0-.59-.61,2.66,2.66,0,0,0-.9-.39,5.4,5.4,0,0,0-1.29-.13h-.09Z" transform="translate(-601.82 -311.9)" style="fill:#0eb193"/><path d="M655.7,425.57a1.12,1.12,0,0,1-.38-.06.62.62,0,0,1-.25-.09.24.24,0,0,1-.1-.22v-9.63a.41.41,0,0,1,.19-.35.83.83,0,0,1,.54-.15H662a.31.31,0,0,1,.26.15.62.62,0,0,1,.1.37.48.48,0,0,1-.07.29.43.43,0,0,1-.18.15.86.86,0,0,1-.23,0h-5.77v3.65h4.8a.33.33,0,0,1,.26.14.56.56,0,0,1,.12.38.73.73,0,0,1,0,.23.48.48,0,0,1-.12.16.39.39,0,0,1-.14.08l-.15,0h-4.73v3.76h5.77a.86.86,0,0,1,.23.05.43.43,0,0,1,.18.15.5.5,0,0,1,.07.29.62.62,0,0,1-.1.37.31.31,0,0,1-.26.15H655.7Z" transform="translate(-601.82 -311.9)" style="fill:#0eb193"/><path d="M670.84,415.07h0l.93,0a8,8,0,0,1,1,.15,5.08,5.08,0,0,1,1,.33,2.67,2.67,0,0,1,.81.6,2.7,2.7,0,0,1,.56.92,3.65,3.65,0,0,1,.21,1.32v0a3.81,3.81,0,0,1-.19,1.29,3,3,0,0,1-.51.91,2.83,2.83,0,0,1-.75.59,4.18,4.18,0,0,1-.91.35,6.22,6.22,0,0,1-1,.17c-.33,0-.65.05-1,.05h-1.91v3.32a.46.46,0,0,1-.09.29.6.6,0,0,1-.24.16,1.14,1.14,0,0,1-.34.07l-.38,0-.41,0a1.07,1.07,0,0,1-.33-.08.51.51,0,0,1-.24-.16.49.49,0,0,1-.08-.28v-9.29c0-.07,0-.15.08-.24a.76.76,0,0,1,.18-.26,1.23,1.23,0,0,1,.32-.19,1.34,1.34,0,0,1,.48-.08ZM669.11,420h1.8a5.43,5.43,0,0,0,1.19-.1,1.6,1.6,0,0,0,.68-.28.82.82,0,0,0,.31-.45,2.81,2.81,0,0,0,.09-.63v-.14a2.73,2.73,0,0,0-.08-.61.86.86,0,0,0-.3-.45,1.51,1.51,0,0,0-.65-.29,5.33,5.33,0,0,0-1.12-.11.24.24,0,0,1-.12,0h-1.8Z" transform="translate(-601.82 -311.9)" style="fill:#0eb193"/><path d="M680.56,416.9h-1.72v8.23a.46.46,0,0,1-.09.29.78.78,0,0,1-.24.16,1.14,1.14,0,0,1-.34.07l-.38,0-.41,0a1.13,1.13,0,0,1-.34-.08.53.53,0,0,1-.23-.16.43.43,0,0,1-.09-.28v-9.2s0-.07,0-.09a1.68,1.68,0,0,1,.08-.24.76.76,0,0,1,.18-.26,1.08,1.08,0,0,1,.32-.19,1.26,1.26,0,0,1,.48-.08h3.67a7.07,7.07,0,0,1,1,.14,5.36,5.36,0,0,1,1,.34,3.22,3.22,0,0,1,.87.6,3.11,3.11,0,0,1,.61.94,3.52,3.52,0,0,1,.23,1.33v0a3.62,3.62,0,0,1-.17,1.15,3.14,3.14,0,0,1-.46.85,2.77,2.77,0,0,1-.68.6,4,4,0,0,1-.8.39l2,3.39a.42.42,0,0,1,.06.29.32.32,0,0,1-.12.22.88.88,0,0,1-.27.16,1.59,1.59,0,0,1-.33.09c-.11,0-.22,0-.33.06h-.28a1.47,1.47,0,0,1-.54-.1.71.71,0,0,1-.41-.33l-2-3.44h-1.08a.46.46,0,0,1-.44-.27,1.38,1.38,0,0,1-.14-.64c0-.13,0-.25,0-.36a1.1,1.1,0,0,1,.09-.29.52.52,0,0,1,.19-.2.51.51,0,0,1,.3-.07h.88a6.25,6.25,0,0,0,1.18-.1,1.88,1.88,0,0,0,.71-.29,1,1,0,0,0,.35-.45,1.92,1.92,0,0,0,.1-.62v-.07a2.17,2.17,0,0,0-.09-.65.91.91,0,0,0-.35-.48,1.91,1.91,0,0,0-.73-.3,6,6,0,0,0-1.24-.1h-.08Z" transform="translate(-601.82 -311.9)" style="fill:#0eb193"/><path d="M688.59,425.12a.44.44,0,0,1-.09.29.63.63,0,0,1-.24.16,1.54,1.54,0,0,1-.34.08h-.38l-.41,0a1.57,1.57,0,0,1-.34-.07.66.66,0,0,1-.23-.17.41.41,0,0,1-.09-.28v-9.48a.48.48,0,0,1,.09-.29.52.52,0,0,1,.23-.21,1.35,1.35,0,0,1,.34-.12,1.78,1.78,0,0,1,.41,0,2.73,2.73,0,0,1,.41,0,.8.8,0,0,1,.33.1.53.53,0,0,1,.31.53Z" transform="translate(-601.82 -311.9)" style="fill:#0eb193"/><path d="M697.3,425.66h-.2a1.9,1.9,0,0,1-.37,0,3.25,3.25,0,0,1-.47-.12,1.94,1.94,0,0,1-.47-.25,1.76,1.76,0,0,1-.42-.4,1.69,1.69,0,0,1-.27-.59L693.25,417a.23.23,0,0,0,0-.12.15.15,0,0,0-.1,0,.13.13,0,0,0-.15.15l-.45,8a.72.72,0,0,1-.19.4,1.34,1.34,0,0,1-.36.22,1.57,1.57,0,0,1-.43.09l-.43,0a.63.63,0,0,1-.59-.25,1.09,1.09,0,0,1-.11-.68l.48-8.32a1.58,1.58,0,0,1,.27-.81,1.41,1.41,0,0,1,.53-.42,1.94,1.94,0,0,1,.64-.16c.22,0,.42,0,.61,0h.23a4,4,0,0,1,.66.06,2.36,2.36,0,0,1,.65.21,1.7,1.7,0,0,1,.53.43,1.36,1.36,0,0,1,.29.69l1.87,7.35c0,.07,0,.11.07.12l.08,0,.09,0s.05-.05.06-.12l1.88-7.35a1.35,1.35,0,0,1,.28-.69,1.74,1.74,0,0,1,.54-.43,2.36,2.36,0,0,1,.65-.21,4,4,0,0,1,.66-.06h.63a3.15,3.15,0,0,1,.43.05,2.25,2.25,0,0,1,.42.13,1.15,1.15,0,0,1,.37.25,1.3,1.3,0,0,1,.28.39,2.2,2.2,0,0,1,.15.59l.48,8.32a1.09,1.09,0,0,1-.11.68.64.64,0,0,1-.6.25l-.42,0a1.5,1.5,0,0,1-.43-.09,1.2,1.2,0,0,1-.36-.22.73.73,0,0,1-.2-.4l-.45-8c0-.1,0-.15-.13-.15a.17.17,0,0,0-.1,0,.22.22,0,0,0-.07.12l-1.84,7.28a1.69,1.69,0,0,1-.27.59,1.76,1.76,0,0,1-.42.4,1.94,1.94,0,0,1-.47.25,3.25,3.25,0,0,1-.47.12,1.9,1.9,0,0,1-.37,0Z" transform="translate(-601.82 -311.9)" style="fill:#0eb193"/><path d="M707.15,425.57H707l-.41,0a1.57,1.57,0,0,1-.34-.07.66.66,0,0,1-.23-.17A.41.41,0,0,1,706,425V416s0-.09,0-.12a1.68,1.68,0,0,1,.08-.24.76.76,0,0,1,.18-.26,1.08,1.08,0,0,1,.32-.19,1.26,1.26,0,0,1,.48-.08h6a.54.54,0,0,1,.25.09.7.7,0,0,1,.18.2,1.26,1.26,0,0,1,.12.29,1.34,1.34,0,0,1-.08.88.69.69,0,0,1-.32.27,1.18,1.18,0,0,1-.43.09h-4.68v2.35h3.85a.61.61,0,0,1,.26.08.89.89,0,0,1,.2.19.82.82,0,0,1,.14.28,1.21,1.21,0,0,1,.05.34,1.27,1.27,0,0,1-.06.41.71.71,0,0,1-.14.29.55.55,0,0,1-.46.22h-3.84v2.66h4.68a1.18,1.18,0,0,1,.43.09.69.69,0,0,1,.32.27,1.1,1.1,0,0,1,.12.57,1.17,1.17,0,0,1,0,.32,1.39,1.39,0,0,1-.12.28.7.7,0,0,1-.18.2.54.54,0,0,1-.25.09h-5.9Z" transform="translate(-601.82 -311.9)" style="fill:#0eb193"/><path d="M719.08,416.9h-1.72v8.23a.41.41,0,0,1-.1.29.63.63,0,0,1-.23.16,1.14,1.14,0,0,1-.34.07l-.38,0-.41,0a1.13,1.13,0,0,1-.34-.08.48.48,0,0,1-.23-.16.43.43,0,0,1-.09-.28v-9.2s0-.07,0-.09a1.68,1.68,0,0,1,.08-.24.76.76,0,0,1,.18-.26,1.08,1.08,0,0,1,.32-.19,1.26,1.26,0,0,1,.48-.08H720a7.07,7.07,0,0,1,1,.14,5.36,5.36,0,0,1,1,.34,3,3,0,0,1,.86.6,3,3,0,0,1,.62.94,3.52,3.52,0,0,1,.23,1.33v0a3.62,3.62,0,0,1-.17,1.15,2.91,2.91,0,0,1-.47.85,2.56,2.56,0,0,1-.67.6,4,4,0,0,1-.8.39l2,3.39a.42.42,0,0,1,.06.29.32.32,0,0,1-.12.22.88.88,0,0,1-.27.16,1.59,1.59,0,0,1-.33.09c-.11,0-.22,0-.33.06h-.28a1.47,1.47,0,0,1-.54-.1.71.71,0,0,1-.41-.33l-2-3.44h-1.08a.46.46,0,0,1-.44-.27,1.26,1.26,0,0,1-.14-.64c0-.13,0-.25,0-.36a1.1,1.1,0,0,1,.09-.29.59.59,0,0,1,.18-.2.57.57,0,0,1,.31-.07h.88a6.25,6.25,0,0,0,1.18-.1,1.88,1.88,0,0,0,.71-.29,1,1,0,0,0,.35-.45,1.92,1.92,0,0,0,.1-.62v-.07a2.17,2.17,0,0,0-.09-.65.91.91,0,0,0-.35-.48,1.91,1.91,0,0,0-.73-.3,6,6,0,0,0-1.24-.1h-.08Z" transform="translate(-601.82 -311.9)" style="fill:#0eb193"/><path d="M731.38,423.5h-4.8l-.36,1.1a3,3,0,0,1-.27.59,1.08,1.08,0,0,1-.32.32,1.06,1.06,0,0,1-.39.13l-.49,0a1,1,0,0,1-.39-.07.55.55,0,0,1-.28-.24.83.83,0,0,1-.11-.45,2,2,0,0,1,.13-.68l2.76-7.87a2.76,2.76,0,0,1,.41-.81,1.52,1.52,0,0,1,.5-.4,1.44,1.44,0,0,1,.53-.14l.56,0h.25l.56,0a1.44,1.44,0,0,1,.53.14,1.4,1.4,0,0,1,.49.4,2.54,2.54,0,0,1,.42.81l2.76,7.87a2,2,0,0,1,.13.68.83.83,0,0,1-.11.45.55.55,0,0,1-.28.24,1,1,0,0,1-.39.07l-.49,0a1,1,0,0,1-.4-.13,1.08,1.08,0,0,1-.32-.32,2.57,2.57,0,0,1-.26-.59Zm-4.23-1.68h3.66l-1.61-4.77a1.71,1.71,0,0,0-.07-.18.1.1,0,0,0-.09-.06h-.11a.1.1,0,0,0-.09.06,1.71,1.71,0,0,0-.07.18Z" transform="translate(-601.82 -311.9)" style="fill:#0eb193"/><path d="M664.46,442.55a3.48,3.48,0,0,0,.69-.17,4,4,0,0,0,.5-.23l.35-.23a1.51,1.51,0,0,1,.25-.18.32.32,0,0,1,.2-.07.48.48,0,0,1,.34.13.49.49,0,0,1,.14.34.85.85,0,0,1-.23.53,2.2,2.2,0,0,1-.66.5,4.77,4.77,0,0,1-1,.35,6,6,0,0,1-1.33.14h-.34a6.59,6.59,0,0,1-1.77-.2,4,4,0,0,1-1.25-.54,2.84,2.84,0,0,1-.81-.85,4.19,4.19,0,0,1-.46-1.08,6.38,6.38,0,0,1-.21-1.26c0-.45-.05-.91-.05-1.38v-.06c0-.47,0-.93.05-1.38a6.38,6.38,0,0,1,.21-1.26,4.34,4.34,0,0,1,.46-1.08,2.84,2.84,0,0,1,.81-.85,3.78,3.78,0,0,1,1.25-.55,7,7,0,0,1,1.77-.2h.34a6,6,0,0,1,1.33.14,4.27,4.27,0,0,1,1,.36,2.36,2.36,0,0,1,.66.49.85.85,0,0,1,.23.54.45.45,0,0,1-.14.33.49.49,0,0,1-.34.14.4.4,0,0,1-.2-.07l-.25-.18-.35-.23a3,3,0,0,0-.5-.23,4.27,4.27,0,0,0-.69-.18,5.11,5.11,0,0,0-.93-.07h-.25a5.36,5.36,0,0,0-1.29.14,2.88,2.88,0,0,0-.9.4,2.11,2.11,0,0,0-.59.64,2.8,2.8,0,0,0-.35.83,7.26,7.26,0,0,0-.15,1c0,.35,0,.73,0,1.12v.36c0,.39,0,.77,0,1.12a7.26,7.26,0,0,0,.15,1,2.8,2.8,0,0,0,.35.83,2.2,2.2,0,0,0,.59.63,2.67,2.67,0,0,0,.9.4,4.86,4.86,0,0,0,1.29.15h.25A5,5,0,0,0,664.46,442.55Z" transform="translate(-601.82 -311.9)" style="fill:#0eb193"/><path d="M675.18,441.22h-5.79l-.68,1.89a.9.9,0,0,1-.15.31.54.54,0,0,1-.19.16.79.79,0,0,1-.22.06h-.25a.54.54,0,0,1-.21,0,.29.29,0,0,1-.16-.13.54.54,0,0,1,0-.24,1.08,1.08,0,0,1,.07-.36l3.23-8.84a2.38,2.38,0,0,1,.26-.53,1.36,1.36,0,0,1,.31-.32,1.14,1.14,0,0,1,.36-.15,2,2,0,0,1,.43,0h.3a1.87,1.87,0,0,1,.42,0,1.31,1.31,0,0,1,.37.15,1.16,1.16,0,0,1,.3.32,2,2,0,0,1,.26.53l3.23,8.84a1.13,1.13,0,0,1,.08.36.7.7,0,0,1-.06.24.29.29,0,0,1-.16.13.46.46,0,0,1-.21,0h-.24a.79.79,0,0,1-.22-.06.47.47,0,0,1-.19-.16,1.11,1.11,0,0,1-.16-.31Zm-5.45-.93h5.11l-2.11-5.88a.91.91,0,0,0-.17-.32.23.23,0,0,0-.19-.1h-.15a.26.26,0,0,0-.21.1.93.93,0,0,0-.16.32Z" transform="translate(-601.82 -311.9)" style="fill:#0eb193"/><path d="M679,443.57a1.12,1.12,0,0,1-.38-.06.62.62,0,0,1-.25-.09.26.26,0,0,1-.1-.22v-9.83a.31.31,0,0,1,.17-.29.73.73,0,0,1,.42-.1h.24l.18,0a.19.19,0,0,1,.12.09.3.3,0,0,1,0,.18v9.27h5.43a.85.85,0,0,1,.24.05.43.43,0,0,1,.18.15.5.5,0,0,1,.07.29,1.36,1.36,0,0,1,0,.2.4.4,0,0,1-.09.17.43.43,0,0,1-.17.12.65.65,0,0,1-.26,0Z" transform="translate(-601.82 -311.9)" style="fill:#0eb193"/><path d="M687.94,443.33a.29.29,0,0,1-.05.17.3.3,0,0,1-.13.09.59.59,0,0,1-.19.05h-.21a1.33,1.33,0,0,1-.42-.06.25.25,0,0,1-.17-.26v-9.94a.35.35,0,0,1,.16-.31.88.88,0,0,1,.43-.1,1,1,0,0,1,.42.08.36.36,0,0,1,.16.34Z" transform="translate(-601.82 -311.9)" style="fill:#0eb193"/><path d="M690.93,443.57a1.08,1.08,0,0,1-.38-.06.57.57,0,0,1-.25-.09.24.24,0,0,1-.1-.22v-9.63a.41.41,0,0,1,.19-.35.83.83,0,0,1,.54-.15h3.26a7.14,7.14,0,0,1,1.78.19,4,4,0,0,1,1.24.54,2.83,2.83,0,0,1,.8.82,4.2,4.2,0,0,1,.46,1.06,6.16,6.16,0,0,1,.21,1.25c0,.44.05.9.05,1.37v.05c0,.47,0,.93-.05,1.37a5.94,5.94,0,0,1-.21,1.24A3.84,3.84,0,0,1,698,442a2.72,2.72,0,0,1-.8.82,3.81,3.81,0,0,1-1.24.54,7.1,7.1,0,0,1-1.78.2h-3.26Zm3.22-9.47h-2.76l0,8.44h2.87a5.36,5.36,0,0,0,1.29-.14,2.72,2.72,0,0,0,.91-.39,2,2,0,0,0,.59-.6,3,3,0,0,0,.34-.81,4.91,4.91,0,0,0,.15-1c0-.35,0-.72,0-1.12v-.35c0-.4,0-.77,0-1.12a4.8,4.8,0,0,0-.15-1,3,3,0,0,0-.34-.81,1.91,1.91,0,0,0-.59-.61,2.72,2.72,0,0,0-.91-.39,5.4,5.4,0,0,0-1.29-.13h-.09Z" transform="translate(-601.82 -311.9)" style="fill:#0eb193"/><path d="M707.09,441.22H701.3l-.67,1.89a1.11,1.11,0,0,1-.16.31.47.47,0,0,1-.19.16.79.79,0,0,1-.22.06h-.24a.54.54,0,0,1-.22,0,.27.27,0,0,1-.15-.13.43.43,0,0,1-.06-.24,1.08,1.08,0,0,1,.07-.36L702.7,434a2,2,0,0,1,.26-.53,1.16,1.16,0,0,1,.3-.32,1.31,1.31,0,0,1,.37-.15,1.87,1.87,0,0,1,.42,0h.3a1.87,1.87,0,0,1,.42,0,1.2,1.2,0,0,1,.37.15,1.36,1.36,0,0,1,.31.32,2.4,2.4,0,0,1,.25.53l3.24,8.84a1.08,1.08,0,0,1,.07.36.53.53,0,0,1-.06.24.29.29,0,0,1-.16.13.46.46,0,0,1-.21,0h-.24a.79.79,0,0,1-.22-.06.54.54,0,0,1-.19-.16,1.11,1.11,0,0,1-.16-.31Zm-5.45-.93h5.11l-2.11-5.88a.91.91,0,0,0-.17-.32.23.23,0,0,0-.19-.1h-.15a.23.23,0,0,0-.2.1.91.91,0,0,0-.17.32Z" transform="translate(-601.82 -311.9)" style="fill:#0eb193"/><path d="M710.89,443.57a1.12,1.12,0,0,1-.38-.06.62.62,0,0,1-.25-.09.25.25,0,0,1-.09-.22v-9.63a.42.42,0,0,1,.18-.35.83.83,0,0,1,.54-.15h3.27a7,7,0,0,1,1.77.19,3.94,3.94,0,0,1,1.24.54,2.71,2.71,0,0,1,.8.82,4.22,4.22,0,0,1,.47,1.06,8,8,0,0,1,.21,1.25c0,.44,0,.9,0,1.37v.05c0,.47,0,.93,0,1.37a7.63,7.63,0,0,1-.21,1.24A3.86,3.86,0,0,1,718,442a2.6,2.6,0,0,1-.8.82,3.72,3.72,0,0,1-1.24.54,7,7,0,0,1-1.77.2h-3.27Zm3.23-9.47h-2.77v8.44h2.87a5.36,5.36,0,0,0,1.29-.14,2.81,2.81,0,0,0,.91-.39,2.11,2.11,0,0,0,.59-.6,3.27,3.27,0,0,0,.33-.81,5.73,5.73,0,0,0,.16-1c0-.35,0-.72,0-1.12v-.35c0-.4,0-.77,0-1.12a5.57,5.57,0,0,0-.16-1,3.27,3.27,0,0,0-.33-.81,2,2,0,0,0-.59-.61,2.81,2.81,0,0,0-.91-.39,5.4,5.4,0,0,0-1.29-.13h-.09Z" transform="translate(-601.82 -311.9)" style="fill:#0eb193"/><path d="M687.42,325.9,681.65,335H693.2l-5.78-9.12M698,335h11.57l-5.79-9.13L698,335m-21.06,0-5.8-9.15-5.79,9.15Zm24.46-10.23H689.79l5.79,9.13c2-3.09,3.85-6.06,5.78-9.13M679.26,334l5.78-9.12H673.49c2,3.07,3.83,6.05,5.77,9.12m8.06,27.6h.2q3-11.91,6-23.85H681.36l6,23.85m8.83-23.88q-3,11.93-5.94,23.76l.14.07,18.87-23.83Zm-30.51,0,18.87,23.84.12-.09-5.94-23.75Zm47.64-1.27a11.88,11.88,0,0,1-.7,1.16L691.35,364.4l-2.44,3.09c-1.18,1.47-1.81,1.47-3,0l-22.22-28.08c-.54-.67-1.07-1.35-1.6-2a1.5,1.5,0,0,1-.1-1.92q3.94-6.18,7.84-12.36a1.72,1.72,0,0,1,1.59-.89h32a1.81,1.81,0,0,1,1.66.92l7.78,12.3a9.78,9.78,0,0,1,.47,1" transform="translate(-601.82 -311.9)" style="fill:#e2b723"/><path d="M702.88,314.47c0-.45,0-.91,0-1.36a1.28,1.28,0,0,1,2.55,0c0,.88,0,1.76,0,2.64a1.28,1.28,0,0,1-2.56,0c0-.43,0-.86,0-1.29" transform="translate(-601.82 -311.9)" style="fill:#e2b723"/><path d="M713.19,324.77c-.46,0-.91,0-1.36,0a1.28,1.28,0,0,1-1.22-1.34,1.26,1.26,0,0,1,1.25-1.21c.88,0,1.77,0,2.65,0a1.27,1.27,0,0,1,1.25,1.3,1.3,1.3,0,0,1-1.21,1.26c-.24,0-.48,0-.72,0Z" transform="translate(-601.82 -311.9)" style="fill:#e2b723"/><path d="M712.73,315.92c0,1.08-2.29,3.45-3.09,3.35a1.26,1.26,0,0,1-1-2,11.87,11.87,0,0,1,2.09-2.1,1.61,1.61,0,0,1,1.33-.08c.34.14.55.63.68.8" transform="translate(-601.82 -311.9)" style="fill:#e2b723"/></svg>