<svg id="Capa_1" data-name="Capa 1" xmlns="http://www.w3.org/2000/svg" viewBox="0 0 172.04 164.25"><rect x="1" width="170.04" height="163.25" style="fill:#fff"/><polyline points="125.06 30.16 171.04 30.16 171.04 163.25 1 163.25 1 30.16 48.08 30.16" style="fill:none;stroke:#0eb193;stroke-miterlimit:10;stroke-width:2px"/><path d="M629.23,399.45h-4.79l-.37,1.1a2.18,2.18,0,0,1-.27.59,1,1,0,0,1-.31.32,1.06,1.06,0,0,1-.39.13l-.5,0a1,1,0,0,1-.39-.07.6.6,0,0,1-.28-.24,1.06,1.06,0,0,1-.11-.45,2,2,0,0,1,.14-.68l2.76-7.87a2.76,2.76,0,0,1,.41-.81,1.6,1.6,0,0,1,.49-.4,1.54,1.54,0,0,1,.54-.14l.55,0H627l.55,0a1.44,1.44,0,0,1,.54.14,1.49,1.49,0,0,1,.49.4,2.54,2.54,0,0,1,.41.81l2.77,7.87a2.22,2.22,0,0,1,.13.68.93.93,0,0,1-.11.45.6.6,0,0,1-.28.24,1,1,0,0,1-.39.07l-.5,0a1.06,1.06,0,0,1-.39-.13,1,1,0,0,1-.32-.32,2.57,2.57,0,0,1-.26-.59ZM625,397.77h3.66L627.06,393l-.07-.17a.09.09,0,0,0-.09-.07h-.11a.09.09,0,0,0-.09.07.54.54,0,0,0-.07.17Z" transform="translate(-596.17 -313.66)" style="fill:#0eb193"/><path d="M634.5,393.74a.89.89,0,0,0,.26.65,2.15,2.15,0,0,0,.68.43,5.42,5.42,0,0,0,1,.3l1.13.28c.39.1.77.22,1.15.35a4.92,4.92,0,0,1,1,.53,3.33,3.33,0,0,1,.79.8,2.76,2.76,0,0,1,.41,1.17,2.68,2.68,0,0,1,0,.69,2.73,2.73,0,0,1-.24.75,3,3,0,0,1-.52.72,3.09,3.09,0,0,1-.85.61,5.3,5.3,0,0,1-1.26.43,8.05,8.05,0,0,1-1.72.16,14.52,14.52,0,0,1-1.54-.07,5.48,5.48,0,0,1-1.21-.25,2.42,2.42,0,0,1-.85-.44,1.19,1.19,0,0,1-.44-.65.61.61,0,0,1,0-.38.77.77,0,0,1,.19-.27,1,1,0,0,1,.3-.14,1.06,1.06,0,0,1,.3,0,4.7,4.7,0,0,1,.63.13l.68.17a7.53,7.53,0,0,0,.8.16,5.71,5.71,0,0,0,1,.08,4.67,4.67,0,0,0,1.11-.1,2.74,2.74,0,0,0,.81-.3,1.51,1.51,0,0,0,.5-.47,1.12,1.12,0,0,0,.16-.6.77.77,0,0,0-.27-.6,2.23,2.23,0,0,0-.72-.41,7,7,0,0,0-1-.31c-.38-.09-.77-.18-1.17-.29s-.8-.22-1.18-.35a4.56,4.56,0,0,1-1-.5,2.68,2.68,0,0,1-.75-.71,1.87,1.87,0,0,1-.3-1,3.2,3.2,0,0,1,.19-1.19,2.89,2.89,0,0,1,.66-1,3.59,3.59,0,0,1,1.13-.75,4.85,4.85,0,0,1,1.62-.33h.57l.88,0c.33,0,.67.07,1,.13a4,4,0,0,1,1,.28,1.94,1.94,0,0,1,.71.48,1,1,0,0,1,.28.74,1,1,0,0,1,0,.25.38.38,0,0,1-.1.2.55.55,0,0,1-.23.11,1.14,1.14,0,0,1-.39,0l-.7-.09L638,393l-1-.12c-.32,0-.65-.05-1-.05a3.81,3.81,0,0,0-.59.05,1.83,1.83,0,0,0-.5.16,1,1,0,0,0-.37.28A.67.67,0,0,0,634.5,393.74Z" transform="translate(-596.17 -313.66)" style="fill:#0eb193"/><path d="M648.64,391a4.51,4.51,0,0,1,1.07.33,1.87,1.87,0,0,1,.67.5,1,1,0,0,1,.24.67,1,1,0,0,1,0,.28.82.82,0,0,1-.14.28.68.68,0,0,1-.24.2.87.87,0,0,1-.37.08,1.14,1.14,0,0,1-.33-.05l-.3-.11-.34-.15a2.05,2.05,0,0,0-.42-.15,3.61,3.61,0,0,0-.57-.11,5.78,5.78,0,0,0-.78-.05H647a3.85,3.85,0,0,0-1.34.19,1.57,1.57,0,0,0-.77.58,2.46,2.46,0,0,0-.36,1,10.78,10.78,0,0,0-.09,1.5v.46a10.53,10.53,0,0,0,.09,1.49,2.36,2.36,0,0,0,.36,1,1.57,1.57,0,0,0,.77.58,4.13,4.13,0,0,0,1.34.18h.11a5.94,5.94,0,0,0,.78,0,3.53,3.53,0,0,0,.57-.12,2.05,2.05,0,0,0,.42-.15l.34-.15.3-.11a1.15,1.15,0,0,1,.33,0,.75.75,0,0,1,.37.08.61.61,0,0,1,.24.21.7.7,0,0,1,.14.27.92.92,0,0,1,0,.28,1,1,0,0,1-.24.66,1.89,1.89,0,0,1-.67.51,4.52,4.52,0,0,1-1.07.32,8.46,8.46,0,0,1-1.4.11H647a7.54,7.54,0,0,1-1.84-.19,4.25,4.25,0,0,1-1.29-.54A2.89,2.89,0,0,1,643,400a3.76,3.76,0,0,1-.47-1.08,5.52,5.52,0,0,1-.22-1.26c0-.45-.05-.91-.05-1.4v0c0-.48,0-.95.05-1.4a5.61,5.61,0,0,1,.22-1.27,3.76,3.76,0,0,1,.47-1.08,2.89,2.89,0,0,1,.83-.84,4.25,4.25,0,0,1,1.29-.54,7.5,7.5,0,0,1,1.84-.2h.25A8.46,8.46,0,0,1,648.64,391Z" transform="translate(-596.17 -313.66)" style="fill:#0eb193"/><path d="M653,401.52h-.11a2.68,2.68,0,0,1-.41,0,1.57,1.57,0,0,1-.34-.07.58.58,0,0,1-.23-.17.41.41,0,0,1-.09-.28v-9.07a.41.41,0,0,1,0-.12,1,1,0,0,1,.08-.24.87.87,0,0,1,.18-.26,1.17,1.17,0,0,1,.31-.19,1.36,1.36,0,0,1,.49-.08h6a.46.46,0,0,1,.25.08.63.63,0,0,1,.18.21,1,1,0,0,1,.12.28,1.65,1.65,0,0,1,0,.31,1,1,0,0,1-.13.57.7.7,0,0,1-.31.28,1.19,1.19,0,0,1-.44.08H654v2.36h3.85a.53.53,0,0,1,.25.08.76.76,0,0,1,.21.19.82.82,0,0,1,.14.28,1.31,1.31,0,0,1,0,.75.87.87,0,0,1-.15.29.56.56,0,0,1-.21.17.53.53,0,0,1-.24.06H654v2.65h4.67a1.19,1.19,0,0,1,.44.08.62.62,0,0,1,.31.27,1,1,0,0,1,.13.57,1.75,1.75,0,0,1,0,.32,1.39,1.39,0,0,1-.12.28.7.7,0,0,1-.18.2.58.58,0,0,1-.25.09H653Z" transform="translate(-596.17 -313.66)" style="fill:#0eb193"/><path d="M670.18,401.07a.6.6,0,0,1-.06.29.44.44,0,0,1-.16.17,1.07,1.07,0,0,1-.27.07H669a1.75,1.75,0,0,1-.33-.06l-.29-.1a.72.72,0,0,1-.21-.16h0l-4.93-6.43V401a.41.41,0,0,1-.12.3.79.79,0,0,1-.31.18,1.43,1.43,0,0,1-.42.09l-.41,0a2.06,2.06,0,0,1-.37,0,.71.71,0,0,1-.27-.07.44.44,0,0,1-.16-.17.7.7,0,0,1,0-.28v-9.48a.6.6,0,0,1,.21-.5,1.07,1.07,0,0,1,.64-.16,2.64,2.64,0,0,1,.62.08,1,1,0,0,1,.48.25l0,0,5,6.5V392a.76.76,0,0,1,.1-.39,1.1,1.1,0,0,1,.29-.32,1.31,1.31,0,0,1,.4-.23,1.51,1.51,0,0,1,.48-.08,1.18,1.18,0,0,1,.64.13c.14.08.2.26.2.53Z" transform="translate(-596.17 -313.66)" style="fill:#0eb193"/><path d="M673.86,393.74a.89.89,0,0,0,.26.65,2.15,2.15,0,0,0,.68.43,5.42,5.42,0,0,0,1,.3l1.13.28c.39.1.77.22,1.15.35a4.92,4.92,0,0,1,1.05.53,3.33,3.33,0,0,1,.79.8,2.76,2.76,0,0,1,.41,1.17,2.71,2.71,0,0,1,0,.69,2.4,2.4,0,0,1-.23.75,3,3,0,0,1-.52.72,3.09,3.09,0,0,1-.85.61,5.3,5.3,0,0,1-1.26.43,8.09,8.09,0,0,1-1.73.16,14.32,14.32,0,0,1-1.53-.07,5.48,5.48,0,0,1-1.21-.25,2.57,2.57,0,0,1-.86-.44,1.23,1.23,0,0,1-.43-.65.61.61,0,0,1,0-.38.77.77,0,0,1,.19-.27,1,1,0,0,1,.3-.14,1.06,1.06,0,0,1,.3,0,4.7,4.7,0,0,1,.63.13l.68.17a7.33,7.33,0,0,0,.79.16,5.83,5.83,0,0,0,1,.08,4.67,4.67,0,0,0,1.11-.1,2.74,2.74,0,0,0,.81-.3,1.51,1.51,0,0,0,.5-.47,1.12,1.12,0,0,0,.16-.6.77.77,0,0,0-.27-.6,2.23,2.23,0,0,0-.72-.41,7,7,0,0,0-1-.31c-.38-.09-.77-.18-1.17-.29s-.8-.22-1.19-.35a4.48,4.48,0,0,1-1-.5,2.55,2.55,0,0,1-.75-.71,1.87,1.87,0,0,1-.3-1,3.2,3.2,0,0,1,.19-1.19,2.76,2.76,0,0,1,.66-1,3.59,3.59,0,0,1,1.13-.75,4.74,4.74,0,0,1,1.62-.33h.57l.88,0c.33,0,.67.07,1,.13a4,4,0,0,1,1,.28,1.94,1.94,0,0,1,.71.48,1,1,0,0,1,.28.74,1,1,0,0,1,0,.25.33.33,0,0,1-.11.2.46.46,0,0,1-.22.11,1.14,1.14,0,0,1-.39,0l-.7-.09-.86-.12-1-.12c-.32,0-.65-.05-1-.05a3.81,3.81,0,0,0-.59.05,1.91,1.91,0,0,0-.51.16.92.92,0,0,0-.36.28A.67.67,0,0,0,673.86,393.74Z" transform="translate(-596.17 -313.66)" style="fill:#0eb193"/><path d="M686.35,401.63a7.47,7.47,0,0,1-1.83-.2,4.25,4.25,0,0,1-1.29-.54,2.77,2.77,0,0,1-.83-.84,3.78,3.78,0,0,1-.48-1.08,6.24,6.24,0,0,1-.21-1.27c0-.45-.05-.91-.05-1.4v0c0-.48,0-.95.05-1.4a6.24,6.24,0,0,1,.21-1.27,3.78,3.78,0,0,1,.48-1.08,2.77,2.77,0,0,1,.83-.84,4.25,4.25,0,0,1,1.29-.54,7.47,7.47,0,0,1,1.83-.2h.07a7.47,7.47,0,0,1,1.83.2,4.25,4.25,0,0,1,1.29.54,2.77,2.77,0,0,1,.83.84,3.78,3.78,0,0,1,.48,1.08,6.24,6.24,0,0,1,.21,1.27c0,.45.05.92.05,1.4v0c0,.48,0,.95-.05,1.4a6.24,6.24,0,0,1-.21,1.27,3.78,3.78,0,0,1-.48,1.08,2.77,2.77,0,0,1-.83.84,4.25,4.25,0,0,1-1.29.54,7.47,7.47,0,0,1-1.83.2Zm0-8.85A4.09,4.09,0,0,0,685,393a1.55,1.55,0,0,0-.78.58,2.36,2.36,0,0,0-.36,1,10.78,10.78,0,0,0-.09,1.5v.46a10.53,10.53,0,0,0,.09,1.49,2.36,2.36,0,0,0,.36,1,1.55,1.55,0,0,0,.78.58,4.09,4.09,0,0,0,1.34.18h.09a4.13,4.13,0,0,0,1.34-.18,1.53,1.53,0,0,0,.77-.58,2.36,2.36,0,0,0,.36-1,10.53,10.53,0,0,0,.09-1.49v-.46a10.78,10.78,0,0,0-.09-1.5,2.36,2.36,0,0,0-.36-1,1.53,1.53,0,0,0-.77-.58,4.13,4.13,0,0,0-1.34-.18Z" transform="translate(-596.17 -313.66)" style="fill:#0eb193"/><path d="M696.86,392.85h-1.72v8.23a.41.41,0,0,1-.1.29.51.51,0,0,1-.24.16,1.07,1.07,0,0,1-.33.07l-.38,0-.41,0a1.57,1.57,0,0,1-.34-.07.58.58,0,0,1-.23-.17.43.43,0,0,1-.09-.28v-9.2a.22.22,0,0,1,0-.09,1,1,0,0,1,.08-.24.87.87,0,0,1,.18-.26,1.17,1.17,0,0,1,.31-.19,1.36,1.36,0,0,1,.49-.08h2.79c.26,0,.55,0,.88,0a5.83,5.83,0,0,1,1,.13,5.36,5.36,0,0,1,1,.34,2.87,2.87,0,0,1,.86.61,2.64,2.64,0,0,1,.61.93,3.33,3.33,0,0,1,.24,1.33v0a3.35,3.35,0,0,1-.18,1.15,2.72,2.72,0,0,1-1.13,1.45,4,4,0,0,1-.8.39l2,3.4a.42.42,0,0,1,.07.29.34.34,0,0,1-.13.21.68.68,0,0,1-.26.16,1.59,1.59,0,0,1-.33.09,2,2,0,0,1-.34.06h-.27a1.47,1.47,0,0,1-.54-.1.71.71,0,0,1-.41-.33l-2-3.44h-1.07a.47.47,0,0,1-.44-.26,1.33,1.33,0,0,1-.14-.65,2.06,2.06,0,0,1,0-.36.66.66,0,0,1,.09-.29.58.58,0,0,1,.18-.2.68.68,0,0,1,.31-.07H697a6.25,6.25,0,0,0,1.18-.1,1.82,1.82,0,0,0,.7-.29,1,1,0,0,0,.36-.45,1.9,1.9,0,0,0,.1-.61v-.08a2.17,2.17,0,0,0-.09-.65,1,1,0,0,0-.35-.48,2,2,0,0,0-.74-.3,5.84,5.84,0,0,0-1.23-.1h-.08Z" transform="translate(-596.17 -313.66)" style="fill:#0eb193"/><path d="M711.19,401.63a7.47,7.47,0,0,1-1.83-.2,4.25,4.25,0,0,1-1.29-.54,2.77,2.77,0,0,1-.83-.84,3.78,3.78,0,0,1-.48-1.08,6.24,6.24,0,0,1-.21-1.27c0-.45,0-.91,0-1.4v0c0-.48,0-.95,0-1.4a6.24,6.24,0,0,1,.21-1.27,3.78,3.78,0,0,1,.48-1.08,2.77,2.77,0,0,1,.83-.84,4.25,4.25,0,0,1,1.29-.54,7.47,7.47,0,0,1,1.83-.2h.06a7.5,7.5,0,0,1,1.84.2,4.25,4.25,0,0,1,1.29.54,2.77,2.77,0,0,1,.83.84,3.78,3.78,0,0,1,.48,1.08,6.24,6.24,0,0,1,.21,1.27c0,.45.05.92.05,1.4v0c0,.48,0,.95-.05,1.4a6.24,6.24,0,0,1-.21,1.27,3.78,3.78,0,0,1-.48,1.08,2.77,2.77,0,0,1-.83.84,4.25,4.25,0,0,1-1.29.54,7.5,7.5,0,0,1-1.84.2Zm0-8.85a4.09,4.09,0,0,0-1.34.18,1.55,1.55,0,0,0-.78.58,2.36,2.36,0,0,0-.36,1,10.78,10.78,0,0,0-.09,1.5v.46a10.53,10.53,0,0,0,.09,1.49,2.36,2.36,0,0,0,.36,1,1.55,1.55,0,0,0,.78.58,4.09,4.09,0,0,0,1.34.18h.09a4.13,4.13,0,0,0,1.34-.18,1.53,1.53,0,0,0,.77-.58,2.36,2.36,0,0,0,.36-1,10.53,10.53,0,0,0,.09-1.49v-.46a10.78,10.78,0,0,0-.09-1.5,2.36,2.36,0,0,0-.36-1,1.53,1.53,0,0,0-.77-.58,4.13,4.13,0,0,0-1.34-.18Z" transform="translate(-596.17 -313.66)" style="fill:#0eb193"/><path d="M724.94,391a1.25,1.25,0,0,1,.38.05.38.38,0,0,1,.2.15.67.67,0,0,1,.07.28c0,.12,0,.26,0,.44a1.09,1.09,0,0,1-.1.52.65.65,0,0,1-.5.36l-.21,0h-2.68v8.23a.39.39,0,0,1-.1.29.61.61,0,0,1-.24.17,1.47,1.47,0,0,1-.33.07h-.38a2.68,2.68,0,0,1-.41,0,1.14,1.14,0,0,1-.34-.07.58.58,0,0,1-.23-.17.41.41,0,0,1-.09-.28v-8.23H717.4l-.21,0a.81.81,0,0,1-.25-.12.75.75,0,0,1-.21-.27,1,1,0,0,1-.1-.48c0-.2,0-.36,0-.48a.48.48,0,0,1,.09-.27.27.27,0,0,1,.18-.13,1,1,0,0,1,.33,0Z" transform="translate(-596.17 -313.66)" style="fill:#0eb193"/><path d="M728.92,401.07a.44.44,0,0,1-.09.29.61.61,0,0,1-.24.17,1.57,1.57,0,0,1-.34.07h-.38a2.75,2.75,0,0,1-.41,0,1.07,1.07,0,0,1-.33-.07.61.61,0,0,1-.24-.17.47.47,0,0,1-.08-.28v-9.48a.55.55,0,0,1,.08-.29.67.67,0,0,1,.23-.21,1.5,1.5,0,0,1,.34-.12,2.71,2.71,0,0,1,.41,0,2.54,2.54,0,0,1,.41,0,1.13,1.13,0,0,1,.34.1.61.61,0,0,1,.22.2.58.58,0,0,1,.08.33Z" transform="translate(-596.17 -313.66)" style="fill:#0eb193"/><path d="M732.61,393.74a.89.89,0,0,0,.26.65,2.15,2.15,0,0,0,.68.43,5.68,5.68,0,0,0,1,.3l1.13.28c.39.1.77.22,1.16.35a4.84,4.84,0,0,1,1,.53,3.16,3.16,0,0,1,.79.8,2.63,2.63,0,0,1,.41,1.17,2.68,2.68,0,0,1,0,.69,2.73,2.73,0,0,1-.24.75,2.78,2.78,0,0,1-.52.72,3,3,0,0,1-.85.61,5.3,5.3,0,0,1-1.26.43,8,8,0,0,1-1.72.16,14.64,14.64,0,0,1-1.54-.07,5.6,5.6,0,0,1-1.21-.25,2.52,2.52,0,0,1-.85-.44,1.25,1.25,0,0,1-.44-.65.54.54,0,0,1,0-.38.58.58,0,0,1,.19-.27.87.87,0,0,1,.29-.14,1.1,1.1,0,0,1,.31,0,4.9,4.9,0,0,1,.62.13l.68.17a7.53,7.53,0,0,0,.8.16,5.83,5.83,0,0,0,1,.08,4.77,4.77,0,0,0,1.11-.1,2.57,2.57,0,0,0,.8-.3,1.42,1.42,0,0,0,.5-.47,1.13,1.13,0,0,0,.17-.6.77.77,0,0,0-.27-.6,2.41,2.41,0,0,0-.73-.41,7.28,7.28,0,0,0-1-.31c-.39-.09-.78-.18-1.18-.29s-.8-.22-1.18-.35a4.56,4.56,0,0,1-1-.5,2.51,2.51,0,0,1-.74-.71,1.87,1.87,0,0,1-.31-1,3.2,3.2,0,0,1,.2-1.19,2.86,2.86,0,0,1,.65-1,3.71,3.71,0,0,1,1.13-.75A4.85,4.85,0,0,1,734,391h.57l.88,0c.33,0,.67.07,1,.13a4,4,0,0,1,1,.28,2.07,2.07,0,0,1,.72.48,1.07,1.07,0,0,1,.27.74,1.81,1.81,0,0,1,0,.25.39.39,0,0,1-.34.31,1.14,1.14,0,0,1-.39,0l-.69-.09-.87-.12-1-.12c-.33,0-.65-.05-1-.05a3.68,3.68,0,0,0-.58.05,1.91,1.91,0,0,0-.51.16.92.92,0,0,0-.36.28A.67.67,0,0,0,732.61,393.74Z" transform="translate(-596.17 -313.66)" style="fill:#0eb193"/><path d="M645,418.51a4.27,4.27,0,0,0,.69-.18,4,4,0,0,0,.5-.23l.35-.23a1.51,1.51,0,0,1,.25-.18.32.32,0,0,1,.2-.07.48.48,0,0,1,.34.13.49.49,0,0,1,.14.34.9.9,0,0,1-.23.54,2.36,2.36,0,0,1-.66.49,4.77,4.77,0,0,1-1,.35,5.49,5.49,0,0,1-1.33.14h-.34a7,7,0,0,1-1.77-.19,4,4,0,0,1-1.25-.55,2.84,2.84,0,0,1-.81-.85,4.19,4.19,0,0,1-.46-1.08,6.38,6.38,0,0,1-.21-1.26c0-.45,0-.91,0-1.38v-.05c0-.48,0-.94,0-1.39a6.38,6.38,0,0,1,.21-1.26,4.34,4.34,0,0,1,.46-1.08,2.84,2.84,0,0,1,.81-.85,3.78,3.78,0,0,1,1.25-.55,7,7,0,0,1,1.77-.2h.34a6,6,0,0,1,1.33.14,5.35,5.35,0,0,1,1,.36,2.36,2.36,0,0,1,.66.49.85.85,0,0,1,.23.54.45.45,0,0,1-.14.33.49.49,0,0,1-.34.14.32.32,0,0,1-.2-.07l-.25-.18-.35-.23a3,3,0,0,0-.5-.23A4.27,4.27,0,0,0,645,410a5.15,5.15,0,0,0-.94-.07h-.24a5.36,5.36,0,0,0-1.29.14,2.67,2.67,0,0,0-.9.41,2,2,0,0,0-.6.63,3.08,3.08,0,0,0-.34.83,6,6,0,0,0-.15,1c0,.36,0,.73,0,1.13v.35c0,.39,0,.77,0,1.13a6,6,0,0,0,.15,1,3,3,0,0,0,.34.83,2.24,2.24,0,0,0,.6.63,2.67,2.67,0,0,0,.9.4,4.86,4.86,0,0,0,1.29.15h.24A6.23,6.23,0,0,0,645,418.51Z" transform="translate(-596.17 -313.66)" style="fill:#0eb193"/><path d="M653.47,408.93a7.1,7.1,0,0,1,1.78.2,3.88,3.88,0,0,1,1.25.55,2.93,2.93,0,0,1,.8.85,4.06,4.06,0,0,1,.47,1.08,7.88,7.88,0,0,1,.21,1.26c0,.44,0,.9,0,1.38v.05c0,.48,0,.94,0,1.38a7.88,7.88,0,0,1-.21,1.26,4.28,4.28,0,0,1-.47,1.09,2.9,2.9,0,0,1-.8.84,3.88,3.88,0,0,1-1.25.55,7.1,7.1,0,0,1-1.78.2h0a7,7,0,0,1-1.77-.2,3.78,3.78,0,0,1-1.25-.55,2.81,2.81,0,0,1-.81-.84,4.26,4.26,0,0,1-.46-1.09,6.14,6.14,0,0,1-.21-1.26c0-.44,0-.9,0-1.38v-.05c0-.48,0-.94,0-1.38a6.14,6.14,0,0,1,.21-1.26,4,4,0,0,1,.46-1.08,2.84,2.84,0,0,1,.81-.85,3.78,3.78,0,0,1,1.25-.55,7,7,0,0,1,1.77-.2Zm-.1,1a4.9,4.9,0,0,0-1.29.14,2.72,2.72,0,0,0-.91.4,2.2,2.2,0,0,0-.59.63,3.22,3.22,0,0,0-.34.83,6,6,0,0,0-.15,1c0,.36,0,.73,0,1.13v.35c0,.4,0,.77,0,1.13a6,6,0,0,0,.15,1,3.22,3.22,0,0,0,.34.83,2.2,2.2,0,0,0,.59.63,2.72,2.72,0,0,0,.91.4,4.9,4.9,0,0,0,1.29.14h.18a4.77,4.77,0,0,0,1.28-.14,2.82,2.82,0,0,0,.91-.4,2.35,2.35,0,0,0,.59-.63,3.6,3.6,0,0,0,.33-.83,6,6,0,0,0,.16-1c0-.36,0-.73,0-1.13v-.35c0-.4,0-.77,0-1.13a6,6,0,0,0-.16-1,3.6,3.6,0,0,0-.33-.83,2.35,2.35,0,0,0-.59-.63,2.82,2.82,0,0,0-.91-.4,4.77,4.77,0,0,0-1.28-.14Z" transform="translate(-596.17 -313.66)" style="fill:#0eb193"/><path d="M668.33,419.28a.25.25,0,0,1-.14.26,1,1,0,0,1-.36.06,1.5,1.5,0,0,1-.37,0,.43.43,0,0,1-.26-.16L661,411.13v8.12a.21.21,0,0,1-.07.17.38.38,0,0,1-.16.11.65.65,0,0,1-.21.06h-.23a1,1,0,0,1-.37-.06.25.25,0,0,1-.13-.26v-9.94a.38.38,0,0,1,.12-.3.57.57,0,0,1,.38-.11,1,1,0,0,1,.3,0,.53.53,0,0,1,.25.12h0l6.27,8.33v-7.94a.5.5,0,0,1,.19-.4.77.77,0,0,1,.48-.16.74.74,0,0,1,.38.08.4.4,0,0,1,.12.34Z" transform="translate(-596.17 -313.66)" style="fill:#0eb193"/><path d="M674.22,411.59a1.22,1.22,0,0,0,.19.7,1.88,1.88,0,0,0,.54.51,3.47,3.47,0,0,0,.8.37c.31.11.63.2,1,.29l1.06.25c.36.08.72.18,1.06.28a7.22,7.22,0,0,1,1,.36,3.35,3.35,0,0,1,.83.48,2.21,2.21,0,0,1,.58.68,2.06,2.06,0,0,1,.25.92,3,3,0,0,1,0,.58,2.68,2.68,0,0,1-.2.69,2.86,2.86,0,0,1-.46.69,3,3,0,0,1-.79.61,4.72,4.72,0,0,1-1.21.44,7,7,0,0,1-1.69.17,9.17,9.17,0,0,1-1.62-.13,7.85,7.85,0,0,1-1.32-.35,3.65,3.65,0,0,1-.91-.47,1,1,0,0,1-.38-.51.5.5,0,0,1,0-.25.4.4,0,0,1,.12-.16.34.34,0,0,1,.17-.08.55.55,0,0,1,.18,0,1.15,1.15,0,0,1,.49.17c.19.1.43.21.72.34a6.82,6.82,0,0,0,1,.33,6,6,0,0,0,1.44.15,5.89,5.89,0,0,0,1.27-.12,3.58,3.58,0,0,0,.89-.29,1.84,1.84,0,0,0,.57-.42,1.8,1.8,0,0,0,.34-.47,1.65,1.65,0,0,0,.15-.46,1.8,1.8,0,0,0,0-.37,1,1,0,0,0-.31-.76,2.46,2.46,0,0,0-.82-.52,6.45,6.45,0,0,0-1.17-.37l-1.33-.32c-.45-.1-.9-.22-1.33-.36a4.81,4.81,0,0,1-1.17-.51,2.62,2.62,0,0,1-.83-.75,1.88,1.88,0,0,1-.32-1.1,2.48,2.48,0,0,1,.94-2,3.61,3.61,0,0,1,1.19-.61,6.26,6.26,0,0,1,1.65-.23h.41l.69,0c.26,0,.54.07.84.13a4.75,4.75,0,0,1,.86.25,2.72,2.72,0,0,1,.75.41,1.52,1.52,0,0,1,.51.62.3.3,0,0,1,0,.33.44.44,0,0,1-.39.13,1.23,1.23,0,0,1-.51-.14l-.69-.3a9.37,9.37,0,0,0-1-.29,6.21,6.21,0,0,0-1.39-.14,4.49,4.49,0,0,0-1.18.14,2.71,2.71,0,0,0-.82.38,1.65,1.65,0,0,0-.48.51A1.28,1.28,0,0,0,674.22,411.59Z" transform="translate(-596.17 -313.66)" style="fill:#0eb193"/><path d="M689.85,417.17h-5.79l-.67,1.89a1.11,1.11,0,0,1-.16.31.47.47,0,0,1-.19.16.55.55,0,0,1-.22.06h-.24a.78.78,0,0,1-.22,0,.34.34,0,0,1-.15-.14.43.43,0,0,1-.06-.24,1.13,1.13,0,0,1,.08-.36l3.23-8.84a2,2,0,0,1,.26-.53,1.16,1.16,0,0,1,.3-.32,1.31,1.31,0,0,1,.37-.15,1.91,1.91,0,0,1,.43,0h.3a1.87,1.87,0,0,1,.42,0,1.14,1.14,0,0,1,.36.15,1.36,1.36,0,0,1,.31.32,2.38,2.38,0,0,1,.26.53l3.23,8.84a1.08,1.08,0,0,1,.07.36.43.43,0,0,1-.06.24.4.4,0,0,1-.15.14.78.78,0,0,1-.21,0h-.25a.55.55,0,0,1-.22-.06.54.54,0,0,1-.19-.16.9.9,0,0,1-.15-.31Zm-5.45-.93h5.12l-2.12-5.88a1,1,0,0,0-.16-.32.28.28,0,0,0-.2-.1h-.15a.26.26,0,0,0-.2.1,1,1,0,0,0-.17.32Z" transform="translate(-596.17 -313.66)" style="fill:#0eb193"/><path d="M693.66,419.52a1.14,1.14,0,0,1-.39-.06.43.43,0,0,1-.24-.09.24.24,0,0,1-.1-.22v-9.83a.31.31,0,0,1,.16-.29.77.77,0,0,1,.42-.1h.24l.19,0a.27.27,0,0,1,.12.09.4.4,0,0,1,0,.18v9.27h5.43a.86.86,0,0,1,.23.05.34.34,0,0,1,.18.15.51.51,0,0,1,.08.3.63.63,0,0,1,0,.19.38.38,0,0,1-.08.17.52.52,0,0,1-.17.12.68.68,0,0,1-.26,0Z" transform="translate(-596.17 -313.66)" style="fill:#0eb193"/><path d="M702.61,419.28a.29.29,0,0,1-.05.17.25.25,0,0,1-.13.09.53.53,0,0,1-.18,0H702a1.22,1.22,0,0,1-.41-.06.25.25,0,0,1-.18-.26v-9.94a.34.34,0,0,1,.17-.3.77.77,0,0,1,.42-.11,1,1,0,0,1,.42.08.35.35,0,0,1,.16.34Z" transform="translate(-596.17 -313.66)" style="fill:#0eb193"/><path d="M705.6,419.52a1.12,1.12,0,0,1-.38-.06.5.5,0,0,1-.25-.09.25.25,0,0,1-.09-.22v-9.63a.44.44,0,0,1,.18-.35.83.83,0,0,1,.54-.15h3.27a7,7,0,0,1,1.77.19,4,4,0,0,1,1.24.54,2.71,2.71,0,0,1,.8.82,3.87,3.87,0,0,1,.46,1.06,6.16,6.16,0,0,1,.21,1.25c0,.44,0,.9,0,1.37v.05c0,.47,0,.93,0,1.37a5.94,5.94,0,0,1-.21,1.24,3.56,3.56,0,0,1-.46,1,2.74,2.74,0,0,1-.8.83,3.81,3.81,0,0,1-1.24.53,7,7,0,0,1-1.77.2H705.6Zm3.23-9.47h-2.77v8.44h2.87a5.36,5.36,0,0,0,1.29-.14,2.81,2.81,0,0,0,.91-.39,1.84,1.84,0,0,0,.58-.6,3,3,0,0,0,.34-.81,5.73,5.73,0,0,0,.16-1c0-.35,0-.72,0-1.12v-.35c0-.4,0-.77,0-1.12a5.73,5.73,0,0,0-.16-1,3,3,0,0,0-.34-.81,2,2,0,0,0-.58-.61,2.81,2.81,0,0,0-.91-.39,5.4,5.4,0,0,0-1.29-.13h-.09Z" transform="translate(-596.17 -313.66)" style="fill:#0eb193"/><path d="M721.77,417.17H716l-.68,1.89a1.11,1.11,0,0,1-.16.31.47.47,0,0,1-.19.16.55.55,0,0,1-.22.06h-.24a.71.71,0,0,1-.21,0,.36.36,0,0,1-.16-.14.43.43,0,0,1-.06-.24,1.13,1.13,0,0,1,.08-.36l3.23-8.84a2.38,2.38,0,0,1,.26-.53,1.06,1.06,0,0,1,.31-.32,1.14,1.14,0,0,1,.36-.15,1.91,1.91,0,0,1,.43,0h.3a1.87,1.87,0,0,1,.42,0,1.14,1.14,0,0,1,.36.15,1.19,1.19,0,0,1,.31.32,2.38,2.38,0,0,1,.26.53l3.23,8.84a1.08,1.08,0,0,1,.07.36.43.43,0,0,1-.06.24.4.4,0,0,1-.15.14.78.78,0,0,1-.21,0H723a.51.51,0,0,1-.21-.06.47.47,0,0,1-.19-.16.75.75,0,0,1-.16-.31Zm-5.46-.93h5.12l-2.12-5.88a1,1,0,0,0-.16-.32.28.28,0,0,0-.2-.1h-.15a.28.28,0,0,0-.2.1.85.85,0,0,0-.16.32Z" transform="translate(-596.17 -313.66)" style="fill:#0eb193"/><path d="M647.07,437.52a1.08,1.08,0,0,1-.38-.06.47.47,0,0,1-.25-.09.26.26,0,0,1-.1-.22v-9.63a.42.42,0,0,1,.19-.35.83.83,0,0,1,.54-.15h3.26a7.14,7.14,0,0,1,1.78.19,4,4,0,0,1,1.24.54,2.83,2.83,0,0,1,.8.82,4.2,4.2,0,0,1,.46,1.06,6.16,6.16,0,0,1,.21,1.25c0,.44,0,.9,0,1.37v.05c0,.47,0,.93,0,1.37a5.94,5.94,0,0,1-.21,1.24,3.84,3.84,0,0,1-.46,1,2.87,2.87,0,0,1-.8.83,3.81,3.81,0,0,1-1.24.53,7.1,7.1,0,0,1-1.78.2h-3.26Zm3.22-9.47h-2.76l0,8.44h2.87a5.36,5.36,0,0,0,1.29-.14,2.63,2.63,0,0,0,.91-.39,1.88,1.88,0,0,0,.59-.6,3,3,0,0,0,.34-.81,4.91,4.91,0,0,0,.15-1c0-.35,0-.72,0-1.12v-.35c0-.4,0-.77,0-1.12a4.91,4.91,0,0,0-.15-1,3,3,0,0,0-.34-.81,2,2,0,0,0-.59-.61,2.63,2.63,0,0,0-.91-.39,5.4,5.4,0,0,0-1.29-.13h-.09Z" transform="translate(-596.17 -313.66)" style="fill:#0eb193"/><path d="M657.92,437.28a.29.29,0,0,1,0,.17.34.34,0,0,1-.14.09.48.48,0,0,1-.18,0h-.21a1.33,1.33,0,0,1-.42-.06.25.25,0,0,1-.18-.26v-9.94a.34.34,0,0,1,.17-.3.78.78,0,0,1,.43-.11.93.93,0,0,1,.41.08.35.35,0,0,1,.17.34Z" transform="translate(-596.17 -313.66)" style="fill:#0eb193"/><path d="M663.52,428.05h-2.16v9.23a.29.29,0,0,1-.05.17.3.3,0,0,1-.13.09.59.59,0,0,1-.19,0h-.22a1.31,1.31,0,0,1-.41-.06.25.25,0,0,1-.17-.26v-9.76a.44.44,0,0,1,.18-.35.84.84,0,0,1,.55-.15h2.6a8.75,8.75,0,0,1,1.81.14,4.55,4.55,0,0,1,1.48.54,2.87,2.87,0,0,1,1,1,3,3,0,0,1,.36,1.52v.08a3.48,3.48,0,0,1-.15,1.06,2.59,2.59,0,0,1-.44.82,2.9,2.9,0,0,1-.69.61,4.12,4.12,0,0,1-.9.41l2.2,3.9a.27.27,0,0,1,0,.25.33.33,0,0,1-.17.16.77.77,0,0,1-.27.07,1.47,1.47,0,0,1-.28,0,.85.85,0,0,1-.31-.06.49.49,0,0,1-.24-.21l-2.16-3.88a5.48,5.48,0,0,1-.57.05h-2a.31.31,0,0,1-.29-.14.58.58,0,0,1-.11-.37.57.57,0,0,1,.11-.38.35.35,0,0,1,.3-.13h1.4a7.42,7.42,0,0,0,1.41-.12,3.3,3.3,0,0,0,1.06-.37,1.9,1.9,0,0,0,.66-.66,2,2,0,0,0,.23-1v-.2a2.11,2.11,0,0,0-.18-.89,1.58,1.58,0,0,0-.59-.67,2.86,2.86,0,0,0-1-.42,7.6,7.6,0,0,0-1.55-.14Z" transform="translate(-596.17 -313.66)" style="fill:#0eb193"/><path d="M670.52,437.52a1.12,1.12,0,0,1-.38-.06.5.5,0,0,1-.25-.09.24.24,0,0,1-.1-.22v-9.63a.44.44,0,0,1,.18-.35.88.88,0,0,1,.55-.15h6.33a.31.31,0,0,1,.26.15.62.62,0,0,1,.1.37.46.46,0,0,1-.07.29.43.43,0,0,1-.18.15.6.6,0,0,1-.24.05H671v3.65h4.8a.33.33,0,0,1,.26.14.56.56,0,0,1,.12.38.41.41,0,0,1,0,.23.38.38,0,0,1-.11.16.29.29,0,0,1-.14.08l-.15,0H671v3.76h5.76a.85.85,0,0,1,.24.05.43.43,0,0,1,.18.15.51.51,0,0,1,.07.3.61.61,0,0,1-.1.36.31.31,0,0,1-.26.15h-6.33Z" transform="translate(-596.17 -313.66)" style="fill:#0eb193"/><path d="M684.18,436.51a4.9,4.9,0,0,0,.69-.18,3.81,3.81,0,0,0,.49-.23c.14-.09.26-.16.35-.23a2.09,2.09,0,0,1,.25-.18.37.37,0,0,1,.21-.07.44.44,0,0,1,.33.13.46.46,0,0,1,.15.34.9.9,0,0,1-.23.54,2.28,2.28,0,0,1-.67.49,4.49,4.49,0,0,1-1,.35,5.54,5.54,0,0,1-1.33.14h-.34a7.14,7.14,0,0,1-1.78-.19,3.94,3.94,0,0,1-1.24-.55,2.84,2.84,0,0,1-.81-.85,4.19,4.19,0,0,1-.46-1.08,6.38,6.38,0,0,1-.21-1.26c0-.45,0-.91,0-1.38v-.05c0-.48,0-.94,0-1.39a6.38,6.38,0,0,1,.21-1.26,4.34,4.34,0,0,1,.46-1.08,2.84,2.84,0,0,1,.81-.85,3.73,3.73,0,0,1,1.24-.55,7.1,7.1,0,0,1,1.78-.2h.34a6.1,6.1,0,0,1,1.33.14,5,5,0,0,1,1,.36,2.28,2.28,0,0,1,.67.49.85.85,0,0,1,.23.54.43.43,0,0,1-.15.33.45.45,0,0,1-.33.14.37.37,0,0,1-.21-.07l-.25-.18a3,3,0,0,0-.35-.23,2.82,2.82,0,0,0-.49-.23,4.9,4.9,0,0,0-.69-.18,5.22,5.22,0,0,0-.94-.07H683a5.27,5.27,0,0,0-1.28.14,2.83,2.83,0,0,0-.91.41,2.09,2.09,0,0,0-.59.63,3.08,3.08,0,0,0-.34.83,5.11,5.11,0,0,0-.15,1c0,.36,0,.73,0,1.13v.35c0,.39,0,.77,0,1.13a5.13,5.13,0,0,0,.15,1,3,3,0,0,0,.34.83,2.35,2.35,0,0,0,.59.63,2.82,2.82,0,0,0,.91.4,4.78,4.78,0,0,0,1.28.15h.25A6.34,6.34,0,0,0,684.18,436.51Z" transform="translate(-596.17 -313.66)" style="fill:#0eb193"/><path d="M695.48,427a.39.39,0,0,1,.31.1.91.91,0,0,1,.07.41.6.6,0,0,1-.06.29.39.39,0,0,1-.13.15l-.16.06h-3.43v9.24a.26.26,0,0,1-.18.27,1.31,1.31,0,0,1-.41.06,1.07,1.07,0,0,1-.41-.07.25.25,0,0,1-.17-.26V428h-3.26a.36.36,0,0,1-.14,0,.26.26,0,0,1-.15-.07.52.52,0,0,1-.12-.16.63.63,0,0,1,0-.26,1.61,1.61,0,0,1,0-.26.5.5,0,0,1,0-.16.16.16,0,0,1,.12-.07l.18,0Z" transform="translate(-596.17 -313.66)" style="fill:#0eb193"/><path d="M702.32,435.17h-5.79l-.67,1.89a1.11,1.11,0,0,1-.16.31.47.47,0,0,1-.19.16.55.55,0,0,1-.22.06h-.24a.78.78,0,0,1-.22,0,.34.34,0,0,1-.15-.14.43.43,0,0,1-.06-.24,1.08,1.08,0,0,1,.07-.36l3.24-8.84a2,2,0,0,1,.26-.53,1.16,1.16,0,0,1,.3-.32,1.31,1.31,0,0,1,.37-.15,1.87,1.87,0,0,1,.42,0h.3a1.87,1.87,0,0,1,.42,0,1.2,1.2,0,0,1,.37.15,1.36,1.36,0,0,1,.31.32,2.4,2.4,0,0,1,.25.53l3.24,8.84a1.08,1.08,0,0,1,.07.36.43.43,0,0,1-.06.24.36.36,0,0,1-.16.14.65.65,0,0,1-.21,0h-.24a.55.55,0,0,1-.22-.06.54.54,0,0,1-.19-.16,1.11,1.11,0,0,1-.16-.31Zm-5.45-.93H702l-2.11-5.88a1,1,0,0,0-.17-.32.26.26,0,0,0-.19-.1h-.15a.26.26,0,0,0-.2.1,1,1,0,0,0-.17.32Z" transform="translate(-596.17 -313.66)" style="fill:#0eb193"/><path d="M715.12,435.17h-5.79l-.68,1.89a.9.9,0,0,1-.16.31.47.47,0,0,1-.19.16.51.51,0,0,1-.21.06h-.25a.78.78,0,0,1-.21,0,.36.36,0,0,1-.16-.14.43.43,0,0,1-.06-.24,1.13,1.13,0,0,1,.08-.36l3.23-8.84a2.38,2.38,0,0,1,.26-.53,1.19,1.19,0,0,1,.31-.32,1.14,1.14,0,0,1,.36-.15,1.91,1.91,0,0,1,.43,0h.3a1.87,1.87,0,0,1,.42,0,1.14,1.14,0,0,1,.36.15,1.06,1.06,0,0,1,.31.32,2.38,2.38,0,0,1,.26.53l3.23,8.84a.87.87,0,0,1,.07.36.43.43,0,0,1-.06.24.34.34,0,0,1-.15.14.78.78,0,0,1-.21,0h-.24a.55.55,0,0,1-.22-.06.47.47,0,0,1-.19-.16.9.9,0,0,1-.16-.31Zm-5.46-.93h5.12l-2.12-5.88a1,1,0,0,0-.16-.32.28.28,0,0,0-.2-.1h-.15a.28.28,0,0,0-.2.1,1,1,0,0,0-.16.32Z" transform="translate(-596.17 -313.66)" style="fill:#0eb193"/><path d="M621,455.52a1.12,1.12,0,0,1-.38-.06.5.5,0,0,1-.25-.09.26.26,0,0,1-.1-.22v-9.63a.45.45,0,0,1,.19-.35A.83.83,0,0,1,621,445h3.26a7.08,7.08,0,0,1,1.78.19,4,4,0,0,1,1.24.54,2.83,2.83,0,0,1,.8.82,3.87,3.87,0,0,1,.46,1.06,6.16,6.16,0,0,1,.21,1.25c0,.44.05.9.05,1.37v.05c0,.47,0,.93-.05,1.37a5.94,5.94,0,0,1-.21,1.24,3.56,3.56,0,0,1-.46,1,2.87,2.87,0,0,1-.8.83,3.81,3.81,0,0,1-1.24.53,7,7,0,0,1-1.78.2H621Zm3.23-9.47h-2.77l0,8.44h2.88a5.36,5.36,0,0,0,1.29-.14,2.66,2.66,0,0,0,.9-.39,1.78,1.78,0,0,0,.59-.6,3,3,0,0,0,.34-.81,4.91,4.91,0,0,0,.15-1c0-.35,0-.72,0-1.12v-.35c0-.4,0-.77,0-1.12a4.91,4.91,0,0,0-.15-1,3,3,0,0,0-.34-.81,1.9,1.9,0,0,0-.59-.61,2.66,2.66,0,0,0-.9-.39,5.4,5.4,0,0,0-1.29-.13h-.09Z" transform="translate(-596.17 -313.66)" style="fill:#0eb193"/><path d="M631.43,455.52a1.12,1.12,0,0,1-.38-.06.5.5,0,0,1-.25-.09.24.24,0,0,1-.1-.22v-9.63a.44.44,0,0,1,.18-.35.88.88,0,0,1,.55-.15h6.33a.31.31,0,0,1,.26.15.62.62,0,0,1,.1.37.46.46,0,0,1-.07.29.43.43,0,0,1-.18.15.6.6,0,0,1-.24.05h-5.76v3.65h4.8a.33.33,0,0,1,.26.14.56.56,0,0,1,.12.38.52.52,0,0,1,0,.23.38.38,0,0,1-.11.16.29.29,0,0,1-.14.08l-.15,0h-4.73v3.76h5.76a.85.85,0,0,1,.24.05.43.43,0,0,1,.18.15.51.51,0,0,1,.07.3.61.61,0,0,1-.1.36.31.31,0,0,1-.26.15h-6.33Z" transform="translate(-596.17 -313.66)" style="fill:#0eb193"/><path d="M640.93,451.53v3.75a.29.29,0,0,1,0,.17.34.34,0,0,1-.14.09.48.48,0,0,1-.18,0h-.21a1.33,1.33,0,0,1-.42-.06.24.24,0,0,1-.18-.26v-9.76a.45.45,0,0,1,.19-.35.88.88,0,0,1,.55-.15h2.61a9.24,9.24,0,0,1,1.81.16,4.09,4.09,0,0,1,1.4.54,2.79,2.79,0,0,1,.9,1,3.27,3.27,0,0,1,.32,1.51v.08a3.4,3.4,0,0,1-.3,1.5,2.53,2.53,0,0,1-.86,1,3.68,3.68,0,0,1-1.37.55,8.37,8.37,0,0,1-1.81.17h-2.27Zm0-1h2.43a4.34,4.34,0,0,0,2.27-.52,1.78,1.78,0,0,0,.74-1.61v-.2a2.72,2.72,0,0,0-.14-.89,1.46,1.46,0,0,0-.51-.67,2.61,2.61,0,0,0-1-.42,7.25,7.25,0,0,0-1.53-.14h-2.28Z" transform="translate(-596.17 -313.66)" style="fill:#0eb193"/><path d="M654.45,453.17h-5.79l-.68,1.89a.9.9,0,0,1-.15.31.54.54,0,0,1-.19.16.55.55,0,0,1-.22.06h-.25a.78.78,0,0,1-.21,0,.36.36,0,0,1-.16-.14.54.54,0,0,1,0-.24,1.08,1.08,0,0,1,.07-.36l3.23-8.84a2.38,2.38,0,0,1,.26-.53,1.36,1.36,0,0,1,.31-.32A1.14,1.14,0,0,1,651,445a2,2,0,0,1,.43,0h.3a1.87,1.87,0,0,1,.42,0,1.31,1.31,0,0,1,.37.15,1.16,1.16,0,0,1,.3.32,2,2,0,0,1,.26.53l3.23,8.84a1.13,1.13,0,0,1,.08.36.7.7,0,0,1-.06.24.36.36,0,0,1-.16.14.65.65,0,0,1-.21,0h-.24a.55.55,0,0,1-.22-.06.47.47,0,0,1-.19-.16,1.11,1.11,0,0,1-.16-.31Zm-5.45-.93h5.11L652,446.36a1,1,0,0,0-.17-.32.26.26,0,0,0-.19-.1h-.15a.3.3,0,0,0-.21.1,1,1,0,0,0-.16.32Z" transform="translate(-596.17 -313.66)" style="fill:#0eb193"/><path d="M660.86,446.05H658.7v9.23a.23.23,0,0,1-.05.17.25.25,0,0,1-.13.09.53.53,0,0,1-.19,0h-.21a1.27,1.27,0,0,1-.41-.06.24.24,0,0,1-.18-.26v-9.76a.42.42,0,0,1,.19-.35.83.83,0,0,1,.54-.15h2.6a8.85,8.85,0,0,1,1.82.14,4.58,4.58,0,0,1,1.47.54,2.82,2.82,0,0,1,1,1,3,3,0,0,1,.36,1.52v.08a3.19,3.19,0,0,1-.16,1.06,2.59,2.59,0,0,1-.44.82,2.9,2.9,0,0,1-.69.61,4.12,4.12,0,0,1-.9.41l2.2,3.9c.06.1.08.19,0,.25a.33.33,0,0,1-.17.16.77.77,0,0,1-.27.07,1.32,1.32,0,0,1-.27,0,.81.81,0,0,1-.31-.06.42.42,0,0,1-.24-.21l-2.16-3.88a5.48,5.48,0,0,1-.57.05h-2a.34.34,0,0,1-.3-.14.58.58,0,0,1-.1-.37.58.58,0,0,1,.1-.38.35.35,0,0,1,.3-.13H661a7.57,7.57,0,0,0,1.41-.12,3.32,3.32,0,0,0,1-.37,1.74,1.74,0,0,0,.66-.66,1.87,1.87,0,0,0,.24-1v-.2a2,2,0,0,0-.19-.89,1.55,1.55,0,0,0-.58-.67,3,3,0,0,0-1-.42,7.67,7.67,0,0,0-1.55-.14h-.11Z" transform="translate(-596.17 -313.66)" style="fill:#0eb193"/><path d="M674,445c.16,0,.26,0,.3.1a.79.79,0,0,1,.07.41.76.76,0,0,1-.05.29.41.41,0,0,1-.14.15.44.44,0,0,1-.16.06h-3.43v9.24a.26.26,0,0,1-.18.27,1.25,1.25,0,0,1-.4.06,1,1,0,0,1-.41-.07.25.25,0,0,1-.18-.26V446h-3.25a.39.39,0,0,1-.15,0,.34.34,0,0,1-.15-.07.5.5,0,0,1-.11-.16.63.63,0,0,1,0-.26,1.86,1.86,0,0,1,0-.26.34.34,0,0,1,.06-.16.14.14,0,0,1,.11-.07l.19,0Z" transform="translate(-596.17 -313.66)" style="fill:#0eb193"/><path d="M680.83,453.17H675l-.68,1.89a.9.9,0,0,1-.16.31.47.47,0,0,1-.19.16.51.51,0,0,1-.21.06h-.25a.78.78,0,0,1-.21,0,.36.36,0,0,1-.16-.14.43.43,0,0,1-.06-.24,1.13,1.13,0,0,1,.08-.36l3.23-8.84a2.38,2.38,0,0,1,.26-.53,1.19,1.19,0,0,1,.31-.32,1.14,1.14,0,0,1,.36-.15,1.91,1.91,0,0,1,.43,0h.3a1.87,1.87,0,0,1,.42,0,1.14,1.14,0,0,1,.36.15,1.06,1.06,0,0,1,.31.32,2.38,2.38,0,0,1,.26.53l3.23,8.84a.87.87,0,0,1,.07.36.43.43,0,0,1-.06.24.34.34,0,0,1-.15.14.78.78,0,0,1-.21,0h-.24a.55.55,0,0,1-.22-.06.47.47,0,0,1-.19-.16.9.9,0,0,1-.16-.31Zm-5.46-.93h5.12l-2.12-5.88a1,1,0,0,0-.16-.32.28.28,0,0,0-.2-.1h-.15a.28.28,0,0,0-.2.1,1,1,0,0,0-.16.32Z" transform="translate(-596.17 -313.66)" style="fill:#0eb193"/><path d="M689.76,455.58a1.38,1.38,0,0,1-.8-.37.91.91,0,0,1-.26-.45l-2.55-8.56a.27.27,0,0,0-.17-.2.57.57,0,0,0-.22,0h-.08a.17.17,0,0,0-.1,0,.23.23,0,0,0-.1.07.22.22,0,0,0-.05.12l-.81,9a.43.43,0,0,1-.12.22.67.67,0,0,1-.2.12,1,1,0,0,1-.23.06h-.22c-.18,0-.29,0-.35-.13a.61.61,0,0,1,0-.41l.84-9.18a.92.92,0,0,1,.22-.55,1,1,0,0,1,.39-.28,1.49,1.49,0,0,1,.44-.11h.46l.4,0a1.94,1.94,0,0,1,.45.14,1.28,1.28,0,0,1,.39.28,1.18,1.18,0,0,1,.24.49l2.55,8.56c0,.08.06.13.11.14l.12,0,.12,0c.05,0,.09-.06.11-.14l2.55-8.56a1.18,1.18,0,0,1,.24-.49,1.28,1.28,0,0,1,.39-.28,1.94,1.94,0,0,1,.45-.14l.4,0h.46a1.49,1.49,0,0,1,.44.11,1,1,0,0,1,.39.28,1,1,0,0,1,.22.55l.84,9.18a.61.61,0,0,1,0,.41.39.39,0,0,1-.35.13h-.22a.86.86,0,0,1-.23-.06.82.82,0,0,1-.2-.12.43.43,0,0,1-.12-.22l-.81-9a.22.22,0,0,0-.05-.12.28.28,0,0,0-.09-.07.19.19,0,0,0-.1,0h-.08a.62.62,0,0,0-.23,0,.27.27,0,0,0-.17.2l-2.55,8.56a.91.91,0,0,1-.26.45,1.14,1.14,0,0,1-.38.25,1.64,1.64,0,0,1-.4.12l-.3,0h0Z" transform="translate(-596.17 -313.66)" style="fill:#0eb193"/><path d="M699.2,455.52a1.12,1.12,0,0,1-.38-.06.5.5,0,0,1-.25-.09.24.24,0,0,1-.1-.22v-9.63a.44.44,0,0,1,.18-.35.88.88,0,0,1,.55-.15h6.33a.31.31,0,0,1,.26.15.62.62,0,0,1,.1.37.46.46,0,0,1-.07.29.43.43,0,0,1-.18.15.6.6,0,0,1-.24.05h-5.76v3.65h4.8a.33.33,0,0,1,.26.14.56.56,0,0,1,.12.38.52.52,0,0,1-.05.23.38.38,0,0,1-.11.16.29.29,0,0,1-.14.08l-.15,0h-4.73v3.76h5.76a.85.85,0,0,1,.24.05.43.43,0,0,1,.18.15.51.51,0,0,1,.07.3.61.61,0,0,1-.1.36.31.31,0,0,1-.26.15H699.2Z" transform="translate(-596.17 -313.66)" style="fill:#0eb193"/><path d="M716.07,455.28a.25.25,0,0,1-.14.26,1,1,0,0,1-.36.06,1.5,1.5,0,0,1-.37,0,.46.46,0,0,1-.26-.16l-6.22-8.27v8.12a.24.24,0,0,1-.06.17.5.5,0,0,1-.17.11.65.65,0,0,1-.21.06h-.23a1,1,0,0,1-.37-.06.25.25,0,0,1-.13-.26v-9.94a.38.38,0,0,1,.12-.3.57.57,0,0,1,.38-.11,1.06,1.06,0,0,1,.31,0,.55.55,0,0,1,.24.12h0l6.27,8.33v-7.94a.5.5,0,0,1,.19-.4.77.77,0,0,1,.48-.16.74.74,0,0,1,.38.08.4.4,0,0,1,.12.34Z" transform="translate(-596.17 -313.66)" style="fill:#0eb193"/><path d="M725.73,445a.39.39,0,0,1,.31.1.94.94,0,0,1,.06.41.76.76,0,0,1-.05.29.34.34,0,0,1-.14.15.44.44,0,0,1-.16.06h-3.43v9.24a.26.26,0,0,1-.18.27,1.25,1.25,0,0,1-.4.06,1,1,0,0,1-.41-.07.25.25,0,0,1-.18-.26V446H717.9a.41.41,0,0,1-.15,0,.27.27,0,0,1-.14-.07.4.4,0,0,1-.12-.16.63.63,0,0,1,0-.26,1.61,1.61,0,0,1,0-.26.34.34,0,0,1,0-.16.14.14,0,0,1,.11-.07l.19,0Z" transform="translate(-596.17 -313.66)" style="fill:#0eb193"/><path d="M731.41,444.93a7,7,0,0,1,1.77.2,3.69,3.69,0,0,1,1.25.55,2.84,2.84,0,0,1,.81.85,4,4,0,0,1,.46,1.08,6.14,6.14,0,0,1,.21,1.26c0,.44.05.9.05,1.38v.05c0,.48,0,.94-.05,1.38a6.14,6.14,0,0,1-.21,1.26,4.26,4.26,0,0,1-.46,1.09,2.81,2.81,0,0,1-.81.84,3.69,3.69,0,0,1-1.25.55,7,7,0,0,1-1.77.2h0a7.1,7.1,0,0,1-1.78-.2,3.88,3.88,0,0,1-1.25-.55,2.9,2.9,0,0,1-.8-.84,3.93,3.93,0,0,1-.46-1.09,6.14,6.14,0,0,1-.21-1.26c0-.44,0-.9,0-1.38v-.05c0-.48,0-.94,0-1.38a6.14,6.14,0,0,1,.21-1.26,3.75,3.75,0,0,1,.46-1.08,2.93,2.93,0,0,1,.8-.85,3.88,3.88,0,0,1,1.25-.55,7.1,7.1,0,0,1,1.78-.2Zm-.11,1a4.9,4.9,0,0,0-1.29.14,2.82,2.82,0,0,0-.91.4,2.16,2.16,0,0,0-.58.63,3.22,3.22,0,0,0-.34.83,6,6,0,0,0-.16,1c0,.36,0,.73,0,1.13v.35c0,.4,0,.77,0,1.13a6,6,0,0,0,.16,1,3.22,3.22,0,0,0,.34.83,2.16,2.16,0,0,0,.58.63,2.82,2.82,0,0,0,.91.4,4.9,4.9,0,0,0,1.29.14h.18a4.9,4.9,0,0,0,1.29-.14,2.67,2.67,0,0,0,.9-.4,2.2,2.2,0,0,0,.59-.63,3.22,3.22,0,0,0,.34-.83,5.11,5.11,0,0,0,.15-1c0-.36,0-.73,0-1.13v-.35c0-.4,0-.77,0-1.13a5.11,5.11,0,0,0-.15-1,3.22,3.22,0,0,0-.34-.83,2.2,2.2,0,0,0-.59-.63,2.67,2.67,0,0,0-.9-.4,4.9,4.9,0,0,0-1.29-.14Z" transform="translate(-596.17 -313.66)" style="fill:#0eb193"/><path d="M738.32,447.59a1.23,1.23,0,0,0,.2.7,1.66,1.66,0,0,0,.54.51,3.29,3.29,0,0,0,.8.37c.3.11.63.2,1,.29l1.07.25c.36.08.71.18,1.06.28a7.22,7.22,0,0,1,1,.36,3.54,3.54,0,0,1,.83.48,2.36,2.36,0,0,1,.58.68,2.19,2.19,0,0,1,.24.92,3,3,0,0,1,0,.58,2.33,2.33,0,0,1-.2.69,2.59,2.59,0,0,1-.46.69,2.8,2.8,0,0,1-.79.61,4.64,4.64,0,0,1-1.2.44,7.07,7.07,0,0,1-1.7.17,9.13,9.13,0,0,1-1.61-.13,7.85,7.85,0,0,1-1.32-.35,3.65,3.65,0,0,1-.91-.47.94.94,0,0,1-.39-.51.49.49,0,0,1,0-.25.31.31,0,0,1,.11-.16.38.38,0,0,1,.17-.08.57.57,0,0,1,.18,0,1.18,1.18,0,0,1,.5.17l.71.34a7.39,7.39,0,0,0,1,.33,6,6,0,0,0,1.44.15,5.73,5.73,0,0,0,1.26-.12,3.44,3.44,0,0,0,.89-.29,2,2,0,0,0,.58-.42,1.75,1.75,0,0,0,.33-.47,1.68,1.68,0,0,0,.16-.46,2.73,2.73,0,0,0,0-.37,1,1,0,0,0-.31-.76,2.36,2.36,0,0,0-.82-.52,6.59,6.59,0,0,0-1.16-.37l-1.33-.32c-.45-.1-.9-.22-1.34-.36a5.17,5.17,0,0,1-1.17-.51,2.74,2.74,0,0,1-.83-.75,2,2,0,0,1-.32-1.1,2.63,2.63,0,0,1,.23-1.13,2.4,2.4,0,0,1,.72-.9,3.51,3.51,0,0,1,1.19-.61,6.12,6.12,0,0,1,1.64-.23h.42l.69,0c.26,0,.54.07.84.13a5,5,0,0,1,.86.25,3,3,0,0,1,.75.41,1.7,1.7,0,0,1,.51.62.32.32,0,0,1,0,.33.44.44,0,0,1-.39.13,1.23,1.23,0,0,1-.51-.14c-.19-.09-.42-.19-.7-.3a8.14,8.14,0,0,0-1-.29A6.14,6.14,0,0,0,741,446a4.46,4.46,0,0,0-1.17.14,2.6,2.6,0,0,0-.82.38,1.44,1.44,0,0,0-.48.51A1.18,1.18,0,0,0,738.32,447.59Z" transform="translate(-596.17 -313.66)" style="fill:#0eb193"/><path d="M663.75,364.85h37.81V323.92H663.75ZM703,367.68H662.34a1.42,1.42,0,0,1-1.42-1.41V322.51a1.43,1.43,0,0,1,1.42-1.42H703a1.43,1.43,0,0,1,1.42,1.42v43.76a1.42,1.42,0,0,1-1.42,1.41" transform="translate(-596.17 -313.66)" style="fill:#e2b723"/><path d="M682.66,359.87a1.42,1.42,0,0,1-1.42-1.42V330.58a1.42,1.42,0,0,1,2.83,0v27.87a1.41,1.41,0,0,1-1.41,1.42" transform="translate(-596.17 -313.66)" style="fill:#e2b723"/><path d="M672.75,352.84a1.43,1.43,0,0,1-1.42-1.42v-6.78a1.42,1.42,0,0,1,2.83,0v6.78a1.42,1.42,0,0,1-1.41,1.42" transform="translate(-596.17 -313.66)" style="fill:#e2b723"/><path d="M671.27,343h3l-1.48-2.75Zm5.32,2.83h-7.68a1.42,1.42,0,0,1-1.22-.69,1.41,1.41,0,0,1,0-1.39l3.84-7.16a1.42,1.42,0,0,1,2.5,0l3.84,7.16a1.42,1.42,0,0,1-1.25,2.08" transform="translate(-596.17 -313.66)" style="fill:#e2b723"/><path d="M692.65,345.74a1.41,1.41,0,0,1-1.41-1.42v-6.77a1.42,1.42,0,1,1,2.83,0v6.77a1.41,1.41,0,0,1-1.42,1.42" transform="translate(-596.17 -313.66)" style="fill:#e2b723"/><path d="M691.18,346l1.47,2.76,1.48-2.76Zm1.47,7.17a1.4,1.4,0,0,1-1.24-.75l-3.84-7.16a1.42,1.42,0,0,1,1.24-2.09h7.69a1.42,1.42,0,0,1,1.24,2.09l-3.84,7.16a1.4,1.4,0,0,1-1.25.75" transform="translate(-596.17 -313.66)" style="fill:#e2b723"/></svg>