<svg id="Capa_1" data-name="Capa 1" xmlns="http://www.w3.org/2000/svg" viewBox="0 0 172.04 164.25"><defs><style>.cls-1{fill:#fff;}.cls-2{fill:none;stroke:#0eb193;stroke-miterlimit:10;stroke-width:2px;}.cls-3{font-size:15px;fill:#0eb193;font-family:Byom-Bold, Byom;font-weight:700;}.cls-4{letter-spacing:-0.02em;}.cls-5{font-family:Byom;font-weight:400;}.cls-6{letter-spacing:0.02em;}.cls-7{letter-spacing:0em;}.cls-8{letter-spacing:-0.01em;}.cls-9{letter-spacing:-0.11em;}.cls-10{letter-spacing:-0.09em;}.cls-11{letter-spacing:-0.04em;}.cls-12{letter-spacing:-0.11em;}.cls-13{letter-spacing:-0.02em;}.cls-14{fill:#e2b723;}</style></defs><rect class="cls-1" x="1" width="170.04" height="163.25"/><polyline class="cls-2" points="125.06 30.16 171.04 30.16 171.04 163.25 1 163.25 1 30.16 48.08 30.16"/><text class="cls-3" transform="translate(25.63 87.87)">ASCENSOR <tspan class="cls-4" x="83.86" y="0">O</tspan><tspan x="94.73" y="0">TIS </tspan><tspan class="cls-5"><tspan class="cls-6" x="16.77" y="18">C</tspan><tspan class="cls-7" x="26.29" y="18">ON SALI</tspan><tspan class="cls-8" x="81.95" y="18">D</tspan><tspan x="92.16" y="18">A </tspan><tspan x="23.42" y="36">DIREC</tspan><tspan class="cls-9" x="65.15" y="36">T</tspan><tspan x="72.72" y="36">A A </tspan><tspan x="-2.63" y="54">DE</tspan><tspan class="cls-10" x="16.84" y="54">P</tspan><tspan x="24.85" y="54">A</tspan><tspan class="cls-11" x="34.6" y="54">R</tspan><tspan class="cls-12" x="43.66" y="54">T</tspan><tspan x="51.22" y="54">AMEN</tspan><tspan class="cls-13" x="95.4" y="54">T</tspan><tspan x="104.23" y="54">OS</tspan></tspan></text><path class="cls-14" d="M468.44,371.85h37.81V330.92H468.44Zm39.22,2.83H467a1.42,1.42,0,0,1-1.42-1.41V329.51a1.43,1.43,0,0,1,1.42-1.42h40.63a1.43,1.43,0,0,1,1.42,1.42v43.76a1.42,1.42,0,0,1-1.42,1.41" transform="translate(-400.85 -320.66)"/><path class="cls-14" d="M487.34,366.87a1.41,1.41,0,0,1-1.41-1.42V337.58a1.42,1.42,0,0,1,2.83,0v27.87a1.41,1.41,0,0,1-1.42,1.42" transform="translate(-400.85 -320.66)"/><path class="cls-14" d="M477.44,359.84a1.43,1.43,0,0,1-1.42-1.42v-6.78a1.42,1.42,0,0,1,2.83,0v6.78a1.42,1.42,0,0,1-1.41,1.42" transform="translate(-400.85 -320.66)"/><path class="cls-14" d="M476,350h3l-1.47-2.75Zm5.32,2.83h-7.69a1.42,1.42,0,0,1-1.21-.69,1.38,1.38,0,0,1,0-1.39l3.84-7.16a1.42,1.42,0,0,1,1.25-.75,1.4,1.4,0,0,1,1.24.75l3.85,7.16a1.42,1.42,0,0,1-1.25,2.08" transform="translate(-400.85 -320.66)"/><path class="cls-14" d="M497.34,352.74a1.41,1.41,0,0,1-1.41-1.42v-6.77a1.42,1.42,0,1,1,2.83,0v6.77a1.42,1.42,0,0,1-1.42,1.42" transform="translate(-400.85 -320.66)"/><path class="cls-14" d="M495.86,353l1.48,2.76,1.48-2.76Zm1.48,7.17a1.43,1.43,0,0,1-1.25-.75l-3.84-7.16a1.43,1.43,0,0,1,0-1.4,1.39,1.39,0,0,1,1.21-.69h7.68a1.42,1.42,0,0,1,1.25,2.09l-3.84,7.16a1.43,1.43,0,0,1-1.25.75" transform="translate(-400.85 -320.66)"/></svg>