<svg id="Capa_1" data-name="Capa 1" xmlns="http://www.w3.org/2000/svg" viewBox="0 0 109.03 27.94"><defs><style>.cls-1{fill:#00af8e;}.cls-2{fill:#fff;}</style></defs><rect class="cls-1" width="109.03" height="27.94" rx="13.97"/><path class="cls-2" d="M638,393.33c.5-1.47,1-2.9,1.47-4.33a.58.58,0,0,0,0-.53,8.68,8.68,0,1,1,9.41,4.22,8.78,8.78,0,0,1-5.87-.78.56.56,0,0,0-.36,0l-4.35,1.38Zm2.17-2.12.36-.11,2.26-.71a.42.42,0,0,1,.33,0,7.41,7.41,0,0,0,5.1,1,7.25,7.25,0,1,0-7.26-3.07.39.39,0,0,1,.05.39c-.12.31-.22.63-.33.95C640.48,390.18,640.31,390.67,640.13,391.21Z" transform="translate(-628.99 -370.53)"/><path class="cls-2" d="M642.71,382.25a2.34,2.34,0,0,1,.71-1.59,1.35,1.35,0,0,1,1.14-.33.49.49,0,0,1,.29.26c.26.58.51,1.16.74,1.75a.43.43,0,0,1,0,.35,4.6,4.6,0,0,1-.49.67.37.37,0,0,0,0,.52,5.86,5.86,0,0,0,2.9,2.46.35.35,0,0,0,.44-.1c.21-.26.42-.51.62-.77a.35.35,0,0,1,.47-.15c.59.27,1.19.55,1.77.85a.46.46,0,0,1,.15.35,1.83,1.83,0,0,1-1.51,1.74,3,3,0,0,1-1.4-.09,8.2,8.2,0,0,1-4.76-3.47,5,5,0,0,1-.91-1.84A6,6,0,0,1,642.71,382.25Z" transform="translate(-628.99 -370.53)"/><path class="cls-2" d="M661.1,383.56h2.35v-1.8a.24.24,0,0,1,0-.14.42.42,0,0,1,.15-.11.68.68,0,0,1,.2-.07.83.83,0,0,1,.22,0,.55.55,0,0,1,.3.07c.07,0,.1.12.1.25v4.6a.25.25,0,0,1,0,.13s0,.07-.08.08a.4.4,0,0,1-.13,0h-.16l-.22,0a.65.65,0,0,1-.2-.05.47.47,0,0,1-.14-.08.2.2,0,0,1-.06-.14v-1.86H661.1v1.86a.2.2,0,0,1-.06.14.38.38,0,0,1-.15.09.65.65,0,0,1-.2,0l-.2,0h-.18l-.13,0a.2.2,0,0,1-.08-.08.44.44,0,0,1,0-.13v-4.6a.27.27,0,0,1,.1-.24.5.5,0,0,1,.31-.08l.22,0a.6.6,0,0,1,.19.06.42.42,0,0,1,.15.11.28.28,0,0,1,.05.16Z" transform="translate(-628.99 -370.53)"/><path class="cls-2" d="M667.77,386.48l-.23,0-.25,0-.29,0h-.34a1.52,1.52,0,0,1-.7-.14.9.9,0,0,1-.4-.37,1.34,1.34,0,0,1-.19-.54c0-.21,0-.44,0-.68v0a4.88,4.88,0,0,1,.06-.79,1.68,1.68,0,0,1,.2-.62,1.1,1.1,0,0,1,.4-.4,1.36,1.36,0,0,1,.67-.14h.46a3.62,3.62,0,0,1,.46.06,3.31,3.31,0,0,1,.45.12,1.46,1.46,0,0,1,.37.2.88.88,0,0,1,.25.29.72.72,0,0,1,.1.4v2.31a.21.21,0,0,1-.08.17.55.55,0,0,1-.17.1.78.78,0,0,1-.22,0l-.22,0Zm0-2.23a.86.86,0,0,0,0-.24.33.33,0,0,0-.12-.17.78.78,0,0,0-.26-.11,2.46,2.46,0,0,0-.43,0,.93.93,0,0,0-.32.05.41.41,0,0,0-.18.19.76.76,0,0,0-.09.29c0,.12,0,.26,0,.42v.41a2.54,2.54,0,0,0,0,.31.44.44,0,0,0,.09.22.35.35,0,0,0,.18.13,1,1,0,0,0,.32,0h.26l.23,0,.18,0,.13-.05,0,0h0Z" transform="translate(-628.99 -370.53)"/><path class="cls-2" d="M670.54,383.07l.29-.11.3-.06.27,0h.24a1.41,1.41,0,0,1,.66.13,1,1,0,0,1,.41.37,1.58,1.58,0,0,1,.21.55,4.72,4.72,0,0,1,.05.68v0a6.3,6.3,0,0,1-.05.79,2.05,2.05,0,0,1-.2.62,1.05,1.05,0,0,1-.41.4,1.33,1.33,0,0,1-.67.15h-.45l-.47,0a3.11,3.11,0,0,1-.44-.07,1.61,1.61,0,0,1-.37-.12.73.73,0,0,1-.26-.17.36.36,0,0,1-.09-.24v-4.26a.21.21,0,0,1,.07-.17.52.52,0,0,1,.18-.1l.22-.05h.33a.29.29,0,0,1,.1,0l.06.07a.37.37,0,0,1,0,.12Zm.84.63-.3,0-.26.06-.2.09a.14.14,0,0,0-.08.12v1.54a.13.13,0,0,0,0,.08.3.3,0,0,0,.13.07,1.09,1.09,0,0,0,.25.05l.43,0a.73.73,0,0,0,.32-.06.37.37,0,0,0,.19-.18.82.82,0,0,0,.09-.3c0-.12,0-.26,0-.42v-.41a1.38,1.38,0,0,0,0-.38.45.45,0,0,0-.1-.22.31.31,0,0,0-.18-.09Z" transform="translate(-628.99 -370.53)"/><path class="cls-2" d="M674.72,386.33a.18.18,0,0,1,0,.13.21.21,0,0,1-.11.08l-.16,0H674l-.15,0a.19.19,0,0,1-.11-.08.18.18,0,0,1,0-.13v-4.65a.57.57,0,0,1,0-.14.24.24,0,0,1,.06-.08.24.24,0,0,1,.1,0l.17,0,.18,0a.8.8,0,0,1,.21.05.51.51,0,0,1,.18.09.26.26,0,0,1,.07.16Z" transform="translate(-628.99 -370.53)"/><path class="cls-2" d="M678,386.48l-.22,0-.25,0-.29,0h-.34a1.57,1.57,0,0,1-.71-.14,1,1,0,0,1-.4-.37,1.5,1.5,0,0,1-.18-.54,4.88,4.88,0,0,1,0-.68v0a6.43,6.43,0,0,1,.05-.79,2.15,2.15,0,0,1,.2-.62,1.12,1.12,0,0,1,.41-.4,1.31,1.31,0,0,1,.67-.14h.45a3.78,3.78,0,0,1,.47.06,3.17,3.17,0,0,1,.44.12,1.31,1.31,0,0,1,.37.2.91.91,0,0,1,.26.29.82.82,0,0,1,.09.4v2.31a.21.21,0,0,1-.07.17.77.77,0,0,1-.18.1.78.78,0,0,1-.22,0l-.21,0Zm0-2.23a.88.88,0,0,0,0-.24.43.43,0,0,0-.13-.17.7.7,0,0,0-.26-.11,2.42,2.42,0,0,0-.42,0,.89.89,0,0,0-.32.05.44.44,0,0,0-.19.19.77.77,0,0,0-.08.29,2.68,2.68,0,0,0,0,.42v.41a1.42,1.42,0,0,0,0,.31.44.44,0,0,0,.08.22.38.38,0,0,0,.19.13.92.92,0,0,0,.32,0h.25l.23,0,.19,0,.13-.05,0,0h0Z" transform="translate(-628.99 -370.53)"/><path class="cls-2" d="M683.32,386.59a3.26,3.26,0,0,1-.67-.06,1.46,1.46,0,0,1-.46-.16.92.92,0,0,1-.29-.26,1.27,1.27,0,0,1-.17-.35,2.7,2.7,0,0,1-.07-.44c0-.16,0-.33,0-.51v-.14c0-.19,0-.36,0-.52a2.58,2.58,0,0,1,.07-.43,1.14,1.14,0,0,1,.17-.35.81.81,0,0,1,.29-.26,1.47,1.47,0,0,1,.46-.17,4.27,4.27,0,0,1,.67-.05,3.7,3.7,0,0,1,.6,0,2.24,2.24,0,0,1,.45.12.71.71,0,0,1,.29.2.43.43,0,0,1,.1.29.45.45,0,0,1,0,.11.18.18,0,0,1,0,.1.24.24,0,0,1-.09.08.26.26,0,0,1-.14,0l-.2,0-.27-.05-.32,0-.4,0-.33,0a.36.36,0,0,0-.2.11.45.45,0,0,0-.11.24c0,.11,0,.25,0,.43V385c0,.14,0,.26,0,.36a.49.49,0,0,0,.07.25.35.35,0,0,0,.2.15,1,1,0,0,0,.38.06,3.23,3.23,0,0,0,.46,0l.36-.06.2,0,.17,0a.26.26,0,0,1,.14,0,.22.22,0,0,1,.09.07.21.21,0,0,1,0,.11.37.37,0,0,1,0,.11.45.45,0,0,1-.1.29.82.82,0,0,1-.29.2,2.24,2.24,0,0,1-.45.12A5.32,5.32,0,0,1,683.32,386.59Z" transform="translate(-628.99 -370.53)"/><path class="cls-2" d="M687,386.59a3.11,3.11,0,0,1-.66-.07,1.51,1.51,0,0,1-.48-.2,1,1,0,0,1-.3-.29,1.46,1.46,0,0,1-.18-.38,2,2,0,0,1-.08-.44,3.77,3.77,0,0,1,0-.48h0a3.85,3.85,0,0,1,0-.48,1.93,1.93,0,0,1,.08-.43,1.21,1.21,0,0,1,.18-.38,1,1,0,0,1,.3-.3,1.5,1.5,0,0,1,.48-.19,2.57,2.57,0,0,1,.66-.07h0a2.52,2.52,0,0,1,.66.07,1.5,1.5,0,0,1,.48.19.86.86,0,0,1,.3.3,1.21,1.21,0,0,1,.18.38,2.72,2.72,0,0,1,.09.43c0,.16,0,.32,0,.48h0c0,.17,0,.32,0,.48a2.85,2.85,0,0,1-.09.44,1.46,1.46,0,0,1-.18.38.93.93,0,0,1-.3.29,1.51,1.51,0,0,1-.48.2,3,3,0,0,1-.66.07Zm0-.8a.92.92,0,0,0,.41-.07.46.46,0,0,0,.22-.19.75.75,0,0,0,.09-.31,2.68,2.68,0,0,0,0-.42v-.15a2.62,2.62,0,0,0,0-.41.67.67,0,0,0-.09-.31.48.48,0,0,0-.22-.2,1.11,1.11,0,0,0-.41-.06h0a1.15,1.15,0,0,0-.41.06.48.48,0,0,0-.22.2.67.67,0,0,0-.09.31c0,.12,0,.26,0,.41v.15c0,.16,0,.3,0,.42a.75.75,0,0,0,.09.31.46.46,0,0,0,.22.19.94.94,0,0,0,.41.07Z" transform="translate(-628.99 -370.53)"/><path class="cls-2" d="M690.53,386.33a.25.25,0,0,1,0,.13.21.21,0,0,1-.11.08l-.16,0h-.36l-.16,0a.19.19,0,0,1-.11-.08.18.18,0,0,1,0-.13v-2.81c0-.21.17-.37.51-.49a5.61,5.61,0,0,1,1.57-.16,1.33,1.33,0,0,1,.67.14,1.12,1.12,0,0,1,.41.4,2.15,2.15,0,0,1,.2.62,6.43,6.43,0,0,1,.05.79v1.51a.18.18,0,0,1,0,.13.18.18,0,0,1-.11.08l-.16,0h-.36l-.16,0a.23.23,0,0,1-.11-.08.25.25,0,0,1,0-.13v-1.68c0-.16,0-.3,0-.42a.77.77,0,0,0-.08-.29.44.44,0,0,0-.19-.19.93.93,0,0,0-.32-.05H691a.78.78,0,0,0-.24,0,.32.32,0,0,0-.14.05l-.07.06a.22.22,0,0,0,0,.08v2.4Z" transform="translate(-628.99 -370.53)"/><path class="cls-2" d="M698.15,383.13a.2.2,0,0,1,0-.14.24.24,0,0,1,.11-.08.37.37,0,0,1,.15,0h.37a.41.41,0,0,1,.16,0l.11.08a.29.29,0,0,1,0,.14V386a.39.39,0,0,1-.13.27,1.18,1.18,0,0,1-.39.18,4.27,4.27,0,0,1-.65.1c-.26,0-.57,0-.92,0a1.33,1.33,0,0,1-.67-.15,1,1,0,0,1-.4-.4,1.62,1.62,0,0,1-.2-.62,4.79,4.79,0,0,1-.06-.79v-1.5a.26.26,0,0,1,0-.14l.11-.08a.41.41,0,0,1,.16,0h.37a.37.37,0,0,1,.15,0,.24.24,0,0,1,.11.08.21.21,0,0,1,0,.14v1.67c0,.16,0,.3,0,.42a.82.82,0,0,0,.09.3.39.39,0,0,0,.18.18.73.73,0,0,0,.32.06h.52a.89.89,0,0,0,.25-.05s.07,0,.07-.07,0-.07,0-.12Z" transform="translate(-628.99 -370.53)"/><path class="cls-2" d="M701,386.33a.18.18,0,0,1,0,.13.18.18,0,0,1-.11.08l-.16,0h-.36l-.16,0a.23.23,0,0,1-.11-.08.18.18,0,0,1,0-.13v-2.81c0-.21.17-.37.52-.49a5.52,5.52,0,0,1,1.57-.16,1.29,1.29,0,0,1,.66.14,1.05,1.05,0,0,1,.41.4,1.88,1.88,0,0,1,.2.62,4.88,4.88,0,0,1,.06.79v1.51a.19.19,0,0,1,0,.13.15.15,0,0,1-.11.08l-.15,0h-.37l-.16,0a.2.2,0,0,1-.1-.08.18.18,0,0,1,0-.13v-1.68a2.58,2.58,0,0,0,0-.42.77.77,0,0,0-.08-.29.41.41,0,0,0-.18-.19,1,1,0,0,0-.33-.05h-.37a.81.81,0,0,0-.25,0,.38.38,0,0,0-.14.05.17.17,0,0,0-.06.06.12.12,0,0,0,0,.08v2.4Z" transform="translate(-628.99 -370.53)"/><path class="cls-2" d="M708.54,386.48l-.23,0-.25,0-.29,0h-.34a1.52,1.52,0,0,1-.7-.14.9.9,0,0,1-.4-.37,1.34,1.34,0,0,1-.19-.54c0-.21,0-.44,0-.68v0a4.88,4.88,0,0,1,.06-.79,1.68,1.68,0,0,1,.2-.62,1.1,1.1,0,0,1,.4-.4,1.36,1.36,0,0,1,.67-.14h.45a3.55,3.55,0,0,1,.47.06,3.31,3.31,0,0,1,.45.12,1.46,1.46,0,0,1,.37.2.88.88,0,0,1,.25.29.72.72,0,0,1,.1.4v2.31a.21.21,0,0,1-.08.17.55.55,0,0,1-.17.1.85.85,0,0,1-.23,0l-.21,0Zm0-2.23a.86.86,0,0,0,0-.24.3.3,0,0,0-.13-.17.65.65,0,0,0-.25-.11,2.46,2.46,0,0,0-.43,0,.93.93,0,0,0-.32.05.41.41,0,0,0-.18.19.76.76,0,0,0-.09.29c0,.12,0,.26,0,.42v.41a2.54,2.54,0,0,0,0,.31.44.44,0,0,0,.09.22.35.35,0,0,0,.18.13,1,1,0,0,0,.32,0H708l.23,0,.18,0,.13-.05,0,0h0Z" transform="translate(-628.99 -370.53)"/><path class="cls-2" d="M711.34,384a.16.16,0,0,0,.09.14.67.67,0,0,0,.24.09l.34.07.39.09a2.91,2.91,0,0,1,.39.12,1.05,1.05,0,0,1,.34.2,1,1,0,0,1,.24.29,1,1,0,0,1,.09.44,2.09,2.09,0,0,1,0,.24,1.53,1.53,0,0,1-.08.26,1.17,1.17,0,0,1-.16.25.8.8,0,0,1-.26.21,2,2,0,0,1-.41.15,2.46,2.46,0,0,1-.58.06l-.57,0a2.53,2.53,0,0,1-.52-.1,1,1,0,0,1-.38-.21.46.46,0,0,1-.15-.36.31.31,0,0,1,.07-.2.23.23,0,0,1,.2-.09l.2,0,.32.06.39.06.39,0h.22l.18-.05a.27.27,0,0,0,.12-.09.22.22,0,0,0,.05-.14.19.19,0,0,0-.1-.17.67.67,0,0,0-.24-.11l-.34-.09-.39-.08-.39-.12a1.33,1.33,0,0,1-.35-.2,1,1,0,0,1-.24-.29.87.87,0,0,1-.09-.42,1.1,1.1,0,0,1,.11-.49.92.92,0,0,1,.3-.35,1.36,1.36,0,0,1,.47-.22,2.25,2.25,0,0,1,.6-.07H712l.29,0,.33.06a1,1,0,0,1,.31.11.79.79,0,0,1,.25.19.48.48,0,0,1,.12.29.49.49,0,0,1,0,.12.3.3,0,0,1,0,.1.32.32,0,0,1-.09.08.33.33,0,0,1-.15,0l-.24,0-.31-.06-.34-.06-.34,0a.7.7,0,0,0-.32.06A.24.24,0,0,0,711.34,384Z" transform="translate(-628.99 -370.53)"/><path class="cls-2" d="M716.68,385l-.39.08-.43.06-.44.05-.43.05a1.43,1.43,0,0,0,0,.22.46.46,0,0,0,.11.16.39.39,0,0,0,.2.11,1.34,1.34,0,0,0,.33,0,2.38,2.38,0,0,0,.39,0l.33,0,.26-.06.2,0a.33.33,0,0,1,.15,0,.27.27,0,0,1,.08.07.21.21,0,0,1,0,.11.37.37,0,0,1,0,.11.45.45,0,0,1-.1.29.82.82,0,0,1-.29.2,2.07,2.07,0,0,1-.45.12,5.32,5.32,0,0,1-.6,0,3.26,3.26,0,0,1-.67-.06,1.46,1.46,0,0,1-.46-.16.92.92,0,0,1-.29-.26,1,1,0,0,1-.17-.35,1.93,1.93,0,0,1-.07-.44c0-.16,0-.33,0-.51a4.83,4.83,0,0,1,.06-.8,1.29,1.29,0,0,1,.25-.61,1.22,1.22,0,0,1,.51-.4,2.46,2.46,0,0,1,.89-.13,3.16,3.16,0,0,1,.64.06,1.46,1.46,0,0,1,.51.19,1.07,1.07,0,0,1,.36.34,1.28,1.28,0,0,1,.16.51,1.21,1.21,0,0,1,0,.38.76.76,0,0,1-.1.3.78.78,0,0,1-.23.21A1.21,1.21,0,0,1,716.68,385Zm-.83-1.36a1.29,1.29,0,0,0-.44.06.62.62,0,0,0-.26.17.65.65,0,0,0-.12.28,3.71,3.71,0,0,0,0,.38l.3,0,.32,0,.3,0,.26,0a.35.35,0,0,0,.22-.11.27.27,0,0,0,.06-.17.46.46,0,0,0-.05-.21.37.37,0,0,0-.13-.15.54.54,0,0,0-.19-.08A.85.85,0,0,0,715.85,383.64Z" transform="translate(-628.99 -370.53)"/><path class="cls-2" d="M719,384a.16.16,0,0,0,.09.14.73.73,0,0,0,.25.09l.34.07.39.09a2.91,2.91,0,0,1,.39.12,1.17,1.17,0,0,1,.34.2,1,1,0,0,1,.24.29,1,1,0,0,1,.09.44,1.06,1.06,0,0,1,0,.24.92.92,0,0,1-.07.26,1.17,1.17,0,0,1-.16.25,1,1,0,0,1-.27.21,1.77,1.77,0,0,1-.41.15,2.37,2.37,0,0,1-.57.06l-.57,0a2.4,2.4,0,0,1-.52-.1.92.92,0,0,1-.38-.21.46.46,0,0,1-.15-.36.36.36,0,0,1,.06-.2.25.25,0,0,1,.21-.09l.19,0,.33.06.39.06.39,0h.21l.18-.05a.25.25,0,0,0,.13-.09.21.21,0,0,0,0-.14.2.2,0,0,0-.09-.17.67.67,0,0,0-.24-.11l-.34-.09-.39-.08-.4-.12a1.45,1.45,0,0,1-.34-.2.76.76,0,0,1-.24-.29A.87.87,0,0,1,718,384a1,1,0,0,1,.11-.49.92.92,0,0,1,.3-.35,1.4,1.4,0,0,1,.46-.22,2.3,2.3,0,0,1,.6-.07h.19l.29,0,.33.06a1.15,1.15,0,0,1,.31.11.79.79,0,0,1,.25.19.54.54,0,0,1,.11.29.48.48,0,0,1,0,.12.19.19,0,0,1-.05.1.18.18,0,0,1-.09.08.29.29,0,0,1-.14,0l-.24,0-.31-.06-.35-.06a1.93,1.93,0,0,0-.33,0,.75.75,0,0,0-.33.06A.24.24,0,0,0,719,384Z" transform="translate(-628.99 -370.53)"/><path class="cls-2" d="M723.41,386.59a3.13,3.13,0,0,1-.67-.07,1.51,1.51,0,0,1-.48-.2,1,1,0,0,1-.3-.29,1.46,1.46,0,0,1-.18-.38,2,2,0,0,1-.08-.44,3.77,3.77,0,0,1,0-.48h0a3.85,3.85,0,0,1,0-.48,1.93,1.93,0,0,1,.08-.43,1.21,1.21,0,0,1,.18-.38,1,1,0,0,1,.3-.3,1.5,1.5,0,0,1,.48-.19,2.6,2.6,0,0,1,.67-.07h0a2.65,2.65,0,0,1,.67.07,1.54,1.54,0,0,1,.47.19.86.86,0,0,1,.3.3,1.21,1.21,0,0,1,.18.38,2.72,2.72,0,0,1,.09.43c0,.16,0,.32,0,.48h0c0,.17,0,.32,0,.48a2.85,2.85,0,0,1-.09.44,1.46,1.46,0,0,1-.18.38.93.93,0,0,1-.3.29,1.55,1.55,0,0,1-.47.2,3.21,3.21,0,0,1-.67.07Zm0-.8a.92.92,0,0,0,.41-.07.42.42,0,0,0,.22-.19.75.75,0,0,0,.09-.31,2.68,2.68,0,0,0,0-.42v-.15a2.62,2.62,0,0,0,0-.41.67.67,0,0,0-.09-.31.43.43,0,0,0-.22-.2,1.11,1.11,0,0,0-.41-.06h-.05a1.15,1.15,0,0,0-.41.06.48.48,0,0,0-.22.2.67.67,0,0,0-.09.31c0,.12,0,.26,0,.41v.15c0,.16,0,.3,0,.42a.75.75,0,0,0,.09.31.46.46,0,0,0,.22.19.94.94,0,0,0,.41.07Z" transform="translate(-628.99 -370.53)"/><path class="cls-2" d="M727.68,382.87a1.13,1.13,0,0,1,.63.16.45.45,0,0,1,.22.4.49.49,0,0,1,0,.12.18.18,0,0,1,0,.1.16.16,0,0,1-.09.07.26.26,0,0,1-.14,0h-.14l-.12,0-.16,0h-.28l-.31,0-.18.06a.2.2,0,0,0-.1.07.25.25,0,0,0,0,.07v2.42a.18.18,0,0,1,0,.13.21.21,0,0,1-.11.08l-.16,0h-.36l-.16,0a.23.23,0,0,1-.11-.08.18.18,0,0,1,0-.13v-2.82a.31.31,0,0,1,.08-.21.85.85,0,0,1,.2-.17,2.08,2.08,0,0,1,.3-.13l.37-.08a2.58,2.58,0,0,1,.39,0Z" transform="translate(-628.99 -370.53)"/></svg>