<svg id="Capa_1" data-name="Capa 1" xmlns="http://www.w3.org/2000/svg" viewBox="0 0 165.77 52.67"><defs><style>.cls-1{fill:#0cb092;}.cls-2{fill:#e2b723;}.cls-3{fill:#00a284;}</style></defs><path class="cls-1" d="M766.38,410.83H629.85V358.17H766.38ZM632.69,408H763.55V361H632.69Z" transform="translate(-600.62 -358.17)"/><path class="cls-1" d="M653.24,368.88l.2,0h.26a8.49,8.49,0,0,1,.95.06,6.64,6.64,0,0,1,1.05.19,5.59,5.59,0,0,1,1,.39,3.19,3.19,0,0,1,.89.65,3.06,3.06,0,0,1,.63,1,3.67,3.67,0,0,1,.23,1.35v0a2.82,2.82,0,0,1-.13.91,2.24,2.24,0,0,1-.35.69,2.11,2.11,0,0,1-.54.49,3.32,3.32,0,0,1-.68.34,4.45,4.45,0,0,1,.93.32,2.71,2.71,0,0,1,.77.53,2.4,2.4,0,0,1,.52.81,3,3,0,0,1,.19,1.14v0a4.07,4.07,0,0,1-.2,1.34,3,3,0,0,1-.55,1,2.72,2.72,0,0,1-.8.63,4.6,4.6,0,0,1-.95.38,6,6,0,0,1-1,.18,8.52,8.52,0,0,1-1,.05h-.88c-.27,0-.5,0-.68,0h-2.88a2.86,2.86,0,0,1-.68-.06.57.57,0,0,1-.35-.24,1,1,0,0,1-.14-.46c0-.2,0-.45,0-.77v-9.88a.88.88,0,0,1,.06-.29.82.82,0,0,1,.2-.33,1.11,1.11,0,0,1,.39-.26,1.55,1.55,0,0,1,.61-.11Zm.16,5.15a4.15,4.15,0,0,0,1.86-.34,1.25,1.25,0,0,0,.72-1.11v-.09a1.29,1.29,0,0,0-.18-.71,1.2,1.2,0,0,0-.54-.44,3,3,0,0,0-.89-.23,9.13,9.13,0,0,0-1.24-.07h-1.59v8.08h2.05c.62,0,1.12,0,1.53-.06a3.4,3.4,0,0,0,1-.2.89.89,0,0,0,.48-.4,1.45,1.45,0,0,0,.14-.71,1.76,1.76,0,0,0-.14-.73,1.06,1.06,0,0,0-.5-.48,3.1,3.1,0,0,0-.95-.27,12.9,12.9,0,0,0-1.53-.07h-.81a.62.62,0,0,1-.37-.11.75.75,0,0,1-.23-.27,1.21,1.21,0,0,1-.13-.35,2.19,2.19,0,0,1,0-.36c0-.11,0-.23,0-.35a1.2,1.2,0,0,1,.11-.35.71.71,0,0,1,.21-.27.58.58,0,0,1,.37-.11Z" transform="translate(-600.62 -358.17)"/><path class="cls-1" d="M665.65,371h-2v9.72a.53.53,0,0,1-.11.34.73.73,0,0,1-.29.19,1.47,1.47,0,0,1-.4.09h-.44a3.93,3.93,0,0,1-.49,0,1.12,1.12,0,0,1-.39-.09.63.63,0,0,1-.28-.19.52.52,0,0,1-.1-.33V369.89a.25.25,0,0,1,0-.1,2.33,2.33,0,0,1,.09-.29,1,1,0,0,1,.21-.3,1.33,1.33,0,0,1,1-.32h3.29a9,9,0,0,1,1,0,8.18,8.18,0,0,1,1.18.17,5.47,5.47,0,0,1,1.18.4,3.17,3.17,0,0,1,1,.71,3.58,3.58,0,0,1,.73,1.1,4.12,4.12,0,0,1,.27,1.57v0a4.22,4.22,0,0,1-.2,1.35,3.37,3.37,0,0,1-.55,1,3.15,3.15,0,0,1-.79.71,4.9,4.9,0,0,1-.95.46l2.36,4a.51.51,0,0,1,.08.34.5.5,0,0,1-.15.26,1.33,1.33,0,0,1-.31.18,1.9,1.9,0,0,1-.39.11l-.4.07h-.33a1.84,1.84,0,0,1-.64-.11.85.85,0,0,1-.47-.4L666,376.82h-1.26a.56.56,0,0,1-.53-.32,1.63,1.63,0,0,1-.16-.77c0-.14,0-.28,0-.42a1.13,1.13,0,0,1,.11-.34.54.54,0,0,1,.22-.23.64.64,0,0,1,.36-.09h1a6.58,6.58,0,0,0,1.39-.12,2.21,2.21,0,0,0,.83-.34,1.13,1.13,0,0,0,.42-.53,2,2,0,0,0,.12-.72v-.09a2.57,2.57,0,0,0-.1-.77,1.07,1.07,0,0,0-.42-.57,2.28,2.28,0,0,0-.87-.35,7.18,7.18,0,0,0-1.46-.12h-.09Z" transform="translate(-600.62 -358.17)"/><path class="cls-1" d="M677.53,381.4a8.59,8.59,0,0,1-2.17-.23,4.94,4.94,0,0,1-1.52-.64,3.19,3.19,0,0,1-1-1,4.55,4.55,0,0,1-.56-1.27,7.82,7.82,0,0,1-.26-1.5c0-.53,0-1.08,0-1.66v-.05c0-.56,0-1.12,0-1.65a7.82,7.82,0,0,1,.26-1.5,4.61,4.61,0,0,1,.56-1.28,3.27,3.27,0,0,1,1-1,4.94,4.94,0,0,1,1.52-.65,9.08,9.08,0,0,1,2.17-.23h.07a9.08,9.08,0,0,1,2.17.23,4.94,4.94,0,0,1,1.52.65,3.27,3.27,0,0,1,1,1,4.61,4.61,0,0,1,.56,1.28,7.82,7.82,0,0,1,.26,1.5c0,.53,0,1.09,0,1.65v.05c0,.57,0,1.12,0,1.66a7.82,7.82,0,0,1-.26,1.5,4.55,4.55,0,0,1-.56,1.27,3.19,3.19,0,0,1-1,1,4.94,4.94,0,0,1-1.52.64,8.59,8.59,0,0,1-2.17.23Zm0-10.45a4.62,4.62,0,0,0-1.58.22,1.83,1.83,0,0,0-.92.68,2.83,2.83,0,0,0-.42,1.2,12.62,12.62,0,0,0-.11,1.76v.55a12.78,12.78,0,0,0,.11,1.77,2.88,2.88,0,0,0,.42,1.2,2,2,0,0,0,.92.68,4.91,4.91,0,0,0,1.58.21h.11a4.91,4.91,0,0,0,1.58-.21,2,2,0,0,0,.92-.68,2.88,2.88,0,0,0,.42-1.2,12.78,12.78,0,0,0,.11-1.77v-.55a12.62,12.62,0,0,0-.11-1.76,2.83,2.83,0,0,0-.42-1.2,1.83,1.83,0,0,0-.92-.68,4.62,4.62,0,0,0-1.58-.22Z" transform="translate(-600.62 -358.17)"/><path class="cls-1" d="M692.62,368.91a4.7,4.7,0,0,1,1.26.38,2.11,2.11,0,0,1,.8.6,1.24,1.24,0,0,1,.28.78,1.22,1.22,0,0,1-.22.66.76.76,0,0,1-.29.24,1,1,0,0,1-.43.09,1.62,1.62,0,0,1-.4-.05,3.19,3.19,0,0,1-.35-.14l-.39-.17a2.91,2.91,0,0,0-.5-.18,5.16,5.16,0,0,0-.68-.13,6.17,6.17,0,0,0-.92-.06h-.13a4.59,4.59,0,0,0-1.58.23,1.73,1.73,0,0,0-.91.69,2.71,2.71,0,0,0-.43,1.2,12.62,12.62,0,0,0-.11,1.76v.55a12.78,12.78,0,0,0,.11,1.77,2.75,2.75,0,0,0,.43,1.2,1.88,1.88,0,0,0,.91.68,4.91,4.91,0,0,0,1.58.21h.13a6.29,6.29,0,0,0,.92-.05c.26,0,.48-.08.68-.13a4.1,4.1,0,0,0,.5-.18l.39-.18.35-.13a1.62,1.62,0,0,1,.4-.05,1,1,0,0,1,.43.09.89.89,0,0,1,.29.25,1.23,1.23,0,0,1,.22.65,1.24,1.24,0,0,1-.28.78,2.11,2.11,0,0,1-.8.6,4.7,4.7,0,0,1-1.26.38,9.2,9.2,0,0,1-1.65.13h-.3a9.12,9.12,0,0,1-2.17-.22,4.71,4.71,0,0,1-1.52-.64,3.19,3.19,0,0,1-1-1,4.55,4.55,0,0,1-.56-1.27,7.86,7.86,0,0,1-.26-1.49c0-.53,0-1.08,0-1.66v-.05c0-.56,0-1.12,0-1.65a7.82,7.82,0,0,1,.26-1.5,4.61,4.61,0,0,1,.56-1.28,3.27,3.27,0,0,1,1-1,4.94,4.94,0,0,1,1.52-.65,9.08,9.08,0,0,1,2.17-.23h.3A9.15,9.15,0,0,1,692.62,368.91Z" transform="translate(-600.62 -358.17)"/><path class="cls-1" d="M698.88,374h5.3l.42,0v-4.4a.54.54,0,0,1,.14-.35,1.06,1.06,0,0,1,.35-.27,2.35,2.35,0,0,1,.49-.17,2.39,2.39,0,0,1,.53-.06,1.45,1.45,0,0,1,.75.15.7.7,0,0,1,.24.63v11.2a.82.82,0,0,1-.07.34.52.52,0,0,1-.2.19.93.93,0,0,1-.32.09h-.4a4.71,4.71,0,0,1-.53,0,1.88,1.88,0,0,1-.48-.12,1.07,1.07,0,0,1-.36-.21.48.48,0,0,1-.14-.34v-4.52h-5.72v4.52a.47.47,0,0,1-.15.35,1,1,0,0,1-.37.21,1.87,1.87,0,0,1-.48.11l-.49,0a2.89,2.89,0,0,1-.44,0,.71.71,0,0,1-.31-.09.41.41,0,0,1-.2-.19.81.81,0,0,1-.06-.33v-11.2a.7.7,0,0,1,.25-.59,1.26,1.26,0,0,1,.76-.19,3.27,3.27,0,0,1,.53.05,2.15,2.15,0,0,1,.47.14,1,1,0,0,1,.35.26.61.61,0,0,1,.14.4Z" transform="translate(-600.62 -358.17)"/><path class="cls-1" d="M711.94,375.1c0,.68,0,1.28.08,1.8a3.28,3.28,0,0,0,.36,1.29,1.86,1.86,0,0,0,.86.78,3.89,3.89,0,0,0,1.55.25h.11a3.89,3.89,0,0,0,1.55-.25,1.81,1.81,0,0,0,.86-.78,3.28,3.28,0,0,0,.37-1.29c.05-.52.07-1.12.07-1.8v-5.37a.72.72,0,0,1,.13-.44.89.89,0,0,1,.32-.29,1.28,1.28,0,0,1,.45-.17,2.37,2.37,0,0,1,.52-.06,1.48,1.48,0,0,1,.8.19.67.67,0,0,1,.28.59v5.32c0,.56,0,1.12,0,1.66a8.16,8.16,0,0,1-.22,1.54,5.26,5.26,0,0,1-.52,1.34,3.24,3.24,0,0,1-.94,1,4.23,4.23,0,0,1-1.48.69,7.91,7.91,0,0,1-2.16.25h-.07a8,8,0,0,1-2.16-.25,4.32,4.32,0,0,1-1.48-.69,3.24,3.24,0,0,1-.94-1,5.26,5.26,0,0,1-.52-1.34,8.39,8.39,0,0,1-.22-1.55c0-.54,0-1.1,0-1.67v-5.3a.69.69,0,0,1,.28-.59,1.5,1.5,0,0,1,.8-.19,2.24,2.24,0,0,1,.52.06,1.28,1.28,0,0,1,.45.17.85.85,0,0,1,.33.29.78.78,0,0,1,.12.44Z" transform="translate(-600.62 -358.17)"/><path class="cls-1" d="M727.11,371h-2v9.72a.48.48,0,0,1-.11.34.63.63,0,0,1-.28.19,1.47,1.47,0,0,1-.4.09h-.44a3.78,3.78,0,0,1-.49,0,1.24,1.24,0,0,1-.4-.09.66.66,0,0,1-.27-.19.52.52,0,0,1-.1-.33V369.89a.25.25,0,0,1,0-.1,1,1,0,0,1,.09-.29.75.75,0,0,1,.21-.3,1.46,1.46,0,0,1,.37-.23,1.57,1.57,0,0,1,.58-.09h3.29a9,9,0,0,1,1,0,8.18,8.18,0,0,1,1.18.17,5.66,5.66,0,0,1,1.18.4,3.36,3.36,0,0,1,1.74,1.81,3.93,3.93,0,0,1,.28,1.57v0a4,4,0,0,1-.21,1.35,3.14,3.14,0,0,1-.54,1,3.33,3.33,0,0,1-.79.71,4.9,4.9,0,0,1-1,.46l2.36,4a.58.58,0,0,1,.08.34.46.46,0,0,1-.16.26,1.09,1.09,0,0,1-.3.18,1.9,1.9,0,0,1-.39.11l-.4.07h-.33a1.8,1.8,0,0,1-.64-.11.9.9,0,0,1-.48-.4l-2.31-4.05h-1.26a.55.55,0,0,1-.53-.32,1.63,1.63,0,0,1-.16-.77,3,3,0,0,1,0-.42.91.91,0,0,1,.11-.34.52.52,0,0,1,.21-.23.69.69,0,0,1,.36-.09h1a6.41,6.41,0,0,0,1.38-.12,2.19,2.19,0,0,0,.84-.34,1.13,1.13,0,0,0,.42-.53,2.26,2.26,0,0,0,.12-.72v-.09a2.57,2.57,0,0,0-.1-.77,1.13,1.13,0,0,0-.42-.57,2.35,2.35,0,0,0-.87-.35,7.18,7.18,0,0,0-1.46-.12h-.09Z" transform="translate(-600.62 -358.17)"/><path class="cls-1" d="M735.48,381.28h-.13l-.49,0a1.87,1.87,0,0,1-.39-.09.65.65,0,0,1-.28-.2.48.48,0,0,1-.1-.33V369.92a.49.49,0,0,1,0-.13,2.33,2.33,0,0,1,.09-.29,1,1,0,0,1,.21-.3,1.33,1.33,0,0,1,1-.32h7.1a.51.51,0,0,1,.29.1.7.7,0,0,1,.21.24,1.22,1.22,0,0,1,.14.33,1.64,1.64,0,0,1,0,.37,1.27,1.27,0,0,1-.15.68.76.76,0,0,1-.37.32,1.59,1.59,0,0,1-.51.1h-5.52v2.78h4.55a.8.8,0,0,1,.3.09.87.87,0,0,1,.24.23,1,1,0,0,1,.16.33,1.23,1.23,0,0,1,.06.39,1.51,1.51,0,0,1-.07.5,1.08,1.08,0,0,1-.17.34.69.69,0,0,1-.25.2.72.72,0,0,1-.29.06h-4.53v3.14h5.52a1.59,1.59,0,0,1,.51.1.76.76,0,0,1,.37.32,1.27,1.27,0,0,1,.15.68,1.64,1.64,0,0,1,0,.37,1.22,1.22,0,0,1-.14.33.7.7,0,0,1-.21.24.59.59,0,0,1-.29.1h-7Z" transform="translate(-600.62 -358.17)"/><path class="cls-1" d="M661.22,399a1.16,1.16,0,0,1-.34-.05.58.58,0,0,1-.21-.08.22.22,0,0,1-.09-.19v-8.53a.39.39,0,0,1,.16-.32.81.81,0,0,1,.48-.13h2.89a6.44,6.44,0,0,1,1.57.17,3.18,3.18,0,0,1,1.1.48,2.25,2.25,0,0,1,.71.73,3.19,3.19,0,0,1,.41.94,5.37,5.37,0,0,1,.19,1.1c0,.39,0,.8,0,1.21v.05c0,.41,0,.82,0,1.21a5.37,5.37,0,0,1-.19,1.1,3.25,3.25,0,0,1-.41.93,2.35,2.35,0,0,1-.71.73,3.38,3.38,0,0,1-1.1.47,6,6,0,0,1-1.57.18h-2.89Zm2.86-8.39h-2.45v7.48h2.54a4.75,4.75,0,0,0,1.14-.12,2.5,2.5,0,0,0,.81-.34,1.91,1.91,0,0,0,.52-.54,2.53,2.53,0,0,0,.3-.71,5.5,5.5,0,0,0,.13-.87q0-.47,0-1v-.31q0-.53,0-1a5.32,5.32,0,0,0-.13-.87,2.6,2.6,0,0,0-.3-.72,1.91,1.91,0,0,0-.52-.54,2.5,2.5,0,0,0-.81-.34,4.75,4.75,0,0,0-1.14-.12h-.08Z" transform="translate(-600.62 -358.17)"/><path class="cls-1" d="M670.44,399a1.16,1.16,0,0,1-.34-.05.63.63,0,0,1-.22-.08.22.22,0,0,1-.09-.19v-8.53a.4.4,0,0,1,.17-.32.81.81,0,0,1,.48-.13h5.61a.27.27,0,0,1,.22.13.52.52,0,0,1,.1.33.4.4,0,0,1-.07.26.34.34,0,0,1-.16.13.46.46,0,0,1-.21,0h-5.1v3.24h4.25a.32.32,0,0,1,.23.13.49.49,0,0,1,.11.33.56.56,0,0,1,0,.21.5.5,0,0,1-.1.14.42.42,0,0,1-.13.07l-.13,0h-4.19v3.33h5.1a.65.65,0,0,1,.21,0,.34.34,0,0,1,.16.13.41.41,0,0,1,.07.27.51.51,0,0,1-.1.32.27.27,0,0,1-.22.13h-5.61Z" transform="translate(-600.62 -358.17)"/><path class="cls-1" d="M678.35,392a1.06,1.06,0,0,0,.17.63,1.73,1.73,0,0,0,.48.45,3.11,3.11,0,0,0,.71.33c.27.09.56.17.86.25l.94.23c.32.07.64.15.94.24a7.61,7.61,0,0,1,.88.32,3.06,3.06,0,0,1,.73.43,2,2,0,0,1,.52.6,2,2,0,0,1,.22.81,3.33,3.33,0,0,1,0,.52,2.47,2.47,0,0,1-.18.61,2.42,2.42,0,0,1-.41.61,2.49,2.49,0,0,1-.7.54,4.2,4.2,0,0,1-1.06.39,6.55,6.55,0,0,1-1.5.15,8,8,0,0,1-1.43-.12,6.17,6.17,0,0,1-1.17-.31,2.77,2.77,0,0,1-.81-.42.79.79,0,0,1-.34-.45.53.53,0,0,1,0-.22.5.5,0,0,1,.1-.14.33.33,0,0,1,.16-.07h.16a1.11,1.11,0,0,1,.43.15l.63.3a6.47,6.47,0,0,0,.91.3,5.31,5.31,0,0,0,1.28.13,6,6,0,0,0,1.12-.1,3.47,3.47,0,0,0,.79-.27,1.85,1.85,0,0,0,.51-.36,1.76,1.76,0,0,0,.29-.42,1.37,1.37,0,0,0,.14-.4,2.35,2.35,0,0,0,0-.34.9.9,0,0,0-.27-.67,2.28,2.28,0,0,0-.73-.46,6,6,0,0,0-1-.33l-1.18-.28c-.4-.09-.79-.2-1.18-.32a4.94,4.94,0,0,1-1-.45,2.25,2.25,0,0,1-.73-.67,1.69,1.69,0,0,1-.29-1,2.36,2.36,0,0,1,.21-1,2.12,2.12,0,0,1,.63-.8,3.11,3.11,0,0,1,1.06-.54,4.89,4.89,0,0,1,1.45-.2H681c.17,0,.38,0,.61,0a7.38,7.38,0,0,1,.74.11,3.71,3.71,0,0,1,.76.22,2.53,2.53,0,0,1,.67.36,1.41,1.41,0,0,1,.45.55.29.29,0,0,1,0,.3.38.38,0,0,1-.34.11,1.08,1.08,0,0,1-.45-.12l-.62-.27a7.16,7.16,0,0,0-.87-.26,5.51,5.51,0,0,0-1.23-.12,3.63,3.63,0,0,0-1,.13,2.18,2.18,0,0,0-.72.33,1.3,1.3,0,0,0-.42.46A1,1,0,0,0,678.35,392Z" transform="translate(-600.62 -358.17)"/><path class="cls-1" d="M691,398.09a2.83,2.83,0,0,0,.61-.16,2.29,2.29,0,0,0,.44-.2,2.77,2.77,0,0,0,.31-.21l.22-.15a.27.27,0,0,1,.18-.07.38.38,0,0,1,.3.13.41.41,0,0,1,.13.29.73.73,0,0,1-.21.48,2,2,0,0,1-.58.43,4,4,0,0,1-.91.32,5.42,5.42,0,0,1-1.18.12H690a6.5,6.5,0,0,1-1.57-.17,3.55,3.55,0,0,1-1.11-.49,2.53,2.53,0,0,1-.71-.75,3.76,3.76,0,0,1-.41-1,5.59,5.59,0,0,1-.19-1.11c0-.4,0-.8,0-1.23v0c0-.42,0-.83,0-1.23a5.59,5.59,0,0,1,.19-1.11,3.76,3.76,0,0,1,.41-1,2.53,2.53,0,0,1,.71-.75,3.33,3.33,0,0,1,1.11-.49,6,6,0,0,1,1.57-.17h.3a5.42,5.42,0,0,1,1.18.12,4,4,0,0,1,.91.32,2,2,0,0,1,.58.43.73.73,0,0,1,.21.47.42.42,0,0,1-.13.3.41.41,0,0,1-.3.12.32.32,0,0,1-.18-.06l-.22-.16L692,391a3,3,0,0,0-.44-.21,4.81,4.81,0,0,0-.61-.16,5,5,0,0,0-.83-.06h-.22a4.26,4.26,0,0,0-1.14.13,2.35,2.35,0,0,0-.8.36,1.85,1.85,0,0,0-.52.56,2.49,2.49,0,0,0-.3.73,4.87,4.87,0,0,0-.14.89c0,.31,0,.65,0,1v.32c0,.35,0,.68,0,1a4.76,4.76,0,0,0,.14.88,2.49,2.49,0,0,0,.3.73,2,2,0,0,0,.52.56,2.81,2.81,0,0,0,.8.36,4.75,4.75,0,0,0,1.14.12h.22A5,5,0,0,0,691,398.09Z" transform="translate(-600.62 -358.17)"/><path class="cls-1" d="M700.48,396.91h-5.12l-.6,1.67a1,1,0,0,1-.14.28.7.7,0,0,1-.17.14.45.45,0,0,1-.19.05H694a.58.58,0,0,1-.19,0,.24.24,0,0,1-.14-.12.41.41,0,0,1-.05-.21.84.84,0,0,1,.07-.32l2.86-7.83a2.29,2.29,0,0,1,.23-.47,1,1,0,0,1,.27-.28.8.8,0,0,1,.32-.13,1.58,1.58,0,0,1,.38,0h.27a1.45,1.45,0,0,1,.37,0,.75.75,0,0,1,.32.13,1,1,0,0,1,.27.28,1.87,1.87,0,0,1,.23.47l2.87,7.83a1,1,0,0,1,.06.32.41.41,0,0,1,0,.21.27.27,0,0,1-.14.12.58.58,0,0,1-.19,0h-.21a.41.41,0,0,1-.19-.05.55.55,0,0,1-.17-.14.81.81,0,0,1-.14-.28Zm-4.83-.83h4.53l-1.87-5.21a1,1,0,0,0-.15-.28.26.26,0,0,0-.17-.09h-.13a.31.31,0,0,0-.18.09,1,1,0,0,0-.15.28Z" transform="translate(-600.62 -358.17)"/><path class="cls-1" d="M706.16,390.6h-1.91v8.18a.26.26,0,0,1,0,.14.27.27,0,0,1-.12.09.47.47,0,0,1-.17,0h-.19a1,1,0,0,1-.36-.05.22.22,0,0,1-.16-.23v-8.65a.4.4,0,0,1,.17-.31.76.76,0,0,1,.48-.13h2.3a8.29,8.29,0,0,1,1.61.12,3.87,3.87,0,0,1,1.3.49,2.5,2.5,0,0,1,.88.89,2.63,2.63,0,0,1,.32,1.34v.08a3,3,0,0,1-.14.93,2.22,2.22,0,0,1-.39.73,2.44,2.44,0,0,1-.61.54,3.25,3.25,0,0,1-.8.36l1.95,3.46a.27.27,0,0,1,0,.22.34.34,0,0,1-.15.14,1,1,0,0,1-.25.06l-.24,0a.86.86,0,0,1-.27-.05.39.39,0,0,1-.21-.19l-1.92-3.43-.5,0H705a.32.32,0,0,1-.27-.12.57.57,0,0,1-.09-.34.47.47,0,0,1,.1-.33.31.31,0,0,1,.26-.12h1.24a6.73,6.73,0,0,0,1.25-.1,3,3,0,0,0,.94-.33,1.61,1.61,0,0,0,.58-.58,1.7,1.7,0,0,0,.21-.87v-.18a2,2,0,0,0-.16-.79,1.46,1.46,0,0,0-.52-.59,2.5,2.5,0,0,0-.92-.37,6.1,6.1,0,0,0-1.38-.13h-.09Z" transform="translate(-600.62 -358.17)"/><path class="cls-1" d="M715.15,399.07h0a6.59,6.59,0,0,1-1.58-.17,3.49,3.49,0,0,1-1.1-.49,2.56,2.56,0,0,1-.72-.75,4.15,4.15,0,0,1-.41-1,6.43,6.43,0,0,1-.18-1.11c0-.4,0-.8,0-1.23v0c0-.42,0-.83,0-1.23a6.43,6.43,0,0,1,.18-1.11,4.15,4.15,0,0,1,.41-1,2.56,2.56,0,0,1,.72-.75,3.28,3.28,0,0,1,1.1-.49,6.11,6.11,0,0,1,1.58-.17h.29a5.26,5.26,0,0,1,1.17.12,4,4,0,0,1,.92.32,2,2,0,0,1,.58.43.73.73,0,0,1,.21.47.41.41,0,0,1-.12.3.44.44,0,0,1-.3.12.33.33,0,0,1-.19-.06l-.22-.16-.31-.2a2.88,2.88,0,0,0-.43-.21,5.92,5.92,0,0,0-.61-.16,5,5,0,0,0-.83-.06h-.23a4.26,4.26,0,0,0-1.14.13,2.27,2.27,0,0,0-.8.36,1.74,1.74,0,0,0-.52.56,2.8,2.8,0,0,0-.3.73,4.89,4.89,0,0,0-.13.89c0,.31,0,.65,0,1v.32c0,.35,0,.68,0,1a4.78,4.78,0,0,0,.13.88,2.8,2.8,0,0,0,.3.73,1.84,1.84,0,0,0,.52.56,2.69,2.69,0,0,0,.8.36,4.75,4.75,0,0,0,1.14.12h.08c.36,0,.7,0,1,0a5.89,5.89,0,0,0,.79-.15,2.09,2.09,0,0,0,.52-.2c.13-.07.19-.14.19-.21v-3.06a.24.24,0,0,1,0-.15.58.58,0,0,1,.12-.1l.17,0h.18a1,1,0,0,1,.35.06.23.23,0,0,1,.15.24v3.35a.58.58,0,0,1-.17.4,1.63,1.63,0,0,1-.46.32,3.37,3.37,0,0,1-.66.25c-.24.07-.5.12-.76.17s-.51.07-.76.09-.48,0-.68,0Z" transform="translate(-600.62 -358.17)"/><path class="cls-1" d="M726.43,396.91H721.3l-.59,1.67a1,1,0,0,1-.14.28.7.7,0,0,1-.17.14.45.45,0,0,1-.19.05H720a.58.58,0,0,1-.19,0,.24.24,0,0,1-.14-.12.41.41,0,0,1,0-.21.84.84,0,0,1,.07-.32l2.86-7.83a2.29,2.29,0,0,1,.23-.47,1,1,0,0,1,.27-.28.8.8,0,0,1,.32-.13,1.53,1.53,0,0,1,.38,0H724a1.5,1.5,0,0,1,.37,0,.8.8,0,0,1,.32.13,1,1,0,0,1,.27.28,1.87,1.87,0,0,1,.23.47l2.87,7.83a1,1,0,0,1,.06.32.41.41,0,0,1,0,.21.27.27,0,0,1-.14.12.58.58,0,0,1-.19,0h-.21a.46.46,0,0,1-.2-.05.67.67,0,0,1-.16-.14.81.81,0,0,1-.14-.28Zm-4.83-.83h4.53l-1.87-5.21a1,1,0,0,0-.15-.28.28.28,0,0,0-.17-.09h-.13a.31.31,0,0,0-.18.09,1,1,0,0,0-.15.28Z" transform="translate(-600.62 -358.17)"/><path class="cls-1" d="M732.11,390.6H730.2v8.18a.2.2,0,0,1-.05.14.2.2,0,0,1-.11.09.47.47,0,0,1-.17,0h-.19a1,1,0,0,1-.36-.05.22.22,0,0,1-.16-.23v-8.65a.41.41,0,0,1,.16-.31.82.82,0,0,1,.49-.13h2.3a8.29,8.29,0,0,1,1.61.12,3.87,3.87,0,0,1,1.3.49,2.5,2.5,0,0,1,.88.89,2.63,2.63,0,0,1,.31,1.34v.08a3,3,0,0,1-.13.93,2.22,2.22,0,0,1-.39.73,2.44,2.44,0,0,1-.61.54,3.42,3.42,0,0,1-.8.36l2,3.46a.23.23,0,0,1,0,.22.27.27,0,0,1-.14.14,1,1,0,0,1-.25.06l-.24,0a1,1,0,0,1-.28-.05.37.37,0,0,1-.2-.19l-1.92-3.43-.51,0H731a.31.31,0,0,1-.26-.12.57.57,0,0,1-.09-.34.47.47,0,0,1,.1-.33.31.31,0,0,1,.26-.12h1.24a6.73,6.73,0,0,0,1.25-.1,2.82,2.82,0,0,0,.93-.33,1.57,1.57,0,0,0,.59-.58,1.7,1.7,0,0,0,.21-.87v-.18a2,2,0,0,0-.16-.79,1.54,1.54,0,0,0-.52-.59,2.48,2.48,0,0,0-.93-.37,6,6,0,0,0-1.37-.13h-.09Z" transform="translate(-600.62 -358.17)"/><circle class="cls-2" cx="10.85" cy="10.98" r="10.85"/><path class="cls-3" d="M611.47,370.91l4-3.63a10.41,10.41,0,0,1,.93-.83.9.9,0,0,1,.67-.14.7.7,0,0,1,.29.53c0,1,0,2.05,0,3.08a.82.82,0,0,1-.24.54q-2.6,2.35-5.2,4.68c-.41.37-.59.37-1,0-1.73-1.55-3.46-3.1-5.17-4.66a.92.92,0,0,1-.26-.61c0-1,0-2,0-3a.89.89,0,0,1,.31-.61c.23-.18.48,0,.7.17,1.48,1.35,3,2.68,4.45,4Z" transform="translate(-600.62 -358.17)"/></svg>