<svg id="Capa_1" data-name="Capa 1" xmlns="http://www.w3.org/2000/svg" viewBox="0 0 219.89 55.71"><rect width="219.89" height="55.71" style="fill:#fff"/><rect width="219.89" height="55.71" rx="1.87" style="fill:#fff"/><path d="M602.77,387.46h-8.45l-1,2.75a1.51,1.51,0,0,1-.23.46.88.88,0,0,1-.28.24.84.84,0,0,1-.32.08h-.35a.87.87,0,0,1-.32-.06.53.53,0,0,1-.23-.19.72.72,0,0,1-.08-.35,1.78,1.78,0,0,1,.11-.54L596.35,377a3.67,3.67,0,0,1,.38-.77,1.8,1.8,0,0,1,.45-.46,1.48,1.48,0,0,1,.53-.23,3.06,3.06,0,0,1,.63-.06h.44a3,3,0,0,1,.61.06,1.48,1.48,0,0,1,.53.23,1.8,1.8,0,0,1,.45.46,3.67,3.67,0,0,1,.38.77l4.72,12.91a1.48,1.48,0,0,1,.1.54.72.72,0,0,1-.08.35.48.48,0,0,1-.23.19.78.78,0,0,1-.31.06h-.35a.89.89,0,0,1-.32-.08.88.88,0,0,1-.28-.24,1.51,1.51,0,0,1-.23-.46Zm-8-1.37h7.47l-3.09-8.59A1.46,1.46,0,0,0,599,377a.41.41,0,0,0-.28-.15h-.22a.44.44,0,0,0-.3.15,1.46,1.46,0,0,0-.24.46Z" transform="translate(-573.05 -355.4)" style="fill:#0cb092"/><path d="M616.92,392.32a4.72,4.72,0,0,1-.28,1.73,2.62,2.62,0,0,1-.89,1.16,4,4,0,0,1-1.58.65,13.85,13.85,0,0,1-4.69,0,4,4,0,0,1-1.57-.65,2.62,2.62,0,0,1-.89-1.16,4.72,4.72,0,0,1-.28-1.73,4.83,4.83,0,0,1,.24-1.61,2.51,2.51,0,0,1,.74-1.13,3.44,3.44,0,0,1,1.32-.69,8.09,8.09,0,0,1,2-.3v-1.28a8.61,8.61,0,0,1-2-.3,3.44,3.44,0,0,1-1.32-.69,2.51,2.51,0,0,1-.74-1.13,5.55,5.55,0,0,1,0-3.23,2.57,2.57,0,0,1,.74-1.13,3.44,3.44,0,0,1,1.32-.69,7.88,7.88,0,0,1,2-.29v-.75a.42.42,0,0,1,.25-.41,1.34,1.34,0,0,1,.58-.11,1.32,1.32,0,0,1,.57.11.42.42,0,0,1,.26.41v.75a7.87,7.87,0,0,1,1.93.31,3.68,3.68,0,0,1,1.34.69,2.7,2.7,0,0,1,.76,1.13,4.75,4.75,0,0,1,.24,1.59,4.85,4.85,0,0,1-.24,1.62,2.45,2.45,0,0,1-.75,1.13,3.44,3.44,0,0,1-1.32.69,9.05,9.05,0,0,1-2,.29v1.29a8.38,8.38,0,0,1,1.93.31,3.56,3.56,0,0,1,1.33.69,2.76,2.76,0,0,1,.76,1.13A4.77,4.77,0,0,1,616.92,392.32Zm-1.67-8.75a2.75,2.75,0,0,0-.2-1.13,1.71,1.71,0,0,0-.62-.74,2.77,2.77,0,0,0-1.06-.41,7.73,7.73,0,0,0-1.55-.13,9.3,9.3,0,0,0-1.64.13,2.54,2.54,0,0,0-1,.43,1.63,1.63,0,0,0-.55.74,3.93,3.93,0,0,0,0,2.22,1.6,1.6,0,0,0,.55.75,2.68,2.68,0,0,0,1,.42,10.54,10.54,0,0,0,3.3,0,2.68,2.68,0,0,0,1-.42,1.56,1.56,0,0,0,.56-.75A3.26,3.26,0,0,0,615.25,383.57Zm0,8.75a2.69,2.69,0,0,0-.2-1.13,1.68,1.68,0,0,0-.62-.75,2.77,2.77,0,0,0-1.06-.41,7.67,7.67,0,0,0-1.55-.14,8.35,8.35,0,0,0-1.64.14,2.41,2.41,0,0,0-1,.42,1.6,1.6,0,0,0-.55.75,4,4,0,0,0,0,2.23,1.63,1.63,0,0,0,.55.74,2.41,2.41,0,0,0,1,.42,9.79,9.79,0,0,0,3.3,0,2.41,2.41,0,0,0,1-.42,1.58,1.58,0,0,0,.56-.74A3.3,3.3,0,0,0,615.25,392.32Z" transform="translate(-573.05 -355.4)" style="fill:#0cb092"/><path d="M626.46,385.87c-.37.1-.79.19-1.27.28l-1.5.27-1.54.23-1.4.19a6.65,6.65,0,0,0,.17,1.21,1.94,1.94,0,0,0,.46.89,2.19,2.19,0,0,0,.91.53,5.13,5.13,0,0,0,1.49.18,6.76,6.76,0,0,0,1.53-.14,5.62,5.62,0,0,0,1-.32,4.37,4.37,0,0,0,.65-.32,1.05,1.05,0,0,1,.38-.17.53.53,0,0,1,.43.15.59.59,0,0,1,.16.43,1,1,0,0,1-.28.66,2.41,2.41,0,0,1-.82.56,5.36,5.36,0,0,1-1.29.38,9.65,9.65,0,0,1-1.7.14,9.49,9.49,0,0,1-1.9-.16,4,4,0,0,1-1.32-.49,2.75,2.75,0,0,1-.84-.78,3.79,3.79,0,0,1-.47-1.06,6.51,6.51,0,0,1-.21-1.32c0-.48,0-1,0-1.56a16.17,16.17,0,0,1,.17-2.41,4.31,4.31,0,0,1,.69-1.84,3.38,3.38,0,0,1,1.48-1.18,6.36,6.36,0,0,1,2.52-.42,9.31,9.31,0,0,1,1.89.19,4.7,4.7,0,0,1,1.5.58,2.93,2.93,0,0,1,1,1,3.21,3.21,0,0,1,.41,1.5,3.84,3.84,0,0,1,0,1.05,1.87,1.87,0,0,1-.35.77,2.24,2.24,0,0,1-.73.56A5.68,5.68,0,0,1,626.46,385.87Zm-2.06-4.76a6.81,6.81,0,0,0-1.46.13,3.31,3.31,0,0,0-1,.4,2.05,2.05,0,0,0-.63.65,3,3,0,0,0-.34.88,6.88,6.88,0,0,0-.16,1.11c0,.4,0,.84-.06,1.31l1.13-.16,1.35-.2,1.37-.23c.45-.07.85-.15,1.2-.22a2.1,2.1,0,0,0,1.09-.53,1.42,1.42,0,0,0,.28-1.12,1.74,1.74,0,0,0-.26-.87,2.19,2.19,0,0,0-.62-.63,3.06,3.06,0,0,0-.88-.39A3.73,3.73,0,0,0,624.4,381.11Z" transform="translate(-573.05 -355.4)" style="fill:#0cb092"/><path d="M633.08,390.57a.33.33,0,0,1-.07.24.45.45,0,0,1-.19.14.91.91,0,0,1-.26.06h-.3a2,2,0,0,1-.58-.07.36.36,0,0,1-.26-.38v-9a1.11,1.11,0,0,1,.46-.92,3.17,3.17,0,0,1,1.24-.53,9.92,9.92,0,0,1,1.84-.26q1.06-.06,2.28-.06a4.49,4.49,0,0,1,2,.4,2.9,2.9,0,0,1,1.23,1.12,4.79,4.79,0,0,1,.61,1.78,15,15,0,0,1,.16,2.34v5.13a.33.33,0,0,1-.07.24.49.49,0,0,1-.18.14,1.07,1.07,0,0,1-.27.06h-.3a2.08,2.08,0,0,1-.59-.07.36.36,0,0,1-.24-.38l0-4.58q0-1.26-.09-2.16a4.33,4.33,0,0,0-.38-1.51,1.89,1.89,0,0,0-.83-.87,3.39,3.39,0,0,0-1.48-.28c-.62,0-1.14,0-1.56,0a10.59,10.59,0,0,0-1.06.11,2.92,2.92,0,0,0-.65.18,1.17,1.17,0,0,0-.34.22.58.58,0,0,0-.13.26c0,.1,0,.2,0,.3Z" transform="translate(-573.05 -355.4)" style="fill:#0cb092"/><path d="M647.56,379.81c.34,0,.7,0,1.08.05s.76.09,1.14.16a8,8,0,0,1,1.12.27,5.17,5.17,0,0,1,1,.43V376a1.62,1.62,0,0,1,0-.35.46.46,0,0,1,.08-.2.28.28,0,0,1,.15-.08l.24,0,.37,0a1.07,1.07,0,0,1,.37.12.75.75,0,0,1,.29.27.89.89,0,0,1,.13.49v13a1,1,0,0,1-.28.7,2.22,2.22,0,0,1-.73.49,4.57,4.57,0,0,1-1.06.33,12.5,12.5,0,0,1-1.27.19c-.44,0-.89.08-1.34.09s-.89,0-1.3,0a3.73,3.73,0,0,1-1.91-.43,3,3,0,0,1-1.16-1.22,5.5,5.5,0,0,1-.57-1.86,15.78,15.78,0,0,1-.16-2.37V385a14.42,14.42,0,0,1,.14-2,4.4,4.4,0,0,1,.55-1.66,2.93,2.93,0,0,1,1.15-1.11A4.11,4.11,0,0,1,647.56,379.81Zm.67,9.82c.49,0,1,0,1.41-.05a8.45,8.45,0,0,0,1.16-.15,2.49,2.49,0,0,0,.79-.28.49.49,0,0,0,.29-.41v-6.27c0-.15-.14-.3-.38-.44a4.32,4.32,0,0,0-.93-.4,9.51,9.51,0,0,0-1.27-.3,11.56,11.56,0,0,0-1.43-.15,4.25,4.25,0,0,0-1,.1,1.55,1.55,0,0,0-.78.45,2.53,2.53,0,0,0-.5,1,6.35,6.35,0,0,0-.19,1.69v1.23a9.48,9.48,0,0,0,.11,1.63,5,5,0,0,0,.32,1.12,2.35,2.35,0,0,0,.49.69,2,2,0,0,0,.58.37,2.1,2.1,0,0,0,.65.14Z" transform="translate(-573.05 -355.4)" style="fill:#0cb092"/><path d="M663.93,390.77l-1.63.15a19.08,19.08,0,0,1-2.08.1,4.73,4.73,0,0,1-2.13-.4,3,3,0,0,1-1.21-1.11,4.52,4.52,0,0,1-.55-1.66,16.23,16.23,0,0,1-.12-2v-.11a12.31,12.31,0,0,1,.24-2.58,5,5,0,0,1,.76-1.84,3.17,3.17,0,0,1,1.33-1.11,4.69,4.69,0,0,1,1.94-.37c.42,0,.84,0,1.28.05A10.33,10.33,0,0,1,663,380a6.14,6.14,0,0,1,1.15.35,3.36,3.36,0,0,1,.94.6,2.66,2.66,0,0,1,.64.87,3.05,3.05,0,0,1,.23,1.22v7a.9.9,0,0,1-.1.46.86.86,0,0,1-.29.28,1.11,1.11,0,0,1-.42.15,3,3,0,0,1-.53,0Zm.4-7.33a4.09,4.09,0,0,0,0-.47,1.57,1.57,0,0,0-.14-.5,1.79,1.79,0,0,0-.32-.49,1.87,1.87,0,0,0-.58-.41,4,4,0,0,0-.89-.29,7,7,0,0,0-1.31-.11c-.25,0-.5,0-.75,0a3,3,0,0,0-.73.18,2.39,2.39,0,0,0-.67.39,2.17,2.17,0,0,0-.54.7,3.89,3.89,0,0,0-.37,1.08,7.74,7.74,0,0,0-.14,1.55v1.12A6.82,6.82,0,0,0,658,388a2.37,2.37,0,0,0,.54,1,1.8,1.8,0,0,0,.88.5,5,5,0,0,0,1.22.13,12.34,12.34,0,0,0,1.82-.12c.53-.07,1-.13,1.43-.16h.22l.18,0Z" transform="translate(-573.05 -355.4)" style="fill:#0cb092"/><path d="M674.18,379.8a5,5,0,0,1,1.05.14,2.85,2.85,0,0,1,.74.3,1.25,1.25,0,0,1,.42.4.83.83,0,0,1,.14.47,1.1,1.1,0,0,1,0,.18.48.48,0,0,1-.08.18.37.37,0,0,1-.16.14.6.6,0,0,1-.29.06.67.67,0,0,1-.33-.08l-.32-.17a2.75,2.75,0,0,0-.49-.17,3.6,3.6,0,0,0-.84-.08,9.18,9.18,0,0,0-1.67.13,4.05,4.05,0,0,0-1,.31,1.31,1.31,0,0,0-.46.36.71.71,0,0,0-.11.29v8.29a.36.36,0,0,1-.07.24.58.58,0,0,1-.19.15.89.89,0,0,1-.26.07H670a1.68,1.68,0,0,1-.58-.09.36.36,0,0,1-.25-.38v-8.78a1.09,1.09,0,0,1,.21-.64,2.18,2.18,0,0,1,.6-.51,4.48,4.48,0,0,1,.88-.39,6.57,6.57,0,0,1,1.06-.26,10.94,10.94,0,0,1,1.15-.14Z" transform="translate(-573.05 -355.4)" style="fill:#0cb092"/><path d="M689.58,381.31l.26-.83a1.38,1.38,0,0,1,.23-.44.49.49,0,0,1,.33-.18,3.91,3.91,0,0,1,.58,0,2.2,2.2,0,0,1,.63.11,1.6,1.6,0,0,1,.61.34,1.28,1.28,0,0,1,.36.62,1.71,1.71,0,0,1-.08.95l-2.39,7.28a3.53,3.53,0,0,1-.56,1.12,1.94,1.94,0,0,1-.68.56,1.82,1.82,0,0,1-.75.2c-.26,0-.52,0-.77,0h-.22c-.26,0-.52,0-.78,0a1.87,1.87,0,0,1-.76-.2,1.91,1.91,0,0,1-.67-.56,3.53,3.53,0,0,1-.55-1.12L682,381.84a1.73,1.73,0,0,1-.09-.95,1.22,1.22,0,0,1,.37-.62,1.49,1.49,0,0,1,.6-.34,2.2,2.2,0,0,1,.63-.11,4,4,0,0,1,.58,0,.49.49,0,0,1,.33.18,1.38,1.38,0,0,1,.23.44l.26.83,2.15,7.06a1.27,1.27,0,0,0,0,.14.14.14,0,0,0,.1.06h.11q.08,0,.09-.06a1.09,1.09,0,0,0,0-.14Z" transform="translate(-573.05 -355.4)" style="fill:#0cb092"/><path d="M694.27,376.21a.62.62,0,0,1,.13-.42.73.73,0,0,1,.33-.23,1.7,1.7,0,0,1,.47-.11l.54,0a5,5,0,0,1,.56,0,1.69,1.69,0,0,1,.48.11.68.68,0,0,1,.33.24.65.65,0,0,1,.12.41v1.42a.65.65,0,0,1-.13.43.83.83,0,0,1-.33.24,1.7,1.7,0,0,1-.47.1,4.87,4.87,0,0,1-.54,0l-.56,0a2.12,2.12,0,0,1-.48-.11.76.76,0,0,1-.33-.25.65.65,0,0,1-.12-.41Zm3,14a.65.65,0,0,1-.13.43.83.83,0,0,1-.33.24,1.7,1.7,0,0,1-.47.1,4.87,4.87,0,0,1-.54,0l-.56,0a1.69,1.69,0,0,1-.48-.12.68.68,0,0,1-.33-.24.65.65,0,0,1-.12-.41v-9.64a.59.59,0,0,1,.13-.41.68.68,0,0,1,.33-.24,2.16,2.16,0,0,1,.47-.11l.54,0a5,5,0,0,1,.56,0,2.12,2.12,0,0,1,.48.11.75.75,0,0,1,.33.24.66.66,0,0,1,.12.41Z" transform="translate(-573.05 -355.4)" style="fill:#0cb092"/><path d="M702.71,383.16a.48.48,0,0,0,.27.42,2.53,2.53,0,0,0,.73.28c.3.08.65.15,1,.22s.77.14,1.18.24a11.37,11.37,0,0,1,1.17.37,3.87,3.87,0,0,1,1,.6,2.57,2.57,0,0,1,.73.9,2.74,2.74,0,0,1,.28,1.3,4.88,4.88,0,0,1-.06.73,2.86,2.86,0,0,1-.22.78,3.32,3.32,0,0,1-.48.76,2.67,2.67,0,0,1-.81.64,4.65,4.65,0,0,1-1.23.45,7.43,7.43,0,0,1-1.74.17c-.57,0-1.14,0-1.72-.07a7.76,7.76,0,0,1-1.58-.31,3,3,0,0,1-1.14-.63,1.42,1.42,0,0,1-.45-1.09,1,1,0,0,1,.2-.6.7.7,0,0,1,.62-.28,3.36,3.36,0,0,1,.59.09l1,.17,1.17.19a9.88,9.88,0,0,0,1.18.08c.22,0,.44,0,.65,0a2.1,2.1,0,0,0,.55-.15,1,1,0,0,0,.37-.27.64.64,0,0,0,.14-.42.62.62,0,0,0-.28-.52,2.61,2.61,0,0,0-.73-.34c-.3-.09-.64-.17-1-.25s-.78-.16-1.18-.26a9.65,9.65,0,0,1-1.19-.37,4.27,4.27,0,0,1-1-.57,2.84,2.84,0,0,1-.73-.88,2.75,2.75,0,0,1-.28-1.28,3.18,3.18,0,0,1,.33-1.47,3,3,0,0,1,.91-1.08,4.58,4.58,0,0,1,1.41-.65,7.21,7.21,0,0,1,1.8-.22h.56a7.07,7.07,0,0,1,.87.06,9.34,9.34,0,0,1,1,.17,4,4,0,0,1,1,.35,2.48,2.48,0,0,1,.74.57,1.51,1.51,0,0,1,.35.86,1.53,1.53,0,0,1,0,.37.75.75,0,0,1-.13.32.87.87,0,0,1-.27.23.94.94,0,0,1-.43.09,3.86,3.86,0,0,1-.74-.09l-.94-.19-1-.18a6.22,6.22,0,0,0-1-.09,2,2,0,0,0-1,.19A.72.72,0,0,0,702.71,383.16Z" transform="translate(-573.05 -355.4)" style="fill:#0cb092"/><path d="M711.14,376.21a.62.62,0,0,1,.13-.42.73.73,0,0,1,.33-.23,1.7,1.7,0,0,1,.47-.11l.54,0a4.86,4.86,0,0,1,.56,0,1.69,1.69,0,0,1,.48.11.68.68,0,0,1,.33.24.65.65,0,0,1,.12.41v1.42a.65.65,0,0,1-.13.43.83.83,0,0,1-.33.24,1.7,1.7,0,0,1-.47.1,4.78,4.78,0,0,1-.54,0l-.56,0a2.12,2.12,0,0,1-.48-.11.76.76,0,0,1-.33-.25.65.65,0,0,1-.12-.41Zm3,14a.65.65,0,0,1-.13.43.83.83,0,0,1-.33.24,1.7,1.7,0,0,1-.47.1,4.78,4.78,0,0,1-.54,0l-.56,0a1.69,1.69,0,0,1-.48-.12.68.68,0,0,1-.33-.24.65.65,0,0,1-.12-.41v-9.64a.59.59,0,0,1,.13-.41.68.68,0,0,1,.33-.24,2.16,2.16,0,0,1,.47-.11l.54,0a4.86,4.86,0,0,1,.56,0,2.12,2.12,0,0,1,.48.11.75.75,0,0,1,.33.24.66.66,0,0,1,.12.41Z" transform="translate(-573.05 -355.4)" style="fill:#0cb092"/><path d="M719.89,382.37v4.71a2.9,2.9,0,0,0,.06.62.91.91,0,0,0,.25.46,1.25,1.25,0,0,0,.55.29,3.91,3.91,0,0,0,1,.1,3.43,3.43,0,0,0,.5,0l.34-.06.29-.06a1.83,1.83,0,0,1,.35,0,1,1,0,0,1,.45.09.71.71,0,0,1,.26.22.91.91,0,0,1,.12.31,2,2,0,0,1,0,.35,1.36,1.36,0,0,1-.75,1.24,4,4,0,0,1-2.08.44,7.7,7.7,0,0,1-.94,0,6.35,6.35,0,0,1-1-.17,4.7,4.7,0,0,1-.91-.33,2.76,2.76,0,0,1-.76-.54,2.46,2.46,0,0,1-.52-.8,2.8,2.8,0,0,1-.19-1.09V382.4a1.3,1.3,0,0,1-.76-.34,1.39,1.39,0,0,1-.29-1,1.18,1.18,0,0,1,.26-.9,1.32,1.32,0,0,1,.79-.25v-1.46a.69.69,0,0,1,.12-.41.83.83,0,0,1,.33-.24,2,2,0,0,1,.47-.11,5.24,5.24,0,0,1,.57,0,4.61,4.61,0,0,1,.53,0,2.12,2.12,0,0,1,.48.11.91.91,0,0,1,.33.24.65.65,0,0,1,.13.41v1.47h1.63a5.42,5.42,0,0,1,.57,0,3.45,3.45,0,0,1,.57.05,1.34,1.34,0,0,1,.5.16,1.07,1.07,0,0,1,.34.36,1.15,1.15,0,0,1,.13.59,1.76,1.76,0,0,1-.06.46,1.26,1.26,0,0,1-.17.41,1,1,0,0,1-.27.3.63.63,0,0,1-.35.13l-.72,0h-2.17Z" transform="translate(-573.05 -355.4)" style="fill:#0cb092"/><path d="M732.34,390.69l-.67.11-.75.11L730,391c-.31,0-.66,0-1,0a4.66,4.66,0,0,1-2.12-.4,2.9,2.9,0,0,1-1.21-1.11,4.18,4.18,0,0,1-.55-1.66,14.48,14.48,0,0,1-.13-2v-.11a15.85,15.85,0,0,1,.17-2.38,5.56,5.56,0,0,1,.6-1.87,3.11,3.11,0,0,1,1.23-1.21,4.07,4.07,0,0,1,2-.44c.43,0,.89,0,1.37.05a13.25,13.25,0,0,1,1.41.18,8.5,8.5,0,0,1,1.34.35,4.27,4.27,0,0,1,1.12.6,2.78,2.78,0,0,1,.77.87,2.5,2.5,0,0,1,.28,1.22v7a.64.64,0,0,1-.22.51,1.58,1.58,0,0,1-.53.29,2.84,2.84,0,0,1-.67.14,5.21,5.21,0,0,1-.64,0Zm0-6.72a2.28,2.28,0,0,0-.1-.72,1.19,1.19,0,0,0-.38-.52,2,2,0,0,0-.78-.32,6.27,6.27,0,0,0-1.28-.11,2.18,2.18,0,0,0-1,.18,1.22,1.22,0,0,0-.56.54,2.57,2.57,0,0,0-.25.91,11.57,11.57,0,0,0-.06,1.26v1.23a6.5,6.5,0,0,0,.06.95,1.49,1.49,0,0,0,.25.66,1.09,1.09,0,0,0,.56.37,3.11,3.11,0,0,0,1,.13c.26,0,.52,0,.77,0a6.45,6.45,0,0,0,.69-.09,3.63,3.63,0,0,0,.56-.12,2,2,0,0,0,.39-.15l.08,0,.05,0Z" transform="translate(-573.05 -355.4)" style="fill:#0cb092"/><path d="M754.24,374.84a.77.77,0,0,1-1-.39l-1.3-2.91a.77.77,0,0,1,.39-1,.77.77,0,0,1,1,.39l1.3,2.91A.78.78,0,0,1,754.24,374.84Z" transform="translate(-573.05 -355.4)" style="fill:#0cb092"/><path d="M759.49,374a.85.85,0,0,1-.39.07.77.77,0,0,1-.7-.84l.27-3.17a.78.78,0,0,1,1.55.13l-.28,3.17A.77.77,0,0,1,759.49,374Z" transform="translate(-573.05 -355.4)" style="fill:#0cb092"/><path d="M749.73,378.33a.79.79,0,0,1-.78-.09l-2.55-1.92a.77.77,0,1,1,.93-1.23l2.55,1.91a.78.78,0,0,1,.15,1.09A.86.86,0,0,1,749.73,378.33Z" transform="translate(-573.05 -355.4)" style="fill:#0cb092"/><path d="M762.91,376.78a.77.77,0,0,1-1-.39.77.77,0,0,1,.39-1l2.9-1.3h0a.77.77,0,0,1,.63,1.41l-2.91,1.3Z" transform="translate(-573.05 -355.4)" style="fill:#0cb092"/><path d="M747.72,383.55a.77.77,0,0,1-1-.39.78.78,0,0,1,.39-1l2.91-1.3h0a.77.77,0,0,1,1,.39.77.77,0,0,1-.39,1l-2.91,1.3Z" transform="translate(-573.05 -355.4)" style="fill:#0cb092"/><path d="M768.76,380a2.62,2.62,0,0,0-.88.65,2.71,2.71,0,0,0-3-.53,2.63,2.63,0,0,0-1,.74,2.69,2.69,0,0,0-2.8-.34,2.51,2.51,0,0,0-.74.49l-1.24-2.73a2.71,2.71,0,1,0-4.94,2.24l4.48,9.85L756,389.12l-.05,0a2.75,2.75,0,0,0-2.09.07h0a2.65,2.65,0,0,0-1.41,1.51c-.45,1.18.06,2.42,1.39,3.38,1.72,1.24,3.47,2.35,5,3.33,1.13.72,2.2,1.39,3,2s2.8,2.27,2.83,2.29a.9.9,0,0,0,1,.13L776.2,397a.94.94,0,0,0,.53-.94c-.08-.7-.82-6.92-1.78-9l-2.59-5.69a2.72,2.72,0,0,0-3.6-1.37Zm.33,2.85a.89.89,0,0,1,.43-1.18.89.89,0,0,1,1.17.46l2.59,5.69c.63,1.4,1.27,5.63,1.54,7.81l-9.42,4.28c-.67-.56-1.93-1.6-2.49-2-.87-.62-2-1.31-3.12-2-1.52-1-3.26-2.06-4.93-3.27-.43-.31-.92-.79-.74-1.25a.85.85,0,0,1,.46-.49.94.94,0,0,1,.66,0l4.89,2.22a.92.92,0,0,0,1.22-1.21l-5.49-12.08a.88.88,0,0,1,.43-1.18.89.89,0,0,1,1.17.46L761,386.8a.92.92,0,1,0,1.67-.76l-1.23-2.7a.88.88,0,1,1,1.6-.73l1.72,3.8a.92.92,0,0,0,1.22.45.91.91,0,0,0,.45-1.21l-1.23-2.71a.88.88,0,1,1,1.6-.73l1.73,3.8a.92.92,0,0,0,1.21.46.93.93,0,0,0,.46-1.22l-1.11-2.43Zm0,0" transform="translate(-573.05 -355.4)" style="fill:#0cb092"/></svg>