<svg id="Capa_1" data-name="Capa 1" xmlns="http://www.w3.org/2000/svg" viewBox="0 0 165.34 52.67"><defs><style>.cls-1{fill:#0cb092;}.cls-2{fill:#e2b723;}.cls-3{fill:#00a284;}</style></defs><path class="cls-1" d="M766.17,410.83H629.64V358.17H766.17ZM632.47,408H763.34V361H632.47Z" transform="translate(-600.83 -358.17)"/><path class="cls-1" d="M668,368.88h0c.33,0,.7,0,1.09,0a7.92,7.92,0,0,1,1.16.17,4.82,4.82,0,0,1,1.12.4,3.12,3.12,0,0,1,1,.7,3.23,3.23,0,0,1,.66,1.08,4.25,4.25,0,0,1,.25,1.56v0a4.59,4.59,0,0,1-.23,1.52,3.35,3.35,0,0,1-.6,1.07,3,3,0,0,1-.89.71,4.93,4.93,0,0,1-1.07.41,7.15,7.15,0,0,1-1.14.2,10.85,10.85,0,0,1-1.12.05H666v3.93a.53.53,0,0,1-.11.34.7.7,0,0,1-.28.19,1.57,1.57,0,0,1-.4.09h-.45a3.7,3.7,0,0,1-.48,0,1.24,1.24,0,0,1-.4-.09.6.6,0,0,1-.27-.19.52.52,0,0,1-.11-.33V369.89c0-.05,0-.08,0-.1a1.43,1.43,0,0,1,.1-.29.75.75,0,0,1,.21-.3,1.46,1.46,0,0,1,.37-.23,1.55,1.55,0,0,1,.57-.09Zm-2,5.79h2.13a6.65,6.65,0,0,0,1.4-.11,2.2,2.2,0,0,0,.81-.33,1.08,1.08,0,0,0,.36-.54,3.14,3.14,0,0,0,.1-.73v-.17a3.72,3.72,0,0,0-.09-.72,1.13,1.13,0,0,0-.35-.54,1.84,1.84,0,0,0-.77-.34,6.46,6.46,0,0,0-1.33-.13H666Z" transform="translate(-600.83 -358.17)"/><path class="cls-1" d="M676.22,381.28l-.48,0a2,2,0,0,1-.4-.09.65.65,0,0,1-.28-.2.54.54,0,0,1-.1-.33V369.55a.57.57,0,0,1,.1-.34.73.73,0,0,1,.27-.25,1.87,1.87,0,0,1,.4-.14,2.63,2.63,0,0,1,.49-.05h.48a1.64,1.64,0,0,1,.4,0,.46.46,0,0,1,.26.16.5.5,0,0,1,.1.35v9.8h5.08a1.59,1.59,0,0,1,.51.1.76.76,0,0,1,.37.32,1.27,1.27,0,0,1,.15.68,1.31,1.31,0,0,1-.05.39.7.7,0,0,1-.15.34,1.05,1.05,0,0,1-.27.24.87.87,0,0,1-.42.09Z" transform="translate(-600.83 -358.17)"/><path class="cls-1" d="M692.73,378.83h-5.65l-.44,1.3a2.72,2.72,0,0,1-.32.7,1.12,1.12,0,0,1-.37.38,1.25,1.25,0,0,1-.46.15,5.15,5.15,0,0,1-.58,0,1.14,1.14,0,0,1-.46-.08.67.67,0,0,1-.34-.28,1,1,0,0,1-.12-.53,2.1,2.1,0,0,1,.16-.81l3.25-9.29a3.2,3.2,0,0,1,.49-.95,1.81,1.81,0,0,1,.58-.48,1.83,1.83,0,0,1,.63-.16q.33,0,.66,0h.3q.33,0,.66,0a1.72,1.72,0,0,1,.63.16,1.81,1.81,0,0,1,.58.48,3.2,3.2,0,0,1,.49.95l3.26,9.29a2.26,2.26,0,0,1,.15.81,1,1,0,0,1-.12.53.67.67,0,0,1-.34.28,1.14,1.14,0,0,1-.46.08,5.24,5.24,0,0,1-.58,0,1.06,1.06,0,0,1-.84-.53,2.74,2.74,0,0,1-.31-.7Zm-5-2h4.32l-1.9-5.63a1.09,1.09,0,0,0-.09-.21.12.12,0,0,0-.11-.08h-.12a.12.12,0,0,0-.11.08,1.09,1.09,0,0,0-.09.21Z" transform="translate(-600.83 -358.17)"/><path class="cls-1" d="M707.83,380.75a.69.69,0,0,1-.07.34.41.41,0,0,1-.2.19.87.87,0,0,1-.31.09h-.81l-.39-.07a1.8,1.8,0,0,1-.35-.12.7.7,0,0,1-.25-.18v0h0l-5.81-7.59v7.3a.47.47,0,0,1-.15.35,1,1,0,0,1-.37.21,1.94,1.94,0,0,1-.49.11l-.48,0a2.89,2.89,0,0,1-.44,0,.75.75,0,0,1-.32-.09.39.39,0,0,1-.19-.19.81.81,0,0,1-.06-.33v-11.2a.72.72,0,0,1,.24-.59,1.3,1.3,0,0,1,.77-.19,3,3,0,0,1,.72.09,1.2,1.2,0,0,1,.57.3l0,0,5.88,7.68V370a1,1,0,0,1,.12-.47,1.31,1.31,0,0,1,.33-.38,1.84,1.84,0,0,1,.48-.26,1.8,1.8,0,0,1,.57-.1,1.47,1.47,0,0,1,.76.15.73.73,0,0,1,.23.63Z" transform="translate(-600.83 -358.17)"/><path class="cls-1" d="M715.61,381.4a8.59,8.59,0,0,1-2.17-.23,4.94,4.94,0,0,1-1.52-.64,3.19,3.19,0,0,1-1-1,4.55,4.55,0,0,1-.56-1.27,7.82,7.82,0,0,1-.26-1.5c0-.53,0-1.08,0-1.66v-.05c0-.56,0-1.12,0-1.65a7.82,7.82,0,0,1,.26-1.5,4.61,4.61,0,0,1,.56-1.28,3.27,3.27,0,0,1,1-1,4.94,4.94,0,0,1,1.52-.65,9.08,9.08,0,0,1,2.17-.23h.07a9.08,9.08,0,0,1,2.17.23,4.94,4.94,0,0,1,1.52.65,3.27,3.27,0,0,1,1,1,4.61,4.61,0,0,1,.56,1.28,7.82,7.82,0,0,1,.26,1.5c0,.53.05,1.09.05,1.65v.05c0,.57,0,1.12-.05,1.66a7.82,7.82,0,0,1-.26,1.5,4.55,4.55,0,0,1-.56,1.27,3.19,3.19,0,0,1-1,1,4.94,4.94,0,0,1-1.52.64,8.59,8.59,0,0,1-2.17.23Zm0-10.45a4.62,4.62,0,0,0-1.58.22,1.83,1.83,0,0,0-.92.68,2.83,2.83,0,0,0-.42,1.2,12.62,12.62,0,0,0-.11,1.76v.55a12.78,12.78,0,0,0,.11,1.77,2.88,2.88,0,0,0,.42,1.2,2,2,0,0,0,.92.68,4.91,4.91,0,0,0,1.58.21h.11a4.91,4.91,0,0,0,1.58-.21,2,2,0,0,0,.92-.68,2.88,2.88,0,0,0,.42-1.2,12.78,12.78,0,0,0,.11-1.77v-.55a12.62,12.62,0,0,0-.11-1.76,2.83,2.83,0,0,0-.42-1.2,1.83,1.83,0,0,0-.92-.68,4.62,4.62,0,0,0-1.58-.22Z" transform="translate(-600.83 -358.17)"/><path class="cls-1" d="M725.32,372.09a1.06,1.06,0,0,0,.31.77,2.45,2.45,0,0,0,.81.51,7.91,7.91,0,0,0,1.15.35l1.33.33c.46.12.92.26,1.37.42a5.45,5.45,0,0,1,1.23.62,3.5,3.5,0,0,1,.93,1,3,3,0,0,1,.49,1.38,3.18,3.18,0,0,1,0,.81,2.65,2.65,0,0,1-.28.88,3.19,3.19,0,0,1-.61.85,3.6,3.6,0,0,1-1,.73,5.77,5.77,0,0,1-1.49.5,9.34,9.34,0,0,1-2,.19c-.66,0-1.26,0-1.81-.08a7.51,7.51,0,0,1-1.43-.29,3.09,3.09,0,0,1-1-.52,1.46,1.46,0,0,1-.51-.77.72.72,0,0,1,0-.46A.79.79,0,0,1,723,379a.82.82,0,0,1,.34-.16,1.21,1.21,0,0,1,.37,0,5,5,0,0,1,.73.15l.8.21c.29.07.6.13.95.19a8,8,0,0,0,1.17.09,5.18,5.18,0,0,0,1.3-.12,3,3,0,0,0,1-.36,1.62,1.62,0,0,0,.58-.55,1.24,1.24,0,0,0,.2-.7.91.91,0,0,0-.32-.71,2.9,2.9,0,0,0-.86-.49,7.61,7.61,0,0,0-1.21-.36l-1.39-.34c-.47-.13-.94-.26-1.39-.42a5.52,5.52,0,0,1-1.22-.59,3,3,0,0,1-.88-.84,2.16,2.16,0,0,1-.36-1.21,3.73,3.73,0,0,1,.23-1.41,3.28,3.28,0,0,1,.77-1.22,4.06,4.06,0,0,1,1.34-.88,5.35,5.35,0,0,1,1.91-.39h.67a9.67,9.67,0,0,1,1,0q.59,0,1.2.15a5.51,5.51,0,0,1,1.13.32,2.47,2.47,0,0,1,.84.58,1.21,1.21,0,0,1,.33.87.92.92,0,0,1,0,.29.42.42,0,0,1-.12.23.58.58,0,0,1-.27.14,1.58,1.58,0,0,1-.46,0c-.23,0-.5-.05-.82-.1s-.66-.1-1-.14l-1.12-.14a11.17,11.17,0,0,0-1.14-.06,3.94,3.94,0,0,0-.69.05,2.22,2.22,0,0,0-.6.19,1.2,1.2,0,0,0-.43.33A.86.86,0,0,0,725.32,372.09Z" transform="translate(-600.83 -358.17)"/><path class="cls-1" d="M661,399a1.16,1.16,0,0,1-.34-.05.63.63,0,0,1-.22-.08.22.22,0,0,1-.09-.19v-8.53a.4.4,0,0,1,.17-.32.79.79,0,0,1,.48-.13h2.89a6.5,6.5,0,0,1,1.57.17,3.36,3.36,0,0,1,1.1.48,2.47,2.47,0,0,1,.71.73,3.82,3.82,0,0,1,.41.94,6.16,6.16,0,0,1,.18,1.1c0,.39,0,.8,0,1.21v.05c0,.41,0,.82,0,1.21a6.16,6.16,0,0,1-.18,1.1,3.92,3.92,0,0,1-.41.93,2.59,2.59,0,0,1-.71.73,3.58,3.58,0,0,1-1.1.47,6,6,0,0,1-1.57.18H661Zm2.85-8.39h-2.45v7.48h2.54a4.78,4.78,0,0,0,1.15-.12,2.54,2.54,0,0,0,.8-.34,1.78,1.78,0,0,0,.52-.54,2.53,2.53,0,0,0,.3-.71,5.46,5.46,0,0,0,.14-.87q0-.47,0-1v-.31q0-.53,0-1a5.28,5.28,0,0,0-.14-.87,2.6,2.6,0,0,0-.3-.72,1.78,1.78,0,0,0-.52-.54,2.54,2.54,0,0,0-.8-.34,4.78,4.78,0,0,0-1.15-.12h-.08Z" transform="translate(-600.83 -358.17)"/><path class="cls-1" d="M670.23,399a1.11,1.11,0,0,1-.34-.05.63.63,0,0,1-.22-.08.22.22,0,0,1-.09-.19v-8.53a.39.39,0,0,1,.16-.32.82.82,0,0,1,.49-.13h5.6a.29.29,0,0,1,.23.13.58.58,0,0,1,.09.33.48.48,0,0,1-.06.26.4.4,0,0,1-.16.13.52.52,0,0,1-.21,0h-5.11v3.24h4.25a.36.36,0,0,1,.24.13.48.48,0,0,1,.1.33.41.41,0,0,1,0,.21.5.5,0,0,1-.1.14.33.33,0,0,1-.13.07.31.31,0,0,1-.13,0h-4.19v3.33h5.11a.78.78,0,0,1,.21,0,.4.4,0,0,1,.16.13.49.49,0,0,1,.06.27.57.57,0,0,1-.09.32.29.29,0,0,1-.23.13h-5.6Z" transform="translate(-600.83 -358.17)"/><path class="cls-1" d="M678.13,392a1.07,1.07,0,0,0,.18.63,1.56,1.56,0,0,0,.47.45,3.33,3.33,0,0,0,.71.33c.27.09.56.17.87.25l.94.23c.32.07.63.15.94.24a6.83,6.83,0,0,1,.87.32,3.13,3.13,0,0,1,.74.43,2.09,2.09,0,0,1,.51.6,1.87,1.87,0,0,1,.22.81,2.43,2.43,0,0,1,0,.52,1.84,1.84,0,0,1-.18.61,2.36,2.36,0,0,1-.4.61,2.65,2.65,0,0,1-.7.54,4.29,4.29,0,0,1-1.07.39,6.55,6.55,0,0,1-1.5.15,8,8,0,0,1-1.43-.12,6.17,6.17,0,0,1-1.17-.31,2.84,2.84,0,0,1-.8-.42.82.82,0,0,1-.35-.45.52.52,0,0,1,0-.22.28.28,0,0,1,.1-.14.26.26,0,0,1,.15-.07h.16a1.2,1.2,0,0,1,.44.15l.63.3a5.7,5.7,0,0,0,.91.3,5.22,5.22,0,0,0,1.27.13,5.88,5.88,0,0,0,1.12-.1,3.16,3.16,0,0,0,.79-.27,1.85,1.85,0,0,0,.51-.36,1.82,1.82,0,0,0,.3-.42,1.33,1.33,0,0,0,.13-.4,1.55,1.55,0,0,0,0-.34.91.91,0,0,0-.28-.67,2.08,2.08,0,0,0-.73-.46,6,6,0,0,0-1-.33l-1.17-.28c-.41-.09-.8-.2-1.19-.32a4.85,4.85,0,0,1-1-.45,2.28,2.28,0,0,1-.74-.67,1.68,1.68,0,0,1-.28-1,2.21,2.21,0,0,1,.2-1,2.14,2.14,0,0,1,.64-.8,3.06,3.06,0,0,1,1.05-.54,4.93,4.93,0,0,1,1.45-.2h.37c.18,0,.38,0,.62,0s.47.06.74.11a3.9,3.9,0,0,1,.76.22,2.64,2.64,0,0,1,.66.36,1.53,1.53,0,0,1,.46.55.29.29,0,0,1,0,.3.39.39,0,0,1-.34.11,1.09,1.09,0,0,1-.46-.12l-.61-.27a8,8,0,0,0-.88-.26,5.44,5.44,0,0,0-1.23-.12,3.56,3.56,0,0,0-1,.13,2.34,2.34,0,0,0-.73.33,1.3,1.3,0,0,0-.42.46A1.05,1.05,0,0,0,678.13,392Z" transform="translate(-600.83 -358.17)"/><path class="cls-1" d="M690.78,398.09a3.18,3.18,0,0,0,.61-.16,2.31,2.31,0,0,0,.74-.41l.23-.15a.27.27,0,0,1,.18-.07.41.41,0,0,1,.3.13.4.4,0,0,1,.12.29.77.77,0,0,1-.2.48,2,2,0,0,1-.59.43,3.86,3.86,0,0,1-.91.32,5.26,5.26,0,0,1-1.17.12h-.3a6.59,6.59,0,0,1-1.58-.17,3.49,3.49,0,0,1-1.1-.49,2.56,2.56,0,0,1-.72-.75,4.15,4.15,0,0,1-.41-1,6.43,6.43,0,0,1-.18-1.11c0-.4,0-.8,0-1.23v0c0-.42,0-.83,0-1.23A6.43,6.43,0,0,1,686,392a4.15,4.15,0,0,1,.41-1,2.56,2.56,0,0,1,.72-.75,3.28,3.28,0,0,1,1.1-.49,6.11,6.11,0,0,1,1.58-.17h.3a5.26,5.26,0,0,1,1.17.12,3.86,3.86,0,0,1,.91.32,2,2,0,0,1,.59.43.77.77,0,0,1,.2.47.41.41,0,0,1-.12.3.44.44,0,0,1-.3.12.32.32,0,0,1-.18-.06l-.23-.16-.3-.2a3.67,3.67,0,0,0-.44-.21,5.92,5.92,0,0,0-.61-.16,5,5,0,0,0-.83-.06h-.22a4.16,4.16,0,0,0-1.14.13,2.19,2.19,0,0,0-.8.36,1.89,1.89,0,0,0-.53.56,2.8,2.8,0,0,0-.3.73,5.92,5.92,0,0,0-.14.89c0,.31,0,.65,0,1v.32c0,.35,0,.68,0,1a5.78,5.78,0,0,0,.14.88,2.8,2.8,0,0,0,.3.73,2,2,0,0,0,.53.56,2.58,2.58,0,0,0,.8.36,4.63,4.63,0,0,0,1.14.12H690A5,5,0,0,0,690.78,398.09Z" transform="translate(-600.83 -358.17)"/><path class="cls-1" d="M700.27,396.91h-5.13l-.6,1.67a.81.81,0,0,1-.14.28.55.55,0,0,1-.17.14.41.41,0,0,1-.19.05h-.22a.53.53,0,0,1-.18,0,.24.24,0,0,1-.14-.12.33.33,0,0,1,0-.21,1,1,0,0,1,.06-.32l2.86-7.83a3,3,0,0,1,.23-.47,1.24,1.24,0,0,1,.28-.28.75.75,0,0,1,.32-.13,1.48,1.48,0,0,1,.38,0h.26a1.4,1.4,0,0,1,.37,0,.79.79,0,0,1,.33.13,1,1,0,0,1,.27.28,2.29,2.29,0,0,1,.23.47l2.86,7.83a.81.81,0,0,1,.06.32.41.41,0,0,1-.05.21.24.24,0,0,1-.14.12.53.53,0,0,1-.18,0h-.22a.41.41,0,0,1-.19-.05.55.55,0,0,1-.17-.14,1,1,0,0,1-.14-.28Zm-4.83-.83H700l-1.87-5.21a1,1,0,0,0-.15-.28.32.32,0,0,0-.17-.09h-.14a.31.31,0,0,0-.18.09,1.43,1.43,0,0,0-.14.28Z" transform="translate(-600.83 -358.17)"/><path class="cls-1" d="M706,390.6H704v8.18a.2.2,0,0,1,0,.14.27.27,0,0,1-.12.09.42.42,0,0,1-.16,0h-.19a1.07,1.07,0,0,1-.37-.05.22.22,0,0,1-.15-.23v-8.65a.38.38,0,0,1,.16-.31.81.81,0,0,1,.48-.13H706a8.19,8.19,0,0,1,1.6.12,3.92,3.92,0,0,1,1.31.49,2.4,2.4,0,0,1,.87.89,2.63,2.63,0,0,1,.32,1.34v.08a3,3,0,0,1-.14.93,2.41,2.41,0,0,1-.38.73,2.49,2.49,0,0,1-.62.54,3.17,3.17,0,0,1-.79.36l1.94,3.46a.21.21,0,0,1,0,.22.34.34,0,0,1-.15.14.84.84,0,0,1-.24.06l-.24,0a.87.87,0,0,1-.28-.05.43.43,0,0,1-.21-.19l-1.91-3.43-.51,0h-1.77a.3.3,0,0,1-.26-.12.57.57,0,0,1-.09-.34.52.52,0,0,1,.09-.33.32.32,0,0,1,.27-.12H706a6.81,6.81,0,0,0,1.25-.1,2.9,2.9,0,0,0,.93-.33,1.64,1.64,0,0,0,.59-.58,1.7,1.7,0,0,0,.2-.87v-.18a1.8,1.8,0,0,0-.16-.79,1.46,1.46,0,0,0-.52-.59,2.36,2.36,0,0,0-.92-.37,6.07,6.07,0,0,0-1.37-.13Z" transform="translate(-600.83 -358.17)"/><path class="cls-1" d="M714.94,399.07h0a6.5,6.5,0,0,1-1.57-.17,3.55,3.55,0,0,1-1.11-.49,2.41,2.41,0,0,1-.71-.75,3.44,3.44,0,0,1-.41-1,5.59,5.59,0,0,1-.19-1.11c0-.4,0-.8,0-1.23v0c0-.42,0-.83,0-1.23a5.59,5.59,0,0,1,.19-1.11,3.44,3.44,0,0,1,.41-1,2.41,2.41,0,0,1,.71-.75,3.33,3.33,0,0,1,1.11-.49,6,6,0,0,1,1.57-.17h.29a5.42,5.42,0,0,1,1.18.12,3.86,3.86,0,0,1,.91.32,2,2,0,0,1,.59.43.73.73,0,0,1,.21.47.42.42,0,0,1-.13.3.41.41,0,0,1-.3.12.32.32,0,0,1-.18-.06l-.23-.16-.3-.2a3,3,0,0,0-.44-.21,4.81,4.81,0,0,0-.61-.16,5,5,0,0,0-.83-.06h-.22a4.16,4.16,0,0,0-1.14.13,2.19,2.19,0,0,0-.8.36,1.89,1.89,0,0,0-.53.56,2.48,2.48,0,0,0-.29.73,4.87,4.87,0,0,0-.14.89c0,.31,0,.65,0,1v.32c0,.35,0,.68,0,1a4.76,4.76,0,0,0,.14.88,2.48,2.48,0,0,0,.29.73,2,2,0,0,0,.53.56,2.58,2.58,0,0,0,.8.36,4.63,4.63,0,0,0,1.14.12h.08c.36,0,.69,0,1,0a6.21,6.21,0,0,0,.79-.15,2.46,2.46,0,0,0,.52-.2q.18-.11.18-.21v-3.06a.25.25,0,0,1,.05-.15.4.4,0,0,1,.12-.1l.16,0h.18a1,1,0,0,1,.35.06.23.23,0,0,1,.16.24v3.35a.55.55,0,0,1-.18.4,1.5,1.5,0,0,1-.46.32,3.52,3.52,0,0,1-.65.25c-.25.07-.5.12-.76.17l-.76.09c-.25,0-.48,0-.69,0Z" transform="translate(-600.83 -358.17)"/><path class="cls-1" d="M726.22,396.91h-5.13l-.6,1.67a1,1,0,0,1-.14.28.55.55,0,0,1-.17.14.41.41,0,0,1-.19.05h-.22a.65.65,0,0,1-.19,0,.27.27,0,0,1-.14-.12.41.41,0,0,1,0-.21,1,1,0,0,1,.06-.32l2.86-7.83a3,3,0,0,1,.23-.47,1.24,1.24,0,0,1,.28-.28.75.75,0,0,1,.32-.13,1.48,1.48,0,0,1,.38,0h.26a1.45,1.45,0,0,1,.37,0,.79.79,0,0,1,.33.13,1,1,0,0,1,.27.28,2.29,2.29,0,0,1,.23.47l2.86,7.83a.81.81,0,0,1,.06.32.41.41,0,0,1,0,.21.24.24,0,0,1-.14.12.53.53,0,0,1-.18,0h-.22a.41.41,0,0,1-.19-.05.55.55,0,0,1-.17-.14,1,1,0,0,1-.14-.28Zm-4.83-.83h4.53L724,390.87a.8.8,0,0,0-.14-.28.32.32,0,0,0-.17-.09h-.14a.31.31,0,0,0-.18.09,1,1,0,0,0-.14.28Z" transform="translate(-600.83 -358.17)"/><path class="cls-1" d="M731.9,390.6H730v8.18a.2.2,0,0,1,0,.14.27.27,0,0,1-.12.09.42.42,0,0,1-.16,0h-.2a1,1,0,0,1-.36-.05.22.22,0,0,1-.15-.23v-8.65a.38.38,0,0,1,.16-.31.81.81,0,0,1,.48-.13h2.31a8.19,8.19,0,0,1,1.6.12,3.92,3.92,0,0,1,1.31.49,2.4,2.4,0,0,1,.87.89,2.63,2.63,0,0,1,.32,1.34v.08a3,3,0,0,1-.14.93,2.41,2.41,0,0,1-.38.73,2.49,2.49,0,0,1-.62.54,3.35,3.35,0,0,1-.79.36l1.94,3.46a.21.21,0,0,1,0,.22.34.34,0,0,1-.15.14.84.84,0,0,1-.24.06l-.25,0a.86.86,0,0,1-.27-.05.43.43,0,0,1-.21-.19L733,395.4l-.51,0h-1.77a.3.3,0,0,1-.26-.12.57.57,0,0,1-.09-.34.52.52,0,0,1,.09-.33.32.32,0,0,1,.27-.12H732a6.81,6.81,0,0,0,1.25-.1,3,3,0,0,0,.93-.33,1.73,1.73,0,0,0,.59-.58,1.7,1.7,0,0,0,.2-.87v-.18a1.8,1.8,0,0,0-.16-.79,1.46,1.46,0,0,0-.52-.59,2.36,2.36,0,0,0-.92-.37,6.07,6.07,0,0,0-1.37-.13Z" transform="translate(-600.83 -358.17)"/><circle class="cls-2" cx="10.85" cy="10.98" r="10.85"/><path class="cls-3" d="M611.68,370.91l4-3.63a10.53,10.53,0,0,1,.94-.83.88.88,0,0,1,.66-.14.67.67,0,0,1,.29.53c0,1,0,2.05,0,3.08a.83.83,0,0,1-.25.54c-1.72,1.57-3.46,3.13-5.2,4.68-.41.37-.58.37-1,0-1.72-1.55-3.45-3.1-5.16-4.66a.93.93,0,0,1-.27-.61c0-1,0-2,0-3a.89.89,0,0,1,.31-.61c.23-.18.49,0,.7.17,1.48,1.35,3,2.68,4.45,4Z" transform="translate(-600.83 -358.17)"/></svg>