<svg id="Capa_1" data-name="Capa 1" xmlns="http://www.w3.org/2000/svg" viewBox="0 0 172.04 164.25"><rect x="1" width="170.04" height="163.25" style="fill:#fff"/><path d="M652.66,388.56a4.28,4.28,0,0,1,1.06.33,1.83,1.83,0,0,1,.68.5,1,1,0,0,1,.23.67,1,1,0,0,1,0,.28,1,1,0,0,1-.14.28.74.74,0,0,1-.25.2.8.8,0,0,1-.36.08,1,1,0,0,1-.33,0l-.3-.11-.34-.15a2.05,2.05,0,0,0-.42-.15,3.76,3.76,0,0,0-.58-.11,5.78,5.78,0,0,0-.78-.05H651a3.81,3.81,0,0,0-1.34.19,1.55,1.55,0,0,0-.78.58,2.46,2.46,0,0,0-.36,1,10.78,10.78,0,0,0-.09,1.5V394a10.53,10.53,0,0,0,.09,1.49,2.36,2.36,0,0,0,.36,1,1.55,1.55,0,0,0,.78.58,4.09,4.09,0,0,0,1.34.18h.1a5.94,5.94,0,0,0,.78,0,3.67,3.67,0,0,0,.58-.12,2.05,2.05,0,0,0,.42-.15l.34-.15.3-.11a1.06,1.06,0,0,1,.33,0,.68.68,0,0,1,.36.08.63.63,0,0,1,.25.2,1,1,0,0,1,.14.28.9.9,0,0,1,0,.28,1,1,0,0,1-.23.66,1.84,1.84,0,0,1-.68.51,4.3,4.3,0,0,1-1.06.32,8.55,8.55,0,0,1-1.4.11H651a7.51,7.51,0,0,1-1.83-.19,4.25,4.25,0,0,1-1.29-.54,2.77,2.77,0,0,1-.83-.84,3.78,3.78,0,0,1-.48-1.08,6.14,6.14,0,0,1-.21-1.26c0-.45-.05-.91-.05-1.4v0c0-.48,0-.95.05-1.4a6.12,6.12,0,0,1,.21-1.27,3.78,3.78,0,0,1,.48-1.08,2.77,2.77,0,0,1,.83-.84,4.25,4.25,0,0,1,1.29-.54,7.47,7.47,0,0,1,1.83-.2h.26A8.55,8.55,0,0,1,652.66,388.56Z" transform="translate(-594.85 -302.38)" style="fill:#0eb193"/><path d="M660.63,399.15a7.5,7.5,0,0,1-1.84-.2,4.25,4.25,0,0,1-1.29-.54,2.88,2.88,0,0,1-.83-.84,3.78,3.78,0,0,1-.48-1.08,6.24,6.24,0,0,1-.21-1.27c0-.45-.05-.91-.05-1.4v0c0-.48,0-.95.05-1.4a6.12,6.12,0,0,1,.21-1.27,3.78,3.78,0,0,1,.48-1.08,2.77,2.77,0,0,1,.83-.84,4.25,4.25,0,0,1,1.29-.54,7.5,7.5,0,0,1,1.84-.2h.06a7.47,7.47,0,0,1,1.83.2,4.25,4.25,0,0,1,1.29.54,2.66,2.66,0,0,1,.83.84,3.78,3.78,0,0,1,.48,1.08,6.12,6.12,0,0,1,.21,1.27c0,.45,0,.92,0,1.4v0c0,.48,0,.95,0,1.4a6.24,6.24,0,0,1-.21,1.27,3.78,3.78,0,0,1-.48,1.08,2.77,2.77,0,0,1-.83.84,4.25,4.25,0,0,1-1.29.54,7.47,7.47,0,0,1-1.83.2Zm0-8.85a4.13,4.13,0,0,0-1.34.18,1.51,1.51,0,0,0-.77.58,2.36,2.36,0,0,0-.36,1,10.78,10.78,0,0,0-.09,1.5V394a10.53,10.53,0,0,0,.09,1.49,2.36,2.36,0,0,0,.36,1,1.57,1.57,0,0,0,.77.58,4.13,4.13,0,0,0,1.34.18h.09a4.09,4.09,0,0,0,1.34-.18,1.55,1.55,0,0,0,.78-.58,2.36,2.36,0,0,0,.36-1,10.53,10.53,0,0,0,.09-1.49v-.46a10.78,10.78,0,0,0-.09-1.5,2.36,2.36,0,0,0-.36-1,1.5,1.5,0,0,0-.78-.58,4.09,4.09,0,0,0-1.34-.18Z" transform="translate(-594.85 -302.38)" style="fill:#0eb193"/><path d="M673.41,388.56a4.28,4.28,0,0,1,1.06.33,1.83,1.83,0,0,1,.68.5,1,1,0,0,1,.24.67,1,1,0,0,1,0,.28,1,1,0,0,1-.14.28.74.74,0,0,1-.25.2.8.8,0,0,1-.36.08,1.09,1.09,0,0,1-.33,0l-.3-.11-.34-.15a2.05,2.05,0,0,0-.42-.15,3.61,3.61,0,0,0-.57-.11,5.78,5.78,0,0,0-.78-.05h-.11a3.85,3.85,0,0,0-1.34.19,1.53,1.53,0,0,0-.77.58,2.46,2.46,0,0,0-.36,1,10.78,10.78,0,0,0-.09,1.5V394a10.53,10.53,0,0,0,.09,1.49,2.36,2.36,0,0,0,.36,1,1.53,1.53,0,0,0,.77.58,4.13,4.13,0,0,0,1.34.18h.11a5.94,5.94,0,0,0,.78,0,3.53,3.53,0,0,0,.57-.12,2.05,2.05,0,0,0,.42-.15l.34-.15.3-.11a1.11,1.11,0,0,1,.33,0,.68.68,0,0,1,.36.08.63.63,0,0,1,.25.2,1,1,0,0,1,.14.28.92.92,0,0,1,0,.28,1,1,0,0,1-.24.66,1.84,1.84,0,0,1-.68.51,4.3,4.3,0,0,1-1.06.32,8.46,8.46,0,0,1-1.4.11h-.25a7.54,7.54,0,0,1-1.84-.19,4.25,4.25,0,0,1-1.29-.54,2.77,2.77,0,0,1-.83-.84,3.78,3.78,0,0,1-.48-1.08,6.14,6.14,0,0,1-.21-1.26c0-.45-.05-.91-.05-1.4v0c0-.48,0-.95.05-1.4a6.12,6.12,0,0,1,.21-1.27,3.78,3.78,0,0,1,.48-1.08,2.77,2.77,0,0,1,.83-.84,4.25,4.25,0,0,1,1.29-.54,7.5,7.5,0,0,1,1.84-.2H672A8.46,8.46,0,0,1,673.41,388.56Z" transform="translate(-594.85 -302.38)" style="fill:#0eb193"/><path d="M678.72,398.59a.44.44,0,0,1-.1.29.51.51,0,0,1-.24.16,1.13,1.13,0,0,1-.34.08h-.37a2.62,2.62,0,0,1-.41,0,1.14,1.14,0,0,1-.34-.07.51.51,0,0,1-.23-.17.41.41,0,0,1-.09-.28v-9.48a.55.55,0,0,1,.08-.29.67.67,0,0,1,.23-.21,1.5,1.5,0,0,1,.34-.12,1.87,1.87,0,0,1,.42,0,2.5,2.5,0,0,1,.4,0,1.13,1.13,0,0,1,.34.1.61.61,0,0,1,.22.2.58.58,0,0,1,.09.33Z" transform="translate(-594.85 -302.38)" style="fill:#0eb193"/><path d="M689.93,398.59a.6.6,0,0,1-.06.29.37.37,0,0,1-.17.16.66.66,0,0,1-.27.08h-.68a1.86,1.86,0,0,1-.34-.06l-.29-.1a.72.72,0,0,1-.21-.16h0L683,392.35v6.18a.38.38,0,0,1-.13.3.73.73,0,0,1-.31.18,1.43,1.43,0,0,1-.41.09l-.41,0a2.18,2.18,0,0,1-.38,0,.66.66,0,0,1-.26-.07.33.33,0,0,1-.16-.17.55.55,0,0,1-.06-.28v-9.48a.6.6,0,0,1,.21-.5,1,1,0,0,1,.65-.16,2.55,2.55,0,0,1,.61.08,1,1,0,0,1,.48.25l0,0,5,6.5v-5.83a.77.77,0,0,1,.11-.39,1.23,1.23,0,0,1,.28-.33,1.71,1.71,0,0,1,.4-.22,1.62,1.62,0,0,1,.49-.08,1.2,1.2,0,0,1,.64.13.59.59,0,0,1,.2.53Z" transform="translate(-594.85 -302.38)" style="fill:#0eb193"/><path d="M698.42,397h-4.79l-.37,1.1a3,3,0,0,1-.27.59,1.08,1.08,0,0,1-.32.32,1.06,1.06,0,0,1-.39.13l-.49,0a1,1,0,0,1-.39-.07.55.55,0,0,1-.28-.24.83.83,0,0,1-.11-.45,2,2,0,0,1,.13-.68l2.76-7.87a2.54,2.54,0,0,1,.42-.81,1.4,1.4,0,0,1,.49-.4,1.44,1.44,0,0,1,.53-.14l.56,0h.25l.56,0a1.44,1.44,0,0,1,.53.14,1.52,1.52,0,0,1,.5.4,2.76,2.76,0,0,1,.41.81l2.76,7.87a2,2,0,0,1,.13.68.83.83,0,0,1-.11.45.55.55,0,0,1-.28.24,1,1,0,0,1-.39.07l-.49,0a.9.9,0,0,1-.71-.45,2.18,2.18,0,0,1-.27-.59Zm-4.22-1.68h3.66l-1.62-4.77a1.71,1.71,0,0,0-.07-.18.1.1,0,0,0-.09-.06H696a.1.1,0,0,0-.09.06,1.71,1.71,0,0,0-.07.18Z" transform="translate(-594.85 -302.38)" style="fill:#0eb193"/><path d="M703.68,391.26a.89.89,0,0,0,.26.65,2.15,2.15,0,0,0,.68.43,5.68,5.68,0,0,0,1,.3l1.13.28c.39.1.77.22,1.16.35a4.42,4.42,0,0,1,1,.53,3.33,3.33,0,0,1,.79.8,2.63,2.63,0,0,1,.41,1.17,2.68,2.68,0,0,1,0,.69,2.73,2.73,0,0,1-.24.75,2.78,2.78,0,0,1-.52.72,3,3,0,0,1-.85.61,5.3,5.3,0,0,1-1.26.43,8,8,0,0,1-1.72.16,14.64,14.64,0,0,1-1.54-.07,6.28,6.28,0,0,1-1.21-.25,2.52,2.52,0,0,1-.85-.44,1.25,1.25,0,0,1-.44-.65.57.57,0,0,1,0-.39.61.61,0,0,1,.19-.26.71.71,0,0,1,.29-.14,1.1,1.1,0,0,1,.31,0,4.9,4.9,0,0,1,.62.13l.68.17a7.53,7.53,0,0,0,.8.16,5.83,5.83,0,0,0,1,.08,4.63,4.63,0,0,0,1.1-.1,2.54,2.54,0,0,0,.81-.3,1.42,1.42,0,0,0,.5-.47,1.13,1.13,0,0,0,.17-.6.75.75,0,0,0-.28-.6A2.23,2.23,0,0,0,707,395a7.28,7.28,0,0,0-1-.31l-1.18-.29c-.4-.1-.8-.22-1.18-.35a4.56,4.56,0,0,1-1-.5,2.51,2.51,0,0,1-.74-.71,1.79,1.79,0,0,1-.31-1,3.2,3.2,0,0,1,.2-1.19,2.86,2.86,0,0,1,.65-1,3.54,3.54,0,0,1,1.13-.75,4.85,4.85,0,0,1,1.62-.33h.57l.88,0c.33,0,.67.07,1,.13a4,4,0,0,1,1,.28,2.07,2.07,0,0,1,.72.48,1.07,1.07,0,0,1,.27.74,2,2,0,0,1,0,.25.39.39,0,0,1-.34.31,1.14,1.14,0,0,1-.39,0l-.69-.09-.87-.12-1-.12c-.33,0-.65-.05-1-.05a3.68,3.68,0,0,0-.58.05,1.61,1.61,0,0,0-.51.16.92.92,0,0,0-.36.28A.67.67,0,0,0,703.68,391.26Z" transform="translate(-594.85 -302.38)" style="fill:#0eb193"/><path d="M636.17,406.54a1.25,1.25,0,0,1,.38,0,.38.38,0,0,1,.2.15.67.67,0,0,1,.07.28c0,.11,0,.26,0,.44a1.25,1.25,0,0,1-.09.52.68.68,0,0,1-.24.26.6.6,0,0,1-.27.1l-.21,0h-2.68v8.23a.39.39,0,0,1-.1.29.51.51,0,0,1-.24.16,1.07,1.07,0,0,1-.33.08h-.38a2.68,2.68,0,0,1-.41,0,1.14,1.14,0,0,1-.34-.07.58.58,0,0,1-.23-.17.41.41,0,0,1-.09-.28v-8.23h-2.59l-.2,0a.76.76,0,0,1-.26-.12.75.75,0,0,1-.21-.27,1,1,0,0,1-.1-.48c0-.2,0-.36,0-.48a.48.48,0,0,1,.09-.27.29.29,0,0,1,.19-.13.92.92,0,0,1,.32,0Z" transform="translate(-594.85 -302.38)" style="fill:#0eb193"/><path d="M642.29,417.15a7.47,7.47,0,0,1-1.83-.2,4.25,4.25,0,0,1-1.29-.54,2.77,2.77,0,0,1-.83-.84,3.78,3.78,0,0,1-.48-1.08,6.24,6.24,0,0,1-.21-1.27c0-.45,0-.91,0-1.4v0c0-.48,0-.95,0-1.4a6.12,6.12,0,0,1,.21-1.27,3.78,3.78,0,0,1,.48-1.08,2.66,2.66,0,0,1,.83-.84,4.25,4.25,0,0,1,1.29-.54,7.47,7.47,0,0,1,1.83-.2h.06a7.5,7.5,0,0,1,1.84.2,4.25,4.25,0,0,1,1.29.54,2.89,2.89,0,0,1,.83.84,3.78,3.78,0,0,1,.48,1.08,6.12,6.12,0,0,1,.21,1.27c0,.45,0,.92,0,1.4v0c0,.48,0,.95,0,1.4a6.24,6.24,0,0,1-.21,1.27,3.78,3.78,0,0,1-.48,1.08,3,3,0,0,1-.83.84,4.25,4.25,0,0,1-1.29.54,7.5,7.5,0,0,1-1.84.2Zm0-8.85a4.09,4.09,0,0,0-1.34.18,1.5,1.5,0,0,0-.78.58,2.36,2.36,0,0,0-.36,1,10.78,10.78,0,0,0-.09,1.5V412a10.53,10.53,0,0,0,.09,1.49,2.36,2.36,0,0,0,.36,1,1.55,1.55,0,0,0,.78.58,4.09,4.09,0,0,0,1.34.18h.09a4.13,4.13,0,0,0,1.34-.18,1.57,1.57,0,0,0,.77-.58,2.36,2.36,0,0,0,.36-1,10.53,10.53,0,0,0,.09-1.49v-.46a10.78,10.78,0,0,0-.09-1.5,2.36,2.36,0,0,0-.36-1,1.51,1.51,0,0,0-.77-.58,4.13,4.13,0,0,0-1.34-.18Z" transform="translate(-594.85 -302.38)" style="fill:#0eb193"/><path d="M656,406.54a1.25,1.25,0,0,1,.38,0,.36.36,0,0,1,.19.15.55.55,0,0,1,.08.28c0,.11,0,.26,0,.44a1.09,1.09,0,0,1-.1.52.65.65,0,0,1-.5.36l-.21,0h-2.68v8.23a.44.44,0,0,1-.1.29.51.51,0,0,1-.24.16,1.13,1.13,0,0,1-.34.08h-.38a2.55,2.55,0,0,1-.4,0,1.14,1.14,0,0,1-.34-.07.51.51,0,0,1-.23-.17.41.41,0,0,1-.09-.28v-8.23H648.5l-.21,0a.72.72,0,0,1-.25-.12.89.89,0,0,1-.22-.27,1.08,1.08,0,0,1-.09-.48c0-.2,0-.36,0-.48a.58.58,0,0,1,.08-.27.31.31,0,0,1,.19-.13,1,1,0,0,1,.33,0Z" transform="translate(-594.85 -302.38)" style="fill:#0eb193"/><path d="M662.85,415h-4.79l-.37,1.1a2.54,2.54,0,0,1-.27.59,1,1,0,0,1-.32.32,1.06,1.06,0,0,1-.39.13l-.49,0a1,1,0,0,1-.39-.07.6.6,0,0,1-.28-.24.93.93,0,0,1-.11-.45,2,2,0,0,1,.14-.68l2.75-7.87a2.76,2.76,0,0,1,.42-.81,1.49,1.49,0,0,1,.49-.4,1.44,1.44,0,0,1,.54-.14l.55,0h.25l.56,0a1.49,1.49,0,0,1,.54.14,1.6,1.6,0,0,1,.49.4,2.76,2.76,0,0,1,.41.81l2.76,7.87a2,2,0,0,1,.14.68,1.06,1.06,0,0,1-.11.45.57.57,0,0,1-.29.24,1,1,0,0,1-.38.07l-.5,0a1,1,0,0,1-.39-.13,1,1,0,0,1-.32-.32,2.2,2.2,0,0,1-.26-.59Zm-4.22-1.68h3.66l-1.61-4.77a1.59,1.59,0,0,0-.08-.18.1.1,0,0,0-.09-.06h-.1a.11.11,0,0,0-.1.06l-.07.18Z" transform="translate(-594.85 -302.38)" style="fill:#0eb193"/><path d="M667.61,417a2.62,2.62,0,0,1-.41,0,1.57,1.57,0,0,1-.34-.07.51.51,0,0,1-.23-.17.41.41,0,0,1-.09-.28v-9.39a.55.55,0,0,1,.08-.29.67.67,0,0,1,.23-.21,1.5,1.5,0,0,1,.34-.12,1.87,1.87,0,0,1,.42,0h.4a1.2,1.2,0,0,1,.34,0,.42.42,0,0,1,.22.14.41.41,0,0,1,.09.3v8.29H673a1.43,1.43,0,0,1,.43.09.69.69,0,0,1,.32.27,1.1,1.1,0,0,1,.12.57,1.15,1.15,0,0,1,0,.33.69.69,0,0,1-.12.29.68.68,0,0,1-.24.2.72.72,0,0,1-.35.08Z" transform="translate(-594.85 -302.38)" style="fill:#0eb193"/><path d="M681.8,417.13h-.2a2.76,2.76,0,0,1-.37,0c-.15,0-.3-.08-.47-.13a2.21,2.21,0,0,1-.48-.25,1.72,1.72,0,0,1-.41-.4,1.69,1.69,0,0,1-.27-.59l-1.85-7.28a.23.23,0,0,0,0-.12.17.17,0,0,0-.1,0,.13.13,0,0,0-.15.15l-.45,8a.67.67,0,0,1-.2.4,1.15,1.15,0,0,1-.35.22,1.57,1.57,0,0,1-.43.09,3.32,3.32,0,0,1-.43,0,.63.63,0,0,1-.59-.25,1,1,0,0,1-.11-.68l.48-8.32a1.49,1.49,0,0,1,.27-.81,1.34,1.34,0,0,1,.53-.42,2,2,0,0,1,.63-.16c.23,0,.43,0,.62,0h.23a3.83,3.83,0,0,1,.65.06,2.32,2.32,0,0,1,.66.21,1.7,1.7,0,0,1,.53.43,1.36,1.36,0,0,1,.29.69l1.87,7.35c0,.07,0,.11.07.12l.08,0,.09,0s.05-.05.06-.12l1.88-7.35a1.35,1.35,0,0,1,.28-.69,1.74,1.74,0,0,1,.54-.43,2.36,2.36,0,0,1,.65-.21,3.85,3.85,0,0,1,.66-.06h.63l.43,0a2.25,2.25,0,0,1,.42.13,1.15,1.15,0,0,1,.37.25,1.3,1.3,0,0,1,.28.39,2.2,2.2,0,0,1,.15.59l.48,8.32a1.09,1.09,0,0,1-.11.68.64.64,0,0,1-.6.25,3.1,3.1,0,0,1-.42,0,1.5,1.5,0,0,1-.43-.09,1.09,1.09,0,0,1-.36-.22.73.73,0,0,1-.2-.4l-.45-8c0-.1,0-.15-.13-.15a.15.15,0,0,0-.1,0,.22.22,0,0,0-.07.12L684,415.71a1.54,1.54,0,0,1-.28.59,1.72,1.72,0,0,1-.41.4,1.94,1.94,0,0,1-.47.25c-.17.05-.32.1-.47.13a2.94,2.94,0,0,1-.37,0Z" transform="translate(-594.85 -302.38)" style="fill:#0eb193"/><path d="M691.65,417h-.11a2.68,2.68,0,0,1-.41,0,1.57,1.57,0,0,1-.34-.07.58.58,0,0,1-.23-.17.41.41,0,0,1-.09-.28v-9.07a.41.41,0,0,1,0-.12,1.68,1.68,0,0,1,.08-.24.87.87,0,0,1,.18-.26,1.17,1.17,0,0,1,.31-.19,1.36,1.36,0,0,1,.49-.08h6a.46.46,0,0,1,.25.08.7.7,0,0,1,.18.2,1.26,1.26,0,0,1,.12.29,1.65,1.65,0,0,1,0,.31,1,1,0,0,1-.13.57.7.7,0,0,1-.31.28,1.19,1.19,0,0,1-.44.08h-4.67v2.36h3.85a.53.53,0,0,1,.25.08.76.76,0,0,1,.21.19.82.82,0,0,1,.14.28,1.21,1.21,0,0,1,.05.34,1.27,1.27,0,0,1-.06.41.87.87,0,0,1-.15.29.5.5,0,0,1-.21.17.53.53,0,0,1-.24.06h-3.84v2.65h4.67a1.43,1.43,0,0,1,.44.09.62.62,0,0,1,.31.27,1,1,0,0,1,.13.57,1.75,1.75,0,0,1,0,.32,1.39,1.39,0,0,1-.12.28.7.7,0,0,1-.18.2.58.58,0,0,1-.25.09h-5.9Z" transform="translate(-594.85 -302.38)" style="fill:#0eb193"/><path d="M708.82,416.59a.6.6,0,0,1-.06.29.35.35,0,0,1-.16.16.77.77,0,0,1-.27.08h-.69a1.75,1.75,0,0,1-.33-.06L707,417a.72.72,0,0,1-.21-.16h0l-4.93-6.43v6.18a.41.41,0,0,1-.12.3.79.79,0,0,1-.31.18,1.43,1.43,0,0,1-.42.09l-.41,0a2.06,2.06,0,0,1-.37,0A.71.71,0,0,1,700,417a.44.44,0,0,1-.16-.17.7.7,0,0,1,0-.28v-9.48a.6.6,0,0,1,.21-.5,1,1,0,0,1,.64-.16,2.64,2.64,0,0,1,.62.08,1,1,0,0,1,.48.25l0,0,5,6.5v-5.83a.76.76,0,0,1,.1-.39,1.28,1.28,0,0,1,.29-.33,1.53,1.53,0,0,1,.4-.22,1.51,1.51,0,0,1,.48-.08,1.18,1.18,0,0,1,.64.13c.14.08.2.26.2.53Z" transform="translate(-594.85 -302.38)" style="fill:#0eb193"/><path d="M718.29,406.54a1.18,1.18,0,0,1,.37,0,.35.35,0,0,1,.2.15.55.55,0,0,1,.08.28c0,.11,0,.26,0,.44a1.09,1.09,0,0,1-.1.52.65.65,0,0,1-.5.36l-.21,0h-2.69v8.23a.44.44,0,0,1-.09.29.51.51,0,0,1-.24.16,1.13,1.13,0,0,1-.34.08h-.38a2.55,2.55,0,0,1-.4,0,1.14,1.14,0,0,1-.34-.07.51.51,0,0,1-.23-.17.41.41,0,0,1-.09-.28v-8.23h-2.6l-.2,0a.72.72,0,0,1-.25-.12.89.89,0,0,1-.22-.27,1.08,1.08,0,0,1-.09-.48c0-.2,0-.36,0-.48a.58.58,0,0,1,.08-.27.31.31,0,0,1,.19-.13,1,1,0,0,1,.32,0Z" transform="translate(-594.85 -302.38)" style="fill:#0eb193"/><path d="M721.33,417h-.11a2.75,2.75,0,0,1-.41,0,1.47,1.47,0,0,1-.33-.07.61.61,0,0,1-.24-.17.47.47,0,0,1-.08-.28v-9.19c0-.07.05-.15.08-.24a.87.87,0,0,1,.18-.26,1.23,1.23,0,0,1,.32-.19,1.34,1.34,0,0,1,.48-.08h6a.41.41,0,0,1,.24.08.7.7,0,0,1,.18.2,1.26,1.26,0,0,1,.12.29,1.34,1.34,0,0,1-.08.88.72.72,0,0,1-.32.28,1.14,1.14,0,0,1-.43.08h-4.68v2.36h3.86a.57.57,0,0,1,.25.08.72.72,0,0,1,.2.19.82.82,0,0,1,.14.28.93.93,0,0,1,0,.34,1.64,1.64,0,0,1,0,.41.87.87,0,0,1-.15.29.56.56,0,0,1-.21.17.54.54,0,0,1-.25.06h-3.84v2.65H727a1.36,1.36,0,0,1,.43.09.64.64,0,0,1,.32.27,1.1,1.1,0,0,1,.12.57,1.17,1.17,0,0,1,0,.32,1.39,1.39,0,0,1-.12.28.7.7,0,0,1-.18.2.5.5,0,0,1-.24.09h-5.91Z" transform="translate(-594.85 -302.38)" style="fill:#0eb193"/><path d="M640,435h-.11a2.75,2.75,0,0,1-.41,0,1.57,1.57,0,0,1-.34-.07.66.66,0,0,1-.23-.17.41.41,0,0,1-.08-.28v-9.19a1.68,1.68,0,0,1,.08-.24.87.87,0,0,1,.18-.26,1.08,1.08,0,0,1,.32-.19,1.3,1.3,0,0,1,.48-.08h6a.41.41,0,0,1,.24.08.7.7,0,0,1,.18.2,1.26,1.26,0,0,1,.12.29,1.34,1.34,0,0,1-.08.88.78.78,0,0,1-.32.28,1.18,1.18,0,0,1-.43.08H641v2.36h3.85a.57.57,0,0,1,.26.08.89.89,0,0,1,.2.19.82.82,0,0,1,.14.28,1.21,1.21,0,0,1,.05.34,1.27,1.27,0,0,1-.06.41.71.71,0,0,1-.14.29.56.56,0,0,1-.21.17.54.54,0,0,1-.25.06H641v2.65h4.68a1.43,1.43,0,0,1,.43.09.69.69,0,0,1,.32.27,1.1,1.1,0,0,1,.12.57,1.17,1.17,0,0,1,0,.32,1.39,1.39,0,0,1-.12.28.7.7,0,0,1-.18.2.5.5,0,0,1-.24.09H640Z" transform="translate(-594.85 -302.38)" style="fill:#0eb193"/><path d="M651.24,426.48a1.51,1.51,0,0,0-.77.58,2.36,2.36,0,0,0-.36,1,10.78,10.78,0,0,0-.09,1.5V430a11.39,11.39,0,0,0,.06,1.29,4.32,4.32,0,0,0,.17.82,1.54,1.54,0,0,0,.22.48,2.44,2.44,0,0,0,.26.28l.25.2a.72.72,0,0,1,.19.25,1.16,1.16,0,0,1,.11.27,1.54,1.54,0,0,1,0,.4.9.9,0,0,1-.14.58.67.67,0,0,1-.3.24.92.92,0,0,1-.44,0,3.18,3.18,0,0,1-1.27-.66,3.12,3.12,0,0,1-.78-1.07,5.64,5.64,0,0,1-.38-1.47,14.57,14.57,0,0,1-.11-1.84v0c0-.48,0-.95.05-1.4a6.85,6.85,0,0,1,.22-1.27,3.78,3.78,0,0,1,.48-1.08,2.73,2.73,0,0,1,.85-.84,4.21,4.21,0,0,1,1.3-.54,7.61,7.61,0,0,1,1.86-.2,7.47,7.47,0,0,1,1.83.2,4.25,4.25,0,0,1,1.29.54,2.66,2.66,0,0,1,.83.84,3.78,3.78,0,0,1,.48,1.08,6.12,6.12,0,0,1,.21,1.27c0,.45.05.92.05,1.4v0c0,.44,0,.87,0,1.29a7.29,7.29,0,0,1-.17,1.18,4.86,4.86,0,0,1-.38,1,3.1,3.1,0,0,1-.66.83,3.57,3.57,0,0,1-1,.61,5.46,5.46,0,0,1-1.44.33v.78a.46.46,0,0,1-.09.29.71.71,0,0,1-.23.18,1.35,1.35,0,0,1-.32.09l-.37,0a2.34,2.34,0,0,1-.38,0,.8.8,0,0,1-.33-.09.52.52,0,0,1-.23-.18.49.49,0,0,1-.08-.28V434a.54.54,0,0,1,.09-.31.58.58,0,0,1,.23-.21,1,1,0,0,1,.32-.13,1.5,1.5,0,0,1,.37,0h0a4.09,4.09,0,0,0,1.34-.18,1.55,1.55,0,0,0,.78-.58,2.36,2.36,0,0,0,.36-1,10.53,10.53,0,0,0,.09-1.49v-.46a10.78,10.78,0,0,0-.09-1.5,2.36,2.36,0,0,0-.36-1,1.5,1.5,0,0,0-.78-.58,4.09,4.09,0,0,0-1.34-.18h-.09A4.13,4.13,0,0,0,651.24,426.48Z" transform="translate(-594.85 -302.38)" style="fill:#0eb193"/><path d="M661.08,429.81c0,.58,0,1.08.06,1.52a3,3,0,0,0,.31,1.1,1.54,1.54,0,0,0,.73.65,3.16,3.16,0,0,0,1.31.22h.09a3.18,3.18,0,0,0,1.32-.22,1.54,1.54,0,0,0,.73-.65,3,3,0,0,0,.31-1.1c0-.44.06-.94.06-1.52v-4.55a.64.64,0,0,1,.1-.37.84.84,0,0,1,.28-.25,1.15,1.15,0,0,1,.38-.14,2.2,2.2,0,0,1,.44-.05,1.2,1.2,0,0,1,.68.16.56.56,0,0,1,.23.5v4.5q0,.72,0,1.41a7.65,7.65,0,0,1-.19,1.31,4.66,4.66,0,0,1-.44,1.13,2.94,2.94,0,0,1-.8.89,3.72,3.72,0,0,1-1.25.59,7,7,0,0,1-1.83.21h-.06a6.93,6.93,0,0,1-1.83-.21,3.87,3.87,0,0,1-1.26-.59,2.9,2.9,0,0,1-.79-.89,4.73,4.73,0,0,1-.44-1.14A7.65,7.65,0,0,1,659,431c0-.46,0-.93,0-1.41v-4.49a.57.57,0,0,1,.24-.5,1.18,1.18,0,0,1,.68-.16,2.1,2.1,0,0,1,.43.05,1.13,1.13,0,0,1,.39.14.81.81,0,0,1,.27.25.65.65,0,0,1,.11.37Z" transform="translate(-594.85 -302.38)" style="fill:#0eb193"/><path d="M672.19,434.59a.44.44,0,0,1-.09.29.51.51,0,0,1-.24.16,1.13,1.13,0,0,1-.34.08h-.37a2.62,2.62,0,0,1-.41,0,1.14,1.14,0,0,1-.34-.07.51.51,0,0,1-.23-.17.41.41,0,0,1-.09-.28v-9.48a.55.55,0,0,1,.08-.29.67.67,0,0,1,.23-.21,1.5,1.5,0,0,1,.34-.12,1.87,1.87,0,0,1,.42,0,2.5,2.5,0,0,1,.4,0,1.13,1.13,0,0,1,.34.1.61.61,0,0,1,.22.2.58.58,0,0,1,.08.33Z" transform="translate(-594.85 -302.38)" style="fill:#0eb193"/><path d="M678.14,424.54h0c.28,0,.59,0,.92,0a6.74,6.74,0,0,1,1,.14,5.08,5.08,0,0,1,.95.33,2.76,2.76,0,0,1,.8.6,2.57,2.57,0,0,1,.57.92,3.65,3.65,0,0,1,.21,1.32v0a4.08,4.08,0,0,1-.19,1.29,2.78,2.78,0,0,1-.52.91,2.39,2.39,0,0,1-.75.59,3.91,3.91,0,0,1-.9.35,6.35,6.35,0,0,1-1,.17c-.33,0-.64,0-.95,0h-1.9v3.32a.41.41,0,0,1-.1.29.6.6,0,0,1-.24.16,1.07,1.07,0,0,1-.33.07l-.38,0-.41,0a1.13,1.13,0,0,1-.34-.08.48.48,0,0,1-.23-.16.43.43,0,0,1-.09-.28v-9.2a.22.22,0,0,1,0-.09,1,1,0,0,1,.08-.24.87.87,0,0,1,.18-.26,1.17,1.17,0,0,1,.31-.19,1.36,1.36,0,0,1,.49-.08Zm-1.72,4.91h1.8a5.49,5.49,0,0,0,1.19-.1,1.72,1.72,0,0,0,.68-.28.82.82,0,0,0,.31-.45,2.33,2.33,0,0,0,.08-.62v-.15a2.25,2.25,0,0,0-.08-.61.79.79,0,0,0-.29-.45,1.57,1.57,0,0,0-.65-.29,5.43,5.43,0,0,0-1.13-.11h-1.91Z" transform="translate(-594.85 -302.38)" style="fill:#0eb193"/><path d="M689.38,433h-4.79l-.37,1.1a2.18,2.18,0,0,1-.27.59.9.9,0,0,1-.7.45l-.5,0a1,1,0,0,1-.39-.07.6.6,0,0,1-.28-.24,1.06,1.06,0,0,1-.11-.45,2,2,0,0,1,.14-.68l2.76-7.87a2.76,2.76,0,0,1,.41-.81,1.6,1.6,0,0,1,.49-.4,1.49,1.49,0,0,1,.54-.14l.55,0h.26l.55,0a1.44,1.44,0,0,1,.54.14,1.49,1.49,0,0,1,.49.4,2.54,2.54,0,0,1,.41.81l2.76,7.87a2,2,0,0,1,.14.68.93.93,0,0,1-.11.45.6.6,0,0,1-.28.24,1,1,0,0,1-.39.07l-.5,0a1.06,1.06,0,0,1-.39-.13,1.08,1.08,0,0,1-.32-.32,2.57,2.57,0,0,1-.26-.59Zm-4.22-1.68h3.66l-1.61-4.77-.07-.18a.11.11,0,0,0-.1-.06h-.1a.1.1,0,0,0-.09.06,1.59,1.59,0,0,0-.08.18Z" transform="translate(-594.85 -302.38)" style="fill:#0eb193"/><path d="M694.14,435a2.68,2.68,0,0,1-.41,0,1.57,1.57,0,0,1-.34-.07.66.66,0,0,1-.23-.17.41.41,0,0,1-.09-.28v-9.1s0-.07,0-.09a1.68,1.68,0,0,1,.08-.24.87.87,0,0,1,.18-.26,1.08,1.08,0,0,1,.32-.19,1.26,1.26,0,0,1,.48-.08h3.12a7.6,7.6,0,0,1,1.84.19,3.86,3.86,0,0,1,1.28.53,2.74,2.74,0,0,1,.84.82,4,4,0,0,1,.47,1.05,6.93,6.93,0,0,1,.22,1.25c0,.45,0,.92,0,1.4v0c0,.48,0,.94,0,1.39a6.93,6.93,0,0,1-.22,1.25,4,4,0,0,1-.47,1.05,2.86,2.86,0,0,1-.84.82,4.2,4.2,0,0,1-1.3.52,7.54,7.54,0,0,1-1.84.19h-3.1Zm3.07-8.67h-2v6.84h2.24a3.75,3.75,0,0,0,1.25-.2,1.48,1.48,0,0,0,.74-.55,2.31,2.31,0,0,0,.34-1,11.78,11.78,0,0,0,.08-1.45v-.46a10.28,10.28,0,0,0-.09-1.48,2.23,2.23,0,0,0-.36-1,1.56,1.56,0,0,0-.78-.55,4.41,4.41,0,0,0-1.34-.16h-.06Z" transform="translate(-594.85 -302.38)" style="fill:#0eb193"/><path d="M710,433h-4.79l-.37,1.1a2.18,2.18,0,0,1-.27.59,1,1,0,0,1-.32.32,1,1,0,0,1-.39.13l-.49,0a1,1,0,0,1-.39-.07.6.6,0,0,1-.28-.24.93.93,0,0,1-.11-.45,2,2,0,0,1,.14-.68l2.76-7.87a2.54,2.54,0,0,1,.41-.81,1.49,1.49,0,0,1,.49-.4,1.44,1.44,0,0,1,.54-.14l.55,0h.26l.55,0a1.44,1.44,0,0,1,.54.14,1.6,1.6,0,0,1,.49.4,2.76,2.76,0,0,1,.41.81l2.76,7.87a2,2,0,0,1,.14.68.93.93,0,0,1-.11.45.6.6,0,0,1-.28.24,1,1,0,0,1-.39.07l-.5,0A1.06,1.06,0,0,1,711,435a1,1,0,0,1-.32-.32,2.2,2.2,0,0,1-.26-.59Zm-4.22-1.68h3.66l-1.61-4.77-.07-.18a.12.12,0,0,0-.1-.06h-.1a.12.12,0,0,0-.1.06l-.07.18Z" transform="translate(-594.85 -302.38)" style="fill:#0eb193"/><path d="M715.3,427.26a.85.85,0,0,0,.26.65,2.15,2.15,0,0,0,.68.43,5.55,5.55,0,0,0,1,.3l1.14.28c.38.1.77.22,1.15.35a4.42,4.42,0,0,1,1,.53,3,3,0,0,1,.79.8,2.63,2.63,0,0,1,.42,1.17,2.71,2.71,0,0,1,0,.69,2.4,2.4,0,0,1-.23.75,3.35,3.35,0,0,1-.52.72,3,3,0,0,1-.86.61,5,5,0,0,1-1.26.43,7.93,7.93,0,0,1-1.72.16,14.32,14.32,0,0,1-1.53-.07,6.39,6.39,0,0,1-1.22-.25,2.62,2.62,0,0,1-.85-.44,1.23,1.23,0,0,1-.43-.65.65.65,0,0,1,0-.39.7.7,0,0,1,.19-.26.78.78,0,0,1,.29-.14,1.13,1.13,0,0,1,.31,0,4.56,4.56,0,0,1,.62.13l.68.17a8.08,8.08,0,0,0,.8.16,5.83,5.83,0,0,0,1,.08,4.67,4.67,0,0,0,1.11-.1,2.74,2.74,0,0,0,.81-.3,1.39,1.39,0,0,0,.49-.47,1,1,0,0,0,.17-.6.77.77,0,0,0-.27-.6,2.19,2.19,0,0,0-.73-.41,7.28,7.28,0,0,0-1-.31l-1.18-.29c-.4-.1-.79-.22-1.18-.35a4.48,4.48,0,0,1-1-.5,2.43,2.43,0,0,1-.75-.71,1.87,1.87,0,0,1-.3-1,3.2,3.2,0,0,1,.19-1.19,2.76,2.76,0,0,1,.66-1,3.43,3.43,0,0,1,1.13-.75,4.74,4.74,0,0,1,1.62-.33h.56l.89,0c.33,0,.66.07,1,.13a4,4,0,0,1,1,.28,2,2,0,0,1,.71.48,1.08,1.08,0,0,1,.28.74,1,1,0,0,1,0,.25.4.4,0,0,1-.11.2.45.45,0,0,1-.23.11,1.06,1.06,0,0,1-.38,0l-.7-.09-.87-.12-.95-.12c-.33,0-.65-.05-1-.05a3.81,3.81,0,0,0-.59.05,1.61,1.61,0,0,0-.51.16.92.92,0,0,0-.36.28A.67.67,0,0,0,715.3,427.26Z" transform="translate(-594.85 -302.38)" style="fill:#0eb193"/><polyline points="128.06 30.16 171.04 30.16 171.04 163.25 1 163.25 1 30.16 43.08 30.16" style="fill:none;stroke:#0eb193;stroke-miterlimit:10;stroke-width:2px"/><path d="M676.86,346.17c-.27,2.31-.27,2.31,1.8,2.31,1.06,0,2.12-.06,3.18,0s1.28-.34,1.16-1.23c0-.34-.06-.68-.09-1.09Zm2.91,4.53c-1.29,0-2.58,0-3.87,0-.94,0-1.39-.41-1.38-1.36,0-1.43,0-2.85,0-4.27a1.16,1.16,0,0,1,1.32-1.3h8a1.21,1.21,0,0,1,1.39,1.39c0,1.42,0,2.84,0,4.26,0,.89-.45,1.29-1.32,1.28h-4.13" transform="translate(-594.85 -302.38)" style="fill:#e2b723"/><path d="M676.86,346.17c-.27,2.31-.27,2.31,1.8,2.31,1.06,0,2.12-.06,3.18,0s1.28-.34,1.16-1.23c0-.34-.06-.68-.09-1.09Zm2.91,4.53c-1.29,0-2.58,0-3.87,0-.94,0-1.39-.41-1.38-1.36,0-1.43,0-2.85,0-4.27a1.16,1.16,0,0,1,1.32-1.3h8a1.21,1.21,0,0,1,1.39,1.39c0,1.42,0,2.84,0,4.26,0,.89-.45,1.29-1.32,1.28Z" transform="translate(-594.85 -302.38)" style="fill:#e2b723"/><path d="M697.47,321.13H662.29a1.2,1.2,0,0,1-.77-2.12l10.91-9.08V303.7a1.2,1.2,0,1,1,2.4,0v6.79a1.22,1.22,0,0,1-.43.93l-8.79,7.31h28.62l-8.86-7.65a1.21,1.21,0,0,1-.41-.91V303.7a1.2,1.2,0,1,1,2.4,0v5.92l10.89,9.4a1.2,1.2,0,0,1-.78,2.11" transform="translate(-594.85 -302.38)" style="fill:#e2b723"/><path d="M697.47,321.13H662.29a1.2,1.2,0,0,1-.77-2.12l10.91-9.08V303.7a1.2,1.2,0,1,1,2.4,0v6.79a1.22,1.22,0,0,1-.43.93l-8.79,7.31h28.62l-8.86-7.65a1.21,1.21,0,0,1-.41-.91V303.7a1.2,1.2,0,1,1,2.4,0v5.92l10.89,9.4a1.2,1.2,0,0,1-.78,2.11Z" transform="translate(-594.85 -302.38)" style="fill:#e2b723"/><path d="M655.66,353.82H704.4V336.06H655.66Zm50,2.4H654.46a1.2,1.2,0,0,1-1.2-1.2V334.85a1.2,1.2,0,0,1,1.2-1.2h51.15a1.2,1.2,0,0,1,1.2,1.2V355a1.2,1.2,0,0,1-1.2,1.2" transform="translate(-594.85 -302.38)" style="fill:#e2b723"/><path d="M655.66,353.82H704.4V336.06H655.66Zm50,2.4H654.46a1.2,1.2,0,0,1-1.2-1.2V334.85a1.2,1.2,0,0,1,1.2-1.2h51.15a1.2,1.2,0,0,1,1.2,1.2V355A1.2,1.2,0,0,1,705.61,356.22Z" transform="translate(-594.85 -302.38)" style="fill:#e2b723"/><path d="M669.26,355.89a1.2,1.2,0,0,1-1.2-1.2V335a1.2,1.2,0,1,1,2.4,0v19.72a1.2,1.2,0,0,1-1.2,1.2" transform="translate(-594.85 -302.38)" style="fill:#e2b723"/><path d="M669.26,355.89a1.2,1.2,0,0,1-1.2-1.2V335a1.2,1.2,0,1,1,2.4,0v19.72A1.2,1.2,0,0,1,669.26,355.89Z" transform="translate(-594.85 -302.38)" style="fill:#e2b723"/><path d="M690.36,355.89a1.21,1.21,0,0,1-1.21-1.2V335a1.21,1.21,0,1,1,2.41,0v19.72a1.2,1.2,0,0,1-1.2,1.2" transform="translate(-594.85 -302.38)" style="fill:#e2b723"/><path d="M690.36,355.89a1.21,1.21,0,0,1-1.21-1.2V335a1.21,1.21,0,1,1,2.41,0v19.72A1.2,1.2,0,0,1,690.36,355.89Z" transform="translate(-594.85 -302.38)" style="fill:#e2b723"/><path d="M690.36,341.29h-21.1a1.2,1.2,0,1,1,0-2.4h21.1a1.2,1.2,0,0,1,0,2.4" transform="translate(-594.85 -302.38)" style="fill:#e2b723"/><path d="M690.36,341.29h-21.1a1.2,1.2,0,1,1,0-2.4h21.1a1.2,1.2,0,0,1,0,2.4Z" transform="translate(-594.85 -302.38)" style="fill:#e2b723"/><path d="M676.88,348.36h6.31v-2.22h-6.31Zm7.51,2.41h-8.71a1.2,1.2,0,0,1-1.2-1.2v-4.63a1.2,1.2,0,0,1,1.2-1.2h8.71a1.2,1.2,0,0,1,1.21,1.2v4.63a1.21,1.21,0,0,1-1.21,1.2" transform="translate(-594.85 -302.38)" style="fill:#e2b723"/><path d="M676.88,348.36h6.31v-2.22h-6.31Zm7.51,2.41h-8.71a1.2,1.2,0,0,1-1.2-1.2v-4.63a1.2,1.2,0,0,1,1.2-1.2h8.71a1.2,1.2,0,0,1,1.21,1.2v4.63A1.21,1.21,0,0,1,684.39,350.77Z" transform="translate(-594.85 -302.38)" style="fill:#e2b723"/></svg>