<svg id="Capa_1" data-name="Capa 1" xmlns="http://www.w3.org/2000/svg" viewBox="0 0 172.04 164.19"><defs><style>.cls-1{fill:#fff;}.cls-2{font-size:15px;fill:#0eb193;font-family:Byom-Bold, Byom;font-weight:700;}.cls-3{letter-spacing:0.02em;}.cls-4{letter-spacing:-0.02em;}.cls-5{letter-spacing:-0.02em;}.cls-6{letter-spacing:-0.1em;}.cls-7{letter-spacing:-0.07em;}.cls-8{letter-spacing:-0.01em;}.cls-9{fill:none;stroke:#0eb193;stroke-miterlimit:10;stroke-width:2px;}.cls-10{fill:#e2b723;}</style></defs><rect class="cls-1" x="1" width="170.04" height="163.25"/><text class="cls-2" transform="translate(50.62 96.6)"><tspan class="cls-3">C</tspan><tspan x="9.61" y="0">OCINAS </tspan><tspan class="cls-4" x="-17.72" y="18">T</tspan><tspan class="cls-5" x="-8.72" y="18">O</tspan><tspan class="cls-6" x="2.15" y="18">T</tspan><tspan x="9.93" y="18">ALMENTE </tspan><tspan x="-7.67" y="36">EQUI</tspan><tspan class="cls-7" x="27.78" y="36">P</tspan><tspan x="36.47" y="36">A</tspan><tspan class="cls-8" x="46.55" y="36">D</tspan><tspan x="57.12" y="36">AS</tspan></text><polyline class="cls-9" points="128.06 30.11 171.04 30.11 171.04 163.19 1 163.19 1 30.11 43.08 30.11"/><path class="cls-10" d="M470.24,264.49c-.28,2.3-.28,2.3,1.79,2.3,1.06,0,2.13-.05,3.18,0s1.28-.34,1.17-1.23c0-.34-.06-.69-.09-1.09Zm2.9,4.52c-1.29,0-2.58,0-3.86,0-.94,0-1.4-.41-1.39-1.36,0-1.42,0-2.84,0-4.27a1.16,1.16,0,0,1,1.32-1.3h8c.92,0,1.4.43,1.38,1.38,0,1.42,0,2.85,0,4.27,0,.89-.45,1.28-1.32,1.28h-4.14" transform="translate(-388.23 -220.75)"/><path class="cls-10" d="M470.24,264.49c-.28,2.3-.28,2.3,1.79,2.3,1.06,0,2.13-.05,3.18,0s1.28-.34,1.17-1.23c0-.34-.06-.69-.09-1.09Zm2.9,4.52c-1.29,0-2.58,0-3.86,0-.94,0-1.4-.41-1.39-1.36,0-1.42,0-2.84,0-4.27a1.16,1.16,0,0,1,1.32-1.3h8c.92,0,1.4.43,1.38,1.38,0,1.42,0,2.85,0,4.27,0,.89-.45,1.28-1.32,1.28Z" transform="translate(-388.23 -220.75)"/><path class="cls-10" d="M490.84,239.45H455.67a1.21,1.21,0,0,1-.77-2.13l10.9-9.07V222a1.2,1.2,0,0,1,2.4,0v6.8a1.17,1.17,0,0,1-.43.92L459,237h28.62l-8.86-7.65a1.17,1.17,0,0,1-.42-.91V222a1.21,1.21,0,0,1,2.41,0v5.92l10.89,9.41a1.2,1.2,0,0,1-.79,2.11" transform="translate(-388.23 -220.75)"/><path class="cls-10" d="M490.84,239.45H455.67a1.21,1.21,0,0,1-.77-2.13l10.9-9.07V222a1.2,1.2,0,0,1,2.4,0v6.8a1.17,1.17,0,0,1-.43.92L459,237h28.62l-8.86-7.65a1.17,1.17,0,0,1-.42-.91V222a1.21,1.21,0,0,1,2.41,0v5.92l10.89,9.41a1.2,1.2,0,0,1-.79,2.11Z" transform="translate(-388.23 -220.75)"/><path class="cls-10" d="M449,272.13h48.74V254.37H449ZM499,274.54H447.83a1.21,1.21,0,0,1-1.2-1.21V253.17a1.2,1.2,0,0,1,1.2-1.2H499a1.2,1.2,0,0,1,1.2,1.2v20.16a1.21,1.21,0,0,1-1.2,1.21" transform="translate(-388.23 -220.75)"/><path class="cls-10" d="M449,272.13h48.74V254.37H449ZM499,274.54H447.83a1.21,1.21,0,0,1-1.2-1.21V253.17a1.2,1.2,0,0,1,1.2-1.2H499a1.2,1.2,0,0,1,1.2,1.2v20.16A1.21,1.21,0,0,1,499,274.54Z" transform="translate(-388.23 -220.75)"/><path class="cls-10" d="M462.64,274.2a1.2,1.2,0,0,1-1.21-1.2V253.28a1.21,1.21,0,0,1,2.41,0V273a1.2,1.2,0,0,1-1.2,1.2" transform="translate(-388.23 -220.75)"/><path class="cls-10" d="M462.64,274.2a1.2,1.2,0,0,1-1.21-1.2V253.28a1.21,1.21,0,0,1,2.41,0V273A1.2,1.2,0,0,1,462.64,274.2Z" transform="translate(-388.23 -220.75)"/><path class="cls-10" d="M483.73,274.2a1.2,1.2,0,0,1-1.2-1.2V253.28a1.2,1.2,0,0,1,2.4,0V273a1.19,1.19,0,0,1-1.2,1.2" transform="translate(-388.23 -220.75)"/><path class="cls-10" d="M483.73,274.2a1.2,1.2,0,0,1-1.2-1.2V253.28a1.2,1.2,0,0,1,2.4,0V273A1.19,1.19,0,0,1,483.73,274.2Z" transform="translate(-388.23 -220.75)"/><path class="cls-10" d="M483.73,259.6H462.64a1.2,1.2,0,1,1,0-2.4h21.09a1.2,1.2,0,1,1,0,2.4" transform="translate(-388.23 -220.75)"/><path class="cls-10" d="M483.73,259.6H462.64a1.2,1.2,0,1,1,0-2.4h21.09a1.2,1.2,0,1,1,0,2.4Z" transform="translate(-388.23 -220.75)"/><path class="cls-10" d="M470.26,266.68h6.31v-2.23h-6.31Zm7.51,2.4h-8.71a1.21,1.21,0,0,1-1.21-1.2v-4.63a1.21,1.21,0,0,1,1.21-1.2h8.71a1.2,1.2,0,0,1,1.2,1.2v4.63a1.2,1.2,0,0,1-1.2,1.2" transform="translate(-388.23 -220.75)"/><path class="cls-10" d="M470.26,266.68h6.31v-2.23h-6.31Zm7.51,2.4h-8.71a1.21,1.21,0,0,1-1.21-1.2v-4.63a1.21,1.21,0,0,1,1.21-1.2h8.71a1.2,1.2,0,0,1,1.2,1.2v4.63A1.2,1.2,0,0,1,477.77,269.08Z" transform="translate(-388.23 -220.75)"/></svg>