<svg id="Capa_1" data-name="Capa 1" xmlns="http://www.w3.org/2000/svg" viewBox="0 0 197.34 170.3"><rect x="0.47" y="0.88" width="196.39" height="169.42" style="fill:#fff;opacity:0"/><path d="M604.75,338c0,1.16,0,2.17.13,3.05a5.65,5.65,0,0,0,.62,2.19A3.11,3.11,0,0,0,607,344.5a6.45,6.45,0,0,0,2.62.44h.18a6.5,6.5,0,0,0,2.63-.44,3.09,3.09,0,0,0,1.45-1.31,5.65,5.65,0,0,0,.63-2.19c.08-.88.12-1.89.12-3.05v-9.09a1.32,1.32,0,0,1,.21-.75,1.76,1.76,0,0,1,.55-.5,2.61,2.61,0,0,1,.77-.28,4.28,4.28,0,0,1,.87-.09,2.36,2.36,0,0,1,1.36.32,1.11,1.11,0,0,1,.47,1v9c0,1,0,1.9-.07,2.82a14.26,14.26,0,0,1-.38,2.61,8.78,8.78,0,0,1-.88,2.26A5.76,5.76,0,0,1,615.9,347a7.59,7.59,0,0,1-2.51,1.17,13.85,13.85,0,0,1-3.66.42h-.12a13.77,13.77,0,0,1-3.65-.42,7.74,7.74,0,0,1-2.52-1.17,5.76,5.76,0,0,1-1.59-1.79A9.23,9.23,0,0,1,601,343a14.51,14.51,0,0,1-.37-2.62c-.05-.92-.08-1.86-.08-2.83v-9a1.12,1.12,0,0,1,.48-1,2.32,2.32,0,0,1,1.35-.32,4.28,4.28,0,0,1,.87.09,2.67,2.67,0,0,1,.78.28,1.73,1.73,0,0,1,.54.5,1.32,1.32,0,0,1,.21.75Z" transform="translate(-583.39 -302.9)" style="fill:#fff"/><path d="M629.85,327.42l.34,0h.44a15.9,15.9,0,0,1,1.6.09,11.46,11.46,0,0,1,1.79.33,9.51,9.51,0,0,1,1.75.66,5.38,5.38,0,0,1,1.5,1.1,5,5,0,0,1,1.06,1.65,5.9,5.9,0,0,1,.4,2.29v.06a4.75,4.75,0,0,1-.22,1.53,3.59,3.59,0,0,1-.6,1.17,3.64,3.64,0,0,1-.91.84,5.87,5.87,0,0,1-1.15.57,8.31,8.31,0,0,1,1.57.54,4.58,4.58,0,0,1,1.3.9,4.1,4.1,0,0,1,.89,1.38,5.29,5.29,0,0,1,.32,1.92v.06a6.68,6.68,0,0,1-.35,2.27,5.11,5.11,0,0,1-.92,1.62,4.53,4.53,0,0,1-1.35,1.07,8.16,8.16,0,0,1-1.62.64,10,10,0,0,1-1.73.31,16.68,16.68,0,0,1-1.69.09c-.53,0-1,0-1.49,0l-1.14,0h-4.89a4.87,4.87,0,0,1-1.16-.11.94.94,0,0,1-.59-.4,1.64,1.64,0,0,1-.22-.78c0-.33,0-.76,0-1.29V329.1a1.57,1.57,0,0,1,.1-.51,1.47,1.47,0,0,1,.34-.55,2,2,0,0,1,.66-.44,2.6,2.6,0,0,1,1-.18Zm.27,8.73a7.06,7.06,0,0,0,3.16-.59,2.11,2.11,0,0,0,1.22-1.87v-.15a2.13,2.13,0,0,0-.31-1.21,2,2,0,0,0-.91-.75,5,5,0,0,0-1.52-.39,16.19,16.19,0,0,0-2.09-.11H627v13.68h3.48c1,0,1.9-.05,2.58-.11a5.71,5.71,0,0,0,1.61-.33,1.56,1.56,0,0,0,.83-.68,2.65,2.65,0,0,0,.23-1.19,2.86,2.86,0,0,0-.24-1.24,1.81,1.81,0,0,0-.84-.82,4.93,4.93,0,0,0-1.62-.45,20.4,20.4,0,0,0-2.58-.13H629a1,1,0,0,1-.62-.18,1.33,1.33,0,0,1-.4-.45,1.94,1.94,0,0,1-.21-.6,3.21,3.21,0,0,1-.06-.6,4.35,4.35,0,0,1,0-.61,1.85,1.85,0,0,1,.18-.59,1.13,1.13,0,0,1,.36-.45,1,1,0,0,1,.62-.18Z" transform="translate(-583.39 -302.9)" style="fill:#fff"/><path d="M647.41,347.52a.85.85,0,0,1-.18.57,1.15,1.15,0,0,1-.48.33,2.27,2.27,0,0,1-.68.15c-.25,0-.51,0-.76,0s-.56,0-.81,0a3.11,3.11,0,0,1-.68-.15,1.14,1.14,0,0,1-.46-.33.86.86,0,0,1-.18-.56v-19a1.07,1.07,0,0,1,.17-.59,1.15,1.15,0,0,1,.46-.41,2.18,2.18,0,0,1,.68-.24,3.62,3.62,0,0,1,.82-.08,5.31,5.31,0,0,1,.82.05,1.88,1.88,0,0,1,.67.2,1.1,1.1,0,0,1,.61,1.07Z" transform="translate(-583.39 -302.9)" style="fill:#fff"/><path d="M663.91,327.46a8.51,8.51,0,0,1,2.13.65,3.8,3.8,0,0,1,1.35,1,2.1,2.1,0,0,1,.47,1.33,2,2,0,0,1-.09.57,1.55,1.55,0,0,1-.28.54,1.41,1.41,0,0,1-.49.41,1.67,1.67,0,0,1-.73.16,2.31,2.31,0,0,1-.67-.09c-.19-.06-.39-.14-.6-.23l-.67-.3a5.79,5.79,0,0,0-.84-.3,9.09,9.09,0,0,0-1.15-.22,11.72,11.72,0,0,0-1.56-.09h-.21a7.93,7.93,0,0,0-2.68.37,3.14,3.14,0,0,0-1.55,1.17,4.82,4.82,0,0,0-.72,2,21.31,21.31,0,0,0-.18,3v.93a21.16,21.16,0,0,0,.18,3,4.73,4.73,0,0,0,.72,2,3.12,3.12,0,0,0,1.55,1.16,8.19,8.19,0,0,0,2.68.37h.21a11.72,11.72,0,0,0,1.56-.09,9,9,0,0,0,1.15-.23,5.79,5.79,0,0,0,.84-.3l.67-.3c.21-.09.41-.16.6-.22a2.31,2.31,0,0,1,.67-.09,1.46,1.46,0,0,1,1.22.57,1.74,1.74,0,0,1,.28.54,2,2,0,0,1,.09.57,2.07,2.07,0,0,1-.47,1.32,3.81,3.81,0,0,1-1.35,1,8.52,8.52,0,0,1-2.13.64,15.94,15.94,0,0,1-2.8.23h-.51a15.09,15.09,0,0,1-3.68-.39,8,8,0,0,1-2.57-1.08,5.62,5.62,0,0,1-1.66-1.67,7.82,7.82,0,0,1-1-2.16,12.49,12.49,0,0,1-.42-2.53c-.07-.89-.1-1.82-.1-2.79v-.09c0-1,0-1.9.1-2.8a12.48,12.48,0,0,1,.42-2.54,7.82,7.82,0,0,1,1-2.16,5.77,5.77,0,0,1,1.66-1.68,8.43,8.43,0,0,1,2.57-1.08,15.09,15.09,0,0,1,3.68-.39h.51A16,16,0,0,1,663.91,327.46Z" transform="translate(-583.39 -302.9)" style="fill:#fff"/><path d="M683.76,344.28h-9.59l-.73,2.19a5.17,5.17,0,0,1-.54,1.19,2.05,2.05,0,0,1-.64.64,1.84,1.84,0,0,1-.78.25,9.25,9.25,0,0,1-1,.05,2,2,0,0,1-.78-.15,1.05,1.05,0,0,1-.56-.48,1.74,1.74,0,0,1-.22-.89,3.91,3.91,0,0,1,.27-1.36L674.73,330a5.11,5.11,0,0,1,.82-1.61,2.89,2.89,0,0,1,2.06-1.09l1.11,0h.51l1.11,0a2.89,2.89,0,0,1,1.07.29,2.86,2.86,0,0,1,1,.8,5.11,5.11,0,0,1,.83,1.61l5.52,15.75a3.91,3.91,0,0,1,.27,1.36,1.74,1.74,0,0,1-.22.89,1.05,1.05,0,0,1-.56.48,2,2,0,0,1-.78.15,9.61,9.61,0,0,1-1-.05,1.93,1.93,0,0,1-.79-.25,2.16,2.16,0,0,1-.64-.64,4.83,4.83,0,0,1-.52-1.19Zm-8.45-3.36h7.32l-3.22-9.54c0-.15-.1-.27-.14-.36a.22.22,0,0,0-.19-.12h-.21a.22.22,0,0,0-.19.12c0,.09-.09.21-.14.36Z" transform="translate(-583.39 -302.9)" style="fill:#fff"/><path d="M702.89,327.46a8.25,8.25,0,0,1,2.13.65,3.63,3.63,0,0,1,1.35,1,2,2,0,0,1,.47,1.33,2,2,0,0,1-.09.57,1.71,1.71,0,0,1-.27.54,1.45,1.45,0,0,1-.5.41,1.64,1.64,0,0,1-.73.16,2.19,2.19,0,0,1-.66-.09,4.92,4.92,0,0,1-.6-.23l-.67-.3a5.53,5.53,0,0,0-.85-.3,8.75,8.75,0,0,0-1.15-.22,11.72,11.72,0,0,0-1.56-.09h-.21a7.82,7.82,0,0,0-2.67.37,3.12,3.12,0,0,0-1.56,1.17,4.82,4.82,0,0,0-.72,2,21.31,21.31,0,0,0-.18,3v.93a21.16,21.16,0,0,0,.18,3,4.73,4.73,0,0,0,.72,2,3.11,3.11,0,0,0,1.56,1.16,8.08,8.08,0,0,0,2.67.37h.21a11.72,11.72,0,0,0,1.56-.09,8.62,8.62,0,0,0,1.15-.23,5.53,5.53,0,0,0,.85-.3l.67-.3a4.84,4.84,0,0,1,.6-.22,2.19,2.19,0,0,1,.66-.09,1.51,1.51,0,0,1,.73.16,1.57,1.57,0,0,1,.5.41,2,2,0,0,1,.27.54,2,2,0,0,1,.09.57,2,2,0,0,1-.47,1.32,3.64,3.64,0,0,1-1.35,1,8.27,8.27,0,0,1-2.13.64,15.85,15.85,0,0,1-2.8.23h-.51a15,15,0,0,1-3.67-.39,7.87,7.87,0,0,1-2.57-1.08,5.54,5.54,0,0,1-1.67-1.67,8.1,8.1,0,0,1-.95-2.16,13.22,13.22,0,0,1-.43-2.53c-.06-.89-.1-1.82-.1-2.79v-.09c0-1,0-1.9.1-2.8a13.2,13.2,0,0,1,.43-2.54,8.1,8.1,0,0,1,.95-2.16,5.68,5.68,0,0,1,1.67-1.68,8.32,8.32,0,0,1,2.57-1.08,15,15,0,0,1,3.67-.39h.51A15.91,15.91,0,0,1,702.89,327.46Z" transform="translate(-583.39 -302.9)" style="fill:#fff"/><path d="M713.5,347.52a.85.85,0,0,1-.18.57,1.12,1.12,0,0,1-.49.33,2.13,2.13,0,0,1-.67.15c-.25,0-.51,0-.76,0s-.56,0-.82,0a3,3,0,0,1-.67-.15,1.07,1.07,0,0,1-.46-.33.86.86,0,0,1-.18-.56v-19a1.07,1.07,0,0,1,.17-.59,1.19,1.19,0,0,1,.45-.41,2.34,2.34,0,0,1,.69-.24,3.62,3.62,0,0,1,.82-.08,5.39,5.39,0,0,1,.82.05,2,2,0,0,1,.67.2,1.1,1.1,0,0,1,.61,1.07Z" transform="translate(-583.39 -302.9)" style="fill:#fff"/><path d="M726.51,348.63a15.09,15.09,0,0,1-3.68-.39,8.33,8.33,0,0,1-2.57-1.09,5.77,5.77,0,0,1-1.67-1.67,8.1,8.1,0,0,1-1-2.16,13.33,13.33,0,0,1-.43-2.54c-.06-.9-.09-1.83-.09-2.8v-.09c0-1,0-1.9.09-2.8a13.2,13.2,0,0,1,.43-2.54,8.1,8.1,0,0,1,1-2.16,5.8,5.8,0,0,1,1.67-1.68,8.32,8.32,0,0,1,2.57-1.08,15.09,15.09,0,0,1,3.68-.39h.12a15,15,0,0,1,3.67.39,8.49,8.49,0,0,1,2.58,1.08,5.89,5.89,0,0,1,1.66,1.68,8.1,8.1,0,0,1,1,2.16,13.2,13.2,0,0,1,.43,2.54c.06.9.1,1.84.1,2.8V338c0,1,0,1.89-.1,2.79a13.3,13.3,0,0,1-.43,2.55,8.1,8.1,0,0,1-1,2.16,5.86,5.86,0,0,1-1.66,1.67,8.5,8.5,0,0,1-2.58,1.09,15,15,0,0,1-3.67.39Zm0-17.7a8.18,8.18,0,0,0-2.68.36,3.12,3.12,0,0,0-1.55,1.16,4.73,4.73,0,0,0-.72,2,21.31,21.31,0,0,0-.18,3v.93a21.16,21.16,0,0,0,.18,3,4.73,4.73,0,0,0,.72,2,3.12,3.12,0,0,0,1.55,1.16,8.14,8.14,0,0,0,2.68.37h.18a8.08,8.08,0,0,0,2.67-.37,3.11,3.11,0,0,0,1.56-1.16,4.73,4.73,0,0,0,.72-2,21.16,21.16,0,0,0,.18-3v-.93a21.31,21.31,0,0,0-.18-3,4.73,4.73,0,0,0-.72-2,3.11,3.11,0,0,0-1.56-1.16,8.11,8.11,0,0,0-2.67-.36Zm-1.28-8.58a1.93,1.93,0,0,1,.36-.56,1.18,1.18,0,0,1,.43-.28,1.65,1.65,0,0,1,.52-.11h.67a5.76,5.76,0,0,1,.82.06,2.22,2.22,0,0,1,.7.23,1,1,0,0,1,.43.4.71.71,0,0,1,0,.6L728,325.05a2.22,2.22,0,0,1-.41.61,1.33,1.33,0,0,1-.49.3,2.13,2.13,0,0,1-.58.1h-.68a3.48,3.48,0,0,1-.79-.09,2,2,0,0,1-.65-.24.88.88,0,0,1-.37-.42.68.68,0,0,1,0-.57Z" transform="translate(-583.39 -302.9)" style="fill:#fff"/><path d="M757.89,347.52a1.15,1.15,0,0,1-.12.57.77.77,0,0,1-.34.33,1.37,1.37,0,0,1-.53.15q-.31,0-.69,0l-.69,0a3.5,3.5,0,0,1-.66-.12,2.75,2.75,0,0,1-.59-.21,1.13,1.13,0,0,1-.42-.3,0,0,0,0,1,0,0l0,0L744,335V347.4a.8.8,0,0,1-.25.59,1.94,1.94,0,0,1-.63.37,3.59,3.59,0,0,1-.83.18,6,6,0,0,1-.81.06c-.29,0-.54,0-.75,0a1.92,1.92,0,0,1-.54-.15.78.78,0,0,1-.32-.33,1.31,1.31,0,0,1-.1-.56v-19a1.17,1.17,0,0,1,.41-1,2.07,2.07,0,0,1,1.3-.32,5.09,5.09,0,0,1,1.22.15,2,2,0,0,1,1,.51l.06,0,10,13V329.28a1.56,1.56,0,0,1,.21-.79,2.16,2.16,0,0,1,.56-.65,2.86,2.86,0,0,1,.81-.44,2.82,2.82,0,0,1,1-.16,2.45,2.45,0,0,1,1.27.25,1.18,1.18,0,0,1,.41,1.07Z" transform="translate(-583.39 -302.9)" style="fill:#fff"/><path d="M609.74,399.77a5,5,0,0,1,1.28.39,2.26,2.26,0,0,1,.81.6,1.26,1.26,0,0,1,.28.8,1.09,1.09,0,0,1-.22.67.76.76,0,0,1-.29.24.89.89,0,0,1-.44.1,1.25,1.25,0,0,1-.4-.06,2.6,2.6,0,0,1-.36-.13l-.4-.18a2.51,2.51,0,0,0-.51-.18,4.63,4.63,0,0,0-.69-.14,8.14,8.14,0,0,0-.93-.05h-.13a5,5,0,0,0-1.61.22,2,2,0,0,0-.93.71,2.93,2.93,0,0,0-.43,1.22,13.09,13.09,0,0,0-.11,1.79v.56a13,13,0,0,0,.11,1.79,2.88,2.88,0,0,0,.43,1.22,1.82,1.82,0,0,0,.93.69,4.77,4.77,0,0,0,1.61.22h.13a6.35,6.35,0,0,0,.93-.05,4.63,4.63,0,0,0,.69-.14,2.51,2.51,0,0,0,.51-.18l.4-.17a2.67,2.67,0,0,1,.36-.14,1.25,1.25,0,0,1,.4-.05.89.89,0,0,1,.44.1.76.76,0,0,1,.29.24,1,1,0,0,1,.17.33,1,1,0,0,1,.05.33,1.24,1.24,0,0,1-.28.8,2.27,2.27,0,0,1-.81.61,5,5,0,0,1-1.28.38,8.64,8.64,0,0,1-1.68.14h-.3a9.44,9.44,0,0,1-2.21-.23,4.83,4.83,0,0,1-1.54-.65,3.4,3.4,0,0,1-1-1,4.62,4.62,0,0,1-.57-1.3,7.93,7.93,0,0,1-.26-1.51q-.06-.81-.06-1.68V406c0-.57,0-1.13.06-1.67a7.87,7.87,0,0,1,.26-1.53,4.75,4.75,0,0,1,.57-1.3,3.4,3.4,0,0,1,1-1,4.83,4.83,0,0,1,1.54-.65,8.89,8.89,0,0,1,2.21-.24h.3A9.5,9.5,0,0,1,609.74,399.77Z" transform="translate(-583.39 -302.9)" style="fill:#fff"/><path d="M619.18,412.18l-.55.09-.62.09c-.22,0-.46.05-.72.06s-.54,0-.85,0a3.85,3.85,0,0,1-1.74-.33,2.48,2.48,0,0,1-1-.92,3.52,3.52,0,0,1-.45-1.36,12.39,12.39,0,0,1-.1-1.67v-.09a13.25,13.25,0,0,1,.13-2,4.52,4.52,0,0,1,.5-1.53,2.62,2.62,0,0,1,1-1,3.33,3.33,0,0,1,1.65-.36c.36,0,.73,0,1.12,0a10.8,10.8,0,0,1,1.16.15,6.33,6.33,0,0,1,1.1.29,3.73,3.73,0,0,1,.93.49,2.19,2.19,0,0,1,.63.72,2.08,2.08,0,0,1,.23,1v5.72a.54.54,0,0,1-.18.42,1.43,1.43,0,0,1-.44.24,2.33,2.33,0,0,1-.55.12l-.52,0Zm0-5.53a1.72,1.72,0,0,0-.09-.58.87.87,0,0,0-.31-.43,1.58,1.58,0,0,0-.64-.26,5,5,0,0,0-1-.09,1.82,1.82,0,0,0-.8.14,1,1,0,0,0-.45.45,2,2,0,0,0-.21.74c0,.3,0,.65,0,1v1a5.78,5.78,0,0,0,0,.78,1.1,1.1,0,0,0,.21.54.89.89,0,0,0,.45.31,2.52,2.52,0,0,0,.8.1q.33,0,.63,0l.57-.07.46-.1a1.24,1.24,0,0,0,.32-.13l.07,0,0,0Z" transform="translate(-583.39 -302.9)" style="fill:#fff"/><path d="M626.37,411.8a.54.54,0,0,1-.1.35.65.65,0,0,1-.28.2,1.41,1.41,0,0,1-.39.08l-.44,0-.46,0a1.87,1.87,0,0,1-.39-.09.57.57,0,0,1-.27-.2.53.53,0,0,1-.1-.34V400.28a1.06,1.06,0,0,1,0-.33.41.41,0,0,1,.14-.2.66.66,0,0,1,.25-.09,2.42,2.42,0,0,1,.42,0,2.74,2.74,0,0,1,.45,0,2.31,2.31,0,0,1,.52.12,1.37,1.37,0,0,1,.43.24.49.49,0,0,1,.18.4Z" transform="translate(-583.39 -302.9)" style="fill:#fff"/><path d="M631.09,411.8a.54.54,0,0,1-.11.35.68.68,0,0,1-.27.2,1.59,1.59,0,0,1-.39.08l-.44,0-.46,0a2.15,2.15,0,0,1-.4-.09.68.68,0,0,1-.27-.2.59.59,0,0,1-.09-.34V400.28a1.06,1.06,0,0,1,0-.33.39.39,0,0,1,.13-.2.71.71,0,0,1,.26-.09,2.29,2.29,0,0,1,.41,0,2.74,2.74,0,0,1,.45,0,2.19,2.19,0,0,1,.52.12,1.43,1.43,0,0,1,.44.24.49.49,0,0,1,.18.4Z" transform="translate(-583.39 -302.9)" style="fill:#fff"/><path d="M639.66,408.53l-.95.18-1.06.16-1.11.13-1,.1a2.18,2.18,0,0,0,.09.55,1,1,0,0,0,.27.41,1.1,1.1,0,0,0,.49.27,3,3,0,0,0,.81.09,7.47,7.47,0,0,0,1-.06q.43,0,.81-.12l.65-.13a3.13,3.13,0,0,1,.49-.05.67.67,0,0,1,.59.25.58.58,0,0,1,.09.25,1.43,1.43,0,0,1,0,.29,1,1,0,0,1-.26.7,1.68,1.68,0,0,1-.71.5,4.12,4.12,0,0,1-1.13.3,9.62,9.62,0,0,1-1.49.1,7.77,7.77,0,0,1-1.64-.14,3.72,3.72,0,0,1-1.14-.4,2.22,2.22,0,0,1-.74-.64,2.9,2.9,0,0,1-.4-.87,4.43,4.43,0,0,1-.18-1.08c0-.4,0-.82,0-1.28a13.16,13.16,0,0,1,.14-2,3.51,3.51,0,0,1,.61-1.52,2.82,2.82,0,0,1,1.28-1,5.76,5.76,0,0,1,2.19-.35,8,8,0,0,1,1.6.15,4,4,0,0,1,1.27.48,2.62,2.62,0,0,1,.87.85,3,3,0,0,1,.41,1.26,3.69,3.69,0,0,1,0,.94,1.93,1.93,0,0,1-.26.73,1.85,1.85,0,0,1-.57.54A3.26,3.26,0,0,1,639.66,408.53Zm-2-3.37a3.52,3.52,0,0,0-1.09.14,1.43,1.43,0,0,0-.64.42,1.5,1.5,0,0,0-.3.69,5.27,5.27,0,0,0-.08.95l.73-.07.79-.09.75-.09c.24,0,.45-.06.63-.1a.87.87,0,0,0,.56-.27.67.67,0,0,0,.14-.43,1.05,1.05,0,0,0-.12-.52,1,1,0,0,0-.32-.36,1.26,1.26,0,0,0-.47-.21A2.72,2.72,0,0,0,637.61,405.16Z" transform="translate(-583.39 -302.9)" style="fill:#fff"/><path d="M652.72,401.94h-2.07v9.87a.54.54,0,0,1-.11.35.88.88,0,0,1-.29.2,1.57,1.57,0,0,1-.4.08l-.46,0-.49,0a2,2,0,0,1-.4-.09.65.65,0,0,1-.28-.2.53.53,0,0,1-.11-.34v-11s0-.08,0-.1a1.5,1.5,0,0,1,.1-.3.75.75,0,0,1,.21-.3,1.28,1.28,0,0,1,.38-.23,1.4,1.4,0,0,1,.58-.1h3.35a9.54,9.54,0,0,1,1.06,0,7.33,7.33,0,0,1,1.2.16,5.87,5.87,0,0,1,1.2.41,3.47,3.47,0,0,1,1.77,1.84,4.28,4.28,0,0,1,.28,1.6v0a4.09,4.09,0,0,1-.21,1.38,3.3,3.3,0,0,1-1.36,1.75,5,5,0,0,1-1,.46l2.39,4.08a.54.54,0,0,1,.08.35.44.44,0,0,1-.15.26,1.15,1.15,0,0,1-.31.18,2.64,2.64,0,0,1-.4.12,2.9,2.9,0,0,1-.41.06l-.33,0a1.91,1.91,0,0,1-.65-.12.9.9,0,0,1-.48-.4l-2.35-4.12h-1.29a.56.56,0,0,1-.53-.32,1.6,1.6,0,0,1-.17-.78,3,3,0,0,1,0-.43,1,1,0,0,1,.1-.35.57.57,0,0,1,.23-.23.64.64,0,0,1,.36-.09h1.06a7.36,7.36,0,0,0,1.41-.13,2.1,2.1,0,0,0,.85-.34,1.14,1.14,0,0,0,.42-.54,2.38,2.38,0,0,0,.13-.74v-.09a2.67,2.67,0,0,0-.11-.78,1.07,1.07,0,0,0-.42-.57,2.24,2.24,0,0,0-.88-.36,7.51,7.51,0,0,0-1.49-.12h-.09Z" transform="translate(-583.39 -302.9)" style="fill:#fff"/><path d="M659.69,400.28a.51.51,0,0,1,.1-.34.63.63,0,0,1,.28-.19,1.12,1.12,0,0,1,.38-.09,3.25,3.25,0,0,1,.44,0,3.48,3.48,0,0,1,.47,0,1.24,1.24,0,0,1,.39.09.66.66,0,0,1,.27.19.6.6,0,0,1,.1.34v1.17a.54.54,0,0,1-.11.35.68.68,0,0,1-.27.2,1.41,1.41,0,0,1-.39.08l-.44,0-.46,0a1.87,1.87,0,0,1-.39-.09.57.57,0,0,1-.27-.2.53.53,0,0,1-.1-.34Zm2.43,11.52a.54.54,0,0,1-.11.35.68.68,0,0,1-.27.2,1.41,1.41,0,0,1-.39.08l-.44,0-.46,0a1.87,1.87,0,0,1-.39-.09.57.57,0,0,1-.27-.2.53.53,0,0,1-.1-.34v-7.92a.51.51,0,0,1,.1-.34.63.63,0,0,1,.28-.19,1.12,1.12,0,0,1,.38-.09,3.25,3.25,0,0,1,.44,0,3.48,3.48,0,0,1,.47,0,1.24,1.24,0,0,1,.39.09.66.66,0,0,1,.27.19.6.6,0,0,1,.1.34Z" transform="translate(-583.39 -302.9)" style="fill:#fff"/><path d="M668.24,412.45a7.93,7.93,0,0,1-1.65-.14,3.72,3.72,0,0,1-1.14-.4,2.18,2.18,0,0,1-.73-.64,2.9,2.9,0,0,1-.4-.87,4.43,4.43,0,0,1-.18-1.08c0-.4,0-.82,0-1.28v-.34c0-.46,0-.88,0-1.28a4.51,4.51,0,0,1,.18-1.09,3,3,0,0,1,.4-.86,2.2,2.2,0,0,1,.73-.65,4,4,0,0,1,1.14-.4,8.76,8.76,0,0,1,1.65-.13,9.57,9.57,0,0,1,1.48.1,4.42,4.42,0,0,1,1.13.29,2,2,0,0,1,.72.5,1.12,1.12,0,0,1,.25.71,2.46,2.46,0,0,1,0,.28.74.74,0,0,1-.1.26.67.67,0,0,1-.22.18.74.74,0,0,1-.36.07,3.24,3.24,0,0,1-.5-.05l-.65-.12c-.24-.05-.51-.09-.81-.13a7.37,7.37,0,0,0-1-.06,4.47,4.47,0,0,0-.81.06,1,1,0,0,0-.51.26,1.19,1.19,0,0,0-.26.6,6,6,0,0,0-.07,1.06v1.1c0,.34,0,.63,0,.88a1.34,1.34,0,0,0,.19.63.91.91,0,0,0,.49.38,2.93,2.93,0,0,0,.95.13,9.2,9.2,0,0,0,1.12-.07l.9-.15.51-.1a2.1,2.1,0,0,1,.41,0,.74.74,0,0,1,.36.07.67.67,0,0,1,.22.18.77.77,0,0,1,.1.25,2.83,2.83,0,0,1,0,.29,1.09,1.09,0,0,1-.25.7,1.78,1.78,0,0,1-.72.5,4,4,0,0,1-1.13.3A9.57,9.57,0,0,1,668.24,412.45Z" transform="translate(-583.39 -302.9)" style="fill:#fff"/><path d="M679.42,412.18l-.55.09-.62.09c-.23,0-.47.05-.73.06s-.54,0-.84,0a3.93,3.93,0,0,1-1.75-.33,2.45,2.45,0,0,1-1-.92,3.52,3.52,0,0,1-.45-1.36,12.39,12.39,0,0,1-.1-1.67v-.09a13.25,13.25,0,0,1,.13-2,4.52,4.52,0,0,1,.5-1.53,2.6,2.6,0,0,1,1-1,3.38,3.38,0,0,1,1.66-.36c.35,0,.73,0,1.12,0a11.14,11.14,0,0,1,1.16.15,6.58,6.58,0,0,1,1.1.29,3.49,3.49,0,0,1,.92.49,2.07,2.07,0,0,1,.87,1.72v5.72a.54.54,0,0,1-.18.42,1.55,1.55,0,0,1-.44.24,2.44,2.44,0,0,1-.55.12l-.53,0Zm0-5.53a1.72,1.72,0,0,0-.09-.58.89.89,0,0,0-.32-.43,1.53,1.53,0,0,0-.63-.26,5,5,0,0,0-1-.09,1.77,1.77,0,0,0-.8.14,1.05,1.05,0,0,0-.46.45,2.4,2.4,0,0,0-.21.74c0,.3-.05.65-.05,1v1a5.78,5.78,0,0,0,.05.78,1.33,1.33,0,0,0,.21.54,1,1,0,0,0,.46.31,2.44,2.44,0,0,0,.8.1l.63,0,.56-.07.47-.1a1.41,1.41,0,0,0,.32-.13l.06,0,0,0Z" transform="translate(-583.39 -302.9)" style="fill:#fff"/><path d="M688.44,403.23a2.88,2.88,0,0,1,1.56.4,1.15,1.15,0,0,1,.55,1,2.64,2.64,0,0,1,0,.28.69.69,0,0,1-.1.25.59.59,0,0,1-.22.19.74.74,0,0,1-.36.07,1.58,1.58,0,0,1-.34,0l-.29,0-.41-.06-.69,0a3.89,3.89,0,0,0-.76.06,1.68,1.68,0,0,0-.46.14.49.49,0,0,0-.23.18.32.32,0,0,0-.06.18v6a.54.54,0,0,1-.11.35.68.68,0,0,1-.27.2,1.5,1.5,0,0,1-.39.08l-.44,0-.46,0a2.15,2.15,0,0,1-.4-.09.59.59,0,0,1-.26-.2.53.53,0,0,1-.1-.34v-7a.8.8,0,0,1,.19-.53,1.55,1.55,0,0,1,.51-.42,2.87,2.87,0,0,1,.75-.31,6.23,6.23,0,0,1,.9-.21,7.62,7.62,0,0,1,1-.11Z" transform="translate(-583.39 -302.9)" style="fill:#fff"/><path d="M694.36,403.23H695c.22,0,.45,0,.69,0a6.21,6.21,0,0,1,.73.13,3.1,3.1,0,0,1,.72.26v-3.62a.49.49,0,0,1,.2-.47,1.15,1.15,0,0,1,.54-.11l.52,0a2.33,2.33,0,0,1,.55.12,1.18,1.18,0,0,1,.44.25.52.52,0,0,1,.18.41v10.57a.86.86,0,0,1-.23.59,2,2,0,0,1-.63.43,4.86,4.86,0,0,1-.93.29,9.18,9.18,0,0,1-1.09.18c-.38,0-.77.07-1.16.09l-1.12,0a3.38,3.38,0,0,1-1.66-.36,2.51,2.51,0,0,1-1-1,4.31,4.31,0,0,1-.5-1.53,13.18,13.18,0,0,1-.14-2v-.09a9.84,9.84,0,0,1,.14-1.68,3.63,3.63,0,0,1,.51-1.36,2.54,2.54,0,0,1,1-.91A3.41,3.41,0,0,1,694.36,403.23Zm.64,7.17a9.75,9.75,0,0,0,1.06,0,3.1,3.1,0,0,0,.63-.13.85.85,0,0,0,.32-.17.31.31,0,0,0,.08-.19V406a.39.39,0,0,0-.21-.29,1.53,1.53,0,0,0-.48-.22,4.82,4.82,0,0,0-.65-.15q-.37-.06-.75-.09a2.56,2.56,0,0,0-.68,0,.82.82,0,0,0-.46.24,1.36,1.36,0,0,0-.26.54,4.59,4.59,0,0,0-.09.94l0,1a8.38,8.38,0,0,0,0,1,2.25,2.25,0,0,0,.21.74,1.07,1.07,0,0,0,.47.45A1.81,1.81,0,0,0,695,410.4Z" transform="translate(-583.39 -302.9)" style="fill:#fff"/><path d="M705.76,412.45a7.25,7.25,0,0,1-1.66-.17,3.92,3.92,0,0,1-1.17-.48,2.69,2.69,0,0,1-.76-.74,3.52,3.52,0,0,1-.44-.94,6.08,6.08,0,0,1-.21-1.08c0-.38,0-.78,0-1.18v0c0-.4,0-.79,0-1.18a6.08,6.08,0,0,1,.21-1.08,3.52,3.52,0,0,1,.44-.94,2.53,2.53,0,0,1,.76-.73,3.68,3.68,0,0,1,1.17-.48,6.69,6.69,0,0,1,1.66-.18h0a6.69,6.69,0,0,1,1.66.18,3.68,3.68,0,0,1,1.17.48,2.53,2.53,0,0,1,.76.73,3.85,3.85,0,0,1,.44.94,6.08,6.08,0,0,1,.21,1.08c0,.39.05.78.05,1.18v0c0,.4,0,.8-.05,1.18a6.08,6.08,0,0,1-.21,1.08,3.85,3.85,0,0,1-.44.94,2.69,2.69,0,0,1-.76.74,3.92,3.92,0,0,1-1.17.48,7.25,7.25,0,0,1-1.66.17Zm.09-2a2.57,2.57,0,0,0,1-.17,1.19,1.19,0,0,0,.54-.47,1.94,1.94,0,0,0,.23-.77c0-.3,0-.65,0-1v-.36c0-.38,0-.73,0-1a1.84,1.84,0,0,0-.23-.77,1.15,1.15,0,0,0-.54-.48,2.57,2.57,0,0,0-1-.17h-.13a2.49,2.49,0,0,0-1,.17,1.13,1.13,0,0,0-.55.48,1.84,1.84,0,0,0-.23.77c0,.3,0,.65,0,1V408c0,.39,0,.74,0,1a1.94,1.94,0,0,0,.23.77,1.17,1.17,0,0,0,.55.47,2.49,2.49,0,0,0,1,.17Z" transform="translate(-583.39 -302.9)" style="fill:#fff"/><path d="M610.05,430.86H604.3l-.44,1.31a3.1,3.1,0,0,1-.32.72,1.17,1.17,0,0,1-.39.38,1,1,0,0,1-.46.15,5.15,5.15,0,0,1-.59,0,1.19,1.19,0,0,1-.47-.09.67.67,0,0,1-.34-.28,1.19,1.19,0,0,1-.13-.54,2.66,2.66,0,0,1,.16-.82l3.32-9.45a2.85,2.85,0,0,1,.49-1,1.84,1.84,0,0,1,.59-.48,1.65,1.65,0,0,1,.64-.17l.67,0h.31q.33,0,.66,0a1.7,1.7,0,0,1,.65.17,1.81,1.81,0,0,1,.58.48,2.85,2.85,0,0,1,.5,1l3.31,9.45a2.17,2.17,0,0,1,.16.82,1.08,1.08,0,0,1-.13.54.64.64,0,0,1-.33.28,1.23,1.23,0,0,1-.47.09,5.47,5.47,0,0,1-.6,0,1.08,1.08,0,0,1-.47-.15,1.15,1.15,0,0,1-.38-.38,2.73,2.73,0,0,1-.32-.72Zm-5.06-2h4.39l-1.94-5.72c0-.09-.06-.16-.08-.21a.14.14,0,0,0-.11-.08h-.13a.12.12,0,0,0-.11.08,1.09,1.09,0,0,0-.09.21Z" transform="translate(-583.39 -302.9)" style="fill:#fff"/><path d="M616.8,432.8a.54.54,0,0,1-.1.35.68.68,0,0,1-.27.2,1.59,1.59,0,0,1-.39.08l-.44,0-.47,0a2.23,2.23,0,0,1-.39-.09.68.68,0,0,1-.27-.2.6.6,0,0,1-.1-.34v-6.95c0-.52.43-.93,1.28-1.2a13.35,13.35,0,0,1,3.89-.42,3.36,3.36,0,0,1,1.65.36,2.56,2.56,0,0,1,1,1,4.52,4.52,0,0,1,.5,1.53,13.25,13.25,0,0,1,.13,2v3.72a.54.54,0,0,1-.1.35.68.68,0,0,1-.27.2,1.59,1.59,0,0,1-.39.08l-.44,0-.47,0a2.23,2.23,0,0,1-.39-.09.68.68,0,0,1-.27-.2.6.6,0,0,1-.1-.34v-4.14a8.14,8.14,0,0,0,0-1,2.16,2.16,0,0,0-.2-.74,1.05,1.05,0,0,0-.46-.45,1.82,1.82,0,0,0-.8-.14c-.38,0-.69,0-.94,0a5.77,5.77,0,0,0-.61.08.94.94,0,0,0-.34.12.41.41,0,0,0-.16.16.45.45,0,0,0,0,.2v5.93Z" transform="translate(-583.39 -302.9)" style="fill:#fff"/><path d="M633.37,434.42a3.73,3.73,0,0,1-.24,1.42,2.21,2.21,0,0,1-.75,1,3.63,3.63,0,0,1-1.35.53,11.85,11.85,0,0,1-4,0,3.58,3.58,0,0,1-1.34-.53,2.23,2.23,0,0,1-.76-1,4,4,0,0,1-.23-1.42,3.9,3.9,0,0,1,.17-1.25,2.21,2.21,0,0,1,.56-.9,2.51,2.51,0,0,1,1-.58,5.81,5.81,0,0,1,1.43-.29v-1a5.81,5.81,0,0,1-1.43-.29,2.65,2.65,0,0,1-1-.59,2.21,2.21,0,0,1-.56-.9,4.68,4.68,0,0,1,0-2.5,2.09,2.09,0,0,1,.56-.9,2.51,2.51,0,0,1,1-.58,5.81,5.81,0,0,1,1.43-.29v-.38a.56.56,0,0,1,.1-.35.67.67,0,0,1,.27-.22,1.8,1.8,0,0,1,.39-.12,3.44,3.44,0,0,1,.46,0,3.15,3.15,0,0,1,.44,0,1.38,1.38,0,0,1,.39.11.75.75,0,0,1,.27.22.59.59,0,0,1,.11.36v.38a5.72,5.72,0,0,1,1.42.29,2.78,2.78,0,0,1,1,.58,2.3,2.3,0,0,1,.55.9,4.29,4.29,0,0,1,.17,1.25,4.2,4.2,0,0,1-.17,1.25,2.3,2.3,0,0,1-.55.9,2.51,2.51,0,0,1-1,.58,5.72,5.72,0,0,1-1.42.29v1a5.72,5.72,0,0,1,1.42.29,2.65,2.65,0,0,1,1,.59,2.17,2.17,0,0,1,.55.9A4.18,4.18,0,0,1,633.37,434.42Zm-2.46-7.09a1,1,0,0,0-.46-.89,3,3,0,0,0-1.42-.26,5.62,5.62,0,0,0-.9.06,1.52,1.52,0,0,0-.57.2.81.81,0,0,0-.31.36,1.44,1.44,0,0,0-.09.53,1.36,1.36,0,0,0,.09.53.81.81,0,0,0,.31.36,1.52,1.52,0,0,0,.57.2,6.78,6.78,0,0,0,1.8,0,1.57,1.57,0,0,0,.58-.2.88.88,0,0,0,.31-.36A1.36,1.36,0,0,0,630.91,427.33Zm0,7.09a.94.94,0,0,0-.46-.88,2.9,2.9,0,0,0-1.42-.27,5.62,5.62,0,0,0-.9.06,1.51,1.51,0,0,0-.57.21.72.72,0,0,0-.31.36,1.35,1.35,0,0,0-.09.52,1.36,1.36,0,0,0,.09.53.76.76,0,0,0,.31.36,1.52,1.52,0,0,0,.57.2,6.78,6.78,0,0,0,1.8,0,1.57,1.57,0,0,0,.58-.2.82.82,0,0,0,.31-.36A1.36,1.36,0,0,0,630.91,434.42Z" transform="translate(-583.39 -302.9)" style="fill:#fff"/><path d="M641.18,424.88a.51.51,0,0,1,.11-.34.66.66,0,0,1,.27-.19,1.17,1.17,0,0,1,.39-.09,3.15,3.15,0,0,1,.44,0,3.33,3.33,0,0,1,.46,0,1.24,1.24,0,0,1,.4.09.66.66,0,0,1,.27.19.59.59,0,0,1,.09.34V432a.83.83,0,0,1-.32.67,2.53,2.53,0,0,1-1,.45,9.55,9.55,0,0,1-1.61.24c-.64.05-1.4.08-2.27.08a3.38,3.38,0,0,1-1.66-.36,2.57,2.57,0,0,1-1-1,4.52,4.52,0,0,1-.5-1.53,13.18,13.18,0,0,1-.14-2v-3.73a.51.51,0,0,1,.11-.34.66.66,0,0,1,.27-.19,1.17,1.17,0,0,1,.39-.09,3.15,3.15,0,0,1,.44,0,3.33,3.33,0,0,1,.46,0,1.12,1.12,0,0,1,.39.09.55.55,0,0,1,.27.19.53.53,0,0,1,.1.34V429a10.35,10.35,0,0,0,0,1,2.25,2.25,0,0,0,.21.74,1.08,1.08,0,0,0,.45.45,1.83,1.83,0,0,0,.81.15c.56,0,1,0,1.28,0a2.08,2.08,0,0,0,.61-.11c.12-.05.18-.11.18-.19a2.27,2.27,0,0,0,0-.28Z" transform="translate(-583.39 -302.9)" style="fill:#fff"/><path d="M648.24,432.8a.54.54,0,0,1-.1.35.65.65,0,0,1-.28.2,1.41,1.41,0,0,1-.39.08l-.44,0-.46,0a1.87,1.87,0,0,1-.39-.09.57.57,0,0,1-.27-.2.53.53,0,0,1-.1-.34V421.28a1.06,1.06,0,0,1,0-.33.41.41,0,0,1,.14-.2.66.66,0,0,1,.25-.09,2.42,2.42,0,0,1,.42,0,2.74,2.74,0,0,1,.45,0,2.31,2.31,0,0,1,.52.12,1.37,1.37,0,0,1,.43.24.49.49,0,0,1,.18.4Z" transform="translate(-583.39 -302.9)" style="fill:#fff"/><path d="M654.49,433.45a7.16,7.16,0,0,1-1.65-.17,3.92,3.92,0,0,1-1.17-.48,2.69,2.69,0,0,1-.76-.74,3.52,3.52,0,0,1-.44-.94,4.7,4.7,0,0,1-.21-1.08c0-.38,0-.78,0-1.18v0c0-.4,0-.79,0-1.18a4.7,4.7,0,0,1,.21-1.08,3.52,3.52,0,0,1,.44-.94,2.53,2.53,0,0,1,.76-.73,3.68,3.68,0,0,1,1.17-.48,6.6,6.6,0,0,1,1.65-.18h.06a6.6,6.6,0,0,1,1.65.18,3.49,3.49,0,0,1,1.17.48,2.57,2.57,0,0,1,.77.73,4.26,4.26,0,0,1,.44.94,5.3,5.3,0,0,1,.2,1.08,11.52,11.52,0,0,1,.05,1.18v0a11.4,11.4,0,0,1-.05,1.18,5.3,5.3,0,0,1-.2,1.08,4.26,4.26,0,0,1-.44.94,2.73,2.73,0,0,1-.77.74,3.71,3.71,0,0,1-1.17.48,7.16,7.16,0,0,1-1.65.17Zm.09-2a2.51,2.51,0,0,0,1-.17,1.17,1.17,0,0,0,.55-.47,1.94,1.94,0,0,0,.23-.77c0-.3,0-.65,0-1v-.36c0-.38,0-.73,0-1a1.84,1.84,0,0,0-.23-.77,1.13,1.13,0,0,0-.55-.48,2.51,2.51,0,0,0-1-.17h-.12a2.57,2.57,0,0,0-1,.17,1.18,1.18,0,0,0-.55.48,1.84,1.84,0,0,0-.22.77c0,.3,0,.65,0,1V429c0,.39,0,.74,0,1a1.94,1.94,0,0,0,.22.77,1.22,1.22,0,0,0,.55.47,2.57,2.57,0,0,0,1,.17Z" transform="translate(-583.39 -302.9)" style="fill:#fff"/><path d="M669.44,433.52a4.31,4.31,0,0,1-1.91-.38,3.64,3.64,0,0,1-1.32-1,4.23,4.23,0,0,1-.75-1.5,6.28,6.28,0,0,1-.25-1.81v-2.44a6,6,0,0,1,.27-1.82,4.32,4.32,0,0,1,.82-1.51,3.85,3.85,0,0,1,1.38-1,4.66,4.66,0,0,1,1.94-.38,5.32,5.32,0,0,1,1.3.16,3.9,3.9,0,0,1,1,.44,2.19,2.19,0,0,1,.69.61,1.24,1.24,0,0,1,.24.72.75.75,0,0,1-.21.56.69.69,0,0,1-.51.19,1.53,1.53,0,0,1-.54-.08,2.34,2.34,0,0,1-.54-.28,2.67,2.67,0,0,0-.61-.3,2.4,2.4,0,0,0-.86-.13,2.18,2.18,0,0,0-1.66.66,2.89,2.89,0,0,0-.63,2.06v.67a3.17,3.17,0,0,1,1.12-.66A4.69,4.69,0,0,1,670,426a3.35,3.35,0,0,1,2.49.91,3.42,3.42,0,0,1,.87,2.47V430a3.77,3.77,0,0,1-.22,1.27,3.34,3.34,0,0,1-.71,1.16,3.68,3.68,0,0,1-1.24.82A4.09,4.09,0,0,1,669.44,433.52Zm-2.07-3.72a2.18,2.18,0,0,0,.67,1.4,2.1,2.1,0,0,0,1.39.43,2,2,0,0,0,1.39-.42,1.44,1.44,0,0,0,.48-1.14v-.74c0-1.05-.63-1.57-1.87-1.57a2.23,2.23,0,0,0-.77.14,1.94,1.94,0,0,0-.65.39,2,2,0,0,0-.44.65,2.21,2.21,0,0,0-.16.87Z" transform="translate(-583.39 -302.9)" style="fill:#fff"/><path d="M678.79,421.82a1,1,0,0,1,.72.26.79.79,0,0,1,.28.59v10a.77.77,0,0,1-.28.58,1,1,0,0,1-.72.26,1.18,1.18,0,0,1-.8-.26.77.77,0,0,1-.28-.58v-8.95h-1.77a1.09,1.09,0,0,1-.75-.26.91.91,0,0,1-.27-.68,1,1,0,0,1,.27-.71,1.09,1.09,0,0,1,.75-.26Z" transform="translate(-583.39 -302.9)" style="fill:#fff"/><path d="M685.55,421.82a1,1,0,0,1,.73.26.79.79,0,0,1,.28.59v10a.77.77,0,0,1-.28.58,1,1,0,0,1-.73.26,1.16,1.16,0,0,1-.79-.26.78.78,0,0,1-.29-.58v-8.95h-1.76a1.09,1.09,0,0,1-.75-.26.92.92,0,0,1-.28-.68,1,1,0,0,1,.28-.71,1.09,1.09,0,0,1,.75-.26Z" transform="translate(-583.39 -302.9)" style="fill:#fff"/><path d="M689.14,432.55a1.1,1.1,0,0,1,.31-.86,1.07,1.07,0,0,1,.71-.27,1.21,1.21,0,0,1,.73.22.86.86,0,0,1,.32.75,4.55,4.55,0,0,1-.51,2.2,3.66,3.66,0,0,1-1.69,1.54,1.08,1.08,0,0,1-.8.05.87.87,0,0,1-.47-.41.77.77,0,0,1,0-.6,1,1,0,0,1,.51-.57,1.37,1.37,0,0,0,.75-.86A4.17,4.17,0,0,0,689.14,432.55Z" transform="translate(-583.39 -302.9)" style="fill:#fff"/><path d="M698,426a5.29,5.29,0,0,1,.27-1.69,3.86,3.86,0,0,1,.81-1.39,3.93,3.93,0,0,1,1.33-.95,4.54,4.54,0,0,1,1.82-.35,5.32,5.32,0,0,1,1.3.16,4,4,0,0,1,1,.44,2.26,2.26,0,0,1,.68.61,1.19,1.19,0,0,1,.25.72.7.7,0,0,1-.72.75,1.46,1.46,0,0,1-.54-.08,2,2,0,0,1-.54-.28,3.23,3.23,0,0,0-.62-.3,2.36,2.36,0,0,0-.86-.13,2.08,2.08,0,0,0-1.48.58,2.29,2.29,0,0,0-.62,1.78v3.4a2.24,2.24,0,0,0,.62,1.77,2.11,2.11,0,0,0,1.48.57,3.72,3.72,0,0,0,.84-.08,2.22,2.22,0,0,0,.6-.24l.34-.21.26-.13a1.83,1.83,0,0,1,.25-.06l.29,0a.65.65,0,0,1,.53.21.8.8,0,0,1,.17.51,1.15,1.15,0,0,1-.25.72,2.26,2.26,0,0,1-.68.61,4.43,4.43,0,0,1-1,.42,4.87,4.87,0,0,1-1.3.16,4.38,4.38,0,0,1-1.82-.35,3.91,3.91,0,0,1-1.33-.94,4,4,0,0,1-.81-1.39,5.21,5.21,0,0,1-.27-1.69Z" transform="translate(-583.39 -302.9)" style="fill:#fff"/><path d="M706.85,428.28a5.19,5.19,0,0,1,.24-1.59,3.6,3.6,0,0,1,.74-1.31,3.27,3.27,0,0,1,1.27-.89,4.64,4.64,0,0,1,1.83-.33,4.59,4.59,0,0,1,1.82.33,3.39,3.39,0,0,1,1.28.89,3.62,3.62,0,0,1,.75,1.31,5.19,5.19,0,0,1,.24,1.59v1.25a4.81,4.81,0,0,1-.24,1.53,3.49,3.49,0,0,1-.75,1.26,3.54,3.54,0,0,1-1.28.85,4.78,4.78,0,0,1-1.82.32,4.83,4.83,0,0,1-1.83-.32,3.42,3.42,0,0,1-1.27-.85,3.47,3.47,0,0,1-.74-1.26,4.81,4.81,0,0,1-.24-1.53Zm2.12,1.26a2.15,2.15,0,0,0,.52,1.53,1.92,1.92,0,0,0,1.44.54,1.89,1.89,0,0,0,1.44-.54,2.11,2.11,0,0,0,.53-1.53v-1.29a2.31,2.31,0,0,0-.53-1.64,1.86,1.86,0,0,0-1.44-.56,1.89,1.89,0,0,0-1.44.56,2.35,2.35,0,0,0-.52,1.64Z" transform="translate(-583.39 -302.9)" style="fill:#fff"/><path d="M721.16,426.12a3.88,3.88,0,0,0-.72.06,1.29,1.29,0,0,0-.55.21,1,1,0,0,0-.34.47,2.23,2.23,0,0,0-.12.79v5a.77.77,0,0,1-.28.58,1.07,1.07,0,0,1-.75.26,1.17,1.17,0,0,1-.78-.26.76.76,0,0,1-.3-.58v-4.95a3.61,3.61,0,0,1,.92-2.64,4,4,0,0,1,2.92-.93,2.28,2.28,0,0,1,1.39.36,1,1,0,0,1,.37,1,.65.65,0,0,1-.23.46.9.9,0,0,1-.43.16,2.44,2.44,0,0,1-.54,0Z" transform="translate(-583.39 -302.9)" style="fill:#fff"/><path d="M726.77,432.59v3.87a.77.77,0,0,1-.28.58,1,1,0,0,1-.74.26A1.17,1.17,0,0,1,725,437a.78.78,0,0,1-.29-.58v-8.7a4,4,0,0,1,.25-1.43,3.15,3.15,0,0,1,.75-1.14,3.46,3.46,0,0,1,1.26-.76,5,5,0,0,1,1.73-.27,4.58,4.58,0,0,1,1.84.34,3.62,3.62,0,0,1,1.3.89,3.82,3.82,0,0,1,.78,1.32,4.91,4.91,0,0,1,.26,1.59v1.06a5.53,5.53,0,0,1-.22,1.6,3.68,3.68,0,0,1-.66,1.31,3.21,3.21,0,0,1-1.15.9,4,4,0,0,1-1.7.33,2.8,2.8,0,0,1-1.27-.26,3,3,0,0,1-.92-.69Zm0-3a1.81,1.81,0,0,0,.54,1.45,2,2,0,0,0,1.35.47,2,2,0,0,0,1.49-.57,2.09,2.09,0,0,0,.56-1.53v-1.21a2.06,2.06,0,0,0-.56-1.53,2,2,0,0,0-1.49-.58,2.31,2.31,0,0,0-1.35.38,1.35,1.35,0,0,0-.54,1.19Z" transform="translate(-583.39 -302.9)" style="fill:#fff"/><path d="M741.86,433.61a1,1,0,0,1-.73-.26.77.77,0,0,1-.28-.58v-.29l-.16-.06a5.2,5.2,0,0,1-.35.44,2.07,2.07,0,0,1-.46.35,2.3,2.3,0,0,1-.64.23,4,4,0,0,1-.91.08,3.39,3.39,0,0,1-1.51-.31,3.18,3.18,0,0,1-1.07-.82,3.65,3.65,0,0,1-.62-1.15,4.68,4.68,0,0,1-.2-1.34v-1.58a4.31,4.31,0,0,1,.27-1.49,4.13,4.13,0,0,1,.79-1.34,4,4,0,0,1,1.31-1,4.47,4.47,0,0,1,1.86-.37,4.87,4.87,0,0,1,1.71.27,3.15,3.15,0,0,1,1.18.75,3,3,0,0,1,.67,1.12,4.38,4.38,0,0,1,.22,1.43v5a.78.78,0,0,1-.29.58A1.16,1.16,0,0,1,741.86,433.61Zm-1-5.85a1.6,1.6,0,0,0-.44-1.27,1.94,1.94,0,0,0-1.25-.37,2.08,2.08,0,0,0-.85.17,2,2,0,0,0-.65.47,2.27,2.27,0,0,0-.42.68,2.16,2.16,0,0,0-.15.81V430a1.49,1.49,0,0,0,.48,1.11,1.7,1.7,0,0,0,1.21.47,2.18,2.18,0,0,0,.76-.14,2,2,0,0,0,.66-.39,1.92,1.92,0,0,0,.47-.66,2.19,2.19,0,0,0,.18-.92Z" transform="translate(-583.39 -302.9)" style="fill:#fff"/><path d="M745.26,428.09a5.1,5.1,0,0,1,.22-1.53,3.45,3.45,0,0,1,.71-1.25,3.28,3.28,0,0,1,1.25-.84,4.69,4.69,0,0,1,1.81-.31,4.46,4.46,0,0,1,1.59.25,3,3,0,0,1,1.08.65.88.88,0,0,1,.25.59,1.08,1.08,0,0,1-.15.62,1,1,0,0,1-.52.38,1.18,1.18,0,0,1-.86-.15c-.18-.09-.38-.18-.59-.26a2.32,2.32,0,0,0-.8-.12,1.73,1.73,0,0,0-1.4.56,2.29,2.29,0,0,0-.47,1.51v1.3a2.27,2.27,0,0,0,.47,1.51,1.73,1.73,0,0,0,1.4.56,3.15,3.15,0,0,0,.85-.1,2.74,2.74,0,0,0,.59-.22,1.08,1.08,0,0,1,.72-.14.93.93,0,0,1,.53.29.94.94,0,0,1,.23.54.92.92,0,0,1-.2.64,2.06,2.06,0,0,1-1.09.71,5.26,5.26,0,0,1-1.63.24,4.9,4.9,0,0,1-1.81-.3,3.25,3.25,0,0,1-2-2.1,5,5,0,0,1-.22-1.52Z" transform="translate(-583.39 -302.9)" style="fill:#fff"/><path d="M604.28,445a1,1,0,0,0,.31.78,2.41,2.41,0,0,0,.81.52,8.27,8.27,0,0,0,1.18.37l1.35.33c.47.12.93.26,1.39.42a4.76,4.76,0,0,1,1.25.64,3.73,3.73,0,0,1,.95.95,3.28,3.28,0,0,1,.5,1.41,3.35,3.35,0,0,1,0,.83,2.81,2.81,0,0,1-.29.89,3.07,3.07,0,0,1-.62.86,3.68,3.68,0,0,1-1,.74,6.06,6.06,0,0,1-1.51.52,10.51,10.51,0,0,1-2.07.19,17.17,17.17,0,0,1-1.84-.09,7.69,7.69,0,0,1-1.46-.29,3.06,3.06,0,0,1-1-.53,1.5,1.5,0,0,1-.52-.78.75.75,0,0,1,0-.47.79.79,0,0,1,.23-.31.88.88,0,0,1,.35-.17.94.94,0,0,1,.37,0,6.58,6.58,0,0,1,.75.14l.81.22c.29.07.61.13,1,.19a7.12,7.12,0,0,0,1.19.09,5.43,5.43,0,0,0,1.33-.12,3.33,3.33,0,0,0,1-.36,1.68,1.68,0,0,0,.59-.56,1.32,1.32,0,0,0,.21-.72.91.91,0,0,0-.33-.72,2.76,2.76,0,0,0-.87-.49,8.19,8.19,0,0,0-1.23-.37l-1.41-.35c-.49-.12-1-.26-1.42-.42a5.49,5.49,0,0,1-1.24-.6,3,3,0,0,1-.9-.86,2.18,2.18,0,0,1-.36-1.23,3.87,3.87,0,0,1,.23-1.43,3.41,3.41,0,0,1,.79-1.24,4.23,4.23,0,0,1,1.35-.89,5.4,5.4,0,0,1,2-.4h.68a10.12,10.12,0,0,1,1.06,0c.39,0,.8.08,1.21.15a5,5,0,0,1,1.15.33,2.71,2.71,0,0,1,.86.58,1.27,1.27,0,0,1,.33.89,1.39,1.39,0,0,1,0,.3.56.56,0,0,1-.13.24.81.81,0,0,1-.28.14,2.08,2.08,0,0,1-.46,0c-.23,0-.51-.05-.84-.1l-1-.15-1.14-.14a11.41,11.41,0,0,0-1.16-.06,4,4,0,0,0-.7.06,2.18,2.18,0,0,0-.61.19,1.23,1.23,0,0,0-.43.34A.8.8,0,0,0,604.28,445Z" transform="translate(-583.39 -302.9)" style="fill:#fff"/><path d="M621.56,451.86H615.8l-.44,1.31a3.1,3.1,0,0,1-.32.72,1.15,1.15,0,0,1-.38.38,1.08,1.08,0,0,1-.47.15,5.15,5.15,0,0,1-.59,0,1.23,1.23,0,0,1-.47-.09.71.71,0,0,1-.34-.28,1.19,1.19,0,0,1-.13-.54,2.44,2.44,0,0,1,.17-.82l3.31-9.45a3,3,0,0,1,.49-1,2,2,0,0,1,.59-.48,1.65,1.65,0,0,1,.65-.17q.33,0,.66,0h.31q.33,0,.66,0a1.65,1.65,0,0,1,.65.17,2,2,0,0,1,.59.48,3,3,0,0,1,.49,1l3.31,9.45a2.44,2.44,0,0,1,.17.82,1.08,1.08,0,0,1-.14.54.64.64,0,0,1-.33.28,1.23,1.23,0,0,1-.47.09,5.15,5.15,0,0,1-.59,0,1.08,1.08,0,0,1-.48-.15,1.15,1.15,0,0,1-.38-.38,2.76,2.76,0,0,1-.31-.72Zm-5.07-2h4.39L619,444.12a1.09,1.09,0,0,0-.09-.21c0-.05-.06-.08-.11-.08h-.13s-.08,0-.11.08a1.09,1.09,0,0,0-.09.21Z" transform="translate(-583.39 -302.9)" style="fill:#fff"/><path d="M636.9,453.8a.7.7,0,0,1-.07.35.55.55,0,0,1-.2.2,1,1,0,0,1-.32.08l-.42,0-.41,0a1.76,1.76,0,0,1-.4-.07,2.06,2.06,0,0,1-.35-.12.62.62,0,0,1-.25-.19h0l-5.91-7.72v7.42a.45.45,0,0,1-.15.35,1.1,1.1,0,0,1-.38.23,2.5,2.5,0,0,1-.49.11l-.49,0-.45,0a1.12,1.12,0,0,1-.32-.09.48.48,0,0,1-.2-.2.83.83,0,0,1-.06-.34V442.43a.7.7,0,0,1,.25-.6,1.24,1.24,0,0,1,.78-.2,3,3,0,0,1,.73.09,1.24,1.24,0,0,1,.58.31l0,0,6,7.8v-7a.85.85,0,0,1,.13-.47,1.14,1.14,0,0,1,.34-.39,1.68,1.68,0,0,1,1.06-.37,1.4,1.4,0,0,1,.77.16c.16.1.24.31.24.64Z" transform="translate(-583.39 -302.9)" style="fill:#fff"/><path d="M646.7,453.8a.54.54,0,0,1-.11.35.75.75,0,0,1-.29.2,1.57,1.57,0,0,1-.4.08l-.46,0-.49,0a2,2,0,0,1-.4-.09.65.65,0,0,1-.28-.2.53.53,0,0,1-.11-.34V442.43a.65.65,0,0,1,.1-.35.68.68,0,0,1,.28-.25,1.4,1.4,0,0,1,.41-.15,2.54,2.54,0,0,1,.49-.05,2.49,2.49,0,0,1,.49,0,1.17,1.17,0,0,1,.4.12.64.64,0,0,1,.27.24.68.68,0,0,1,.1.4Z" transform="translate(-583.39 -302.9)" style="fill:#fff"/><path d="M651.13,445a1,1,0,0,0,.31.78,2.46,2.46,0,0,0,.82.52,8.53,8.53,0,0,0,1.17.37l1.36.33q.69.18,1.38.42a4.76,4.76,0,0,1,1.25.64,3.58,3.58,0,0,1,1,.95,3.15,3.15,0,0,1,.5,1.41,3.35,3.35,0,0,1,0,.83,3.06,3.06,0,0,1-.28.89,3.53,3.53,0,0,1-.62.86,3.73,3.73,0,0,1-1,.74,6.06,6.06,0,0,1-1.51.52,10.43,10.43,0,0,1-2.07.19,17.3,17.3,0,0,1-1.84-.09,7.85,7.85,0,0,1-1.46-.29,3.26,3.26,0,0,1-1-.53,1.5,1.5,0,0,1-.52-.78.68.68,0,0,1,0-.47.77.77,0,0,1,.22-.31.92.92,0,0,1,.36-.17.94.94,0,0,1,.37,0,6.85,6.85,0,0,1,.74.14l.82.22c.29.07.61.13,1,.19a6.91,6.91,0,0,0,1.18.09,5.43,5.43,0,0,0,1.33-.12,3.22,3.22,0,0,0,1-.36,1.81,1.81,0,0,0,.6-.56,1.39,1.39,0,0,0,.2-.72.91.91,0,0,0-.33-.72,2.76,2.76,0,0,0-.87-.49,8.19,8.19,0,0,0-1.23-.37l-1.41-.35c-.48-.12-1-.26-1.42-.42a5.7,5.7,0,0,1-1.24-.6,3,3,0,0,1-.89-.86,2.11,2.11,0,0,1-.37-1.23,4.08,4.08,0,0,1,.23-1.43,3.54,3.54,0,0,1,.79-1.24,4.17,4.17,0,0,1,1.36-.89,5.3,5.3,0,0,1,1.94-.4h.68a10,10,0,0,1,1.06,0c.4,0,.8.08,1.22.15a4.89,4.89,0,0,1,1.14.33,2.6,2.6,0,0,1,.86.58,1.27,1.27,0,0,1,.33.89,1.39,1.39,0,0,1,0,.3.47.47,0,0,1-.13.24.86.86,0,0,1-.27.14,2.22,2.22,0,0,1-.47,0c-.23,0-.51-.05-.83-.1l-1-.15-1.15-.14a11.22,11.22,0,0,0-1.15-.06,4.17,4.17,0,0,0-.71.06,2.29,2.29,0,0,0-.61.19,1.23,1.23,0,0,0-.43.34A.8.8,0,0,0,651.13,445Z" transform="translate(-583.39 -302.9)" style="fill:#fff"/><path d="M663.29,453.8a.54.54,0,0,1-.11.35.84.84,0,0,1-.29.2,1.57,1.57,0,0,1-.41.08l-.45,0-.49,0a2.09,2.09,0,0,1-.41-.09.72.72,0,0,1-.28-.2.53.53,0,0,1-.1-.34V442.43a.58.58,0,0,1,.1-.35.72.72,0,0,1,.27-.25,1.66,1.66,0,0,1,.41-.15,2.65,2.65,0,0,1,.5-.05,2.56,2.56,0,0,1,.49,0,1.25,1.25,0,0,1,.4.12.78.78,0,0,1,.27.24.76.76,0,0,1,.1.4Z" transform="translate(-583.39 -302.9)" style="fill:#fff"/><path d="M667.1,454.34l-.49,0a2.15,2.15,0,0,1-.4-.09.65.65,0,0,1-.28-.2.53.53,0,0,1-.1-.34v-11a1.5,1.5,0,0,1,.1-.3.78.78,0,0,1,.22-.3,1.11,1.11,0,0,1,.37-.23,1.44,1.44,0,0,1,.58-.1h3.75a9.29,9.29,0,0,1,2.2.23,5,5,0,0,1,1.55.63,3.46,3.46,0,0,1,1,1,5.23,5.23,0,0,1,.57,1.27,7.83,7.83,0,0,1,.25,1.5c0,.54.06,1.1.06,1.67v.06c0,.57,0,1.13-.06,1.66a7.57,7.57,0,0,1-.25,1.5,5.06,5.06,0,0,1-.57,1.27,3.48,3.48,0,0,1-1,1,4.89,4.89,0,0,1-1.55.64,9.48,9.48,0,0,1-2.21.22H667.1Zm3.69-10.4h-2.43v8.21h2.69a4.65,4.65,0,0,0,1.51-.23,1.8,1.8,0,0,0,.88-.66,2.69,2.69,0,0,0,.4-1.17,12.37,12.37,0,0,0,.1-1.74v-.56a12.74,12.74,0,0,0-.1-1.77,2.7,2.7,0,0,0-.44-1.18,1.7,1.7,0,0,0-.93-.66,5,5,0,0,0-1.6-.2h-.08Z" transform="translate(-583.39 -302.9)" style="fill:#fff"/><path d="M683.37,443.94H681.3v9.87a.5.5,0,0,1-.12.35.84.84,0,0,1-.28.2,1.66,1.66,0,0,1-.41.08l-.45,0-.49,0a2.09,2.09,0,0,1-.41-.09.65.65,0,0,1-.28-.2.53.53,0,0,1-.1-.34v-11a.25.25,0,0,1,0-.1,2.43,2.43,0,0,1,.09-.3.89.89,0,0,1,.22-.3,1.17,1.17,0,0,1,.38-.23,1.37,1.37,0,0,1,.58-.1h3.34a9.51,9.51,0,0,1,1.06,0,7.05,7.05,0,0,1,1.2.16,5.87,5.87,0,0,1,1.2.41,3.59,3.59,0,0,1,1,.72,3.5,3.5,0,0,1,.73,1.12,4.09,4.09,0,0,1,.28,1.6v0a4.37,4.37,0,0,1-.2,1.38,3.32,3.32,0,0,1-.56,1,3.46,3.46,0,0,1-.8.73,5.06,5.06,0,0,1-1,.46l2.4,4.08a.54.54,0,0,1,.08.35.5.5,0,0,1-.15.26,1.22,1.22,0,0,1-.32.18,2.52,2.52,0,0,1-.39.12l-.41.06-.33,0a1.87,1.87,0,0,1-.65-.12.89.89,0,0,1-.49-.4l-2.35-4.12h-1.28a.57.57,0,0,1-.54-.32,1.73,1.73,0,0,1-.16-.78,3,3,0,0,1,0-.43,1.2,1.2,0,0,1,.11-.35.54.54,0,0,1,.22-.23.64.64,0,0,1,.36-.09h1.07a7.53,7.53,0,0,0,1.41-.13,2.16,2.16,0,0,0,.85-.34,1.21,1.21,0,0,0,.42-.54,2.38,2.38,0,0,0,.13-.74v-.09a2.67,2.67,0,0,0-.11-.78,1.15,1.15,0,0,0-.43-.57,2.18,2.18,0,0,0-.88-.36,7.4,7.4,0,0,0-1.48-.12h-.09Z" transform="translate(-583.39 -302.9)" style="fill:#fff"/><path d="M695.44,454.47a8.83,8.83,0,0,1-2.21-.24,4.74,4.74,0,0,1-1.54-.65,3.4,3.4,0,0,1-1-1,4.62,4.62,0,0,1-.57-1.3,7.9,7.9,0,0,1-.26-1.52q-.06-.81-.06-1.68V448c0-.57,0-1.13.06-1.67a7.87,7.87,0,0,1,.26-1.53,4.75,4.75,0,0,1,.57-1.3,3.4,3.4,0,0,1,1-1,4.74,4.74,0,0,1,1.54-.65,8.83,8.83,0,0,1,2.21-.24h.07a8.75,8.75,0,0,1,2.2.24,4.79,4.79,0,0,1,1.55.65,3.53,3.53,0,0,1,1,1,5.08,5.08,0,0,1,.57,1.3,7.89,7.89,0,0,1,.25,1.53c0,.54.06,1.1.06,1.67v.06q0,.85-.06,1.68a7.91,7.91,0,0,1-.25,1.52,4.93,4.93,0,0,1-.57,1.3,3.53,3.53,0,0,1-1,1,4.79,4.79,0,0,1-1.55.65,8.75,8.75,0,0,1-2.2.24Zm0-10.62a4.77,4.77,0,0,0-1.61.22,1.94,1.94,0,0,0-.93.69,2.8,2.8,0,0,0-.43,1.22,13.09,13.09,0,0,0-.11,1.79v.56a13,13,0,0,0,.11,1.79,2.75,2.75,0,0,0,.43,1.22,1.82,1.82,0,0,0,.93.69,4.77,4.77,0,0,0,1.61.22h.11a4.7,4.7,0,0,0,1.6-.22,1.74,1.74,0,0,0,.93-.69,2.88,2.88,0,0,0,.44-1.22,13.15,13.15,0,0,0,.1-1.79v-.56a13.25,13.25,0,0,0-.1-1.79,2.93,2.93,0,0,0-.44-1.22,1.85,1.85,0,0,0-.93-.69,4.7,4.7,0,0,0-1.6-.22Z" transform="translate(-583.39 -302.9)" style="fill:#fff"/><path d="M702.68,452.49a.5.5,0,0,1,.11-.34.62.62,0,0,1,.27-.2,1.87,1.87,0,0,1,.39-.09l.44,0,.46,0a1.87,1.87,0,0,1,.39.09.57.57,0,0,1,.27.2.53.53,0,0,1,.1.34v1.31a.54.54,0,0,1-.1.35.65.65,0,0,1-.28.2,1.42,1.42,0,0,1-.38.08l-.44,0-.47,0a1.87,1.87,0,0,1-.39-.09.68.68,0,0,1-.27-.2.53.53,0,0,1-.1-.34Z" transform="translate(-583.39 -302.9)" style="fill:#fff"/><line x1="0.47" y1="16.82" x2="30.14" y2="0.88" style="fill:none;stroke:#fff;stroke-miterlimit:10;stroke-width:2px"/><line x1="167.2" y1="65.85" x2="196.86" y2="49.91" style="fill:none;stroke:#fff;stroke-miterlimit:10;stroke-width:2px"/></svg>