<svg id="Capa_1" data-name="Capa 1" xmlns="http://www.w3.org/2000/svg" viewBox="0 0 363.01 248.55"><rect x="0.28" width="362.73" height="248.55" style="fill:#fff;opacity:0"/><line x1="3.09" y1="159.48" x2="360.2" y2="159.48" style="fill:none;stroke:#e0b624;stroke-linecap:round;stroke-linejoin:round;stroke-width:2.71557449131803px"/><path d="M575.54,447.46h13.27l.87,0h.38a1.07,1.07,0,0,1,.58.2,1.81,1.81,0,0,1,.43.48,2.79,2.79,0,0,1,.28.66,3.18,3.18,0,0,1,.09.74,2.51,2.51,0,0,1-.29,1.35,1.57,1.57,0,0,1-.74.64,2.74,2.74,0,0,1-1,.2H578v5.9h9.44a1.37,1.37,0,0,1,.59.19,1.73,1.73,0,0,1,.49.45,2.08,2.08,0,0,1,.32.65,2.63,2.63,0,0,1,.12.8,3.53,3.53,0,0,1-.13,1,2.17,2.17,0,0,1-.35.68,1.33,1.33,0,0,1-.49.4,1.37,1.37,0,0,1-.59.13H578v9.21a1,1,0,0,1-.22.68,1.24,1.24,0,0,1-.56.38,2.69,2.69,0,0,1-.8.17c-.3,0-.6,0-.89,0a9.61,9.61,0,0,1-1-.05,3.52,3.52,0,0,1-.8-.17,1.31,1.31,0,0,1-.55-.39,1.06,1.06,0,0,1-.2-.66V449.55a1.42,1.42,0,0,1,0-.26,3.24,3.24,0,0,1,.18-.59,1.68,1.68,0,0,1,.43-.59,2.34,2.34,0,0,1,.74-.46A3.08,3.08,0,0,1,575.54,447.46Z" transform="translate(-493.96 -266.72)" style="fill:#fff"/><path d="M597.45,472.2c-.34,0-.66,0-1,0a3,3,0,0,1-.8-.18,1.31,1.31,0,0,1-.55-.39,1.06,1.06,0,0,1-.2-.66V448.81a1.24,1.24,0,0,1,.2-.69,1.4,1.4,0,0,1,.53-.49,3.34,3.34,0,0,1,.81-.28,5,5,0,0,1,1-.1h1a3.1,3.1,0,0,1,.79.08,1.06,1.06,0,0,1,.53.32,1.08,1.08,0,0,1,.19.71v19.54h10.14a2.94,2.94,0,0,1,1,.19,1.59,1.59,0,0,1,.74.65,2.46,2.46,0,0,1,.3,1.34,3.42,3.42,0,0,1-.09.79,1.94,1.94,0,0,1-.3.67,1.83,1.83,0,0,1-.55.48,1.73,1.73,0,0,1-.83.18Z" transform="translate(-493.96 -266.72)" style="fill:#fff"/><path d="M630.4,467.33H619.11l-.86,2.58a6.2,6.2,0,0,1-.64,1.4,2.23,2.23,0,0,1-.75.75,2.09,2.09,0,0,1-.92.3,10,10,0,0,1-1.16.05,2.54,2.54,0,0,1-.92-.16,1.36,1.36,0,0,1-.66-.57,2.09,2.09,0,0,1-.25-1.05,4.51,4.51,0,0,1,.31-1.61l6.51-18.55a5.71,5.71,0,0,1,1-1.89,3.28,3.28,0,0,1,2.42-1.28c.43,0,.87-.05,1.31-.05h.6c.43,0,.87,0,1.31.05a3.57,3.57,0,0,1,1.26.33,3.68,3.68,0,0,1,1.16.95,6.11,6.11,0,0,1,1,1.89l6.5,18.55a4.79,4.79,0,0,1,.32,1.61,2.08,2.08,0,0,1-.26,1.05,1.36,1.36,0,0,1-.66.57,2.51,2.51,0,0,1-.92.16,10.41,10.41,0,0,1-1.17-.05,2,2,0,0,1-.92-.3,2.23,2.23,0,0,1-.75-.75,5.47,5.47,0,0,1-.62-1.4Zm-9.94-4h8.62l-3.8-11.24a3.25,3.25,0,0,0-.17-.42.24.24,0,0,0-.22-.15h-.25a.25.25,0,0,0-.22.15,3.25,3.25,0,0,0-.17.42Z" transform="translate(-493.96 -266.72)" style="fill:#fff"/><path d="M653.37,447.46a2.93,2.93,0,0,1,.89.11.85.85,0,0,1,.47.35,1.53,1.53,0,0,1,.17.67c0,.27,0,.62,0,1a2.72,2.72,0,0,1-.23,1.23,1.57,1.57,0,0,1-.55.63,1.61,1.61,0,0,1-.63.23l-.5,0h-6.33v19.4a1,1,0,0,1-.22.68,1.35,1.35,0,0,1-.56.39,2.69,2.69,0,0,1-.8.17c-.3,0-.59,0-.89,0s-.66,0-1,0a3,3,0,0,1-.8-.18,1.15,1.15,0,0,1-.54-.39,1,1,0,0,1-.21-.66v-19.4H635.6a2.58,2.58,0,0,1-.48-.06,1.52,1.52,0,0,1-.59-.28,1.76,1.76,0,0,1-.51-.64,2.43,2.43,0,0,1-.22-1.14c0-.46,0-.83,0-1.11a1.51,1.51,0,0,1,.2-.66.85.85,0,0,1,.45-.31,3,3,0,0,1,.76-.08Z" transform="translate(-493.96 -266.72)" style="fill:#fff"/><path d="M661.64,453.86a2.09,2.09,0,0,0,.61,1.54,5.06,5.06,0,0,0,1.61,1,15,15,0,0,0,2.3.71c.86.2,1.75.42,2.66.65s1.83.52,2.73.83a10.27,10.27,0,0,1,2.45,1.25,7.27,7.27,0,0,1,1.87,1.88,6.28,6.28,0,0,1,1,2.76,6.37,6.37,0,0,1,0,1.62,5.88,5.88,0,0,1-.55,1.76,7.17,7.17,0,0,1-1.22,1.7,7.54,7.54,0,0,1-2,1.45,12.14,12.14,0,0,1-3,1,18.71,18.71,0,0,1-4,.38,33.14,33.14,0,0,1-3.61-.17,14.24,14.24,0,0,1-2.87-.58,6.06,6.06,0,0,1-2-1,3,3,0,0,1-1-1.54,1.38,1.38,0,0,1,.46-1.53,1.82,1.82,0,0,1,.69-.32,2.33,2.33,0,0,1,.73-.06,9.71,9.71,0,0,1,1.46.3l1.6.41c.57.14,1.2.27,1.88.38a17.44,17.44,0,0,0,2.34.19,11.45,11.45,0,0,0,2.6-.24,6.35,6.35,0,0,0,1.91-.72,3.43,3.43,0,0,0,1.17-1.09,2.68,2.68,0,0,0,.39-1.42,1.8,1.8,0,0,0-.64-1.41,5.53,5.53,0,0,0-1.71-1,19.94,19.94,0,0,0-2.41-.73c-.9-.21-1.82-.44-2.77-.68s-1.88-.52-2.78-.83a11,11,0,0,1-2.44-1.16,6.18,6.18,0,0,1-1.76-1.69,4.38,4.38,0,0,1-.72-2.42,7.68,7.68,0,0,1,.46-2.81,6.68,6.68,0,0,1,1.55-2.43,8.28,8.28,0,0,1,2.66-1.76,10.73,10.73,0,0,1,3.81-.78l1.34,0c.62,0,1.31,0,2.08.08s1.57.16,2.39.3a10,10,0,0,1,2.25.65,5,5,0,0,1,1.68,1.14,2.44,2.44,0,0,1,.65,1.74,2.74,2.74,0,0,1-.06.59.83.83,0,0,1-.25.46,1.16,1.16,0,0,1-.54.28,3.14,3.14,0,0,1-.91,0c-.46,0-1-.1-1.65-.2l-2-.29c-.72-.1-1.47-.19-2.24-.27a22,22,0,0,0-2.27-.12,7.87,7.87,0,0,0-1.38.11,4.57,4.57,0,0,0-1.2.37,2.37,2.37,0,0,0-.85.66A1.62,1.62,0,0,0,661.64,453.86Z" transform="translate(-493.96 -266.72)" style="fill:#fff"/><path d="M699.77,461.21a3.12,3.12,0,0,1,1.76.43,1.62,1.62,0,0,1,.64,1.48,4.52,4.52,0,0,1-.09,1,1.31,1.31,0,0,1-.36.63,1.42,1.42,0,0,1-.71.33,5.48,5.48,0,0,1-1.17.1h-10a5.39,5.39,0,0,1-1.18-.1,1.42,1.42,0,0,1-.71-.33,1.3,1.3,0,0,1-.35-.63,4.44,4.44,0,0,1-.1-1,1.63,1.63,0,0,1,.65-1.48,3.1,3.1,0,0,1,1.76-.43Z" transform="translate(-493.96 -266.72)" style="fill:#fff"/><path d="M716.24,472.2c-.34,0-.66,0-1,0a3,3,0,0,1-.8-.18,1.31,1.31,0,0,1-.55-.39,1.06,1.06,0,0,1-.2-.66V449.48a.66.66,0,0,1,0-.19,2.61,2.61,0,0,1,.18-.59,1.68,1.68,0,0,1,.43-.59,2.34,2.34,0,0,1,.74-.46,3.08,3.08,0,0,1,1.14-.19h7.35a18.11,18.11,0,0,1,4.33.45,9.79,9.79,0,0,1,3,1.24,6.68,6.68,0,0,1,2,1.93,9.07,9.07,0,0,1,1.12,2.49,14.87,14.87,0,0,1,.51,2.95c.07,1.06.11,2.15.11,3.28v.1c0,1.14,0,2.23-.11,3.27a15,15,0,0,1-.51,2.95,8.88,8.88,0,0,1-1.12,2.48,6.66,6.66,0,0,1-2,1.91,9.68,9.68,0,0,1-3.05,1.25,18.78,18.78,0,0,1-4.34.44h-7.31Zm7.24-20.42h-4.77v16.11H724a9.58,9.58,0,0,0,3-.45,3.55,3.55,0,0,0,1.72-1.3,5.26,5.26,0,0,0,.8-2.29,25.39,25.39,0,0,0,.2-3.42v-1.1a24.58,24.58,0,0,0-.21-3.48,5.43,5.43,0,0,0-.85-2.32,3.53,3.53,0,0,0-1.83-1.29,10.13,10.13,0,0,0-3.16-.4h-.14Z" transform="translate(-493.96 -266.72)" style="fill:#fff"/><path d="M743.75,459.87c0,1.37,0,2.56.15,3.59a6.39,6.39,0,0,0,.73,2.58,3.61,3.61,0,0,0,1.72,1.55,7.64,7.64,0,0,0,3.09.51h.21a7.64,7.64,0,0,0,3.09-.51,3.61,3.61,0,0,0,1.72-1.55,6.39,6.39,0,0,0,.73-2.58c.1-1,.15-2.22.15-3.59V449.16a1.46,1.46,0,0,1,.25-.87,2,2,0,0,1,.64-.6,3.17,3.17,0,0,1,.91-.33,5.15,5.15,0,0,1,1-.11,2.87,2.87,0,0,1,1.6.38,1.34,1.34,0,0,1,.55,1.18v10.6c0,1.13,0,2.24-.08,3.32a16.55,16.55,0,0,1-.45,3.08,10.16,10.16,0,0,1-1,2.66,6.71,6.71,0,0,1-1.87,2.11,8.93,8.93,0,0,1-3,1.38,16.69,16.69,0,0,1-4.3.49h-.15a16.69,16.69,0,0,1-4.3-.49,9.08,9.08,0,0,1-3-1.38,6.59,6.59,0,0,1-1.87-2.11,10.43,10.43,0,0,1-1-2.67,15.87,15.87,0,0,1-.44-3.09c-.06-1.08-.09-2.19-.09-3.34V448.81a1.34,1.34,0,0,1,.55-1.18,2.87,2.87,0,0,1,1.6-.38,5.15,5.15,0,0,1,1,.11,3.17,3.17,0,0,1,.91.33,2,2,0,0,1,.64.6,1.46,1.46,0,0,1,.25.87Z" transform="translate(-493.96 -266.72)" style="fill:#fff"/><path d="M774,447.46h0c.67,0,1.4,0,2.17.08a15.42,15.42,0,0,1,2.33.35,10.28,10.28,0,0,1,2.24.79,6.27,6.27,0,0,1,3.22,3.56,8.66,8.66,0,0,1,.5,3.11v.07a9.19,9.19,0,0,1-.45,3,6.72,6.72,0,0,1-1.21,2.14A6.16,6.16,0,0,1,781,462a10.32,10.32,0,0,1-2.13.82,14.71,14.71,0,0,1-2.28.4c-.77.07-1.51.1-2.23.1H769.9v7.83a1,1,0,0,1-.22.68,1.45,1.45,0,0,1-.57.39,3,3,0,0,1-.79.17l-.89,0c-.35,0-.67,0-1,0a3,3,0,0,1-.79-.18,1.31,1.31,0,0,1-.55-.39,1,1,0,0,1-.2-.66V449.48a.82.82,0,0,1,0-.19,3.33,3.33,0,0,1,.19-.59,1.78,1.78,0,0,1,.42-.59,2.51,2.51,0,0,1,.75-.46,3.08,3.08,0,0,1,1.14-.19ZM769.9,459h4.24a13.83,13.83,0,0,0,2.8-.23,4.11,4.11,0,0,0,1.61-.67,2,2,0,0,0,.73-1.07,6.2,6.2,0,0,0,.2-1.46v-.34a6.7,6.7,0,0,0-.19-1.44,2,2,0,0,0-.7-1.07,3.76,3.76,0,0,0-1.53-.68,12.25,12.25,0,0,0-2.65-.25H769.9Z" transform="translate(-493.96 -266.72)" style="fill:#fff"/><path d="M790.31,472.2c-.34,0-.66,0-1,0a3,3,0,0,1-.79-.18,1.31,1.31,0,0,1-.55-.39,1.06,1.06,0,0,1-.2-.66V448.81a1.23,1.23,0,0,1,.19-.69,1.51,1.51,0,0,1,.54-.49,3.34,3.34,0,0,1,.81-.28,5,5,0,0,1,1-.1h1a3.15,3.15,0,0,1,.79.08,1.06,1.06,0,0,1,.53.32,1.08,1.08,0,0,1,.19.71v19.54h10.14a2.94,2.94,0,0,1,1,.19,1.59,1.59,0,0,1,.74.65,2.47,2.47,0,0,1,.29,1.34,3.42,3.42,0,0,1-.09.79,1.63,1.63,0,0,1-.3.67,1.79,1.79,0,0,1-.54.48,1.76,1.76,0,0,1-.83.18Z" transform="translate(-493.96 -266.72)" style="fill:#fff"/><path d="M811,472.2h-.27c-.34,0-.66,0-1,0A3,3,0,0,1,809,472a1.25,1.25,0,0,1-.55-.39,1,1,0,0,1-.21-.66V449.55a1.42,1.42,0,0,1,0-.26,3.33,3.33,0,0,1,.19-.59,1.78,1.78,0,0,1,.42-.59,2.45,2.45,0,0,1,.74-.46,3.08,3.08,0,0,1,1.14-.19h13l.8,0h.35a1.07,1.07,0,0,1,.58.2,1.81,1.81,0,0,1,.43.48,2.79,2.79,0,0,1,.28.66,3.18,3.18,0,0,1,.09.74,2.51,2.51,0,0,1-.29,1.35,1.57,1.57,0,0,1-.74.64,2.74,2.74,0,0,1-1,.2h-11v5.54h8.35l.49,0h.24a1.15,1.15,0,0,1,.59.19,1.73,1.73,0,0,1,.49.45,1.88,1.88,0,0,1,.32.65,2.58,2.58,0,0,1,.12.8,3.58,3.58,0,0,1-.13,1,2.29,2.29,0,0,1-.35.68,1.31,1.31,0,0,1-.49.39,1.38,1.38,0,0,1-.59.14h-9v6.25h11a3,3,0,0,1,1,.19,1.59,1.59,0,0,1,.74.65,2.47,2.47,0,0,1,.29,1.34,3.06,3.06,0,0,1-.09.74,2.7,2.7,0,0,1-.28.67,1.62,1.62,0,0,1-.43.47,1,1,0,0,1-.58.21l-.29,0H811Z" transform="translate(-493.96 -266.72)" style="fill:#fff"/><path d="M839.71,456.69a.55.55,0,0,0,.39-.14,3.23,3.23,0,0,0,.25-.29l5.62-7.38a6.94,6.94,0,0,1,.55-.69,3,3,0,0,1,.62-.51,2.67,2.67,0,0,1,.79-.32,4.63,4.63,0,0,1,1.07-.11,2.57,2.57,0,0,1,1.45.37,1.84,1.84,0,0,1,.74.93,2.19,2.19,0,0,1,0,1.22,3.11,3.11,0,0,1-.72,1.26l-7.14,8.8,7.49,8.8a3.37,3.37,0,0,1,.71,1.2,2.39,2.39,0,0,1,.09,1.23,1.66,1.66,0,0,1-.61,1,2.25,2.25,0,0,1-1.39.38,5.36,5.36,0,0,1-1.12-.1,3.4,3.4,0,0,1-.88-.32,3.12,3.12,0,0,1-.72-.51,5.12,5.12,0,0,1-.6-.69l-6-7.39a3.58,3.58,0,0,0-.29-.27.55.55,0,0,0-.35-.12.52.52,0,0,0-.34.12,2.44,2.44,0,0,0-.29.27l-6,7.39a6,6,0,0,1-.61.69,3,3,0,0,1-.7.51,3.47,3.47,0,0,1-.89.32,5.29,5.29,0,0,1-1.12.1,2.25,2.25,0,0,1-1.39-.38,1.71,1.71,0,0,1-.61-1,2.39,2.39,0,0,1,.09-1.23,3.37,3.37,0,0,1,.71-1.2l7.49-8.8-7.14-8.8a3,3,0,0,1-.71-1.26,2.1,2.1,0,0,1,0-1.22,1.84,1.84,0,0,1,.74-.93,2.59,2.59,0,0,1,1.45-.37,4.79,4.79,0,0,1,1.08.11,2.68,2.68,0,0,1,1.39.83q.27.3.57.69l5.62,7.38a3.07,3.07,0,0,0,.24.29A.56.56,0,0,0,839.71,456.69Z" transform="translate(-493.96 -266.72)" style="fill:#fff"/><path d="M494.23,470.21a7.29,7.29,0,0,1,1.64-3.62,5.33,5.33,0,0,1,4.1-1.76h3.36c.1-.48.16-.95.28-1.39.74-2.64,2.67-4.33,5.15-4.36,4.16,0,8.32-.05,12.48,0,2.76,0,4.82,2.09,5.33,5.15,0,.17,0,.34.09.55h3a18.39,18.39,0,0,1,.72-2.39,5.15,5.15,0,0,1,4.79-3.3q6.23-.07,12.47,0c2.75,0,4.79,2.07,5.31,5.16,0,.17.07.34.11.59h3.37a5.24,5.24,0,0,1,4.63,2.44,6.43,6.43,0,0,1,.64,6.11,5.23,5.23,0,0,1-4.39,3.61c-.44.05-.88.07-1.38.11v3.39a9,9,0,0,1,0,.9c-.09.88-.66,1.48-1.35,1.45a1.43,1.43,0,0,1-1.27-1.54c0-1.1,0-2.21,0-3.31v-.87H503.13c0,1.24,0,2.46,0,3.68a5.37,5.37,0,0,1-.05.9,1.35,1.35,0,0,1-1.25,1.14,1.28,1.28,0,0,1-1.25-1.11,13.48,13.48,0,0,1-.09-1.8c0-.92,0-1.85,0-2.82l-1.15-.1c-2.63-.26-4.43-2.07-5-5a1.57,1.57,0,0,0-.1-.28Zm34-3.45h-28a7.28,7.28,0,0,0-1.32.12c-2.34.51-3.63,3.49-2.55,5.9a3.74,3.74,0,0,0,3.77,2.35h56.21a7.06,7.06,0,0,0,1.12-.1c2-.34,3.44-2.77,2.93-5a3.83,3.83,0,0,0-4-3.23Zm-23.07-2h19.78a7.57,7.57,0,0,0-.15-.84,3.7,3.7,0,0,0-3.48-2.92c-2.08,0-4.16,0-6.23,0s-4.25,0-6.37,0A3.8,3.8,0,0,0,505.14,464.79Zm46.14,0a3.78,3.78,0,0,0-3.63-3.76c-2.63,0-5.26,0-7.89,0-1.59,0-3.18,0-4.77,0a3.73,3.73,0,0,0-3.41,3.75Z" transform="translate(-493.96 -266.72)" style="fill:#e0b624;stroke:#e0b624;stroke-miterlimit:10;stroke-width:0.555241124898034px"/><path d="M555.56,449.29h-54.7v12c0,.2,0,.4,0,.6,0,.68-.4,1.14-.89,1.08s-.81-.46-.81-1.08q0-6.69,0-13.39c0-.76.32-1.09,1-1.13h55.67c1.32,0,1.48.19,1.48,1.69v13c0,.22,0,.45,0,.67,0,.55-.3.91-.79.94s-.81-.33-.89-.9a5,5,0,0,1,0-.67V449.29Z" transform="translate(-493.96 -266.72)" style="fill:#e0b624;stroke:#e0b624;stroke-miterlimit:10;stroke-width:0.555241124898034px"/><path d="M580.71,482.47c4.9,0,7.8,2.77,7.8,6.92,0,7.12-11.71,9.85-11.71,12.82h10.36a1.73,1.73,0,0,1,0,3.45H574.27a1.73,1.73,0,0,1-1.72-1.73c0-7.45,12.11-8.23,12.11-14.54,0-1.89-1.38-3.55-3.95-3.55a4,4,0,0,0-3.84,2.43,1.87,1.87,0,0,1-1.69,1.08,1.81,1.81,0,0,1-1.82-1.82,1.79,1.79,0,0,1,.16-.78C574.6,484.29,577,482.47,580.71,482.47Z" transform="translate(-493.96 -266.72)" style="fill:#fff"/><path d="M607.28,498.7h-6.75a1.55,1.55,0,1,1,0-3.1h6.75a1.55,1.55,0,1,1,0,3.1Z" transform="translate(-493.96 -266.72)" style="fill:#fff"/><path d="M622,486.38a1.72,1.72,0,1,1,0-3.44h10.8a1.73,1.73,0,0,1,1.72,1.72,1.64,1.64,0,0,1-.44,1.15l-4.93,5.57c4.76.54,6.21,3.85,6.21,7.42,0,4.63-2.8,7.29-8.3,7.29a9.39,9.39,0,0,1-7.73-3.74,1.8,1.8,0,0,1,1.48-2.8,2,2,0,0,1,1.62.87,5.7,5.7,0,0,0,4.63,2.3c3,0,4.45-1.52,4.45-3.92s-1-4.05-4-4.05h-2.09a1.76,1.76,0,0,1-1.83-1.75,1.69,1.69,0,0,1,.44-1.18l4.76-5.44Z" transform="translate(-493.96 -266.72)" style="fill:#fff"/><path d="M652.31,482.94c6.72,0,11,3,11,11.38s-4.25,11.34-11,11.34h-4.55a2,2,0,0,1-2-2V484.9a2,2,0,0,1,2-2Zm-2.6,19.21h2.6c4.32,0,6.92-2,6.92-7.83s-2.6-7.87-6.92-7.87h-2.6Z" transform="translate(-493.96 -266.72)" style="fill:#fff"/><path d="M665.55,494.32c0-8,3.88-11.85,10.7-11.85s10.69,3.85,10.69,11.85-3.88,11.81-10.69,11.81S665.55,502.21,665.55,494.32Zm4.05,0c0,5.56,2.19,8.3,6.65,8.3s6.65-2.74,6.65-8.3-2.2-8.34-6.65-8.34S669.6,488.71,669.6,494.32Z" transform="translate(-493.96 -266.72)" style="fill:#fff"/><path d="M694,497v7a2,2,0,1,1-3.92,0V484.9a2,2,0,0,1,2-2h6.45a6.77,6.77,0,0,1,7.12,7.06c0,3.2-2,6.31-5.2,6.71l5,6.08a1.88,1.88,0,0,1,.41,1.18,2,2,0,0,1-2,2,2,2,0,0,1-1.52-.71L696.23,497Zm0-10.5v7.05h4.55c2.1,0,3-1.72,3-3.5s-.91-3.55-3.11-3.55Z" transform="translate(-493.96 -266.72)" style="fill:#fff"/><path d="M718,501.13l-5.3-9.41V504a1.92,1.92,0,1,1-3.84,0V484.59a1.94,1.94,0,0,1,1.92-1.92,1.9,1.9,0,0,1,1.72,1.08l7.16,12.83,7.15-12.83a1.9,1.9,0,0,1,1.72-1.08,2,2,0,0,1,1.93,1.92V504a1.93,1.93,0,1,1-3.85,0V491.72l-5.3,9.41a1.92,1.92,0,0,1-3.31,0Z" transform="translate(-493.96 -266.72)" style="fill:#fff"/><path d="M738.43,504a2,2,0,1,1-3.92,0V484.63a2,2,0,1,1,3.92,0Z" transform="translate(-493.96 -266.72)" style="fill:#fff"/><path d="M752,486.38V504a2,2,0,1,1-3.91,0V486.38h-5.17a1.72,1.72,0,0,1,0-3.44h14.25a1.72,1.72,0,0,1,0,3.44Z" transform="translate(-493.96 -266.72)" style="fill:#fff"/><path d="M759.69,494.32c0-8,3.89-11.85,10.7-11.85s10.7,3.85,10.7,11.85-3.88,11.81-10.7,11.81S759.69,502.21,759.69,494.32Zm4.06,0c0,5.56,2.19,8.3,6.64,8.3s6.65-2.74,6.65-8.3-2.19-8.34-6.65-8.34S763.75,488.71,763.75,494.32Z" transform="translate(-493.96 -266.72)" style="fill:#fff"/><path d="M788.19,497v7a2,2,0,1,1-3.92,0V484.9a2,2,0,0,1,2-2h6.44A6.77,6.77,0,0,1,799.8,490c0,3.2-2,6.31-5.2,6.71l5,6.08A1.88,1.88,0,0,1,800,504a2,2,0,0,1-2,2,2,2,0,0,1-1.52-.71L790.38,497Zm0-10.5v7.05h4.55c2.09,0,3-1.72,3-3.5s-.92-3.55-3.11-3.55Z" transform="translate(-493.96 -266.72)" style="fill:#fff"/><path d="M807.09,504a2,2,0,1,1-3.92,0V484.63a2,2,0,0,1,3.92,0Z" transform="translate(-493.96 -266.72)" style="fill:#fff"/><path d="M810.26,494.32c0-8,3.88-11.85,10.7-11.85s10.7,3.85,10.7,11.85-3.88,11.81-10.7,11.81S810.26,502.21,810.26,494.32Zm4,0c0,5.56,2.2,8.3,6.65,8.3s6.65-2.74,6.65-8.3S825.42,486,821,486,814.31,488.71,814.31,494.32Z" transform="translate(-493.96 -266.72)" style="fill:#fff"/><path d="M842.6,486c-2.8,0-3.85,1.31-3.85,2.67,0,4.42,12.32,2.36,12.32,10.8,0,4.11-2.9,6.68-8.47,6.68-4,0-7.22-2-8.54-4.12a1.82,1.82,0,0,1,1.52-2.77,2,2,0,0,1,1.49.75,7.74,7.74,0,0,0,5.53,2.56c3.07,0,4.56-1,4.56-3.1,0-4.93-12.32-2.67-12.32-10.8,0-3.35,2.39-6.18,7.76-6.18,3.38,0,6.31,1.25,7.66,3.17a1.9,1.9,0,0,1,.34,1.08,1.81,1.81,0,0,1-1.82,1.79,2.23,2.23,0,0,1-1.45-.74A7,7,0,0,0,842.6,486Z" transform="translate(-493.96 -266.72)" style="fill:#fff"/><path d="M568.46,365.87c0-3.1,1.46-5.72,5-7.41a6.76,6.76,0,0,1-3.59-5.95c0-5.32,3.59-8.21,9.76-8.21s9.77,2.89,9.77,8.21a6.77,6.77,0,0,1-3.6,5.95c3.55,1.69,5,4.31,5,7.41,0,6.31-4,9.55-11.19,9.55S568.46,372.18,568.46,365.87Zm5.06,0c0,3.38,2.48,5.06,6.12,5.06s6.13-1.68,6.13-5.06-2.31-5.06-6.13-5.06S573.52,362.54,573.52,365.87Zm1.33-13.36c0,2.58,1.86,3.86,4.79,3.86s4.8-1.28,4.8-3.86-1.78-3.77-4.8-3.77S574.85,350.07,574.85,352.51Z" transform="translate(-493.96 -266.72)" style="fill:#fff"/><path d="M607.2,374.79h-.29c-.39,0-.74,0-1.08,0a3.56,3.56,0,0,1-.88-.2,1.41,1.41,0,0,1-.62-.44,1.13,1.13,0,0,1-.22-.73V349.54a1.11,1.11,0,0,1,0-.29,4,4,0,0,1,.2-.65,1.86,1.86,0,0,1,.48-.66,2.56,2.56,0,0,1,.82-.52,3.37,3.37,0,0,1,1.28-.2h14.5l.9,0h.39a1.12,1.12,0,0,1,.64.22,1.91,1.91,0,0,1,.49.53,2.87,2.87,0,0,1,.3.74,3.38,3.38,0,0,1,.11.83,2.88,2.88,0,0,1-.32,1.5,1.84,1.84,0,0,1-.83.72A3.17,3.17,0,0,1,622,352H609.66v6.19H619l.54,0h.27a1.45,1.45,0,0,1,.66.2,2.2,2.2,0,0,1,.9,1.24,2.8,2.8,0,0,1,.13.88,3.61,3.61,0,0,1-.15,1.1,2.11,2.11,0,0,1-.38.75,1.56,1.56,0,0,1-.55.45,1.49,1.49,0,0,1-.65.14H609.66v7H622a3.17,3.17,0,0,1,1.14.21,1.84,1.84,0,0,1,.83.72,2.88,2.88,0,0,1,.32,1.5,3.38,3.38,0,0,1-.11.83,2.87,2.87,0,0,1-.3.74,1.91,1.91,0,0,1-.49.53,1.21,1.21,0,0,1-.64.23l-.32,0H607.2Z" transform="translate(-493.96 -266.72)" style="fill:#fff"/><path d="M639.21,357.5a.56.56,0,0,0,.43-.16,2.61,2.61,0,0,0,.28-.31l6.26-8.24c.21-.29.42-.54.62-.77a3.74,3.74,0,0,1,.69-.57,3.3,3.3,0,0,1,.88-.35,5.17,5.17,0,0,1,1.2-.12,2.9,2.9,0,0,1,1.62.41,2.06,2.06,0,0,1,.82,1,2.41,2.41,0,0,1,0,1.36,3.34,3.34,0,0,1-.79,1.41l-8,9.81,8.35,9.8a3.77,3.77,0,0,1,.79,1.34,2.62,2.62,0,0,1,.1,1.37,1.85,1.85,0,0,1-.68,1.08,2.42,2.42,0,0,1-1.55.43,5.83,5.83,0,0,1-1.25-.12,3.67,3.67,0,0,1-1-.35,3.61,3.61,0,0,1-.8-.57,5.61,5.61,0,0,1-.67-.77L639.92,365c-.11-.11-.21-.21-.32-.3a.61.61,0,0,0-.39-.13.58.58,0,0,0-.38.13,3.08,3.08,0,0,0-.33.3l-6.66,8.24a7.45,7.45,0,0,1-.68.77,3.73,3.73,0,0,1-.78.57,3.87,3.87,0,0,1-1,.35,5.83,5.83,0,0,1-1.25.12,2.44,2.44,0,0,1-1.55-.43,1.9,1.9,0,0,1-.68-1.08,2.62,2.62,0,0,1,.1-1.37,3.77,3.77,0,0,1,.79-1.34l8.35-9.8-8-9.81a3.34,3.34,0,0,1-.79-1.41,2.32,2.32,0,0,1,0-1.36,2,2,0,0,1,.81-1,2.9,2.9,0,0,1,1.62-.41,5.17,5.17,0,0,1,1.2.12,3.3,3.3,0,0,1,.88.35,3.37,3.37,0,0,1,.68.57l.63.77L638.5,357a2.61,2.61,0,0,0,.28.31A.56.56,0,0,0,639.21,357.5Z" transform="translate(-493.96 -266.72)" style="fill:#fff"/><path d="M671.64,347.27a11,11,0,0,1,2.8.85,4.9,4.9,0,0,1,1.77,1.33,2.71,2.71,0,0,1,.63,1.75,2.54,2.54,0,0,1-.12.74,2.05,2.05,0,0,1-.37.72,1.71,1.71,0,0,1-.65.53,2,2,0,0,1-1,.21,3,3,0,0,1-.88-.12,6.93,6.93,0,0,1-.79-.29l-.87-.4a8.49,8.49,0,0,0-1.12-.39,11.32,11.32,0,0,0-1.5-.3,17.23,17.23,0,0,0-2.05-.11h-.28a10.24,10.24,0,0,0-3.51.49,4.11,4.11,0,0,0-2,1.53,6.29,6.29,0,0,0-1,2.68,27.5,27.5,0,0,0-.24,3.92v1.23a27.5,27.5,0,0,0,.24,3.92,6.2,6.2,0,0,0,1,2.67,4.08,4.08,0,0,0,2,1.51,10.52,10.52,0,0,0,3.51.48h.28a15.35,15.35,0,0,0,2.05-.11,11.32,11.32,0,0,0,1.5-.3,8.49,8.49,0,0,0,1.12-.39l.87-.4a6.93,6.93,0,0,1,.79-.29,3,3,0,0,1,.88-.12,1.93,1.93,0,0,1,1,.22,1.83,1.83,0,0,1,.65.54,2.1,2.1,0,0,1,.37.71,2.42,2.42,0,0,1,.12.73,2.71,2.71,0,0,1-.63,1.75,4.9,4.9,0,0,1-1.77,1.33,10.66,10.66,0,0,1-2.8.84,20.49,20.49,0,0,1-3.67.3h-.67a20.28,20.28,0,0,1-4.82-.5,10.82,10.82,0,0,1-3.38-1.42,7.4,7.4,0,0,1-2.19-2.2,10.33,10.33,0,0,1-1.25-2.83,16.56,16.56,0,0,1-.56-3.32c-.09-1.18-.13-2.4-.13-3.68V361c0-1.26,0-2.49.13-3.68a16.52,16.52,0,0,1,.56-3.34,10.33,10.33,0,0,1,1.25-2.83,7.4,7.4,0,0,1,2.19-2.2,10.83,10.83,0,0,1,3.38-1.43,19.73,19.73,0,0,1,4.82-.51H668A21.51,21.51,0,0,1,671.64,347.27Z" transform="translate(-493.96 -266.72)" style="fill:#fff"/><path d="M682.8,374.79c-.38,0-.74,0-1.07,0a3.76,3.76,0,0,1-.89-.2,1.38,1.38,0,0,1-.61-.44,1.13,1.13,0,0,1-.22-.73V348.71a1.44,1.44,0,0,1,.21-.77,1.74,1.74,0,0,1,.6-.54,3.66,3.66,0,0,1,.9-.31,5.34,5.34,0,0,1,1.08-.11h1.08a2.91,2.91,0,0,1,.87.09,1.07,1.07,0,0,1,.59.35,1.18,1.18,0,0,1,.22.79V370h11.3a3.09,3.09,0,0,1,1.14.21,1.79,1.79,0,0,1,.83.72,2.88,2.88,0,0,1,.32,1.5,3.71,3.71,0,0,1-.1.88,1.86,1.86,0,0,1-.94,1.28,1.88,1.88,0,0,1-.93.2Z" transform="translate(-493.96 -266.72)" style="fill:#fff"/><path d="M708,361a39.32,39.32,0,0,0,.17,4,7.3,7.3,0,0,0,.81,2.88,4.05,4.05,0,0,0,1.91,1.72,8.54,8.54,0,0,0,3.45.57h.24a8.57,8.57,0,0,0,3.45-.57,4.05,4.05,0,0,0,1.91-1.72,7.3,7.3,0,0,0,.81-2.88,39.32,39.32,0,0,0,.17-4V349.11a1.66,1.66,0,0,1,.28-1,2.08,2.08,0,0,1,.72-.66,3.36,3.36,0,0,1,1-.37A5.52,5.52,0,0,1,724,347a3.2,3.2,0,0,1,1.79.42,1.49,1.49,0,0,1,.62,1.31v11.82c0,1.26,0,2.5-.1,3.71a18.41,18.41,0,0,1-.5,3.42,11.27,11.27,0,0,1-1.16,3,7.5,7.5,0,0,1-2.09,2.34,9.81,9.81,0,0,1-3.3,1.54,17.88,17.88,0,0,1-4.79.55h-.16a18,18,0,0,1-4.8-.55,9.9,9.9,0,0,1-3.3-1.54,7.26,7.26,0,0,1-2.09-2.34,11.92,11.92,0,0,1-1.16-3,19.55,19.55,0,0,1-.49-3.43c-.06-1.21-.1-2.45-.1-3.73V348.71a1.49,1.49,0,0,1,.62-1.31,3.2,3.2,0,0,1,1.79-.42,5.52,5.52,0,0,1,1.14.12,3.36,3.36,0,0,1,1,.37,2.08,2.08,0,0,1,.72.66,1.66,1.66,0,0,1,.28,1Z" transform="translate(-493.96 -266.72)" style="fill:#fff"/><path d="M735.71,354.35a2.32,2.32,0,0,0,.68,1.71,5.39,5.39,0,0,0,1.8,1.13,15.5,15.5,0,0,0,2.56.8l3,.73q1.53.39,3,.93a11.18,11.18,0,0,1,2.74,1.38,8.3,8.3,0,0,1,2.08,2.1,6.8,6.8,0,0,1,1.08,3.08,6.92,6.92,0,0,1,0,1.81,6.66,6.66,0,0,1-.62,2,8,8,0,0,1-1.36,1.89,8.32,8.32,0,0,1-2.25,1.61,13.91,13.91,0,0,1-3.31,1.13,21.53,21.53,0,0,1-4.52.42,35.61,35.61,0,0,1-4-.2,15.62,15.62,0,0,1-3.19-.64A6.83,6.83,0,0,1,731.1,373a3.38,3.38,0,0,1-1.14-1.71,1.54,1.54,0,0,1,.51-1.71,2,2,0,0,1,.77-.36,2.29,2.29,0,0,1,.81-.06,12,12,0,0,1,1.63.32c.56.16,1.15.31,1.79.47s1.33.3,2.1.42a17.77,17.77,0,0,0,2.6.21,12.77,12.77,0,0,0,2.9-.27,7,7,0,0,0,2.13-.8,3.74,3.74,0,0,0,1.3-1.22,2.93,2.93,0,0,0,.44-1.57,2,2,0,0,0-.72-1.58,6.2,6.2,0,0,0-1.9-1.08,21.73,21.73,0,0,0-2.69-.81l-3.09-.76c-1.06-.27-2.09-.58-3.1-.92a12.93,12.93,0,0,1-2.72-1.3,6.81,6.81,0,0,1-2-1.89,4.83,4.83,0,0,1-.8-2.69,8.8,8.8,0,0,1,.51-3.14,7.48,7.48,0,0,1,1.73-2.7,9,9,0,0,1,3-2,11.76,11.76,0,0,1,4.26-.87l1.48,0c.69,0,1.47,0,2.33.09s1.75.18,2.66.33a11.13,11.13,0,0,1,2.51.73,5.47,5.47,0,0,1,1.87,1.27,3,3,0,0,1,.66,2.6,1,1,0,0,1-.28.51,1.4,1.4,0,0,1-.61.31,3.08,3.08,0,0,1-1,.06c-.51,0-1.12-.11-1.83-.22l-2.28-.32c-.8-.11-1.64-.22-2.5-.31a24.28,24.28,0,0,0-2.53-.14,9.7,9.7,0,0,0-1.54.13,5.26,5.26,0,0,0-1.34.42,2.58,2.58,0,0,0-.94.73A1.78,1.78,0,0,0,735.71,354.35Z" transform="translate(-493.96 -266.72)" style="fill:#fff"/><path d="M762.33,373.61a1.14,1.14,0,0,1-.25.76,1.42,1.42,0,0,1-.63.43,2.92,2.92,0,0,1-.89.19c-.33,0-.66,0-1,0s-.74,0-1.08,0a3.16,3.16,0,0,1-.88-.2,1.31,1.31,0,0,1-.61-.43,1.17,1.17,0,0,1-.23-.74v-24.9a1.36,1.36,0,0,1,.22-.77,1.58,1.58,0,0,1,.6-.54,3.44,3.44,0,0,1,.89-.31,5.52,5.52,0,0,1,1.09-.11,7.21,7.21,0,0,1,1.07.07,2.76,2.76,0,0,1,.88.26,1.62,1.62,0,0,1,.59.54,1.59,1.59,0,0,1,.22.86Z" transform="translate(-493.96 -266.72)" style="fill:#fff"/><path d="M786,349.7a7.12,7.12,0,0,1,.71-1.57,2.65,2.65,0,0,1,.84-.83,2.42,2.42,0,0,1,1-.34,12.16,12.16,0,0,1,1.29-.06,2.69,2.69,0,0,1,1,.2,1.53,1.53,0,0,1,.74.64,2.28,2.28,0,0,1,.28,1.16,5,5,0,0,1-.35,1.78l-7.25,20.69a6.76,6.76,0,0,1-1.08,2.11,4.09,4.09,0,0,1-1.29,1,3.79,3.79,0,0,1-1.41.37c-.49,0-1,.05-1.46.05h-.87c-.48,0-1,0-1.45-.05a3.69,3.69,0,0,1-1.41-.37,3.88,3.88,0,0,1-1.29-1,6.75,6.75,0,0,1-1.09-2.11l-7.25-20.69a5.18,5.18,0,0,1-.35-1.78,2.28,2.28,0,0,1,.29-1.16,1.47,1.47,0,0,1,.73-.64,2.7,2.7,0,0,1,1-.2,12.43,12.43,0,0,1,1.29.06,2.42,2.42,0,0,1,1,.34,2.65,2.65,0,0,1,.84.83,6.69,6.69,0,0,1,.71,1.57l6.7,19.82a2.76,2.76,0,0,0,.18.46.28.28,0,0,0,.25.17h.47a.28.28,0,0,0,.25-.17,3.83,3.83,0,0,0,.19-.46Z" transform="translate(-493.96 -266.72)" style="fill:#fff"/><path d="M806.69,375.07a19.87,19.87,0,0,1-4.83-.51,10.83,10.83,0,0,1-3.38-1.43,7.37,7.37,0,0,1-2.18-2.2A10.35,10.35,0,0,1,795,368.1a18.08,18.08,0,0,1-.56-3.33q-.12-1.77-.12-3.69V361c0-1.26,0-2.49.12-3.68A18,18,0,0,1,795,354a10.35,10.35,0,0,1,1.26-2.83,7.37,7.37,0,0,1,2.18-2.2,10.83,10.83,0,0,1,3.38-1.43,19.87,19.87,0,0,1,4.83-.51h.15a19.87,19.87,0,0,1,4.83.51,10.83,10.83,0,0,1,3.38,1.43,7.52,7.52,0,0,1,2.19,2.2,10.64,10.64,0,0,1,1.25,2.83,17.25,17.25,0,0,1,.56,3.34c.08,1.19.13,2.42.13,3.68v.11c0,1.27,0,2.49-.13,3.68a17.25,17.25,0,0,1-.56,3.34,10.64,10.64,0,0,1-1.25,2.83,7.52,7.52,0,0,1-2.19,2.2,10.83,10.83,0,0,1-3.38,1.43,19.87,19.87,0,0,1-4.83.51Zm0-23.24a10.62,10.62,0,0,0-3.52.48,4.17,4.17,0,0,0-2,1.51,6.2,6.2,0,0,0-.94,2.67,27.5,27.5,0,0,0-.24,3.92v1.23a27.5,27.5,0,0,0,.24,3.92,6.2,6.2,0,0,0,.94,2.67,4.17,4.17,0,0,0,2,1.51,10.62,10.62,0,0,0,3.52.48h.23a10.62,10.62,0,0,0,3.52-.48,4.08,4.08,0,0,0,2-1.51,6.2,6.2,0,0,0,.94-2.67,27.5,27.5,0,0,0,.24-3.92v-1.23a27.5,27.5,0,0,0-.24-3.92,6.2,6.2,0,0,0-.94-2.67,4.08,4.08,0,0,0-2-1.51,10.62,10.62,0,0,0-3.52-.48Z" transform="translate(-493.96 -266.72)" style="fill:#fff"/><path d="M828.3,354.35a2.28,2.28,0,0,0,.68,1.71,5.34,5.34,0,0,0,1.79,1.13,15.5,15.5,0,0,0,2.56.8c1,.23,2,.47,3,.73s2,.57,3,.93a11.54,11.54,0,0,1,2.74,1.38,8.26,8.26,0,0,1,2.07,2.1,6.92,6.92,0,0,1,1.09,3.08,7.42,7.42,0,0,1,0,1.81,6.38,6.38,0,0,1-.62,2,8,8,0,0,1-1.36,1.89,8.32,8.32,0,0,1-2.25,1.61,13.75,13.75,0,0,1-3.31,1.13,21.53,21.53,0,0,1-4.52.42,35.61,35.61,0,0,1-4-.2,15.62,15.62,0,0,1-3.19-.64,6.68,6.68,0,0,1-2.23-1.15,3.33,3.33,0,0,1-1.15-1.71,1.52,1.52,0,0,1,.52-1.71,1.91,1.91,0,0,1,.76-.36,2.29,2.29,0,0,1,.81-.06,12.16,12.16,0,0,1,1.64.32c.55.16,1.14.31,1.78.47s1.34.3,2.1.42a17.89,17.89,0,0,0,2.6.21,12.72,12.72,0,0,0,2.9-.27,7,7,0,0,0,2.13-.8,3.66,3.66,0,0,0,1.3-1.22,2.84,2.84,0,0,0,.44-1.57,2,2,0,0,0-.71-1.58,6.26,6.26,0,0,0-1.91-1.08,21.54,21.54,0,0,0-2.68-.81c-1-.24-2-.49-3.1-.76s-2.09-.58-3.1-.92a12.93,12.93,0,0,1-2.72-1.3,6.94,6.94,0,0,1-2-1.89,4.91,4.91,0,0,1-.8-2.69,8.6,8.6,0,0,1,.52-3.14,7.32,7.32,0,0,1,1.72-2.7,9,9,0,0,1,3-2,11.76,11.76,0,0,1,4.26-.87l1.49,0c.69,0,1.46,0,2.32.09s1.75.18,2.66.33a11.13,11.13,0,0,1,2.51.73,5.47,5.47,0,0,1,1.87,1.27,3,3,0,0,1,.66,2.6.92.92,0,0,1-.28.51,1.42,1.42,0,0,1-.6.31,3.17,3.17,0,0,1-1,.06c-.51,0-1.12-.11-1.83-.22l-2.28-.32c-.8-.11-1.64-.22-2.5-.31a24.28,24.28,0,0,0-2.53-.14,9.57,9.57,0,0,0-1.53.13,5.14,5.14,0,0,0-1.34.42,2.62,2.62,0,0,0-1,.73A1.77,1.77,0,0,0,828.3,354.35Z" transform="translate(-493.96 -266.72)" style="fill:#fff"/><path d="M549.4,406H504.61a1,1,0,0,1-1-1V347.66a1,1,0,0,1,1-1H549.4a1,1,0,0,1,1,1V405A1,1,0,0,1,549.4,406Zm-43.78-1.83h42.77v-55.5H505.62Z" transform="translate(-493.96 -266.72)" style="fill:#e0b624"/><path d="M527.15,386a1,1,0,0,1-1-1V348a1,1,0,0,1,1.92,0v37A1,1,0,0,1,527.15,386Z" transform="translate(-493.96 -266.72)" style="fill:#e0b624"/><path d="M522.44,359.71H509.72a1,1,0,0,1-1-1v-4.9a1,1,0,0,1,1-1h12.72a1,1,0,0,1,1,1v4.9A1,1,0,0,1,522.44,359.71Zm-11.69-2.06h10.67v-2.84H510.75Z" transform="translate(-493.96 -266.72)" style="fill:#e0b624"/><path d="M522.44,370.85H509.72a1,1,0,0,1-1-1v-4.9a1,1,0,0,1,1-1h12.72a1,1,0,0,1,1,1v4.9A1,1,0,0,1,522.44,370.85Zm-11.69-2.05h10.67V366H510.75Z" transform="translate(-493.96 -266.72)" style="fill:#e0b624"/><path d="M522.44,381.25H509.72a1,1,0,0,1-1-1v-4.9a1,1,0,0,1,1-1h12.72a1,1,0,0,1,1,1v4.9A1,1,0,0,1,522.44,381.25Zm-11.69-2.06h10.67v-2.84H510.75Z" transform="translate(-493.96 -266.72)" style="fill:#e0b624"/><path d="M544.86,359.71H532.14a1,1,0,0,1-1-1v-4.9a1,1,0,0,1,1-1h12.72a1,1,0,0,1,1,1v4.9A1,1,0,0,1,544.86,359.71Zm-11.69-2.06h10.67v-2.84H533.17Z" transform="translate(-493.96 -266.72)" style="fill:#e0b624"/><path d="M544.86,370.85H532.14a1,1,0,0,1-1-1v-4.9a1,1,0,0,1,1-1h12.72a1,1,0,0,1,1,1v4.9A1,1,0,0,1,544.86,370.85Zm-11.69-2.05h10.67V366H533.17Z" transform="translate(-493.96 -266.72)" style="fill:#e0b624"/><path d="M544.86,381.25H532.14a1,1,0,0,1-1-1v-4.9a1,1,0,0,1,1-1h12.72a1,1,0,0,1,1,1v4.9A1,1,0,0,1,544.86,381.25Zm-11.69-2.06h10.67v-2.84H533.17Z" transform="translate(-493.96 -266.72)" style="fill:#e0b624"/><path d="M519.7,405.89H507.87a.89.89,0,0,1-.9-.89V392.58a.89.89,0,0,1,.9-.89H519.7a.89.89,0,0,1,.9.89V405A.89.89,0,0,1,519.7,405.89Zm-10.94-1.78h10V393.47h-10Z" transform="translate(-493.96 -266.72)" style="fill:#e0b624"/><path d="M549.31,389.6H533.67a.88.88,0,1,1,0-1.75h15.64a.88.88,0,0,1,0,1.75Z" transform="translate(-493.96 -266.72)" style="fill:#e0b624"/><path d="M522.58,389.6H504.53a.88.88,0,1,1,0-1.75h18.05a.88.88,0,0,1,0,1.75Z" transform="translate(-493.96 -266.72)" style="fill:#e0b624"/><path d="M549.22,393.71H533.7a.91.91,0,1,1,0-1.81h15.52a.91.91,0,1,1,0,1.81Z" transform="translate(-493.96 -266.72)" style="fill:#e0b624"/><path d="M549.28,397.38H533.7a.91.91,0,1,1,0-1.81h15.58a.91.91,0,1,1,0,1.81Z" transform="translate(-493.96 -266.72)" style="fill:#e0b624"/><path d="M549.16,401.22H533.7a.91.91,0,1,1,0-1.81h15.46a.91.91,0,1,1,0,1.81Z" transform="translate(-493.96 -266.72)" style="fill:#e0b624"/><path d="M533.61,406H522.83a.93.93,0,0,1-.92-.93V385.28a.93.93,0,0,1,.92-.93h10.78a.93.93,0,0,1,.93.93V405A.93.93,0,0,1,533.61,406Zm-9.85-1.86h8.93V386.2h-8.93Z" transform="translate(-493.96 -266.72)" style="fill:#e0b624"/><path d="M558.46,406H497.74a.91.91,0,1,1,0-1.81h60.72a.91.91,0,1,1,0,1.81Z" transform="translate(-493.96 -266.72)" style="fill:#e0b624"/><path d="M571.43,406.89c-.31,0-.61,0-.88,0a2.94,2.94,0,0,1-.72-.16,1.15,1.15,0,0,1-.5-.36.93.93,0,0,1-.18-.6V386.27a.77.77,0,0,1,0-.18,3.56,3.56,0,0,1,.17-.53,1.61,1.61,0,0,1,.39-.54,2.18,2.18,0,0,1,.67-.41,2.6,2.6,0,0,1,1-.17h6.67a16.48,16.48,0,0,1,3.92.4,8.69,8.69,0,0,1,2.75,1.13,6.11,6.11,0,0,1,1.79,1.75,8.12,8.12,0,0,1,1,2.26,13,13,0,0,1,.46,2.68c.07.95.1,1.94.1,3v.1c0,1,0,2-.1,3a12.81,12.81,0,0,1-.46,2.67,8.12,8.12,0,0,1-1,2.26,6.2,6.2,0,0,1-1.79,1.74,9.16,9.16,0,0,1-2.77,1.13,17.2,17.2,0,0,1-3.94.4h-6.63ZM578,388.35h-4.33V403h4.8a8,8,0,0,0,2.67-.41,3.19,3.19,0,0,0,1.57-1.17,4.82,4.82,0,0,0,.73-2.08,24.65,24.65,0,0,0,.17-3.1v-1a21.85,21.85,0,0,0-.19-3.16,4.79,4.79,0,0,0-.77-2.11,3.25,3.25,0,0,0-1.66-1.17,9.31,9.31,0,0,0-2.86-.36H578Z" transform="translate(-493.96 -266.72)" style="fill:#fff"/><path d="M594.69,406.89h-.24c-.31,0-.6,0-.87,0a2.94,2.94,0,0,1-.72-.16,1.1,1.1,0,0,1-.5-.36.93.93,0,0,1-.18-.6v-19.4a1.49,1.49,0,0,1,0-.24,2.68,2.68,0,0,1,.17-.53,1.72,1.72,0,0,1,.38-.54,2.37,2.37,0,0,1,.68-.41,2.58,2.58,0,0,1,1-.17h12.86a.93.93,0,0,1,.52.18,1.54,1.54,0,0,1,.4.44,2.35,2.35,0,0,1,.25.6,3.07,3.07,0,0,1,.08.67,2.26,2.26,0,0,1-.26,1.22,1.51,1.51,0,0,1-.67.59,2.52,2.52,0,0,1-.93.17h-10v5h7.58l.44,0h.22a1.18,1.18,0,0,1,.54.17,1.54,1.54,0,0,1,.44.41,1.81,1.81,0,0,1,.29.59,2.36,2.36,0,0,1,.11.72,3,3,0,0,1-.12.89,2.11,2.11,0,0,1-.31.62,1.28,1.28,0,0,1-.45.36,1.24,1.24,0,0,1-.53.12H596.7V403h10a2.75,2.75,0,0,1,.93.18,1.45,1.45,0,0,1,.67.59,2.22,2.22,0,0,1,.26,1.21,3.16,3.16,0,0,1-.08.68,2.7,2.7,0,0,1-.25.6,1.38,1.38,0,0,1-.4.43,1,1,0,0,1-.52.19l-.26,0H594.69Z" transform="translate(-493.96 -266.72)" style="fill:#fff"/><path d="M620.16,384.44h0c.61,0,1.27,0,2,.07a14.08,14.08,0,0,1,2.12.31,9.26,9.26,0,0,1,2,.72A5.87,5.87,0,0,1,628,386.8a5.94,5.94,0,0,1,1.2,2,7.87,7.87,0,0,1,.45,2.82v.06a8.11,8.11,0,0,1-.41,2.76,5.94,5.94,0,0,1-1.1,1.95,5.65,5.65,0,0,1-1.6,1.28,8.66,8.66,0,0,1-1.93.74,12.12,12.12,0,0,1-2.07.36c-.7.07-1.38.1-2,.1h-4.07v7.1a.94.94,0,0,1-.2.62,1.37,1.37,0,0,1-.52.35,2.41,2.41,0,0,1-.72.15c-.27,0-.54,0-.81,0s-.6,0-.87,0a2.94,2.94,0,0,1-.72-.16,1.1,1.1,0,0,1-.5-.36.93.93,0,0,1-.18-.6V386.27a.77.77,0,0,1,0-.18,2.68,2.68,0,0,1,.17-.53,1.61,1.61,0,0,1,.39-.54,2.18,2.18,0,0,1,.67-.41,2.58,2.58,0,0,1,1-.17Zm-3.69,10.49h3.72v0h.13a12.29,12.29,0,0,0,2.54-.21,3.47,3.47,0,0,0,1.46-.6,1.79,1.79,0,0,0,.66-1,5.15,5.15,0,0,0,.18-1.33v-.3a5.63,5.63,0,0,0-.17-1.31,1.87,1.87,0,0,0-.63-1,3.46,3.46,0,0,0-1.39-.62,11.54,11.54,0,0,0-2.41-.23h-4.09Z" transform="translate(-493.96 -266.72)" style="fill:#fff"/><path d="M644.19,402.46H634l-.79,2.34a5.17,5.17,0,0,1-.58,1.28,2.2,2.2,0,0,1-.68.68,2,2,0,0,1-.83.27c-.31,0-.66.05-1.05.05a2.32,2.32,0,0,1-.84-.15,1.24,1.24,0,0,1-.6-.51,2,2,0,0,1-.23-1,4.35,4.35,0,0,1,.29-1.46l5.9-16.84a5.52,5.52,0,0,1,.88-1.71,3.17,3.17,0,0,1,1.05-.86,2.93,2.93,0,0,1,1.15-.3c.39,0,.79,0,1.19,0h.54c.4,0,.79,0,1.19,0a2.93,2.93,0,0,1,1.14.3,3.17,3.17,0,0,1,1.05.86,5.52,5.52,0,0,1,.89,1.71l5.9,16.84a4.35,4.35,0,0,1,.29,1.46,2,2,0,0,1-.24,1,1.16,1.16,0,0,1-.6.51,2.27,2.27,0,0,1-.83.15c-.4,0-.75,0-1.06-.05a2,2,0,0,1-.84-.27,2.2,2.2,0,0,1-.68-.68,5.19,5.19,0,0,1-.57-1.28Zm-9-3.59H643l-3.45-10.2a2.5,2.5,0,0,0-.15-.38.21.21,0,0,0-.2-.13H639a.2.2,0,0,0-.2.13,4,4,0,0,0-.16.38Z" transform="translate(-493.96 -266.72)" style="fill:#fff"/><path d="M660.32,388.35h-3.68v17.59a.94.94,0,0,1-.2.62,1.37,1.37,0,0,1-.52.35,2.55,2.55,0,0,1-.72.15c-.27,0-.54,0-.81,0s-.6,0-.87,0a2.84,2.84,0,0,1-.72-.16,1.1,1.1,0,0,1-.5-.36.94.94,0,0,1-.19-.6V386.27a.62.62,0,0,1,0-.18,2.68,2.68,0,0,1,.17-.53,1.72,1.72,0,0,1,.38-.54,2.24,2.24,0,0,1,.68-.41,2.55,2.55,0,0,1,1-.17h6a17,17,0,0,1,1.88,0,12.48,12.48,0,0,1,2.14.29,10.28,10.28,0,0,1,2.13.72,6.56,6.56,0,0,1,1.86,1.3,6,6,0,0,1,1.3,2,7.36,7.36,0,0,1,.5,2.84v.06a7.38,7.38,0,0,1-.37,2.47,5.9,5.9,0,0,1-1,1.82,5.62,5.62,0,0,1-1.43,1.28,8.78,8.78,0,0,1-1.72.83l4.27,7.27a.88.88,0,0,1,.14.61.81.81,0,0,1-.27.47,2,2,0,0,1-.56.33,6.6,6.6,0,0,1-.71.21,6,6,0,0,1-.72.11l-.59,0a3.39,3.39,0,0,1-1.16-.21,1.57,1.57,0,0,1-.86-.72L661,398.81h-2.29a1,1,0,0,1-1-.57,3,3,0,0,1-.3-1.39,6.06,6.06,0,0,1,0-.76,1.72,1.72,0,0,1,.19-.63,1.1,1.1,0,0,1,1-.57h1.9a12.77,12.77,0,0,0,2.5-.22,3.91,3.91,0,0,0,1.52-.61,2.12,2.12,0,0,0,.75-1,4,4,0,0,0,.23-1.31v-.16a4.87,4.87,0,0,0-.19-1.39,2,2,0,0,0-.76-1,4,4,0,0,0-1.57-.63,12.6,12.6,0,0,0-2.65-.22h-.16Z" transform="translate(-493.96 -266.72)" style="fill:#fff"/><path d="M687.6,384.44a2.79,2.79,0,0,1,.8.09.85.85,0,0,1,.43.32,1.43,1.43,0,0,1,.16.61c0,.25,0,.56,0,.93a2.4,2.4,0,0,1-.21,1.12,1.47,1.47,0,0,1-.49.57,1.41,1.41,0,0,1-.58.21l-.45,0h-5.74v17.61a.91.91,0,0,1-.2.61,1.25,1.25,0,0,1-.51.36,2.55,2.55,0,0,1-.73.15l-.81,0a8,8,0,0,1-.87,0,2.94,2.94,0,0,1-.72-.16,1.16,1.16,0,0,1-.5-.35,1,1,0,0,1-.18-.6V388.32h-5.55a2.07,2.07,0,0,1-.43-.06,1.26,1.26,0,0,1-.54-.25,1.86,1.86,0,0,1-.47-.58,2.29,2.29,0,0,1-.2-1c0-.41,0-.75,0-1a1.28,1.28,0,0,1,.19-.59.69.69,0,0,1,.4-.28,2.56,2.56,0,0,1,.69-.07Z" transform="translate(-493.96 -266.72)" style="fill:#fff"/><path d="M702.16,402.46H691.91l-.78,2.34a5.56,5.56,0,0,1-.58,1.28,2.2,2.2,0,0,1-.68.68,2,2,0,0,1-.83.27c-.31,0-.66.05-1,.05a2.32,2.32,0,0,1-.84-.15,1.16,1.16,0,0,1-.6-.51,2,2,0,0,1-.23-1,4.11,4.11,0,0,1,.29-1.46l5.9-16.84a5.31,5.31,0,0,1,.88-1.71,3.17,3.17,0,0,1,1.05-.86,2.93,2.93,0,0,1,1.15-.3c.39,0,.79,0,1.18,0h.55c.39,0,.79,0,1.18,0a2.93,2.93,0,0,1,1.15.3,3.17,3.17,0,0,1,1.05.86,5.31,5.31,0,0,1,.88,1.71l5.9,16.84a4.11,4.11,0,0,1,.29,1.46,2,2,0,0,1-.23,1,1.16,1.16,0,0,1-.6.51,2.32,2.32,0,0,1-.84.15c-.39,0-.74,0-1.05-.05a2,2,0,0,1-.84-.27,2.22,2.22,0,0,1-.69-.68,5.22,5.22,0,0,1-.56-1.28Zm-9-3.59H701l-3.45-10.2a2.5,2.5,0,0,0-.15-.38.22.22,0,0,0-.2-.13h-.23a.22.22,0,0,0-.2.13,2.5,2.5,0,0,0-.15.38Z" transform="translate(-493.96 -266.72)" style="fill:#fff"/><path d="M724.16,407.08l-.44,0a5.48,5.48,0,0,1-.79-.1,7.53,7.53,0,0,1-1-.27,4.91,4.91,0,0,1-1-.52,4,4,0,0,1-.88-.86,3.43,3.43,0,0,1-.58-1.28l-4-15.55a.52.52,0,0,0-.12-.26.3.3,0,0,0-.2-.06.29.29,0,0,0-.32.32l-1,17a1.57,1.57,0,0,1-.43.86,2.21,2.21,0,0,1-.76.47,3.42,3.42,0,0,1-.92.2c-.33,0-.63,0-.91,0a1.36,1.36,0,0,1-1.27-.54,2.25,2.25,0,0,1-.23-1.45l1-17.8a3.26,3.26,0,0,1,.59-1.71,2.83,2.83,0,0,1,1.12-.9,4.26,4.26,0,0,1,1.36-.35c.48,0,.92-.05,1.33-.05h.48a7.93,7.93,0,0,1,1.4.13,4.8,4.8,0,0,1,1.4.46,3.62,3.62,0,0,1,1.14.92,2.81,2.81,0,0,1,.61,1.47l4,15.72c0,.15.08.23.14.25l.18,0,.18,0c.06,0,.11-.1.14-.25l4-15.72a2.89,2.89,0,0,1,.61-1.47,3.62,3.62,0,0,1,1.14-.92,4.8,4.8,0,0,1,1.4-.46,7.93,7.93,0,0,1,1.4-.13h1.35a5.64,5.64,0,0,1,.92.11,4.08,4.08,0,0,1,.9.28,2.78,2.78,0,0,1,.79.52,2.66,2.66,0,0,1,.6.84,3.87,3.87,0,0,1,.32,1.25l1,17.8a2.31,2.31,0,0,1-.24,1.45,1.36,1.36,0,0,1-1.27.54c-.28,0-.58,0-.91,0a3.51,3.51,0,0,1-.92-.2,2.21,2.21,0,0,1-.76-.47,1.57,1.57,0,0,1-.43-.86l-1-17c0-.21-.1-.32-.29-.32a.35.35,0,0,0-.21.06.46.46,0,0,0-.14.26L728.88,404a3.61,3.61,0,0,1-.59,1.28,4,4,0,0,1-.88.86,4.91,4.91,0,0,1-1,.52,7.41,7.41,0,0,1-1,.27,5.72,5.72,0,0,1-.81.1Z" transform="translate(-493.96 -266.72)" style="fill:#fff"/><path d="M745.21,406.89H745c-.31,0-.6,0-.87,0a2.94,2.94,0,0,1-.72-.16,1.1,1.1,0,0,1-.5-.36.93.93,0,0,1-.18-.6v-19.4a1.49,1.49,0,0,1,0-.24,3.56,3.56,0,0,1,.17-.53,1.61,1.61,0,0,1,.39-.54,2.18,2.18,0,0,1,.67-.41,2.58,2.58,0,0,1,1-.17h12.86a1,1,0,0,1,.53.18,1.66,1.66,0,0,1,.39.44,2.35,2.35,0,0,1,.25.6,2.56,2.56,0,0,1,.08.67,2.26,2.26,0,0,1-.26,1.22,1.51,1.51,0,0,1-.67.59,2.52,2.52,0,0,1-.93.17h-10v5h7.58l.44,0h.22a1.18,1.18,0,0,1,.54.17,1.54,1.54,0,0,1,.44.41,1.82,1.82,0,0,1,.3.59,2.72,2.72,0,0,1,.1.72,3,3,0,0,1-.12.89,1.89,1.89,0,0,1-.31.62,1.28,1.28,0,0,1-.45.36,1.24,1.24,0,0,1-.53.12h-8.21V403h10a2.75,2.75,0,0,1,.93.18,1.45,1.45,0,0,1,.67.59,2.22,2.22,0,0,1,.26,1.21,2.63,2.63,0,0,1-.08.68,2.7,2.7,0,0,1-.25.6,1.48,1.48,0,0,1-.39.43,1.09,1.09,0,0,1-.53.19l-.26,0H745.21Z" transform="translate(-493.96 -266.72)" style="fill:#fff"/><path d="M781.93,405.93a1.32,1.32,0,0,1-.12.61.89.89,0,0,1-.36.36,1.59,1.59,0,0,1-.57.15c-.23,0-.47,0-.74,0l-.73,0a3.9,3.9,0,0,1-.71-.12,3.58,3.58,0,0,1-.63-.23,1.44,1.44,0,0,1-.45-.32.08.08,0,0,1,0,0h0l-10.54-13.75V405.8a.82.82,0,0,1-.26.63,1.77,1.77,0,0,1-.67.39,3.61,3.61,0,0,1-.89.2,6.82,6.82,0,0,1-.87.06,6.17,6.17,0,0,1-.8,0,1.68,1.68,0,0,1-.57-.16.79.79,0,0,1-.35-.35,1.5,1.5,0,0,1-.11-.6V385.66a1.29,1.29,0,0,1,.44-1.07,2.28,2.28,0,0,1,1.39-.34,5.34,5.34,0,0,1,1.31.16,2.08,2.08,0,0,1,1,.54l.07,0,10.64,13.91V386.43a1.72,1.72,0,0,1,.23-.85,2.28,2.28,0,0,1,.6-.68,3.13,3.13,0,0,1,.86-.48,3,3,0,0,1,1-.17,2.64,2.64,0,0,1,1.36.27c.29.18.43.56.43,1.14Z" transform="translate(-493.96 -266.72)" style="fill:#fff"/><path d="M802.17,384.44a2.79,2.79,0,0,1,.8.09.81.81,0,0,1,.43.32,1.43,1.43,0,0,1,.16.61c0,.25,0,.56,0,.93a2.4,2.4,0,0,1-.21,1.12,1.47,1.47,0,0,1-.49.57,1.41,1.41,0,0,1-.58.21l-.45,0h-5.74v17.61a.91.91,0,0,1-.2.61,1.25,1.25,0,0,1-.51.36,2.55,2.55,0,0,1-.73.15l-.81,0a8,8,0,0,1-.87,0,2.94,2.94,0,0,1-.72-.16,1.16,1.16,0,0,1-.5-.35,1,1,0,0,1-.18-.6V388.32H786a2.07,2.07,0,0,1-.43-.06,1.26,1.26,0,0,1-.54-.25,1.86,1.86,0,0,1-.47-.58,2.29,2.29,0,0,1-.2-1c0-.41,0-.75,0-1a1.28,1.28,0,0,1,.19-.59.69.69,0,0,1,.4-.28,2.56,2.56,0,0,1,.69-.07Z" transform="translate(-493.96 -266.72)" style="fill:#fff"/><path d="M815.25,407.11a16.49,16.49,0,0,1-3.92-.41,8.8,8.8,0,0,1-2.75-1.17,5.92,5.92,0,0,1-1.78-1.78,8.29,8.29,0,0,1-1-2.31,13.57,13.57,0,0,1-.46-2.71c-.07-1-.1-2-.1-3v-.1c0-1,0-2,.1-3a13.55,13.55,0,0,1,.46-2.72,8.29,8.29,0,0,1,1-2.31,5.92,5.92,0,0,1,1.78-1.78,8.8,8.8,0,0,1,2.75-1.17,16,16,0,0,1,3.92-.41h.13a16,16,0,0,1,3.93.41,8.8,8.8,0,0,1,2.75,1.17,6,6,0,0,1,1.78,1.78,8.29,8.29,0,0,1,1,2.31,13.55,13.55,0,0,1,.46,2.72c.07,1,.1,2,.1,3v.1c0,1,0,2-.1,3a13.55,13.55,0,0,1-.46,2.72,8.29,8.29,0,0,1-1,2.31,6,6,0,0,1-1.78,1.78,8.8,8.8,0,0,1-2.75,1.17,16.52,16.52,0,0,1-3.93.41Zm0-18.92a8.64,8.64,0,0,0-2.86.39,3.41,3.41,0,0,0-1.66,1.24,5.15,5.15,0,0,0-.77,2.17,22.49,22.49,0,0,0-.19,3.19v1a22.49,22.49,0,0,0,.19,3.19,5.2,5.2,0,0,0,.77,2.17,3.33,3.33,0,0,0,1.66,1.23,8.36,8.36,0,0,0,2.86.4h.2a8.36,8.36,0,0,0,2.86-.4,3.33,3.33,0,0,0,1.66-1.23,5.2,5.2,0,0,0,.77-2.17,24.08,24.08,0,0,0,.19-3.19v-1a24.08,24.08,0,0,0-.19-3.19,5.15,5.15,0,0,0-.77-2.17,3.41,3.41,0,0,0-1.66-1.24,8.64,8.64,0,0,0-2.86-.39Z" transform="translate(-493.96 -266.72)" style="fill:#fff"/><path d="M832.85,390.24a1.88,1.88,0,0,0,.55,1.4,4.52,4.52,0,0,0,1.46.92,13.12,13.12,0,0,0,2.08.65c.79.18,1.6.38,2.42.59s1.66.47,2.47.76a9.16,9.16,0,0,1,2.23,1.13,6.51,6.51,0,0,1,1.69,1.7,5.72,5.72,0,0,1,.89,2.51,5.66,5.66,0,0,1,0,1.47,5.11,5.11,0,0,1-.5,1.6,6.15,6.15,0,0,1-1.11,1.54,6.72,6.72,0,0,1-1.83,1.31,11.12,11.12,0,0,1-2.69.92,18.09,18.09,0,0,1-3.68.34,29.89,29.89,0,0,1-3.28-.16,13.41,13.41,0,0,1-2.6-.52,5.47,5.47,0,0,1-1.82-.94,2.69,2.69,0,0,1-.93-1.39,1.37,1.37,0,0,1,0-.83,1.3,1.3,0,0,1,.41-.56,1.54,1.54,0,0,1,.63-.3,2.11,2.11,0,0,1,.65-.05,10.45,10.45,0,0,1,1.33.27l1.46.38c.51.12,1.08.24,1.7.34a14.57,14.57,0,0,0,2.12.17,9.92,9.92,0,0,0,2.36-.22,5.8,5.8,0,0,0,1.74-.65,3.27,3.27,0,0,0,1.06-1,2.38,2.38,0,0,0,.36-1.28,1.64,1.64,0,0,0-.59-1.29,5.26,5.26,0,0,0-1.55-.88,17.44,17.44,0,0,0-2.19-.66c-.81-.19-1.65-.39-2.51-.61s-1.71-.47-2.53-.76a9.62,9.62,0,0,1-2.21-1.06,5.57,5.57,0,0,1-1.6-1.53,4,4,0,0,1-.65-2.19,6.9,6.9,0,0,1,.42-2.55,6.15,6.15,0,0,1,1.4-2.21A7.28,7.28,0,0,1,832.4,385a9.57,9.57,0,0,1,3.46-.71l1.21,0a18.36,18.36,0,0,1,1.89.07,21.78,21.78,0,0,1,2.17.27,9.52,9.52,0,0,1,2,.59,4.64,4.64,0,0,1,1.53,1,2.24,2.24,0,0,1,.59,1.58,2.35,2.35,0,0,1-.06.54.73.73,0,0,1-.23.41,1.08,1.08,0,0,1-.49.25,2.87,2.87,0,0,1-.82,0q-.63,0-1.5-.18l-1.85-.26c-.66-.09-1.33-.18-2-.25a18.13,18.13,0,0,0-2.06-.11,7.48,7.48,0,0,0-1.26.1,4,4,0,0,0-1.09.34,2.11,2.11,0,0,0-.77.6A1.45,1.45,0,0,0,832.85,390.24Z" transform="translate(-493.96 -266.72)" style="fill:#fff"/><path d="M502.23,289.47H502c-.26,0-.5,0-.73,0a2.43,2.43,0,0,1-.6-.13,1,1,0,0,1-.42-.3.78.78,0,0,1-.15-.5V272.32a1,1,0,0,1,0-.2,2.3,2.3,0,0,1,.14-.45,1.21,1.21,0,0,1,.32-.44,1.84,1.84,0,0,1,.56-.35,2.2,2.2,0,0,1,.87-.14h9.85l.61,0h.27a.79.79,0,0,1,.44.16,1.25,1.25,0,0,1,.32.36,1.88,1.88,0,0,1,.21.5,2.2,2.2,0,0,1,.07.56,1.89,1.89,0,0,1-.22,1,1.2,1.2,0,0,1-.56.49,2.29,2.29,0,0,1-.77.15H503.9v4.21h6.88a1,1,0,0,1,.45.14,1.48,1.48,0,0,1,.37.34,1.65,1.65,0,0,1,.24.5,2,2,0,0,1,.09.6,2.32,2.32,0,0,1-.1.74,1.58,1.58,0,0,1-.26.52,1.1,1.1,0,0,1-.38.3,1,1,0,0,1-.44.1H503.9v4.74h8.35a2.29,2.29,0,0,1,.77.15,1.2,1.2,0,0,1,.56.49,1.89,1.89,0,0,1,.22,1,2.2,2.2,0,0,1-.07.56,1.88,1.88,0,0,1-.21.5,1.25,1.25,0,0,1-.32.36.79.79,0,0,1-.44.16l-.22,0H502.23Z" transform="translate(-493.96 -266.72)" style="fill:#fff"/><path d="M532.88,288.67a1.11,1.11,0,0,1-.11.52.7.7,0,0,1-.3.29,1.3,1.3,0,0,1-.48.13,5.82,5.82,0,0,1-.61,0c-.2,0-.4,0-.61,0a3.76,3.76,0,0,1-.6-.1,2.66,2.66,0,0,1-.52-.19,1,1,0,0,1-.37-.28,0,0,0,0,1,0,0v0l-8.79-11.46v11a.72.72,0,0,1-.22.53,1.59,1.59,0,0,1-.57.33,3.25,3.25,0,0,1-.73.17,6.53,6.53,0,0,1-.73,0,6.45,6.45,0,0,1-.67,0,1.52,1.52,0,0,1-.48-.13.63.63,0,0,1-.28-.3,1,1,0,0,1-.1-.5V271.75a1.06,1.06,0,0,1,.37-.89,1.91,1.91,0,0,1,1.16-.28,4.51,4.51,0,0,1,1.09.13,1.74,1.74,0,0,1,.86.46l.05,0,8.89,11.6V272.4a1.38,1.38,0,0,1,.19-.71,1.92,1.92,0,0,1,.5-.57,2.52,2.52,0,0,1,.72-.4,2.78,2.78,0,0,1,.87-.14,2.21,2.21,0,0,1,1.13.22,1,1,0,0,1,.37.95Z" transform="translate(-493.96 -266.72)" style="fill:#fff"/><path d="M549.77,270.74a2,2,0,0,1,.66.08.65.65,0,0,1,.36.26,1.19,1.19,0,0,1,.13.51c0,.21,0,.47,0,.78a2.11,2.11,0,0,1-.17.93,1.26,1.26,0,0,1-.42.48,1.32,1.32,0,0,1-.48.17l-.37,0h-4.79v14.69a.79.79,0,0,1-.17.52,1.09,1.09,0,0,1-.43.29,2,2,0,0,1-.6.13c-.23,0-.45,0-.68,0s-.5,0-.73,0a2.53,2.53,0,0,1-.6-.13,1,1,0,0,1-.41-.3.73.73,0,0,1-.16-.5V274H536.3a2,2,0,0,1-.36-.05,1,1,0,0,1-.45-.22,1.49,1.49,0,0,1-.39-.48,1.86,1.86,0,0,1-.16-.86q0-.53,0-.84a1.06,1.06,0,0,1,.15-.5.63.63,0,0,1,.34-.23,2.16,2.16,0,0,1,.57-.06Z" transform="translate(-493.96 -266.72)" style="fill:#fff"/><path d="M560,274h-3.08v14.68a.77.77,0,0,1-.16.52,1,1,0,0,1-.43.29,2.12,2.12,0,0,1-.6.13l-.68,0a5.64,5.64,0,0,1-.73,0,2,2,0,0,1-.6-.13,1.06,1.06,0,0,1-.42-.29.81.81,0,0,1-.15-.51V272.26c0-.07,0-.12,0-.14a3.26,3.26,0,0,1,.14-.45,1.24,1.24,0,0,1,.33-.44,1.63,1.63,0,0,1,.56-.35,2.15,2.15,0,0,1,.86-.14h5a13.66,13.66,0,0,1,1.57,0,12.62,12.62,0,0,1,1.79.25,9.56,9.56,0,0,1,1.78.6,5.35,5.35,0,0,1,1.54,1.08,5.06,5.06,0,0,1,1.1,1.67,6.25,6.25,0,0,1,.41,2.37v.05a6.06,6.06,0,0,1-.31,2.05,5,5,0,0,1-.82,1.52,4.53,4.53,0,0,1-1.2,1.07,7,7,0,0,1-1.43.7l3.56,6.06a.77.77,0,0,1,.12.52.73.73,0,0,1-.23.39,1.42,1.42,0,0,1-.47.27,3.54,3.54,0,0,1-.58.17,4.56,4.56,0,0,1-1.1.12,2.8,2.8,0,0,1-1-.17,1.34,1.34,0,0,1-.72-.6l-3.49-6.13h-1.91a.83.83,0,0,1-.8-.48,2.38,2.38,0,0,1-.25-1.15,4.31,4.31,0,0,1,0-.64,1.52,1.52,0,0,1,.16-.52.86.86,0,0,1,.33-.35,1,1,0,0,1,.54-.13h1.58a11.55,11.55,0,0,0,2.1-.18,3.37,3.37,0,0,0,1.26-.51,1.87,1.87,0,0,0,.63-.81,3.59,3.59,0,0,0,.19-1.09v-.14a4.12,4.12,0,0,0-.16-1.16,1.72,1.72,0,0,0-.63-.86,3.47,3.47,0,0,0-1.31-.53,11,11,0,0,0-2.21-.18H560Z" transform="translate(-493.96 -266.72)" style="fill:#fff"/><path d="M572.61,289.47h-.2c-.26,0-.5,0-.73,0a2.43,2.43,0,0,1-.6-.13,1,1,0,0,1-.42-.3.78.78,0,0,1-.15-.5V272.32a1,1,0,0,1,0-.2,3.26,3.26,0,0,1,.14-.45,1.34,1.34,0,0,1,.32-.44,1.78,1.78,0,0,1,.57-.35,2.12,2.12,0,0,1,.86-.14h9.86l.61,0h.26a.79.79,0,0,1,.44.16,1.15,1.15,0,0,1,.33.36,1.87,1.87,0,0,1,.2.5,2.23,2.23,0,0,1,.08.56,2,2,0,0,1-.22,1,1.28,1.28,0,0,1-.57.49,2.24,2.24,0,0,1-.77.15h-8.35v4.21h6.88a1,1,0,0,1,.45.14,1.48,1.48,0,0,1,.37.34,1.67,1.67,0,0,1,.25.5,2.35,2.35,0,0,1,.08.6,2.32,2.32,0,0,1-.1.74,1.41,1.41,0,0,1-.26.52,1.17,1.17,0,0,1-.37.3,1,1,0,0,1-.44.1h-6.86v4.74h8.35a2.24,2.24,0,0,1,.77.15,1.28,1.28,0,0,1,.57.49,2,2,0,0,1,.22,1,2.23,2.23,0,0,1-.08.56,1.87,1.87,0,0,1-.2.5,1.15,1.15,0,0,1-.33.36.79.79,0,0,1-.44.16l-.22,0H572.61Z" transform="translate(-493.96 -266.72)" style="fill:#fff"/><path d="M597.84,270.78a7.24,7.24,0,0,1,1.9.57,3.24,3.24,0,0,1,1.21.91,1.83,1.83,0,0,1,.42,1.18,1.92,1.92,0,0,1-.08.51,1.52,1.52,0,0,1-.25.49,1.31,1.31,0,0,1-.44.36,1.45,1.45,0,0,1-.65.14,2.1,2.1,0,0,1-.59-.08,3.93,3.93,0,0,1-.54-.2l-.59-.27a5.12,5.12,0,0,0-.76-.27,9.23,9.23,0,0,0-1-.2,11.27,11.27,0,0,0-1.4-.08h-.18a6.84,6.84,0,0,0-2.39.34,2.8,2.8,0,0,0-1.39,1,4.34,4.34,0,0,0-.64,1.82,18.51,18.51,0,0,0-.16,2.66v.83a18.57,18.57,0,0,0,.16,2.67,4.3,4.3,0,0,0,.64,1.81,2.78,2.78,0,0,0,1.39,1,7.12,7.12,0,0,0,2.39.33H595a12.55,12.55,0,0,0,1.41-.07,9.81,9.81,0,0,0,1.15-.17,3.72,3.72,0,0,0,.77-.24c.19-.08.28-.16.28-.24v-4.8a.77.77,0,0,1,.16-.52,1.08,1.08,0,0,1,.42-.3,2.14,2.14,0,0,1,.58-.13c.22,0,.44,0,.66,0s.49,0,.71,0a2,2,0,0,1,.59.14.94.94,0,0,1,.4.3.81.81,0,0,1,.15.51v6.21a1.15,1.15,0,0,1-.35.81,3.37,3.37,0,0,1-.92.67,8.08,8.08,0,0,1-1.32.5,12.52,12.52,0,0,1-1.55.36c-.53.09-1.07.16-1.6.2a12.67,12.67,0,0,1-1.49,0h-.11a13.6,13.6,0,0,1-3.28-.34,7.18,7.18,0,0,1-2.29-1,5.16,5.16,0,0,1-1.49-1.49,7.16,7.16,0,0,1-.85-1.93,12.14,12.14,0,0,1-.38-2.25c-.06-.8-.08-1.64-.08-2.5v-.08c0-.86,0-1.69.08-2.5a12.36,12.36,0,0,1,.38-2.27,7.24,7.24,0,0,1,.85-1.92,5.19,5.19,0,0,1,1.49-1.5,7.67,7.67,0,0,1,2.29-1,13.6,13.6,0,0,1,3.28-.34h.46A13.5,13.5,0,0,1,597.84,270.78Z" transform="translate(-493.96 -266.72)" style="fill:#fff"/><path d="M617,285.78h-8.56l-.65,2a4.54,4.54,0,0,1-.48,1.07,1.93,1.93,0,0,1-.57.57,1.65,1.65,0,0,1-.7.22,7.67,7.67,0,0,1-.88,0,1.92,1.92,0,0,1-.69-.12,1,1,0,0,1-.5-.43,1.65,1.65,0,0,1-.2-.8,3.52,3.52,0,0,1,.24-1.22L608.92,273a4.62,4.62,0,0,1,.73-1.43,2.49,2.49,0,0,1,1.84-1q.5,0,1,0h.45q.5,0,1,0a2.49,2.49,0,0,1,1.84,1,4.62,4.62,0,0,1,.73,1.43l4.93,14.05a3.52,3.52,0,0,1,.24,1.22,1.66,1.66,0,0,1-.19.8,1,1,0,0,1-.51.43,1.92,1.92,0,0,1-.69.12,8,8,0,0,1-.89,0,1.69,1.69,0,0,1-.7-.22,1.93,1.93,0,0,1-.57-.57,4.57,4.57,0,0,1-.47-1.07Zm-7.54-3H616l-2.88-8.51A1.68,1.68,0,0,0,613,274a.19.19,0,0,0-.17-.12h-.19a.18.18,0,0,0-.16.12,1.6,1.6,0,0,0-.13.31Z" transform="translate(-493.96 -266.72)" style="fill:#fff"/><path d="M626.37,275.58a1.58,1.58,0,0,0,.46,1.17,3.93,3.93,0,0,0,1.22.77,10.55,10.55,0,0,0,1.74.54c.66.15,1.33.31,2,.49s1.38.39,2.06.63a7.76,7.76,0,0,1,1.86.95,5.29,5.29,0,0,1,1.41,1.42,4.76,4.76,0,0,1,.71,3.32,4.2,4.2,0,0,1-.42,1.33,5.31,5.31,0,0,1-.92,1.29,5.65,5.65,0,0,1-1.53,1.09,9.53,9.53,0,0,1-2.25.77,14.61,14.61,0,0,1-3.07.28,25.25,25.25,0,0,1-2.73-.13,11,11,0,0,1-2.17-.43,4.82,4.82,0,0,1-1.52-.79,2.31,2.31,0,0,1-.78-1.16,1.05,1.05,0,0,1,.35-1.16,1.39,1.39,0,0,1,.52-.25,2.13,2.13,0,0,1,.55,0,8.71,8.71,0,0,1,1.11.22l1.21.32c.44.11.91.2,1.43.29a12.84,12.84,0,0,0,1.77.14,9.06,9.06,0,0,0,2-.18,4.66,4.66,0,0,0,1.44-.55,2.47,2.47,0,0,0,.89-.83A2,2,0,0,0,634,284a1.36,1.36,0,0,0-.49-1.07,4.24,4.24,0,0,0-1.29-.73,13.79,13.79,0,0,0-1.83-.55c-.68-.16-1.38-.33-2.1-.52s-1.42-.39-2.11-.63a8.25,8.25,0,0,1-1.84-.88,4.69,4.69,0,0,1-1.34-1.28,3.35,3.35,0,0,1-.54-1.83,5.74,5.74,0,0,1,.35-2.13,5.06,5.06,0,0,1,1.17-1.84,6.18,6.18,0,0,1,2-1.33,8,8,0,0,1,2.89-.59l1,0c.47,0,1,0,1.58.06a17.06,17.06,0,0,1,1.8.23,7.4,7.4,0,0,1,1.71.49,3.71,3.71,0,0,1,1.27.87,1.84,1.84,0,0,1,.5,1.31,2.14,2.14,0,0,1,0,.45.7.7,0,0,1-.19.35,1.06,1.06,0,0,1-.41.21,2.41,2.41,0,0,1-.69,0c-.35,0-.77-.08-1.25-.15l-1.54-.22c-.55-.08-1.12-.14-1.7-.21a17,17,0,0,0-1.72-.09,6,6,0,0,0-1.05.09,3.13,3.13,0,0,0-.91.28,1.79,1.79,0,0,0-.64.5A1.19,1.19,0,0,0,626.37,275.58Z" transform="translate(-493.96 -266.72)" style="fill:#fff"/><path d="M654.54,270.74h0c.51,0,1.06,0,1.64.06a10.8,10.8,0,0,1,1.77.26,7.7,7.7,0,0,1,1.69.59,5.16,5.16,0,0,1,1.44,1.06,4.89,4.89,0,0,1,1,1.64,6.61,6.61,0,0,1,.37,2.36v.05a6.84,6.84,0,0,1-.34,2.3,5,5,0,0,1-.92,1.63,4.68,4.68,0,0,1-1.33,1.06,7,7,0,0,1-1.62.62,10,10,0,0,1-1.72.3,16.64,16.64,0,0,1-1.7.08h-3.4v5.93a.77.77,0,0,1-.16.52,1.06,1.06,0,0,1-.43.29,2.2,2.2,0,0,1-.6.13l-.68,0a5.64,5.64,0,0,1-.73,0,2,2,0,0,1-.6-.13,1,1,0,0,1-.42-.29.81.81,0,0,1-.15-.51V272.26a.45.45,0,0,1,0-.14,3.26,3.26,0,0,1,.14-.45,1.34,1.34,0,0,1,.32-.44,1.78,1.78,0,0,1,.57-.35,2.12,2.12,0,0,1,.86-.14Zm-3.08,8.75h3.11v0h.11a10.1,10.1,0,0,0,2.12-.17,3,3,0,0,0,1.21-.5,1.5,1.5,0,0,0,.56-.81,4.51,4.51,0,0,0,.15-1.11v-.26a5,5,0,0,0-.14-1.09,1.6,1.6,0,0,0-.53-.81,2.91,2.91,0,0,0-1.16-.51,9.46,9.46,0,0,0-2-.2h-3.42Z" transform="translate(-493.96 -266.72)" style="fill:#fff"/><path d="M671.9,274h-3.08v14.68a.73.73,0,0,1-.17.52,1,1,0,0,1-.42.29,2.19,2.19,0,0,1-.61.13c-.22,0-.45,0-.67,0a5.64,5.64,0,0,1-.73,0,2,2,0,0,1-.6-.13.93.93,0,0,1-.42-.29.81.81,0,0,1-.15-.51V272.26a.45.45,0,0,1,0-.14,2.3,2.3,0,0,1,.14-.45,1.34,1.34,0,0,1,.32-.44,1.84,1.84,0,0,1,.56-.35,2.2,2.2,0,0,1,.87-.14h5a13.65,13.65,0,0,1,1.57,0,12.82,12.82,0,0,1,1.79.25,9.81,9.81,0,0,1,1.78.6,5.35,5.35,0,0,1,1.54,1.08,5,5,0,0,1,1.09,1.67,6.05,6.05,0,0,1,.42,2.37v.05a6.31,6.31,0,0,1-.31,2.05,5.25,5.25,0,0,1-.82,1.52,4.86,4.86,0,0,1-1.2,1.07,7.28,7.28,0,0,1-1.43.7l3.56,6.06a.91.91,0,0,1,.12.52.79.79,0,0,1-.23.39,1.53,1.53,0,0,1-.47.27,3.66,3.66,0,0,1-.59.17,4.17,4.17,0,0,1-.6.1,4.71,4.71,0,0,1-.5,0,2.7,2.7,0,0,1-1-.17,1.34,1.34,0,0,1-.72-.6l-3.49-6.13h-1.92a.83.83,0,0,1-.79-.48,2.38,2.38,0,0,1-.25-1.15,4.31,4.31,0,0,1,0-.64,1.33,1.33,0,0,1,.16-.52.86.86,0,0,1,.33-.35.94.94,0,0,1,.54-.13h1.58a11.51,11.51,0,0,0,2.09-.18,3.5,3.5,0,0,0,1.27-.51,1.87,1.87,0,0,0,.63-.81,3.6,3.6,0,0,0,.18-1.09v-.14a3.78,3.78,0,0,0-.16-1.16,1.61,1.61,0,0,0-.63-.86,3.4,3.4,0,0,0-1.31-.53A11,11,0,0,0,672,274h-.13Z" transform="translate(-493.96 -266.72)" style="fill:#fff"/><path d="M689.85,289.66a13.5,13.5,0,0,1-3.28-.35,7.25,7.25,0,0,1-2.3-1,5,5,0,0,1-1.48-1.49,6.87,6.87,0,0,1-.85-1.93,10.67,10.67,0,0,1-.38-2.26c-.06-.8-.09-1.64-.09-2.5v-.08c0-.86,0-1.69.09-2.5a10.87,10.87,0,0,1,.38-2.27,6.93,6.93,0,0,1,.85-1.92,5.15,5.15,0,0,1,1.48-1.5,7.73,7.73,0,0,1,2.3-1,13.55,13.55,0,0,1,3.28-.34h.1a13.55,13.55,0,0,1,3.28.34,7.73,7.73,0,0,1,2.3,1,5.15,5.15,0,0,1,1.48,1.5,6.93,6.93,0,0,1,.85,1.92,11.56,11.56,0,0,1,.39,2.27c0,.81.08,1.64.08,2.5v.08c0,.86,0,1.69-.08,2.5a11.34,11.34,0,0,1-.39,2.26,6.87,6.87,0,0,1-.85,1.93,5,5,0,0,1-1.48,1.49,7.25,7.25,0,0,1-2.3,1,13.5,13.5,0,0,1-3.28.35Zm0-15.79a7.12,7.12,0,0,0-2.39.33,2.75,2.75,0,0,0-1.38,1,4.17,4.17,0,0,0-.65,1.81,20.09,20.09,0,0,0-.16,2.66v.83a20.14,20.14,0,0,0,.16,2.67,4.17,4.17,0,0,0,.65,1.81,2.75,2.75,0,0,0,1.38,1,7.12,7.12,0,0,0,2.39.33H690a7.12,7.12,0,0,0,2.39-.33,2.75,2.75,0,0,0,1.38-1,4.17,4.17,0,0,0,.65-1.81,20.14,20.14,0,0,0,.16-2.67v-.83a20.09,20.09,0,0,0-.16-2.66,4.17,4.17,0,0,0-.65-1.81,2.75,2.75,0,0,0-1.38-1,7.12,7.12,0,0,0-2.39-.33Z" transform="translate(-493.96 -266.72)" style="fill:#fff"/><path d="M712.54,270.78a7.36,7.36,0,0,1,1.9.57,3.28,3.28,0,0,1,1.2.91,1.83,1.83,0,0,1,.42,1.18,1.59,1.59,0,0,1-.08.51,1.49,1.49,0,0,1-.24.49,1.26,1.26,0,0,1-.45.36,1.41,1.41,0,0,1-.64.14,2.13,2.13,0,0,1-.6-.08,5.21,5.21,0,0,1-.54-.2l-.59-.27a4.74,4.74,0,0,0-.76-.27,9.23,9.23,0,0,0-1-.2,11.1,11.1,0,0,0-1.39-.08h-.19a6.84,6.84,0,0,0-2.39.34,2.77,2.77,0,0,0-1.38,1,4.21,4.21,0,0,0-.65,1.82,20.09,20.09,0,0,0-.16,2.66v.83a20.14,20.14,0,0,0,.16,2.67,4.17,4.17,0,0,0,.65,1.81,2.75,2.75,0,0,0,1.38,1,7.12,7.12,0,0,0,2.39.33h.08a12.55,12.55,0,0,0,1.41-.07,9.5,9.5,0,0,0,1.15-.17,3.36,3.36,0,0,0,.77-.24c.19-.08.28-.16.28-.24v-4.8a.77.77,0,0,1,.17-.52,1,1,0,0,1,.42-.3,2,2,0,0,1,.58-.13c.21,0,.43,0,.65,0s.49,0,.71,0a2,2,0,0,1,.59.14.88.88,0,0,1,.4.3.81.81,0,0,1,.15.51v6.21a1.15,1.15,0,0,1-.35.81,3.37,3.37,0,0,1-.92.67,7.44,7.44,0,0,1-1.32.5,12.36,12.36,0,0,1-1.54.36c-.54.09-1.08.16-1.61.2a12.67,12.67,0,0,1-1.49,0h-.1a13.55,13.55,0,0,1-3.28-.34,7.24,7.24,0,0,1-2.3-1,5.12,5.12,0,0,1-1.48-1.49,6.87,6.87,0,0,1-.85-1.93,10.68,10.68,0,0,1-.38-2.25c-.06-.8-.09-1.64-.09-2.5v-.08c0-.86,0-1.69.09-2.5a10.87,10.87,0,0,1,.38-2.27,6.93,6.93,0,0,1,.85-1.92,5.15,5.15,0,0,1,1.48-1.5,7.73,7.73,0,0,1,2.3-1,13.55,13.55,0,0,1,3.28-.34H710A13.69,13.69,0,0,1,712.54,270.78Z" transform="translate(-493.96 -266.72)" style="fill:#fff"/><path d="M727.15,274h-3.08v14.68a.77.77,0,0,1-.17.52.94.94,0,0,1-.43.29,2,2,0,0,1-.6.13c-.23,0-.45,0-.68,0a5.64,5.64,0,0,1-.73,0,2.2,2.2,0,0,1-.6-.13,1,1,0,0,1-.41-.29.76.76,0,0,1-.16-.51V272.26a.37.37,0,0,1,0-.14,1.77,1.77,0,0,1,.14-.45,1.11,1.11,0,0,1,.32-.44,1.73,1.73,0,0,1,.56-.35,2.18,2.18,0,0,1,.86-.14h5a13.84,13.84,0,0,1,1.58,0,12.69,12.69,0,0,1,1.78.25,9.56,9.56,0,0,1,1.78.6,5.4,5.4,0,0,1,1.55,1.08,5.2,5.2,0,0,1,1.09,1.67,6.25,6.25,0,0,1,.41,2.37v.05a6.06,6.06,0,0,1-.31,2.05,4.82,4.82,0,0,1-.82,1.52,4.53,4.53,0,0,1-1.2,1.07,7,7,0,0,1-1.43.7l3.56,6.06a.77.77,0,0,1,.12.52.67.67,0,0,1-.23.39,1.47,1.47,0,0,1-.46.27,4,4,0,0,1-.59.17,4.69,4.69,0,0,1-.6.1,4.81,4.81,0,0,1-.5,0,2.7,2.7,0,0,1-1-.17,1.4,1.4,0,0,1-.73-.6l-3.49-6.13h-1.91a.84.84,0,0,1-.8-.48,2.51,2.51,0,0,1-.25-1.15,6.28,6.28,0,0,1,0-.64,1.52,1.52,0,0,1,.16-.52.86.86,0,0,1,.33-.35,1,1,0,0,1,.54-.13h1.58a11.55,11.55,0,0,0,2.1-.18,3.37,3.37,0,0,0,1.26-.51,1.73,1.73,0,0,0,.63-.81,3.31,3.31,0,0,0,.19-1.09v-.14a3.78,3.78,0,0,0-.16-1.16,1.72,1.72,0,0,0-.63-.86,3.4,3.4,0,0,0-1.31-.53,11,11,0,0,0-2.21-.18h-.13Z" transform="translate(-493.96 -266.72)" style="fill:#fff"/><path d="M749.08,285.78h-8.55l-.66,2a4.54,4.54,0,0,1-.48,1.07,1.93,1.93,0,0,1-.57.57,1.65,1.65,0,0,1-.69.22,7.78,7.78,0,0,1-.88,0,2,2,0,0,1-.7-.12,1,1,0,0,1-.5-.43,1.66,1.66,0,0,1-.19-.8,3.52,3.52,0,0,1,.24-1.22L741,273a4.61,4.61,0,0,1,.74-1.43,2.74,2.74,0,0,1,.88-.72,2.68,2.68,0,0,1,1-.25q.49,0,1,0H745q.5,0,1,0a2.45,2.45,0,0,1,1.83,1,4.41,4.41,0,0,1,.74,1.43l4.92,14.05a3.82,3.82,0,0,1,.25,1.22,1.65,1.65,0,0,1-.2.8,1,1,0,0,1-.5.43,2,2,0,0,1-.7.12,7.78,7.78,0,0,1-.88,0,1.65,1.65,0,0,1-.7-.22,1.93,1.93,0,0,1-.57-.57,4.19,4.19,0,0,1-.47-1.07Zm-7.53-3h6.53l-2.88-8.51a1.6,1.6,0,0,0-.13-.31.18.18,0,0,0-.16-.12h-.19a.19.19,0,0,0-.17.12,2.65,2.65,0,0,0-.13.31Z" transform="translate(-493.96 -266.72)" style="fill:#fff"/><path d="M767.44,289.63h-.36a5,5,0,0,1-.67-.09,6.45,6.45,0,0,1-.83-.22,3.82,3.82,0,0,1-.85-.44,3.07,3.07,0,0,1-.73-.71,3,3,0,0,1-.49-1.07l-3.29-13a.4.4,0,0,0-.1-.21.24.24,0,0,0-.17-.06.24.24,0,0,0-.27.27l-.8,14.21a1.27,1.27,0,0,1-.36.72,1.86,1.86,0,0,1-.63.39,2.78,2.78,0,0,1-.77.17l-.76,0a1.15,1.15,0,0,1-1.06-.44,1.91,1.91,0,0,1-.2-1.22l.86-14.85a2.75,2.75,0,0,1,.49-1.43,2.38,2.38,0,0,1,.93-.75,3.55,3.55,0,0,1,1.14-.29c.4,0,.77,0,1.11,0h.4a7.18,7.18,0,0,1,1.17.11,4,4,0,0,1,1.17.39,3,3,0,0,1,1,.76,2.37,2.37,0,0,1,.51,1.23l3.34,13.12c0,.12.07.19.13.21l.14,0,.15,0s.09-.09.12-.21l3.35-13.12a2.45,2.45,0,0,1,.5-1.23,3.16,3.16,0,0,1,1-.76,4,4,0,0,1,1.18-.39,7,7,0,0,1,1.17-.11h.4l.72,0a4.9,4.9,0,0,1,.77.08,3.63,3.63,0,0,1,.75.24,2.09,2.09,0,0,1,.66.43,2.37,2.37,0,0,1,.5.71,3.5,3.5,0,0,1,.27,1l.85,14.85a1.92,1.92,0,0,1-.19,1.22,1.17,1.17,0,0,1-1.07.44l-.75,0a2.78,2.78,0,0,1-.77-.17,2,2,0,0,1-.64-.39,1.26,1.26,0,0,1-.35-.72l-.8-14.21c0-.18-.08-.27-.25-.27a.28.28,0,0,0-.18.06s-.08.1-.11.21l-3.29,13a3,3,0,0,1-.49,1.07,3.3,3.3,0,0,1-.74.71,3.62,3.62,0,0,1-.85.44,6,6,0,0,1-.83.22,5,5,0,0,1-.67.09Z" transform="translate(-493.96 -266.72)" style="fill:#fff"/><path d="M794.3,285.78h-8.55l-.66,2a4.54,4.54,0,0,1-.48,1.07,1.93,1.93,0,0,1-.57.57,1.65,1.65,0,0,1-.69.22,7.78,7.78,0,0,1-.88,0,1.92,1.92,0,0,1-.69-.12,1,1,0,0,1-.51-.43,1.66,1.66,0,0,1-.19-.8,3.52,3.52,0,0,1,.24-1.22L786.25,273a4.62,4.62,0,0,1,.73-1.43,2.49,2.49,0,0,1,1.84-1q.49,0,1,0h.45q.5,0,1,0a2.73,2.73,0,0,1,1,.25,2.61,2.61,0,0,1,.87.72,4.41,4.41,0,0,1,.74,1.43l4.93,14.05a3.52,3.52,0,0,1,.24,1.22,1.65,1.65,0,0,1-.2.8,1,1,0,0,1-.5.43,2,2,0,0,1-.7.12,7.78,7.78,0,0,1-.88,0,1.65,1.65,0,0,1-.7-.22,1.93,1.93,0,0,1-.57-.57,4.19,4.19,0,0,1-.47-1.07Zm-7.53-3h6.53l-2.88-8.51a1.6,1.6,0,0,0-.13-.31.18.18,0,0,0-.16-.12h-.19a.19.19,0,0,0-.17.12,1.68,1.68,0,0,0-.12.31Z" transform="translate(-493.96 -266.72)" style="fill:#fff"/><path d="M802.79,289.47c-.26,0-.5,0-.73,0a2.43,2.43,0,0,1-.6-.13,1,1,0,0,1-.42-.3.78.78,0,0,1-.15-.5V272.26a.45.45,0,0,1,0-.14,2.3,2.3,0,0,1,.14-.45,1.34,1.34,0,0,1,.32-.44,1.84,1.84,0,0,1,.56-.35,2.2,2.2,0,0,1,.87-.14h5.57a14.08,14.08,0,0,1,3.27.33,7.47,7.47,0,0,1,2.3.94,5.32,5.32,0,0,1,1.49,1.46,6.73,6.73,0,0,1,.84,1.89,11,11,0,0,1,.39,2.24c.05.79.08,1.62.08,2.48v.08c0,.86,0,1.68-.08,2.47a10.91,10.91,0,0,1-.39,2.23,6.54,6.54,0,0,1-.84,1.88,5.1,5.1,0,0,1-1.5,1.46,7.43,7.43,0,0,1-2.31.94,14.17,14.17,0,0,1-3.28.33h-5.54ZM808.28,274h-3.62v12.21h4a7,7,0,0,0,2.24-.34,2.66,2.66,0,0,0,1.3-1,4,4,0,0,0,.61-1.74,18.93,18.93,0,0,0,.15-2.59v-.83a17.88,17.88,0,0,0-.16-2.63,4,4,0,0,0-.64-1.76,2.74,2.74,0,0,0-1.39-1,7.78,7.78,0,0,0-2.39-.3h-.1Z" transform="translate(-493.96 -266.72)" style="fill:#fff"/><path d="M831.15,285.78H822.6l-.66,2a4.54,4.54,0,0,1-.48,1.07,1.93,1.93,0,0,1-.57.57,1.65,1.65,0,0,1-.7.22,7.49,7.49,0,0,1-.87,0,2,2,0,0,1-.7-.12,1,1,0,0,1-.5-.43,1.65,1.65,0,0,1-.2-.8,3.82,3.82,0,0,1,.25-1.22L823.09,273a4.41,4.41,0,0,1,.74-1.43,2.45,2.45,0,0,1,1.83-1q.5,0,1,0h.46q.5,0,1,0a2.62,2.62,0,0,1,.95.25,2.74,2.74,0,0,1,.88.72,4.61,4.61,0,0,1,.74,1.43l4.92,14.05a3.52,3.52,0,0,1,.24,1.22,1.66,1.66,0,0,1-.19.8,1,1,0,0,1-.5.43,2,2,0,0,1-.7.12,7.78,7.78,0,0,1-.88,0,1.69,1.69,0,0,1-.71-.22,1.8,1.8,0,0,1-.56-.57,4.19,4.19,0,0,1-.47-1.07Zm-7.54-3h6.53l-2.87-8.51a2.65,2.65,0,0,0-.13-.31.19.19,0,0,0-.17-.12h-.19a.18.18,0,0,0-.16.12,2.65,2.65,0,0,0-.13.31Z" transform="translate(-493.96 -266.72)" style="fill:#fff"/><path d="M840.54,275.58a1.62,1.62,0,0,0,.46,1.17,3.93,3.93,0,0,0,1.22.77,11.19,11.19,0,0,0,1.74.54c.66.15,1.33.31,2,.49s1.38.39,2.06.63a7.4,7.4,0,0,1,1.86.95,5.48,5.48,0,0,1,1.42,1.42,4.92,4.92,0,0,1,.71,3.32,4.49,4.49,0,0,1-.43,1.33,5.31,5.31,0,0,1-.92,1.29,5.65,5.65,0,0,1-1.53,1.09,9.44,9.44,0,0,1-2.24.77,14.77,14.77,0,0,1-3.08.28,25.25,25.25,0,0,1-2.73-.13,11,11,0,0,1-2.17-.43,4.82,4.82,0,0,1-1.52-.79,2.31,2.31,0,0,1-.78-1.16,1.14,1.14,0,0,1,0-.69A1.17,1.17,0,0,1,837,286a1.39,1.39,0,0,1,.52-.25,2.13,2.13,0,0,1,.55,0,8.71,8.71,0,0,1,1.11.22c.38.11.78.21,1.22.32s.9.2,1.42.29a13,13,0,0,0,1.77.14,9,9,0,0,0,2-.18,4.72,4.72,0,0,0,1.45-.55,2.44,2.44,0,0,0,.88-.83,2,2,0,0,0,.3-1.07,1.36,1.36,0,0,0-.49-1.07,4.12,4.12,0,0,0-1.29-.73,12.94,12.94,0,0,0-1.83-.55c-.68-.16-1.38-.33-2.1-.52s-1.42-.39-2.11-.63a8.25,8.25,0,0,1-1.84-.88,4.52,4.52,0,0,1-1.33-1.28,3.27,3.27,0,0,1-.55-1.83,6,6,0,0,1,.35-2.13,5.06,5.06,0,0,1,1.17-1.84,6.28,6.28,0,0,1,2-1.33,8,8,0,0,1,2.89-.59l1,0c.47,0,1,0,1.58.06a17.58,17.58,0,0,1,1.81.23,7.32,7.32,0,0,1,1.7.49,3.71,3.71,0,0,1,1.27.87,1.84,1.84,0,0,1,.5,1.31,2.14,2.14,0,0,1,0,.45.64.64,0,0,1-.19.35,1.06,1.06,0,0,1-.41.21,2.38,2.38,0,0,1-.69,0c-.35,0-.76-.08-1.25-.15l-1.54-.22c-.55-.08-1.12-.14-1.7-.21a17,17,0,0,0-1.72-.09,5.83,5.83,0,0,0-1,.09,3,3,0,0,0-.91.28,1.74,1.74,0,0,0-.65.5A1.19,1.19,0,0,0,840.54,275.58Z" transform="translate(-493.96 -266.72)" style="fill:#fff"/><path d="M509.12,299.65h0c.51,0,1.06,0,1.64.06a10.8,10.8,0,0,1,1.77.26,7.7,7.7,0,0,1,1.69.59,5.16,5.16,0,0,1,1.44,1.06,4.89,4.89,0,0,1,1,1.64,6.59,6.59,0,0,1,.37,2.35v.06a6.84,6.84,0,0,1-.34,2.3,5.06,5.06,0,0,1-.92,1.63,4.59,4.59,0,0,1-1.34,1.06,7.26,7.26,0,0,1-1.61.62,10,10,0,0,1-1.72.3,16.64,16.64,0,0,1-1.7.08H506v5.93a.77.77,0,0,1-.16.52,1.17,1.17,0,0,1-.43.29,2.2,2.2,0,0,1-.6.13l-.68,0c-.26,0-.5,0-.73,0a2,2,0,0,1-.6-.13,1,1,0,0,1-.42-.3.78.78,0,0,1-.15-.5V301.17a.58.58,0,0,1,0-.15,3.64,3.64,0,0,1,.14-.44,1.49,1.49,0,0,1,.32-.45,2,2,0,0,1,.57-.34,2.12,2.12,0,0,1,.86-.14ZM506,308.4h3.21a10.87,10.87,0,0,0,2.13-.17,3.19,3.19,0,0,0,1.21-.5,1.5,1.5,0,0,0,.56-.81,4.67,4.67,0,0,0,.15-1.12v-.25a5,5,0,0,0-.14-1.09,1.56,1.56,0,0,0-.53-.81,3.06,3.06,0,0,0-1.16-.52,9.56,9.56,0,0,0-2-.19H506Z" transform="translate(-493.96 -266.72)" style="fill:#fff"/><path d="M529.18,314.69h-8.55l-.66,1.95a4.54,4.54,0,0,1-.48,1.07,1.78,1.78,0,0,1-.57.56,1.53,1.53,0,0,1-.69.23,7.78,7.78,0,0,1-.88,0,1.92,1.92,0,0,1-.69-.12,1,1,0,0,1-.51-.43,1.66,1.66,0,0,1-.19-.8,3.52,3.52,0,0,1,.24-1.22l4.93-14.05a4.41,4.41,0,0,1,.73-1.43,2.49,2.49,0,0,1,1.84-1c.33,0,.66,0,1,0h.45c.33,0,.66,0,1,0a2.73,2.73,0,0,1,1,.25,2.61,2.61,0,0,1,.87.72,4.41,4.41,0,0,1,.74,1.43L533.63,316a3.52,3.52,0,0,1,.24,1.22,1.65,1.65,0,0,1-.2.8,1,1,0,0,1-.5.43,2,2,0,0,1-.7.12,7.78,7.78,0,0,1-.88,0,1.53,1.53,0,0,1-.7-.23,1.78,1.78,0,0,1-.57-.56,4.19,4.19,0,0,1-.47-1.07Zm-7.53-3h6.53l-2.88-8.51a1.74,1.74,0,0,0-.13-.32.18.18,0,0,0-.16-.11h-.19a.2.2,0,0,0-.17.11,2.94,2.94,0,0,0-.13.32Z" transform="translate(-493.96 -266.72)" style="fill:#fff"/><path d="M542.65,302.91h-3.08v14.68a.77.77,0,0,1-.17.52,1,1,0,0,1-.43.29,2,2,0,0,1-.6.13c-.23,0-.45,0-.68,0s-.5,0-.73,0a2.2,2.2,0,0,1-.6-.13,1,1,0,0,1-.41-.3.79.79,0,0,1-.16-.5V301.17a.49.49,0,0,1,0-.15,1.84,1.84,0,0,1,.14-.44,1.21,1.21,0,0,1,.32-.45,1.9,1.9,0,0,1,.56-.34,2.18,2.18,0,0,1,.86-.14h5a13.84,13.84,0,0,1,1.58,0,11.21,11.21,0,0,1,1.78.25,8.29,8.29,0,0,1,1.78.6,5.4,5.4,0,0,1,1.55,1.08,5.09,5.09,0,0,1,1.09,1.67,6,6,0,0,1,.41,2.36v.06a6.33,6.33,0,0,1-.3,2.05,5,5,0,0,1-.83,1.52,4.65,4.65,0,0,1-1.19,1.07,7.36,7.36,0,0,1-1.44.7l3.56,6.06a.77.77,0,0,1,.12.52.65.65,0,0,1-.22.38,1.67,1.67,0,0,1-.47.28,4,4,0,0,1-.59.17,4.69,4.69,0,0,1-.6.1l-.5,0a2.94,2.94,0,0,1-1-.17,1.4,1.4,0,0,1-.73-.6l-3.49-6.13h-1.91a.84.84,0,0,1-.8-.48,2.55,2.55,0,0,1-.25-1.16,6.26,6.26,0,0,1,0-.63,1.52,1.52,0,0,1,.16-.52.86.86,0,0,1,.33-.35,1,1,0,0,1,.54-.13h1.58a10.61,10.61,0,0,0,2.1-.19,3.07,3.07,0,0,0,1.26-.51,1.66,1.66,0,0,0,.63-.8,3.33,3.33,0,0,0,.19-1.1v-.13a3.74,3.74,0,0,0-.16-1.16,1.72,1.72,0,0,0-.63-.86,3.4,3.4,0,0,0-1.31-.53,11,11,0,0,0-2.21-.18h-.13Z" transform="translate(-493.96 -266.72)" style="fill:#fff"/><path d="M564.58,314.69H556l-.66,1.95a4.54,4.54,0,0,1-.48,1.07,1.78,1.78,0,0,1-.57.56,1.53,1.53,0,0,1-.69.23,7.78,7.78,0,0,1-.88,0,2,2,0,0,1-.7-.12,1,1,0,0,1-.5-.43,1.66,1.66,0,0,1-.19-.8,3.52,3.52,0,0,1,.24-1.22l4.92-14.05a4.61,4.61,0,0,1,.74-1.43,2.74,2.74,0,0,1,.88-.72,2.68,2.68,0,0,1,1-.25c.33,0,.66,0,1,0h.46c.33,0,.66,0,1,0a2.45,2.45,0,0,1,1.83,1,4.41,4.41,0,0,1,.74,1.43L569,316a3.82,3.82,0,0,1,.25,1.22,1.65,1.65,0,0,1-.2.8,1,1,0,0,1-.5.43,2,2,0,0,1-.7.12,7.78,7.78,0,0,1-.88,0,1.53,1.53,0,0,1-.7-.23,1.78,1.78,0,0,1-.57-.56,4.19,4.19,0,0,1-.47-1.07Zm-7.53-3h6.53l-2.88-8.51a1.74,1.74,0,0,0-.13-.32.18.18,0,0,0-.16-.11h-.19a.2.2,0,0,0-.17.11,2.94,2.94,0,0,0-.13.32Z" transform="translate(-493.96 -266.72)" style="fill:#fff"/><path d="M580.11,318.38c-.26,0-.51,0-.73,0a2.19,2.19,0,0,1-.61-.14.88.88,0,0,1-.41-.29.8.8,0,0,1-.15-.5V301.17a.58.58,0,0,1,0-.15,2.44,2.44,0,0,1,.14-.44,1.34,1.34,0,0,1,.32-.45,2,2,0,0,1,.56-.34,2.2,2.2,0,0,1,.87-.14h5.56A14.11,14.11,0,0,1,589,300a7.47,7.47,0,0,1,2.3.94,5.15,5.15,0,0,1,1.48,1.46,6.75,6.75,0,0,1,.85,1.89,10.38,10.38,0,0,1,.38,2.23q.09,1.2.09,2.49v.08c0,.85,0,1.68-.09,2.47a10.28,10.28,0,0,1-.38,2.23,6.56,6.56,0,0,1-.85,1.88,4.92,4.92,0,0,1-1.49,1.45,7.44,7.44,0,0,1-2.31.95,14.17,14.17,0,0,1-3.28.33h-5.54Zm5.48-15.47H582v12.21h4a7,7,0,0,0,2.24-.34,2.66,2.66,0,0,0,1.3-1,3.93,3.93,0,0,0,.61-1.73,18.93,18.93,0,0,0,.15-2.59v-.83a19.38,19.38,0,0,0-.16-2.63,3.9,3.9,0,0,0-.65-1.76,2.67,2.67,0,0,0-1.38-1,7.78,7.78,0,0,0-2.39-.3h-.11Z" transform="translate(-493.96 -266.72)" style="fill:#fff"/><path d="M601.2,317.58a.77.77,0,0,1-.17.51,1,1,0,0,1-.43.3,2,2,0,0,1-.6.13l-.68,0c-.25,0-.5,0-.73,0a2.65,2.65,0,0,1-.6-.13,1,1,0,0,1-.41-.3.81.81,0,0,1-.16-.5V300.66a.93.93,0,0,1,.15-.52,1.23,1.23,0,0,1,.41-.37,2.42,2.42,0,0,1,.61-.21,3.47,3.47,0,0,1,.73-.08,5.46,5.46,0,0,1,.73,0,1.76,1.76,0,0,1,.6.18,1,1,0,0,1,.55,1Z" transform="translate(-493.96 -266.72)" style="fill:#fff"/><path d="M615.91,299.69a7.24,7.24,0,0,1,1.9.57,3.42,3.42,0,0,1,1.21.9,1.88,1.88,0,0,1,.42,1.19,1.92,1.92,0,0,1-.08.51,1.74,1.74,0,0,1-.25.49,1.31,1.31,0,0,1-1.09.5,2.23,2.23,0,0,1-.6-.08c-.17-.06-.35-.12-.53-.2l-.6-.27a4.6,4.6,0,0,0-.75-.27,7.25,7.25,0,0,0-1-.2,11,11,0,0,0-1.39-.08h-.19a7.05,7.05,0,0,0-2.38.33,2.83,2.83,0,0,0-1.39,1.05,4.34,4.34,0,0,0-.64,1.82,18.51,18.51,0,0,0-.16,2.66v.83a18.66,18.66,0,0,0,.16,2.67,4.3,4.3,0,0,0,.64,1.81,2.74,2.74,0,0,0,1.39,1,7.05,7.05,0,0,0,2.38.33h.19a11,11,0,0,0,1.39-.08,9,9,0,0,0,1-.2,4.6,4.6,0,0,0,.75-.27l.6-.27a4.36,4.36,0,0,1,.53-.2,2.23,2.23,0,0,1,.6-.08,1.33,1.33,0,0,1,.65.15,1.31,1.31,0,0,1,.44.36,1.74,1.74,0,0,1,.25.49,1.8,1.8,0,0,1,.08.5,1.83,1.83,0,0,1-.42,1.18,3.32,3.32,0,0,1-1.21.91,7.24,7.24,0,0,1-1.9.57,13.58,13.58,0,0,1-2.49.2H613a13.6,13.6,0,0,1-3.28-.34,7.42,7.42,0,0,1-2.29-1,5.16,5.16,0,0,1-1.49-1.49,7.31,7.31,0,0,1-.85-1.93,12.25,12.25,0,0,1-.38-2.26q-.09-1.2-.09-2.49V309c0-.86,0-1.69.09-2.5a12.22,12.22,0,0,1,.38-2.27,7.45,7.45,0,0,1,.85-1.93,5.16,5.16,0,0,1,1.49-1.49,7.42,7.42,0,0,1,2.29-1,13.56,13.56,0,0,1,3.28-.35h.46A13.53,13.53,0,0,1,615.91,299.69Z" transform="translate(-493.96 -266.72)" style="fill:#fff"/><path d="M625.38,317.58a.72.72,0,0,1-.17.51,1.08,1.08,0,0,1-.42.3,2.19,2.19,0,0,1-.61.13l-.67,0c-.26,0-.5,0-.73,0a2.43,2.43,0,0,1-.6-.13,1,1,0,0,1-.42-.3.8.8,0,0,1-.15-.5V300.66a1,1,0,0,1,.14-.52,1.23,1.23,0,0,1,.41-.37,2.57,2.57,0,0,1,.61-.21,3.5,3.5,0,0,1,.74-.08,5.58,5.58,0,0,1,.73,0,1.77,1.77,0,0,1,.59.18,1,1,0,0,1,.4.36,1.08,1.08,0,0,1,.15.59Z" transform="translate(-493.96 -266.72)" style="fill:#fff"/><path d="M631.27,318.38h-.2c-.26,0-.5,0-.73,0a2,2,0,0,1-.6-.14.86.86,0,0,1-.42-.29.8.8,0,0,1-.15-.5v-16.2a1.15,1.15,0,0,1,0-.2,2.44,2.44,0,0,1,.14-.44,1.49,1.49,0,0,1,.32-.45,2,2,0,0,1,.57-.34,2.12,2.12,0,0,1,.86-.14h9.86l.6,0h.27a.79.79,0,0,1,.44.16,1,1,0,0,1,.32.36,1.75,1.75,0,0,1,.21.5,2.16,2.16,0,0,1,.08.56,2,2,0,0,1-.22,1,1.28,1.28,0,0,1-.57.49,2.07,2.07,0,0,1-.77.14h-8.35v4.2h6.88a1,1,0,0,1,.45.14,1.48,1.48,0,0,1,.37.34,1.55,1.55,0,0,1,.24.5,1.89,1.89,0,0,1,.09.6,2.37,2.37,0,0,1-.1.74,1.69,1.69,0,0,1-.26.52,1,1,0,0,1-.82.4h-6.85v4.74h8.35a2.29,2.29,0,0,1,.77.15,1.22,1.22,0,0,1,.57.49,2,2,0,0,1,.22,1,2.23,2.23,0,0,1-.08.56,1.88,1.88,0,0,1-.21.5,1,1,0,0,1-.32.36.87.87,0,0,1-.44.16l-.22,0H631.27Z" transform="translate(-493.96 -266.72)" style="fill:#fff"/><path d="M657.46,318.54h-.37a5.09,5.09,0,0,1-.66-.09,5,5,0,0,1-.83-.23,3.4,3.4,0,0,1-.85-.43,3.35,3.35,0,0,1-.74-.72,2.8,2.8,0,0,1-.48-1.06l-3.3-13a.41.41,0,0,0-.1-.22.25.25,0,0,0-.16-.05.24.24,0,0,0-.27.27l-.81,14.21a1.29,1.29,0,0,1-.35.72,1.81,1.81,0,0,1-.64.39,2.71,2.71,0,0,1-.77.17l-.75,0a1.16,1.16,0,0,1-1.07-.45,2,2,0,0,1-.19-1.21L646,302a2.63,2.63,0,0,1,.49-1.43,2.38,2.38,0,0,1,.93-.75,3.42,3.42,0,0,1,1.14-.29c.4,0,.77-.05,1.1-.05h.41a7.18,7.18,0,0,1,1.17.11,4,4,0,0,1,1.17.39,3,3,0,0,1,1,.76,2.46,2.46,0,0,1,.51,1.23l3.34,13.12q0,.18.12.21l.15,0,.15,0s.09-.09.12-.21L661.07,302a2.46,2.46,0,0,1,.51-1.23,3,3,0,0,1,.95-.76,4,4,0,0,1,1.17-.39,7.18,7.18,0,0,1,1.17-.11H666a5,5,0,0,1,.77.09,3.63,3.63,0,0,1,.75.24,2.22,2.22,0,0,1,1.16,1.13,3.36,3.36,0,0,1,.26,1l.86,14.85a2,2,0,0,1-.19,1.21,1.16,1.16,0,0,1-1.07.45l-.75,0a2.71,2.71,0,0,1-.77-.17,1.81,1.81,0,0,1-.64-.39,1.29,1.29,0,0,1-.35-.72L665.22,303q0-.27-.24-.27a.35.35,0,0,0-.18.05.35.35,0,0,0-.11.22l-3.29,13a3,3,0,0,1-.49,1.06,3.35,3.35,0,0,1-.74.72,3.4,3.4,0,0,1-.85.43,5.62,5.62,0,0,1-1.5.32Z" transform="translate(-493.96 -266.72)" style="fill:#fff"/><path d="M679.26,299.65l.31,0H680c.43,0,.9,0,1.43.08A9.85,9.85,0,0,1,683,300a8.63,8.63,0,0,1,1.56.59,5,5,0,0,1,1.35,1,4.58,4.58,0,0,1,.94,1.47,5.25,5.25,0,0,1,.35,2v.05a4.36,4.36,0,0,1-.19,1.37,3.51,3.51,0,0,1-.53,1,3.08,3.08,0,0,1-.82.75,4.71,4.71,0,0,1-1,.51,7.69,7.69,0,0,1,1.4.48,4.22,4.22,0,0,1,1.17.81,3.62,3.62,0,0,1,.79,1.23,4.64,4.64,0,0,1,.28,1.71v.05a6.12,6.12,0,0,1-.3,2,4.39,4.39,0,0,1-.83,1.44,4,4,0,0,1-1.2,1,7.29,7.29,0,0,1-1.45.57,8.88,8.88,0,0,1-1.54.28c-.53.05-1,.08-1.51.08s-.92,0-1.33,0l-1,0h-4.36a4.48,4.48,0,0,1-1-.09.82.82,0,0,1-.53-.36,1.45,1.45,0,0,1-.2-.7c0-.29,0-.68,0-1.15V301.14a1.65,1.65,0,0,1,.08-.44,1.48,1.48,0,0,1,.31-.5,1.69,1.69,0,0,1,.59-.39,2.26,2.26,0,0,1,.92-.16Zm.24,7.78a6.25,6.25,0,0,0,2.82-.52,1.88,1.88,0,0,0,1.09-1.67v-.13a2,2,0,0,0-.27-1.08,1.9,1.9,0,0,0-.82-.67A4.56,4.56,0,0,0,681,303a14.75,14.75,0,0,0-1.87-.1h-2.41v12.21h3.11c.92,0,1.69,0,2.3-.1a5.18,5.18,0,0,0,1.44-.29,1.37,1.37,0,0,0,.73-.61,2.27,2.27,0,0,0,.21-1.06,2.62,2.62,0,0,0-.21-1.11,1.71,1.71,0,0,0-.75-.73,4.36,4.36,0,0,0-1.45-.4,18.14,18.14,0,0,0-2.3-.12h-1.23a.93.93,0,0,1-.56-.16,1.35,1.35,0,0,1-.35-.4,1.86,1.86,0,0,1-.19-.53,3.5,3.5,0,0,1-.05-.54,3.44,3.44,0,0,1,0-.54,1.72,1.72,0,0,1,.15-.53,1.17,1.17,0,0,1,.32-.41,1,1,0,0,1,.56-.16Z" transform="translate(-493.96 -266.72)" style="fill:#fff"/><path d="M698,302.91H695v14.68a.77.77,0,0,1-.17.52,1.09,1.09,0,0,1-.43.29,2,2,0,0,1-.6.13c-.23,0-.45,0-.68,0s-.5,0-.73,0a2.2,2.2,0,0,1-.6-.13,1,1,0,0,1-.41-.3.73.73,0,0,1-.16-.5V301.17a.49.49,0,0,1,0-.15,1.84,1.84,0,0,1,.14-.44,1.21,1.21,0,0,1,.32-.45,1.78,1.78,0,0,1,.56-.34,2.15,2.15,0,0,1,.86-.14h5a13.66,13.66,0,0,1,1.57,0,11.33,11.33,0,0,1,1.79.25,8.29,8.29,0,0,1,1.78.6,5.4,5.4,0,0,1,1.55,1.08,5.09,5.09,0,0,1,1.09,1.67,6.23,6.23,0,0,1,.41,2.36v.06a6.06,6.06,0,0,1-.31,2.05,5,5,0,0,1-.82,1.52,4.53,4.53,0,0,1-1.2,1.07,7,7,0,0,1-1.43.7l3.56,6.06a.77.77,0,0,1,.12.52.67.67,0,0,1-.23.38,1.49,1.49,0,0,1-.46.28,4,4,0,0,1-.59.17,4.55,4.55,0,0,1-.61.1l-.49,0a2.94,2.94,0,0,1-1-.17,1.33,1.33,0,0,1-.73-.6l-3.49-6.13h-1.91a.83.83,0,0,1-.8-.48,2.43,2.43,0,0,1-.25-1.16,6.26,6.26,0,0,1,0-.63,1.52,1.52,0,0,1,.16-.52.86.86,0,0,1,.33-.35,1,1,0,0,1,.54-.13h1.58a10.61,10.61,0,0,0,2.1-.19,3.07,3.07,0,0,0,1.26-.51,1.79,1.79,0,0,0,.63-.8,3.33,3.33,0,0,0,.19-1.1v-.13a4.06,4.06,0,0,0-.16-1.16,1.72,1.72,0,0,0-.63-.86,3.4,3.4,0,0,0-1.31-.53,11,11,0,0,0-2.21-.18H698Z" transform="translate(-493.96 -266.72)" style="fill:#fff"/><path d="M710.67,318.38h-.2c-.26,0-.5,0-.73,0a2,2,0,0,1-.6-.14.91.91,0,0,1-.42-.29.8.8,0,0,1-.15-.5v-16.2c0-.08,0-.15,0-.2a3.64,3.64,0,0,1,.14-.44,1.37,1.37,0,0,1,.33-.45,1.78,1.78,0,0,1,.56-.34,2.12,2.12,0,0,1,.86-.14h9.86l.61,0h.26a.76.76,0,0,1,.44.16,1.15,1.15,0,0,1,.33.36,1.5,1.5,0,0,1,.2.5,2.16,2.16,0,0,1,.08.56,2,2,0,0,1-.22,1,1.28,1.28,0,0,1-.57.49,2,2,0,0,1-.77.14h-8.35v4.2h6.88a1,1,0,0,1,.45.14,1.48,1.48,0,0,1,.37.34,1.56,1.56,0,0,1,.25.5,1.9,1.9,0,0,1,.08.6,2.37,2.37,0,0,1-.1.74,1.49,1.49,0,0,1-.26.52,1.07,1.07,0,0,1-.37.3,1.13,1.13,0,0,1-.44.1h-6.86v4.74h8.35a2.24,2.24,0,0,1,.77.15,1.22,1.22,0,0,1,.57.49,2,2,0,0,1,.22,1,2.23,2.23,0,0,1-.08.56,1.59,1.59,0,0,1-.2.5,1.15,1.15,0,0,1-.33.36.84.84,0,0,1-.44.16l-.22,0H710.67Z" transform="translate(-493.96 -266.72)" style="fill:#fff"/><path d="M734,318.38c-.25,0-.5,0-.72,0a2.19,2.19,0,0,1-.61-.14.88.88,0,0,1-.41-.29.81.81,0,0,1-.16-.5V301.17a.49.49,0,0,1,0-.15,1.84,1.84,0,0,1,.14-.44,1.34,1.34,0,0,1,.32-.45,1.9,1.9,0,0,1,.56-.34,2.18,2.18,0,0,1,.86-.14h5.57a14.11,14.11,0,0,1,3.28.33,7.47,7.47,0,0,1,2.3.94,5.15,5.15,0,0,1,1.48,1.46,6.75,6.75,0,0,1,.85,1.89,10.38,10.38,0,0,1,.38,2.23q.09,1.2.09,2.49v.08c0,.85,0,1.68-.09,2.47a10.28,10.28,0,0,1-.38,2.23,6.56,6.56,0,0,1-.85,1.88,5,5,0,0,1-1.49,1.45,7.44,7.44,0,0,1-2.31.95,14.17,14.17,0,0,1-3.28.33H734Zm5.49-15.47H735.9v12.21h4a6.92,6.92,0,0,0,2.23-.34,2.64,2.64,0,0,0,1.31-1,3.93,3.93,0,0,0,.61-1.73,18.93,18.93,0,0,0,.15-2.59v-.83A19.38,19.38,0,0,0,744,306a4,4,0,0,0-.65-1.76,2.67,2.67,0,0,0-1.38-1,7.78,7.78,0,0,0-2.39-.3h-.11Z" transform="translate(-493.96 -266.72)" style="fill:#fff"/><path d="M753.44,318.38h-.2c-.26,0-.5,0-.73,0a2.2,2.2,0,0,1-.6-.14.88.88,0,0,1-.41-.29.75.75,0,0,1-.16-.5v-16.2a1,1,0,0,1,0-.2,1.84,1.84,0,0,1,.14-.44,1.21,1.21,0,0,1,.32-.45,1.78,1.78,0,0,1,.56-.34,2.18,2.18,0,0,1,.86-.14h9.86l.61,0H764a.76.76,0,0,1,.43.16,1.15,1.15,0,0,1,.33.36,1.75,1.75,0,0,1,.21.5,2.15,2.15,0,0,1,.07.56,1.89,1.89,0,0,1-.22,1,1.31,1.31,0,0,1-.56.49,2.13,2.13,0,0,1-.78.14h-8.34v4.2H762a1,1,0,0,1,.44.14,1.33,1.33,0,0,1,.37.34,1.56,1.56,0,0,1,.25.5,1.89,1.89,0,0,1,.09.6,2.7,2.7,0,0,1-.1.74,1.94,1.94,0,0,1-.26.52,1.2,1.2,0,0,1-.38.3,1.13,1.13,0,0,1-.44.1h-6.85v4.74h8.34a2.35,2.35,0,0,1,.78.15,1.25,1.25,0,0,1,.56.49,1.89,1.89,0,0,1,.22,1,2.2,2.2,0,0,1-.07.56,1.88,1.88,0,0,1-.21.5,1.15,1.15,0,0,1-.33.36.84.84,0,0,1-.43.16l-.22,0H753.44Z" transform="translate(-493.96 -266.72)" style="fill:#fff"/><path d="M769.76,318.38c-.26,0-.5,0-.73,0a2,2,0,0,1-.6-.14.86.86,0,0,1-.42-.29.8.8,0,0,1-.15-.5V300.66a1,1,0,0,1,.14-.52,1.23,1.23,0,0,1,.41-.37,2.57,2.57,0,0,1,.61-.21,3.5,3.5,0,0,1,.74-.08h.73a1.82,1.82,0,0,1,.59.06.68.68,0,0,1,.4.24.8.8,0,0,1,.15.53v14.81h7.68a2.24,2.24,0,0,1,.77.15,1.22,1.22,0,0,1,.57.49,2,2,0,0,1,.22,1,2.88,2.88,0,0,1-.07.59,1.48,1.48,0,0,1-.23.51,1.19,1.19,0,0,1-.41.36,1.33,1.33,0,0,1-.63.14Z" transform="translate(-493.96 -266.72)" style="fill:#fff"/><path d="M796,300c3.88,0,6.18,2.19,6.18,5.48,0,5.65-9.28,7.82-9.28,10.17h8.21a1.37,1.37,0,1,1,0,2.73H790.89a1.37,1.37,0,0,1-1.37-1.36c0-5.92,9.61-6.53,9.61-11.54a2.83,2.83,0,0,0-3.13-2.81,3.17,3.17,0,0,0-3,1.93,1.48,1.48,0,0,1-1.34.86,1.44,1.44,0,0,1-1.44-1.45,1.33,1.33,0,0,1,.13-.62A5.83,5.83,0,0,1,796,300Z" transform="translate(-493.96 -266.72)" style="fill:#fff"/><path d="M818.46,309.36c0,6.43-2.22,9.4-7,9.4s-7-3-7-9.4,2.2-9.36,7-9.36S818.46,303,818.46,309.36Zm-3.05,0c0-4.65-1.18-6.69-3.94-6.69s-4,2-4,6.69,1.21,6.69,4,6.69S815.41,314.07,815.41,309.36Z" transform="translate(-493.96 -266.72)" style="fill:#fff"/><path d="M827.16,300c3.88,0,6.18,2.19,6.18,5.48,0,5.65-9.29,7.82-9.29,10.17h8.22a1.37,1.37,0,0,1,0,2.73H822.05a1.37,1.37,0,0,1-1.37-1.36c0-5.92,9.61-6.53,9.61-11.54a2.84,2.84,0,0,0-3.13-2.81,3.17,3.17,0,0,0-3,1.93,1.49,1.49,0,0,1-1.34.86,1.45,1.45,0,0,1-1.45-1.45,1.35,1.35,0,0,1,.14-.62A5.81,5.81,0,0,1,827.16,300Z" transform="translate(-493.96 -266.72)" style="fill:#fff"/><path d="M849.61,309.36c0,6.43-2.22,9.4-7,9.4s-7-3-7-9.4,2.19-9.36,7-9.36S849.61,303,849.61,309.36Zm-3.05,0c0-4.65-1.18-6.69-3.93-6.69s-4,2-4,6.69,1.2,6.69,4,6.69S846.56,314.07,846.56,309.36Z" transform="translate(-493.96 -266.72)" style="fill:#fff"/></svg>