<svg id="Capa_1" data-name="Capa 1" xmlns="http://www.w3.org/2000/svg" viewBox="0 0 363.01 248.55"><defs><style>.cls-1{fill:none;stroke-linecap:round;stroke-linejoin:round;stroke-width:2.72px;}.cls-1,.cls-5{stroke:#e0b624;}.cls-2{font-size:35.34px;}.cls-13,.cls-18,.cls-2,.cls-6,.cls-9{fill:#fff;font-weight:700;}.cls-11,.cls-13,.cls-18,.cls-2{font-family:Byom-Bold, Byom;}.cls-3{letter-spacing:-0.09em;}.cls-4{letter-spacing:0em;}.cls-12,.cls-5{fill:#e0b624;}.cls-5{stroke-miterlimit:10;stroke-width:0.56px;}.cls-6{font-size:33.76px;}.cls-23,.cls-6,.cls-9{font-family:Bariol-Bold, Bariol;}.cls-7{font-family:Byom;font-weight:400;}.cls-8{letter-spacing:-0.03em;}.cls-9{font-size:44.39px;}.cls-10,.cls-11{font-size:39.4px;}.cls-13{font-size:32.07px;}.cls-14{letter-spacing:-0.07em;}.cls-15{letter-spacing:-0.03em;}.cls-16{letter-spacing:-0.1em;}.cls-17{letter-spacing:-0.02em;}.cls-18{font-size:26.77px;}.cls-19{letter-spacing:-0.02em;}.cls-20{letter-spacing:-0.01em;}.cls-21{letter-spacing:0em;}.cls-22{letter-spacing:-0.07em;}.cls-23{letter-spacing:0em;}</style></defs><line class="cls-1" x1="3.09" y1="159.48" x2="360.2" y2="159.48"/><text class="cls-2" transform="translate(76.6 205.48)">FL<tspan class="cls-3" x="42.32" y="0">A</tspan><tspan class="cls-4" x="62.99" y="0">T</tspan><tspan x="84.9" y="0">S - DUPLEX</tspan></text><path class="cls-5" d="M491.83,463.71a7.29,7.29,0,0,1,1.64-3.62,5.33,5.33,0,0,1,4.1-1.76h3.36c.1-.48.16-.95.28-1.39.75-2.64,2.67-4.33,5.16-4.36,4.15,0,8.31-.05,12.47,0,2.76,0,4.82,2.09,5.33,5.15,0,.17.05.34.09.55h3a18.39,18.39,0,0,1,.72-2.39,5.15,5.15,0,0,1,4.79-3.3q6.22-.07,12.47,0c2.76,0,4.79,2.07,5.31,5.16,0,.17.07.34.11.59H554a5.24,5.24,0,0,1,4.63,2.44,6.43,6.43,0,0,1,.64,6.11,5.23,5.23,0,0,1-4.39,3.61c-.43.05-.88.07-1.38.11V474a9,9,0,0,1,0,.9c-.09.88-.66,1.48-1.35,1.45a1.43,1.43,0,0,1-1.27-1.54c0-1.1,0-2.21,0-3.31v-.87H500.73v3.68a6.69,6.69,0,0,1-.06.9,1.35,1.35,0,0,1-1.25,1.14,1.27,1.27,0,0,1-1.24-1.11,12,12,0,0,1-.1-1.8c0-.92,0-1.85,0-2.82l-1.15-.1c-2.63-.26-4.43-2.07-5-5a1.57,1.57,0,0,0-.1-.28Zm34-3.45h-28a7.28,7.28,0,0,0-1.32.12c-2.34.51-3.63,3.49-2.55,5.9a3.74,3.74,0,0,0,3.77,2.35h56.21a7.06,7.06,0,0,0,1.12-.1c2-.34,3.44-2.77,2.93-5a3.82,3.82,0,0,0-4-3.23Zm-23.07-2h19.78a7.57,7.57,0,0,0-.15-.84,3.7,3.7,0,0,0-3.48-2.92c-2.08,0-4.16,0-6.23,0s-4.25,0-6.37,0A3.8,3.8,0,0,0,502.74,458.29Zm46.14,0a3.78,3.78,0,0,0-3.63-3.76c-2.63,0-5.26,0-7.89,0-1.59,0-3.18,0-4.77,0a3.73,3.73,0,0,0-3.41,3.75Z" transform="translate(-491.56 -260.22)"/><path class="cls-5" d="M553.16,442.79h-54.7v12c0,.2,0,.4,0,.6,0,.68-.4,1.14-.88,1.08s-.82-.46-.82-1.08c0-4.46,0-8.93,0-13.39,0-.76.32-1.09,1-1.13h55.66c1.32,0,1.48.19,1.48,1.69v13c0,.22,0,.45,0,.67,0,.55-.31.91-.8.94s-.81-.33-.89-.9a5,5,0,0,1,0-.67V442.79Z" transform="translate(-491.56 -260.22)"/><text class="cls-6" transform="translate(77.27 238.93)">2 - 3<tspan class="cls-7" x="65.69" y="0"> </tspan><tspan x="72.54" y="0">DORMI</tspan><tspan class="cls-8" x="169.22" y="0">T</tspan><tspan x="187.32" y="0">ORIOS</tspan></text><text class="cls-9" transform="translate(72.95 108.07)">8<tspan class="cls-10" x="25.52" y="0"> </tspan><tspan class="cls-11" x="34.43" y="0">EXCLUSIVOS</tspan></text><path class="cls-12" d="M547,399.51h-44.8a1,1,0,0,1-1-1V341.16a1,1,0,0,1,1-1H547a1,1,0,0,1,1,1V398.5A1,1,0,0,1,547,399.51Zm-43.78-1.83H546v-55.5H503.23Z" transform="translate(-491.56 -260.22)"/><path class="cls-12" d="M524.76,379.46a1,1,0,0,1-1-1v-37a1,1,0,0,1,1.92,0v37A1,1,0,0,1,524.76,379.46Z" transform="translate(-491.56 -260.22)"/><path class="cls-12" d="M520.05,353.21H507.32a1,1,0,0,1-1-1v-4.9a1,1,0,0,1,1-1h12.73a1,1,0,0,1,1,1v4.9A1,1,0,0,1,520.05,353.21Zm-11.7-2.06H519v-2.84H508.35Z" transform="translate(-491.56 -260.22)"/><path class="cls-12" d="M520.05,364.35H507.32a1,1,0,0,1-1-1v-4.9a1,1,0,0,1,1-1h12.73a1,1,0,0,1,1,1v4.9A1,1,0,0,1,520.05,364.35Zm-11.7-2.05H519v-2.85H508.35Z" transform="translate(-491.56 -260.22)"/><path class="cls-12" d="M520.05,374.75H507.32a1,1,0,0,1-1-1v-4.9a1,1,0,0,1,1-1h12.73a1,1,0,0,1,1,1v4.9A1,1,0,0,1,520.05,374.75Zm-11.7-2.06H519v-2.84H508.35Z" transform="translate(-491.56 -260.22)"/><path class="cls-12" d="M542.47,353.21H529.74a1,1,0,0,1-1-1v-4.9a1,1,0,0,1,1-1h12.73a1,1,0,0,1,1,1v4.9A1,1,0,0,1,542.47,353.21Zm-11.7-2.06h10.67v-2.84H530.77Z" transform="translate(-491.56 -260.22)"/><path class="cls-12" d="M542.47,364.35H529.74a1,1,0,0,1-1-1v-4.9a1,1,0,0,1,1-1h12.73a1,1,0,0,1,1,1v4.9A1,1,0,0,1,542.47,364.35Zm-11.7-2.05h10.67v-2.85H530.77Z" transform="translate(-491.56 -260.22)"/><path class="cls-12" d="M542.47,374.75H529.74a1,1,0,0,1-1-1v-4.9a1,1,0,0,1,1-1h12.73a1,1,0,0,1,1,1v4.9A1,1,0,0,1,542.47,374.75Zm-11.7-2.06h10.67v-2.84H530.77Z" transform="translate(-491.56 -260.22)"/><path class="cls-12" d="M517.31,399.39H505.47a.89.89,0,0,1-.89-.89V386.08a.89.89,0,0,1,.89-.89h11.84a.89.89,0,0,1,.89.89V398.5A.89.89,0,0,1,517.31,399.39Zm-10.95-1.78h10V387h-10Z" transform="translate(-491.56 -260.22)"/><path class="cls-12" d="M546.91,383.1H531.27a.88.88,0,1,1,0-1.75h15.64a.88.88,0,0,1,0,1.75Z" transform="translate(-491.56 -260.22)"/><path class="cls-12" d="M520.18,383.1h-18a.88.88,0,1,1,0-1.75h18a.88.88,0,0,1,0,1.75Z" transform="translate(-491.56 -260.22)"/><path class="cls-12" d="M546.82,387.21H531.3a.91.91,0,1,1,0-1.81h15.52a.91.91,0,1,1,0,1.81Z" transform="translate(-491.56 -260.22)"/><path class="cls-12" d="M546.88,390.88H531.3a.91.91,0,1,1,0-1.81h15.58a.91.91,0,1,1,0,1.81Z" transform="translate(-491.56 -260.22)"/><path class="cls-12" d="M546.76,394.72H531.3a.91.91,0,1,1,0-1.81h15.46a.91.91,0,1,1,0,1.81Z" transform="translate(-491.56 -260.22)"/><path class="cls-12" d="M531.22,399.45H520.43a.93.93,0,0,1-.92-.93V378.78a.93.93,0,0,1,.92-.93h10.79a.93.93,0,0,1,.92.93v19.74A.93.93,0,0,1,531.22,399.45Zm-9.86-1.86h8.93V379.7h-8.93Z" transform="translate(-491.56 -260.22)"/><path class="cls-12" d="M556.06,399.49H495.34a.91.91,0,1,1,0-1.81h60.72a.91.91,0,1,1,0,1.81Z" transform="translate(-491.56 -260.22)"/><text class="cls-13" transform="translate(72.95 140.16)">DE<tspan class="cls-14" x="42.81" y="0">P</tspan><tspan x="61.38" y="0">A</tspan><tspan class="cls-15" x="82.93" y="0">R</tspan><tspan class="cls-16" x="102.71" y="0">T</tspan><tspan x="119.35" y="0">AMEN</tspan><tspan class="cls-17" x="217.28" y="0">T</tspan><tspan x="236.52" y="0">OS</tspan></text><text class="cls-18" transform="translate(4.28 22.75)">ENTREGAS P<tspan class="cls-19" x="164.91" y="0">R</tspan><tspan x="181.73" y="0">OGRAMA</tspan><tspan class="cls-20" x="300.77" y="0">D</tspan><tspan class="cls-21" x="319.63" y="0">AS</tspan><tspan class="cls-22" x="2.17" y="28.91">P</tspan><tspan x="17.67" y="28.91">ARA DICIEMBRE DEL </tspan><tspan class="cls-23" x="290.24" y="28.91">2020</tspan></text></svg>