<svg id="Capa_1" data-name="Capa 1" xmlns="http://www.w3.org/2000/svg" viewBox="0 0 172.04 164.25"><rect x="1" width="170.04" height="163.25" style="fill:#fff"/><polyline points="134 30.16 171.04 30.16 171.04 163.25 1 163.25 1 30.16 46.36 30.16" style="fill:none;stroke:#0eb193;stroke-miterlimit:10;stroke-width:2px"/><path d="M614.31,414.26h-.11a2.36,2.36,0,0,1-.38,0,.94.94,0,0,1-.31-.07.44.44,0,0,1-.22-.15.42.42,0,0,1-.08-.26v-8.47a.34.34,0,0,1,0-.11,1.44,1.44,0,0,1,.07-.23.83.83,0,0,1,.46-.41,1.17,1.17,0,0,1,.45-.08h5.62a.4.4,0,0,1,.23.08.79.79,0,0,1,.17.19,1.27,1.27,0,0,1,.11.26,1.43,1.43,0,0,1,0,.29,1,1,0,0,1-.11.53.62.62,0,0,1-.3.26,1.18,1.18,0,0,1-.4.08h-4.37v2.2h3.6a.53.53,0,0,1,.24.08.75.75,0,0,1,.19.17.79.79,0,0,1,.13.26,1.12,1.12,0,0,1,0,.32,1.15,1.15,0,0,1,0,.39.69.69,0,0,1-.14.27.45.45,0,0,1-.19.15.49.49,0,0,1-.23.06h-3.59v2.47h4.37a1,1,0,0,1,.4.07.68.68,0,0,1,.3.26,1,1,0,0,1,.11.53,1.53,1.53,0,0,1,0,.3,2,2,0,0,1-.11.26.79.79,0,0,1-.17.19.49.49,0,0,1-.23.08h-5.51Z" transform="translate(-597.23 -302.38)" style="fill:#0eb193"/><path d="M623.32,407a.8.8,0,0,0,.24.6,1.91,1.91,0,0,0,.64.41,5.47,5.47,0,0,0,.91.28l1,.26a11.12,11.12,0,0,1,1.08.33,3.84,3.84,0,0,1,1,.49,2.78,2.78,0,0,1,.74.75,2.52,2.52,0,0,1,.39,1.09,2.32,2.32,0,0,1,0,.64,2,2,0,0,1-.22.7,2.61,2.61,0,0,1-.48.67,3,3,0,0,1-.8.58,5.49,5.49,0,0,1-1.17.4,7.67,7.67,0,0,1-1.61.15c-.52,0-1,0-1.43-.07a6.55,6.55,0,0,1-1.14-.23,2.55,2.55,0,0,1-.79-.41,1.19,1.19,0,0,1-.41-.61.62.62,0,0,1,0-.36.64.64,0,0,1,.18-.25.75.75,0,0,1,.27-.13,1,1,0,0,1,.29,0l.58.12.63.16a6.62,6.62,0,0,0,.75.15,6.06,6.06,0,0,0,.92.08,4.55,4.55,0,0,0,1-.1,2.51,2.51,0,0,0,.76-.28,1.37,1.37,0,0,0,.46-.43,1,1,0,0,0,.16-.56.71.71,0,0,0-.26-.56,2.23,2.23,0,0,0-.67-.39,7.91,7.91,0,0,0-1-.29l-1.1-.27c-.37-.09-.74-.2-1.1-.32a4.59,4.59,0,0,1-1-.47,2.32,2.32,0,0,1-.69-.67,1.72,1.72,0,0,1-.29-.95,2.84,2.84,0,0,1,.19-1.12,2.58,2.58,0,0,1,.61-1,3.5,3.5,0,0,1,1-.7,4.27,4.27,0,0,1,1.51-.3h.53a6.07,6.07,0,0,1,.83,0,8.06,8.06,0,0,1,.94.12,4,4,0,0,1,.9.25,1.9,1.9,0,0,1,.66.46,1,1,0,0,1,.26.69,1.64,1.64,0,0,1,0,.23.34.34,0,0,1-.11.18.42.42,0,0,1-.21.11,1.29,1.29,0,0,1-.36,0l-.65-.07-.81-.12-.89-.11c-.3,0-.6-.05-.9-.05a3.1,3.1,0,0,0-.54.05,2.09,2.09,0,0,0-.48.14,1,1,0,0,0-.34.27A.63.63,0,0,0,623.32,407Z" transform="translate(-597.23 -302.38)" style="fill:#0eb193"/><path d="M637.5,404.46a1.46,1.46,0,0,1,.35,0,.4.4,0,0,1,.19.14.88.88,0,0,1,.07.27c0,.11,0,.24,0,.41a.9.9,0,0,1-.1.48.6.6,0,0,1-.21.25.69.69,0,0,1-.25.09l-.2,0h-2.51v7.68a.46.46,0,0,1-.08.27.63.63,0,0,1-.23.16,1.31,1.31,0,0,1-.31.06l-.36,0-.38,0a1.29,1.29,0,0,1-.31-.07.52.52,0,0,1-.22-.16.4.4,0,0,1-.08-.26v-7.68h-2.42l-.19,0A.52.52,0,0,1,630,406a.88.88,0,0,1-.2-.25,1,1,0,0,1-.09-.45c0-.19,0-.33,0-.44a.53.53,0,0,1,.08-.26.27.27,0,0,1,.18-.13,1.15,1.15,0,0,1,.3,0Z" transform="translate(-597.23 -302.38)" style="fill:#0eb193"/><path d="M643.86,412.33h-4.48l-.34,1a2.3,2.3,0,0,1-.25.56,1.07,1.07,0,0,1-.3.3,1.09,1.09,0,0,1-.36.12l-.46,0a1.16,1.16,0,0,1-.37-.07.51.51,0,0,1-.26-.22.87.87,0,0,1-.1-.42,2,2,0,0,1,.13-.64l2.57-7.35a2.38,2.38,0,0,1,.39-.75,1.39,1.39,0,0,1,.45-.37,1.33,1.33,0,0,1,.51-.13,4.35,4.35,0,0,1,.51,0h.24a4.52,4.52,0,0,1,.52,0,1.28,1.28,0,0,1,.5.13,1.53,1.53,0,0,1,.46.37,2.61,2.61,0,0,1,.38.75l2.58,7.35a2,2,0,0,1,.13.64.87.87,0,0,1-.11.42.51.51,0,0,1-.26.22,1,1,0,0,1-.36.07l-.46,0a.87.87,0,0,1-.67-.42,2,2,0,0,1-.24-.56Zm-4-1.57h3.42l-1.5-4.45a1.44,1.44,0,0,0-.07-.16.1.1,0,0,0-.09-.06h-.1a.09.09,0,0,0-.08.06.62.62,0,0,0-.07.16Z" transform="translate(-597.23 -302.38)" style="fill:#0eb193"/><path d="M652.78,404.48a4,4,0,0,1,1,.3,1.75,1.75,0,0,1,.63.48.94.94,0,0,1,.22.62,1.27,1.27,0,0,1,0,.26.79.79,0,0,1-.13.26.87.87,0,0,1-.23.19.89.89,0,0,1-.34.07,1.08,1.08,0,0,1-.32,0l-.27-.11-.32-.14a2.49,2.49,0,0,0-.39-.14,4.82,4.82,0,0,0-.54-.1,5.16,5.16,0,0,0-.73,0h-.09a3.59,3.59,0,0,0-1.25.17,1.47,1.47,0,0,0-.73.55,2.09,2.09,0,0,0-.33.95,9.25,9.25,0,0,0-.09,1.39v.44a9.25,9.25,0,0,0,.09,1.39,2.14,2.14,0,0,0,.33.95,1.51,1.51,0,0,0,.73.54,3.84,3.84,0,0,0,1.25.17h.09a7.27,7.27,0,0,0,.73,0,4.63,4.63,0,0,0,.54-.11,2.49,2.49,0,0,0,.39-.14l.32-.14a1.48,1.48,0,0,1,.27-.1,1.07,1.07,0,0,1,.32-.05.74.74,0,0,1,.34.08.87.87,0,0,1,.23.19.85.85,0,0,1,.13.25,1.36,1.36,0,0,1,0,.27,1,1,0,0,1-.22.62,1.86,1.86,0,0,1-.63.47,4,4,0,0,1-1,.3,7.33,7.33,0,0,1-1.3.11h-.24a7,7,0,0,1-1.71-.18,3.84,3.84,0,0,1-1.21-.51,2.49,2.49,0,0,1-.77-.78,3.78,3.78,0,0,1-.45-1,6.32,6.32,0,0,1-.2-1.18c0-.42,0-.86,0-1.31v0c0-.45,0-.89,0-1.31a6.05,6.05,0,0,1,.2-1.18,3.7,3.7,0,0,1,.45-1,2.49,2.49,0,0,1,.77-.78,3.84,3.84,0,0,1,1.21-.51,7,7,0,0,1,1.71-.18h.24A7.39,7.39,0,0,1,652.78,404.48Z" transform="translate(-597.23 -302.38)" style="fill:#0eb193"/><path d="M657.74,413.84a.4.4,0,0,1-.09.27.6.6,0,0,1-.22.16,1.52,1.52,0,0,1-.32.06l-.35,0-.38,0a1.38,1.38,0,0,1-.32-.07.6.6,0,0,1-.22-.16.4.4,0,0,1-.08-.26V405a.5.5,0,0,1,.08-.27.55.55,0,0,1,.21-.19,1,1,0,0,1,.32-.11,1.61,1.61,0,0,1,.39,0l.38,0a.94.94,0,0,1,.31.1.48.48,0,0,1,.21.19.53.53,0,0,1,.08.3Z" transform="translate(-597.23 -302.38)" style="fill:#0eb193"/><path d="M663.9,414.36a7.15,7.15,0,0,1-1.72-.18,3.88,3.88,0,0,1-1.2-.51,2.89,2.89,0,0,1-.78-.78,3.68,3.68,0,0,1-.44-1,6.18,6.18,0,0,1-.2-1.18c0-.42,0-.86,0-1.31v0c0-.45,0-.89,0-1.31a6.05,6.05,0,0,1,.2-1.18,3.68,3.68,0,0,1,.44-1,2.64,2.64,0,0,1,.78-.78,3.88,3.88,0,0,1,1.2-.51,7.15,7.15,0,0,1,1.72-.18H664a7.15,7.15,0,0,1,1.72.18,3.88,3.88,0,0,1,1.2.51,2.64,2.64,0,0,1,.78.78,3.68,3.68,0,0,1,.44,1,6.05,6.05,0,0,1,.2,1.18c0,.42,0,.86,0,1.31v0c0,.45,0,.88,0,1.31a6.18,6.18,0,0,1-.2,1.18,3.68,3.68,0,0,1-.44,1,2.89,2.89,0,0,1-.78.78,3.88,3.88,0,0,1-1.2.51,7.15,7.15,0,0,1-1.72.18Zm0-8.26a3.88,3.88,0,0,0-1.25.17,1.53,1.53,0,0,0-.72.54,2.27,2.27,0,0,0-.34.95,11,11,0,0,0-.08,1.39v.44a11,11,0,0,0,.08,1.39,2.27,2.27,0,0,0,.34.95,1.53,1.53,0,0,0,.72.54,3.88,3.88,0,0,0,1.25.17H664a3.92,3.92,0,0,0,1.25-.17,1.53,1.53,0,0,0,.72-.54,2.27,2.27,0,0,0,.34-.95,11,11,0,0,0,.08-1.39v-.44a11,11,0,0,0-.08-1.39,2.27,2.27,0,0,0-.34-.95,1.53,1.53,0,0,0-.72-.54,3.92,3.92,0,0,0-1.25-.17Z" transform="translate(-597.23 -302.38)" style="fill:#0eb193"/><path d="M678.6,413.84a.54.54,0,0,1-.06.27.41.41,0,0,1-.16.16.83.83,0,0,1-.25.06l-.32,0-.32,0-.31-.05a1.69,1.69,0,0,1-.27-.1.78.78,0,0,1-.2-.14v0h0l-4.6-6v5.77a.34.34,0,0,1-.12.27.74.74,0,0,1-.29.17,1.62,1.62,0,0,1-.38.09l-.39,0-.35,0a.76.76,0,0,1-.24-.07.33.33,0,0,1-.15-.16.48.48,0,0,1,0-.26V405a.54.54,0,0,1,.19-.46,1,1,0,0,1,.6-.15,2.12,2.12,0,0,1,.57.07.89.89,0,0,1,.46.24h0l4.65,6.07v-5.44a.71.71,0,0,1,.1-.37,1.22,1.22,0,0,1,.26-.3,1.52,1.52,0,0,1,.38-.2,1.12,1.12,0,0,1,.45-.08,1.17,1.17,0,0,1,.6.12.55.55,0,0,1,.19.49Z" transform="translate(-597.23 -302.38)" style="fill:#0eb193"/><path d="M686.52,412.33h-4.47l-.35,1a2,2,0,0,1-.25.56,1,1,0,0,1-.3.3,1,1,0,0,1-.36.12l-.46,0a1,1,0,0,1-.36-.07.51.51,0,0,1-.26-.22.87.87,0,0,1-.11-.42,2,2,0,0,1,.13-.64l2.58-7.35a2.61,2.61,0,0,1,.38-.75,1.53,1.53,0,0,1,.46-.37,1.28,1.28,0,0,1,.5-.13,4.52,4.52,0,0,1,.52,0h.24a4.35,4.35,0,0,1,.51,0,1.33,1.33,0,0,1,.51.13,1.39,1.39,0,0,1,.45.37,2.38,2.38,0,0,1,.39.75l2.57,7.35a1.73,1.73,0,0,1,.13.64.87.87,0,0,1-.1.42.51.51,0,0,1-.26.22,1.11,1.11,0,0,1-.37.07l-.46,0a1.15,1.15,0,0,1-.37-.12,1,1,0,0,1-.29-.3,2.3,2.3,0,0,1-.25-.56Zm-3.94-1.57H686l-1.51-4.45a.4.4,0,0,0-.07-.16.09.09,0,0,0-.08-.06h-.1a.1.1,0,0,0-.09.06,1.44,1.44,0,0,0-.07.16Z" transform="translate(-597.23 -302.38)" style="fill:#0eb193"/><path d="M696.12,414.35h-.19l-.35,0a2.18,2.18,0,0,1-.43-.12,2,2,0,0,1-.44-.22,1.75,1.75,0,0,1-.39-.38,1.47,1.47,0,0,1-.25-.55l-1.73-6.79a.23.23,0,0,0-.05-.12s0,0-.09,0a.12.12,0,0,0-.14.14l-.42,7.43a.62.62,0,0,1-.18.37,1,1,0,0,1-.33.21,1.36,1.36,0,0,1-.41.09l-.39,0a.6.6,0,0,1-.56-.24,1,1,0,0,1-.1-.63l.45-7.77a1.51,1.51,0,0,1,.25-.75,1.21,1.21,0,0,1,.49-.39,1.56,1.56,0,0,1,.6-.15l.58,0h.21a3.4,3.4,0,0,1,.61.06,2.08,2.08,0,0,1,.61.2,1.61,1.61,0,0,1,.5.4,1.19,1.19,0,0,1,.26.64l1.75,6.86c0,.07,0,.11.07.12h.15s0-.05.06-.12l1.75-6.86a1.29,1.29,0,0,1,.27-.64,1.61,1.61,0,0,1,.5-.4,2.08,2.08,0,0,1,.61-.2,3.4,3.4,0,0,1,.61-.06h.59a2.58,2.58,0,0,1,.4,0,1.63,1.63,0,0,1,.39.13,1.15,1.15,0,0,1,.35.22,1.29,1.29,0,0,1,.26.37,1.64,1.64,0,0,1,.14.55l.45,7.77a1,1,0,0,1-.1.63.6.6,0,0,1-.56.24l-.4,0a1.37,1.37,0,0,1-.4-.09,1,1,0,0,1-.33-.21.63.63,0,0,1-.19-.37l-.42-7.43c0-.1,0-.14-.12-.14a.16.16,0,0,0-.1,0,.33.33,0,0,0-.06.12L698.18,413a1.47,1.47,0,0,1-.25.55,1.69,1.69,0,0,1-.83.6,2.08,2.08,0,0,1-.44.12,2.67,2.67,0,0,1-.35,0Z" transform="translate(-597.23 -302.38)" style="fill:#0eb193"/><path d="M706.19,413.84a.4.4,0,0,1-.09.27.6.6,0,0,1-.22.16,1.4,1.4,0,0,1-.32.06l-.35,0-.38,0a1.5,1.5,0,0,1-.32-.07.49.49,0,0,1-.21-.16.35.35,0,0,1-.08-.26V405a.5.5,0,0,1,.07-.27.59.59,0,0,1,.22-.19.93.93,0,0,1,.32-.11,1.58,1.58,0,0,1,.38,0l.38,0a.94.94,0,0,1,.31.1.48.48,0,0,1,.21.19.46.46,0,0,1,.08.3Z" transform="translate(-597.23 -302.38)" style="fill:#0eb193"/><path d="M709.27,414.26h-.1a2.42,2.42,0,0,1-.39,0,1,1,0,0,1-.31-.07.48.48,0,0,1-.22-.15.42.42,0,0,1-.08-.26v-8.47a.34.34,0,0,1,0-.11,1.44,1.44,0,0,1,.07-.23.83.83,0,0,1,.46-.41,1.19,1.19,0,0,1,.46-.08h5.61a.4.4,0,0,1,.23.08.79.79,0,0,1,.17.19.89.89,0,0,1,.11.26,1.45,1.45,0,0,1,0,.29.94.94,0,0,1-.12.53.6.6,0,0,1-.29.26,1.3,1.3,0,0,1-.41.08h-4.36v2.2h3.59a.49.49,0,0,1,.24.08.75.75,0,0,1,.19.17.79.79,0,0,1,.13.26,1.13,1.13,0,0,1,.05.32,1.14,1.14,0,0,1-.06.39.85.85,0,0,1-.13.27.48.48,0,0,1-.2.15.46.46,0,0,1-.23.06h-3.58v2.47h4.36a1.07,1.07,0,0,1,.41.07.66.66,0,0,1,.29.26,1,1,0,0,1,.12.53,1.54,1.54,0,0,1,0,.3,1.19,1.19,0,0,1-.11.26.79.79,0,0,1-.17.19.49.49,0,0,1-.23.08h-5.51Z" transform="translate(-597.23 -302.38)" style="fill:#0eb193"/><path d="M725.3,413.84a.54.54,0,0,1-.06.27.39.39,0,0,1-.15.16.83.83,0,0,1-.25.06l-.32,0-.32,0-.31-.05-.28-.1a.59.59,0,0,1-.19-.14v0h0l-4.6-6v5.77a.33.33,0,0,1-.11.27.87.87,0,0,1-.3.17,1.41,1.41,0,0,1-.38.09l-.38,0-.35,0a.82.82,0,0,1-.25-.07.33.33,0,0,1-.15-.16.6.6,0,0,1,0-.26V405a.54.54,0,0,1,.19-.46,1,1,0,0,1,.61-.15,2.22,2.22,0,0,1,.57.07.82.82,0,0,1,.45.24h0l4.65,6.07v-5.44a.81.81,0,0,1,.09-.37,1.27,1.27,0,0,1,.27-.3,1.46,1.46,0,0,1,.37-.2,1.21,1.21,0,0,1,.46-.08,1.11,1.11,0,0,1,.59.12c.13.08.19.24.19.49Z" transform="translate(-597.23 -302.38)" style="fill:#0eb193"/><path d="M734.13,404.46a1.46,1.46,0,0,1,.35,0,.35.35,0,0,1,.19.14.67.67,0,0,1,.07.27c0,.11,0,.24,0,.41a1,1,0,0,1-.09.48.55.55,0,0,1-.22.25.63.63,0,0,1-.25.09l-.2,0h-2.5v7.68a.4.4,0,0,1-.09.27.6.6,0,0,1-.22.16,1.4,1.4,0,0,1-.32.06l-.35,0-.38,0a1.38,1.38,0,0,1-.32-.07.6.6,0,0,1-.22-.16.4.4,0,0,1-.08-.26v-7.68h-2.42l-.19,0a.49.49,0,0,1-.23-.11.63.63,0,0,1-.2-.25,1,1,0,0,1-.09-.45,2.69,2.69,0,0,1,0-.44.45.45,0,0,1,.08-.26.27.27,0,0,1,.17-.13,1.26,1.26,0,0,1,.3,0Z" transform="translate(-597.23 -302.38)" style="fill:#0eb193"/><path d="M739.85,414.36a7.15,7.15,0,0,1-1.72-.18,3.68,3.68,0,0,1-1.2-.51,2.89,2.89,0,0,1-.78-.78,3.68,3.68,0,0,1-.44-1,6.18,6.18,0,0,1-.2-1.18c0-.42,0-.86,0-1.31v0c0-.45,0-.89,0-1.31a6.05,6.05,0,0,1,.2-1.18,3.68,3.68,0,0,1,.44-1,2.64,2.64,0,0,1,.78-.78,3.68,3.68,0,0,1,1.2-.51,7.15,7.15,0,0,1,1.72-.18h0a7.15,7.15,0,0,1,1.72.18,3.88,3.88,0,0,1,1.2.51,2.49,2.49,0,0,1,.77.78,3.42,3.42,0,0,1,.45,1,6.05,6.05,0,0,1,.2,1.18c0,.42,0,.86,0,1.31v0c0,.45,0,.88,0,1.31a6.18,6.18,0,0,1-.2,1.18,3.42,3.42,0,0,1-.45,1,2.72,2.72,0,0,1-.77.78,3.88,3.88,0,0,1-1.2.51,7.15,7.15,0,0,1-1.72.18Zm0-8.26a3.88,3.88,0,0,0-1.25.17,1.53,1.53,0,0,0-.72.54,2.27,2.27,0,0,0-.34.95,11,11,0,0,0-.08,1.39v.44a11,11,0,0,0,.08,1.39,2.27,2.27,0,0,0,.34.95,1.53,1.53,0,0,0,.72.54,3.88,3.88,0,0,0,1.25.17h.09a3.92,3.92,0,0,0,1.25-.17,1.53,1.53,0,0,0,.72-.54,2.27,2.27,0,0,0,.34-.95,11,11,0,0,0,.08-1.39v-.44a11,11,0,0,0-.08-1.39,2.27,2.27,0,0,0-.34-.95,1.53,1.53,0,0,0-.72-.54,3.92,3.92,0,0,0-1.25-.17Z" transform="translate(-597.23 -302.38)" style="fill:#0eb193"/><path d="M747.53,407a.8.8,0,0,0,.24.6,2,2,0,0,0,.63.41,6.13,6.13,0,0,0,.91.28l1.06.26a11.12,11.12,0,0,1,1.08.33,3.84,3.84,0,0,1,1,.49,2.93,2.93,0,0,1,.74.75,2.39,2.39,0,0,1,.38,1.09,2.3,2.3,0,0,1,0,.64,2.28,2.28,0,0,1-.22.7,2.61,2.61,0,0,1-.48.67,3.11,3.11,0,0,1-.8.58,5.6,5.6,0,0,1-1.18.4,7.57,7.57,0,0,1-1.6.15c-.53,0-1,0-1.43-.07a6.36,6.36,0,0,1-1.14-.23,2.44,2.44,0,0,1-.79-.41,1.19,1.19,0,0,1-.41-.61.63.63,0,0,1,0-.36.64.64,0,0,1,.18-.25.8.8,0,0,1,.28-.13.9.9,0,0,1,.28,0c.19,0,.39.07.58.12l.64.16a6.43,6.43,0,0,0,.74.15,6.2,6.2,0,0,0,.93.08,4.61,4.61,0,0,0,1-.1,2.51,2.51,0,0,0,.76-.28,1.47,1.47,0,0,0,.46-.43,1.1,1.1,0,0,0,.16-.56.71.71,0,0,0-.26-.56,2.3,2.3,0,0,0-.68-.39,7.73,7.73,0,0,0-1-.29l-1.1-.27c-.38-.09-.74-.2-1.1-.32a4.59,4.59,0,0,1-1-.47,2.36,2.36,0,0,1-.7-.67,1.72,1.72,0,0,1-.28-.95,3,3,0,0,1,.18-1.12,2.6,2.6,0,0,1,.62-1,3.27,3.27,0,0,1,1.05-.7,4.22,4.22,0,0,1,1.51-.3h.53a6.12,6.12,0,0,1,.83,0,8.06,8.06,0,0,1,.94.12,4,4,0,0,1,.89.25,1.94,1.94,0,0,1,.67.46,1,1,0,0,1,.26.69.85.85,0,0,1,0,.23.32.32,0,0,1-.1.18.42.42,0,0,1-.21.11,1.29,1.29,0,0,1-.36,0l-.65-.07-.81-.12-.89-.11c-.31,0-.61-.05-.9-.05a3.31,3.31,0,0,0-.55.05,2.15,2.15,0,0,0-.47.14,1,1,0,0,0-.34.27A.63.63,0,0,0,747.53,407Z" transform="translate(-597.23 -302.38)" style="fill:#0eb193"/><path d="M669.31,428.07v3.7a.25.25,0,0,1,0,.16l-.13.1a.58.58,0,0,1-.19,0h-.21a1.62,1.62,0,0,1-.4-.05.25.25,0,0,1-.18-.26v-9.63a.4.4,0,0,1,.19-.34.82.82,0,0,1,.53-.15h2.58a8.92,8.92,0,0,1,1.78.16,4.18,4.18,0,0,1,1.38.53,2.62,2.62,0,0,1,.89,1,3.26,3.26,0,0,1,.32,1.5v.08a3.34,3.34,0,0,1-.3,1.48,2.52,2.52,0,0,1-.85,1,3.75,3.75,0,0,1-1.35.54,8.75,8.75,0,0,1-1.78.17h-2.24Zm0-1h2.4a4.13,4.13,0,0,0,2.23-.51,1.75,1.75,0,0,0,.73-1.58v-.2a2.62,2.62,0,0,0-.14-.88,1.46,1.46,0,0,0-.5-.66,2.49,2.49,0,0,0-1-.41,6.4,6.4,0,0,0-1.51-.14h-2.24Z" transform="translate(-597.23 -302.38)" style="fill:#0eb193"/><path d="M681.6,421.57a6.89,6.89,0,0,1,1.75.19,3.87,3.87,0,0,1,1.23.54,2.77,2.77,0,0,1,.8.84,4.18,4.18,0,0,1,.45,1.06,6.16,6.16,0,0,1,.21,1.25c0,.43.05.89.05,1.36v.05c0,.47,0,.92-.05,1.36a6.06,6.06,0,0,1-.21,1.24,4.1,4.1,0,0,1-.45,1.07,2.74,2.74,0,0,1-.8.83,3.67,3.67,0,0,1-1.23.55,6.89,6.89,0,0,1-1.75.19h0a6.89,6.89,0,0,1-1.75-.19,3.67,3.67,0,0,1-1.23-.55,2.87,2.87,0,0,1-.8-.83,4.47,4.47,0,0,1-.45-1.07,6.06,6.06,0,0,1-.21-1.24c0-.44,0-.89,0-1.36v-.05c0-.47,0-.93,0-1.36a6.16,6.16,0,0,1,.21-1.25,4.57,4.57,0,0,1,.45-1.06,2.9,2.9,0,0,1,.8-.84,3.87,3.87,0,0,1,1.23-.54,6.89,6.89,0,0,1,1.75-.19Zm-.1,1a4.78,4.78,0,0,0-1.28.15,2.51,2.51,0,0,0-.89.4,2,2,0,0,0-.58.62,2.65,2.65,0,0,0-.33.81,5,5,0,0,0-.15,1c0,.35,0,.72,0,1.11V427c0,.39,0,.76,0,1.11a4.91,4.91,0,0,0,.15,1,2.71,2.71,0,0,0,.33.82,2.14,2.14,0,0,0,.58.62,2.92,2.92,0,0,0,.89.4,5.27,5.27,0,0,0,1.28.14h.17a5.12,5.12,0,0,0,1.27-.14,2.92,2.92,0,0,0,.89-.4,2,2,0,0,0,.58-.62,3,3,0,0,0,.34-.82,7,7,0,0,0,.15-1q0-.53,0-1.11v-.35q0-.59,0-1.11a7.11,7.11,0,0,0-.15-1,3,3,0,0,0-.34-.81,1.91,1.91,0,0,0-.58-.62,2.51,2.51,0,0,0-.89-.4,4.66,4.66,0,0,0-1.27-.15Z" transform="translate(-597.23 -302.38)" style="fill:#0eb193"/><path d="M691.13,422.67H689v9.1a.25.25,0,0,1,0,.16.34.34,0,0,1-.13.1.48.48,0,0,1-.18,0h-.22a1.56,1.56,0,0,1-.4-.05.24.24,0,0,1-.17-.26v-9.63a.42.42,0,0,1,.18-.34.82.82,0,0,1,.53-.15h2.57a8.61,8.61,0,0,1,1.79.14,4.46,4.46,0,0,1,1.45.54,2.79,2.79,0,0,1,1,1,2.92,2.92,0,0,1,.36,1.5v.08a3.11,3.11,0,0,1-.16,1,2.42,2.42,0,0,1-.43.81,2.82,2.82,0,0,1-.68.6,3.82,3.82,0,0,1-.89.4l2.17,3.85a.27.27,0,0,1,0,.25.36.36,0,0,1-.17.15.66.66,0,0,1-.26.07l-.28,0a.8.8,0,0,1-.3-.06.45.45,0,0,1-.23-.2L692.38,428a5.48,5.48,0,0,1-.57.05h-2a.34.34,0,0,1-.29-.13.63.63,0,0,1-.1-.38.58.58,0,0,1,.1-.37.35.35,0,0,1,.3-.13h1.38a8.25,8.25,0,0,0,1.39-.11,3.18,3.18,0,0,0,1-.37,1.76,1.76,0,0,0,.65-.65,1.8,1.8,0,0,0,.23-1v-.2a2,2,0,0,0-.18-.88,1.63,1.63,0,0,0-.57-.66,3,3,0,0,0-1-.41,6.76,6.76,0,0,0-1.53-.14Z" transform="translate(-597.23 -302.38)" style="fill:#0eb193"/><path d="M627.08,449.74a1.12,1.12,0,0,1-.38-.06.52.52,0,0,1-.24-.08.25.25,0,0,1-.1-.22v-9.49a.44.44,0,0,1,.18-.35.83.83,0,0,1,.54-.14h3.21a7.36,7.36,0,0,1,1.75.18,4.11,4.11,0,0,1,1.23.53,2.8,2.8,0,0,1,.79.82,3.9,3.9,0,0,1,.45,1,5.85,5.85,0,0,1,.21,1.23c0,.43,0,.88,0,1.35v.05c0,.46,0,.91,0,1.35a5.86,5.86,0,0,1-.21,1.22,3.9,3.9,0,0,1-.45,1,2.89,2.89,0,0,1-.79.81,3.87,3.87,0,0,1-1.23.53,7.31,7.31,0,0,1-1.75.19h-3.21Zm3.18-9.33h-2.73v8.32h2.83a5.28,5.28,0,0,0,1.27-.13,2.69,2.69,0,0,0,.89-.38,2,2,0,0,0,.58-.6,2.82,2.82,0,0,0,.34-.79,6.81,6.81,0,0,0,.15-1c0-.35,0-.71,0-1.1v-.35q0-.58,0-1.11a6.89,6.89,0,0,0-.15-1,2.88,2.88,0,0,0-.34-.8,1.84,1.84,0,0,0-.58-.6,2.69,2.69,0,0,0-.89-.38,5.28,5.28,0,0,0-1.27-.13h-.09Z" transform="translate(-597.23 -302.38)" style="fill:#0eb193"/><path d="M637.34,449.74a1.12,1.12,0,0,1-.38-.06.61.61,0,0,1-.25-.08.27.27,0,0,1-.1-.22v-9.49a.45.45,0,0,1,.19-.35.83.83,0,0,1,.54-.14h6.24a.35.35,0,0,1,.25.15.61.61,0,0,1,.1.36.51.51,0,0,1-.07.3.39.39,0,0,1-.17.14.64.64,0,0,1-.24,0h-5.68V444h4.73a.33.33,0,0,1,.26.14.51.51,0,0,1,.12.37.52.52,0,0,1,0,.23.48.48,0,0,1-.25.24l-.15,0h-4.66v3.71h5.68a.64.64,0,0,1,.24.05.39.39,0,0,1,.17.14.51.51,0,0,1,.07.3.56.56,0,0,1-.1.35.34.34,0,0,1-.25.16h-6.24Z" transform="translate(-597.23 -302.38)" style="fill:#0eb193"/><path d="M646.7,445.81v3.7a.25.25,0,0,1,0,.16l-.13.1a.58.58,0,0,1-.18,0l-.21,0a1.27,1.27,0,0,1-.41-.06.25.25,0,0,1-.18-.26v-9.63a.42.42,0,0,1,.19-.34.83.83,0,0,1,.54-.14h2.57a8.27,8.27,0,0,1,1.78.15,3.91,3.91,0,0,1,1.38.54,2.48,2.48,0,0,1,.89,1,3.19,3.19,0,0,1,.32,1.49v.08a3.34,3.34,0,0,1-.3,1.48,2.52,2.52,0,0,1-.85,1,3.94,3.94,0,0,1-1.35.55,8.79,8.79,0,0,1-1.78.16H646.7Zm0-1h2.4a4.2,4.2,0,0,0,2.23-.5,1.77,1.77,0,0,0,.73-1.59v-.2a2.43,2.43,0,0,0-.14-.88,1.46,1.46,0,0,0-.5-.66,2.51,2.51,0,0,0-1-.41,7.15,7.15,0,0,0-1.52-.14H646.7Z" transform="translate(-597.23 -302.38)" style="fill:#0eb193"/><path d="M660,447.43h-5.71l-.67,1.86a1,1,0,0,1-.15.31.53.53,0,0,1-.19.15.42.42,0,0,1-.21.06h-.25a.65.65,0,0,1-.2,0,.34.34,0,0,1-.16-.13.43.43,0,0,1-.06-.24,1.13,1.13,0,0,1,.08-.36l3.18-8.71a2.51,2.51,0,0,1,.26-.52,1,1,0,0,1,.3-.31,1,1,0,0,1,.36-.16,2.72,2.72,0,0,1,.42,0h.3a2.59,2.59,0,0,1,.41,0,1,1,0,0,1,.36.16,1,1,0,0,1,.3.31,2.51,2.51,0,0,1,.26.52l3.18,8.71a.87.87,0,0,1,.07.36.43.43,0,0,1-.06.24.28.28,0,0,1-.15.13.65.65,0,0,1-.2,0h-.24a.43.43,0,0,1-.22-.06.62.62,0,0,1-.19-.15,1,1,0,0,1-.15-.31Zm-5.38-.92h5l-2.08-5.8a1.22,1.22,0,0,0-.16-.31.25.25,0,0,0-.2-.1h-.14a.23.23,0,0,0-.2.1.94.94,0,0,0-.17.31Z" transform="translate(-597.23 -302.38)" style="fill:#0eb193"/><path d="M666.35,440.41h-2.13v9.1a.25.25,0,0,1-.05.16.45.45,0,0,1-.13.1.58.58,0,0,1-.19,0l-.21,0a1.2,1.2,0,0,1-.4-.06.25.25,0,0,1-.18-.26v-9.63a.43.43,0,0,1,.18-.34.85.85,0,0,1,.54-.14h2.57a8.48,8.48,0,0,1,1.78.13,4.43,4.43,0,0,1,1.46.54,2.79,2.79,0,0,1,1,1,2.92,2.92,0,0,1,.35,1.5v.08a3.39,3.39,0,0,1-.15,1,2.42,2.42,0,0,1-.43.81,2.82,2.82,0,0,1-.68.6,4,4,0,0,1-.89.4l2.17,3.85a.27.27,0,0,1,0,.25.36.36,0,0,1-.17.15.77.77,0,0,1-.27.07,1.32,1.32,0,0,1-.27,0,.8.8,0,0,1-.3-.06.47.47,0,0,1-.24-.2l-2.12-3.82a5.46,5.46,0,0,1-.57,0h-2a.32.32,0,0,1-.29-.13.61.61,0,0,1-.1-.38.58.58,0,0,1,.1-.37.35.35,0,0,1,.3-.13h1.38a8.25,8.25,0,0,0,1.39-.11,3.26,3.26,0,0,0,1-.37,1.76,1.76,0,0,0,.65-.65,1.89,1.89,0,0,0,.23-1v-.2a2.07,2.07,0,0,0-.18-.88A1.58,1.58,0,0,0,669,441a2.82,2.82,0,0,0-1-.41,7.46,7.46,0,0,0-1.53-.14Z" transform="translate(-597.23 -302.38)" style="fill:#0eb193"/><path d="M679.28,439.4c.16,0,.26,0,.3.1a.72.72,0,0,1,.07.4.7.7,0,0,1,0,.28.34.34,0,0,1-.14.15.47.47,0,0,1-.15.06h-3.38v9.11a.25.25,0,0,1-.18.26,1.25,1.25,0,0,1-.4.06,1.2,1.2,0,0,1-.4-.06.26.26,0,0,1-.18-.26V440.4h-3.21l-.14,0a.37.37,0,0,1-.14-.07.4.4,0,0,1-.12-.16.58.58,0,0,1,0-.25,1.61,1.61,0,0,1,0-.26.5.5,0,0,1,0-.16.14.14,0,0,1,.11-.07h8Z" transform="translate(-597.23 -302.38)" style="fill:#0eb193"/><path d="M686,447.43h-5.7l-.67,1.86a1,1,0,0,1-.15.31.62.62,0,0,1-.19.15.43.43,0,0,1-.22.06h-.24a.78.78,0,0,1-.21,0,.32.32,0,0,1-.15-.13.43.43,0,0,1-.06-.24,1.13,1.13,0,0,1,.08-.36l3.18-8.71a2.1,2.1,0,0,1,.26-.52,1,1,0,0,1,.3-.31,1,1,0,0,1,.36-.16,2.72,2.72,0,0,1,.42,0h.29a2.72,2.72,0,0,1,.42,0,1,1,0,0,1,.36.16,1,1,0,0,1,.3.31,2.51,2.51,0,0,1,.26.52l3.18,8.71a1.08,1.08,0,0,1,.07.36.43.43,0,0,1-.06.24.28.28,0,0,1-.15.13.65.65,0,0,1-.21,0h-.24a.42.42,0,0,1-.21-.06.53.53,0,0,1-.19-.15,1,1,0,0,1-.15-.31Zm-5.37-.92h5l-2.08-5.8a.94.94,0,0,0-.17-.31.23.23,0,0,0-.19-.1h-.15a.25.25,0,0,0-.2.1,1,1,0,0,0-.16.31Z" transform="translate(-597.23 -302.38)" style="fill:#0eb193"/><path d="M694.83,449.81a1.64,1.64,0,0,1-.4-.12,1.36,1.36,0,0,1-.39-.25.83.83,0,0,1-.25-.45l-2.52-8.43a.28.28,0,0,0-.16-.2.6.6,0,0,0-.22,0h-.08a.23.23,0,0,0-.11,0,.18.18,0,0,0-.09.07.22.22,0,0,0-.05.12l-.8,8.88a.39.39,0,0,1-.11.21.63.63,0,0,1-.2.13,1,1,0,0,1-.23.05H689a.4.4,0,0,1-.34-.12.62.62,0,0,1,0-.41l.82-9.05a1,1,0,0,1,.22-.54,1.13,1.13,0,0,1,.39-.28,1.41,1.41,0,0,1,.43-.1l.34,0h.11a3.18,3.18,0,0,1,.4,0,1.39,1.39,0,0,1,.44.13,1.29,1.29,0,0,1,.38.28.91.91,0,0,1,.24.49l2.51,8.43a.22.22,0,0,0,.12.14h.23a.18.18,0,0,0,.11-.14l2.52-8.43a1,1,0,0,1,.23-.49,1.33,1.33,0,0,1,.39-.28,1.39,1.39,0,0,1,.44-.13,3.22,3.22,0,0,1,.39,0h.11l.34,0a1.4,1.4,0,0,1,.44.1,1.13,1.13,0,0,1,.39.28,1,1,0,0,1,.22.54l.82,9.05a.69.69,0,0,1,0,.41.41.41,0,0,1-.35.12H701a1,1,0,0,1-.23-.05.63.63,0,0,1-.2-.13.33.33,0,0,1-.11-.21l-.81-8.88a.21.21,0,0,0,0-.12.18.18,0,0,0-.09-.07.19.19,0,0,0-.1,0h-.08a.66.66,0,0,0-.23,0,.32.32,0,0,0-.17.2L696.46,449a.9.9,0,0,1-.25.45,1.32,1.32,0,0,1-.38.25,1.43,1.43,0,0,1-.39.11l-.3,0h0Z" transform="translate(-597.23 -302.38)" style="fill:#0eb193"/><path d="M704.13,449.74a1.06,1.06,0,0,1-.37-.06.61.61,0,0,1-.25-.08.25.25,0,0,1-.1-.22v-9.49a.44.44,0,0,1,.18-.35.87.87,0,0,1,.54-.14h6.24a.37.37,0,0,1,.26.15.69.69,0,0,1,.1.36.51.51,0,0,1-.07.3.49.49,0,0,1-.18.14.59.59,0,0,1-.23,0h-5.69V444h4.73a.36.36,0,0,1,.27.14.56.56,0,0,1,.11.37.53.53,0,0,1,0,.23.58.58,0,0,1-.11.15l-.15.09-.14,0h-4.67v3.71h5.69a.59.59,0,0,1,.23.05.49.49,0,0,1,.18.14.51.51,0,0,1,.07.3.63.63,0,0,1-.1.35.35.35,0,0,1-.26.16h-6.24Z" transform="translate(-597.23 -302.38)" style="fill:#0eb193"/><path d="M720.76,449.51a.26.26,0,0,1-.14.26.9.9,0,0,1-.36.06,1.34,1.34,0,0,1-.35-.05.47.47,0,0,1-.26-.15l-6.14-8.16v8a.25.25,0,0,1-.06.17.37.37,0,0,1-.16.1.65.65,0,0,1-.21.06l-.22,0a.82.82,0,0,1-.36-.07.24.24,0,0,1-.14-.25v-9.8a.38.38,0,0,1,.12-.3.56.56,0,0,1,.38-.1l.3,0a.9.9,0,0,1,.24.12l0,0,6.18,8.2v-7.83a.48.48,0,0,1,.18-.38.71.71,0,0,1,.47-.16.63.63,0,0,1,.38.08q.12.08.12.33Z" transform="translate(-597.23 -302.38)" style="fill:#0eb193"/><path d="M730.28,439.4c.16,0,.26,0,.3.1a.72.72,0,0,1,.07.4.55.55,0,0,1-.06.28.32.32,0,0,1-.13.15.47.47,0,0,1-.15.06h-3.39v9.11a.24.24,0,0,1-.17.26,1.25,1.25,0,0,1-.4.06,1.2,1.2,0,0,1-.4-.06.26.26,0,0,1-.18-.26V440.4h-3.21l-.14,0a.51.51,0,0,1-.15-.07.5.5,0,0,1-.11-.16.58.58,0,0,1,0-.25,1.61,1.61,0,0,1,0-.26.34.34,0,0,1,0-.16.14.14,0,0,1,.11-.07h8Z" transform="translate(-597.23 -302.38)" style="fill:#0eb193"/><path d="M735.88,439.31a6.89,6.89,0,0,1,1.75.19,3.87,3.87,0,0,1,1.23.54,2.74,2.74,0,0,1,.79.84,4.12,4.12,0,0,1,.46,1.07,6.69,6.69,0,0,1,.2,1.24c0,.44.05.89.05,1.36v.05c0,.47,0,.92-.05,1.36a6.83,6.83,0,0,1-.2,1.24,4.12,4.12,0,0,1-.46,1.07,2.71,2.71,0,0,1-.79.83,3.67,3.67,0,0,1-1.23.55,6.89,6.89,0,0,1-1.75.19h0a6.89,6.89,0,0,1-1.75-.19,3.67,3.67,0,0,1-1.23-.55,2.74,2.74,0,0,1-.8-.83,3.79,3.79,0,0,1-.45-1.07,6.06,6.06,0,0,1-.21-1.24c0-.44,0-.89,0-1.36v-.05c0-.47,0-.92,0-1.36a5.94,5.94,0,0,1,.21-1.24,3.79,3.79,0,0,1,.45-1.07,2.77,2.77,0,0,1,.8-.84,3.87,3.87,0,0,1,1.23-.54,6.89,6.89,0,0,1,1.75-.19Zm-.11,1a4.79,4.79,0,0,0-1.27.14,2.51,2.51,0,0,0-.89.4,2,2,0,0,0-.58.62,3,3,0,0,0-.34.81,7.11,7.11,0,0,0-.15,1c0,.35,0,.72,0,1.11v.35c0,.39,0,.76,0,1.11a7,7,0,0,0,.15,1,2.89,2.89,0,0,0,.34.82,2,2,0,0,0,.58.62,2.7,2.7,0,0,0,.89.4,5.24,5.24,0,0,0,1.27.14H736a5.18,5.18,0,0,0,1.27-.14,2.7,2.7,0,0,0,.89-.4,2.14,2.14,0,0,0,.58-.62,3.2,3.2,0,0,0,.33-.82,4.91,4.91,0,0,0,.15-1c0-.35,0-.72,0-1.11v-.35c0-.39,0-.76,0-1.11a5,5,0,0,0-.15-1,3.27,3.27,0,0,0-.33-.81,2.14,2.14,0,0,0-.58-.62,2.51,2.51,0,0,0-.89-.4,4.74,4.74,0,0,0-1.27-.14Z" transform="translate(-597.23 -302.38)" style="fill:#0eb193"/><path d="M682.24,380.85c0,8.94-3.1,13.08-9.73,13.08s-9.77-4.14-9.77-13.08,3.06-13.05,9.77-13.05S682.24,371.94,682.24,380.85Zm-4.25,0c0-6.49-1.64-9.32-5.48-9.32s-5.52,2.83-5.52,9.32,1.68,9.32,5.52,9.32S678,387.41,678,380.85Z" transform="translate(-597.23 -302.38)" style="fill:#0eb193"/><path d="M694.35,367.8c5.4,0,8.61,3.06,8.61,7.64,0,7.87-12.93,10.89-12.93,14.17h11.44a1.9,1.9,0,1,1,0,3.8H687.23a1.91,1.91,0,0,1-1.9-1.9c0-8.24,13.38-9.1,13.38-16.07,0-2.09-1.53-3.91-4.36-3.91a4.41,4.41,0,0,0-4.25,2.68,2.06,2.06,0,0,1-1.86,1.19,2,2,0,0,1-2-2,1.89,1.89,0,0,1,.19-.86C687.6,369.81,690.25,367.8,694.35,367.8Z" transform="translate(-597.23 -302.38)" style="fill:#0eb193"/><path d="M667.13,331.66H699.2a21,21,0,0,1-.81-3.56c-.13-2.57-3.52-5-6.08-5-6.09,0-12.17-.07-18.26,0a6,6,0,0,0-5.7,3.83,30.86,30.86,0,0,0-1.22,4.71m16,3.8H663.47c-2.93,0-4.44,1.54-4.46,4.5,0,.87,0,1.75,0,2.63,0,3.15,1.49,4.64,4.62,4.64h27.68c4,0,7.94,0,11.91,0a3.85,3.85,0,0,0,4-4.09c0-1,0-2.07,0-3.1,0-3.07-1.47-4.56-4.53-4.56H683.11m20.49-3.81c4.92.65,7.38,3.45,7.4,8.32,0,1.08,0,2.17,0,3.25-.07,4.62-3.16,7.68-7.82,7.72h-1.4v4.88h-5.59v-4.76h-26v4.78h-5.54v-4.9h-2a7.46,7.46,0,0,1-7.39-7.39c0-1.44,0-2.89,0-4.33a7.21,7.21,0,0,1,6.18-7.36,1.72,1.72,0,0,0,1.7-1.53c.33-1.29.76-2.56,1.17-3.83a10.09,10.09,0,0,1,9.78-7.12h18.41a10,10,0,0,1,9.49,7c.53,1.76,1.07,3.52,1.59,5.24" transform="translate(-597.23 -302.38)" style="fill:#e2b723"/><path d="M655.25,312.64c0-1.25.88-1.61,1.86-1.93l18.75-6.17c2.44-.8,4.9-2.15,7.35-2.16s4.79,1.37,7.18,2.16c6.26,2,12.5,4.13,18.76,6.17,1.13.37,2,.87,1.82,2.26s-1.28,1.91-3,1.35l-18-6c-2.3-.76-4.6-2.06-6.9-2.06s-4.59,1.33-6.89,2.09l-18,5.95c-1.77.58-3-.12-3-1.69" transform="translate(-597.23 -302.38)" style="fill:#e2b723"/><path d="M664.57,341.23a2.78,2.78,0,0,1,3-2.66,2.78,2.78,0,0,1-.39,5.55,2.78,2.78,0,0,1-2.6-2.89" transform="translate(-597.23 -302.38)" style="fill:#e2b723"/><path d="M701.71,341.38a2.73,2.73,0,0,1-2.73,2.75,2.78,2.78,0,1,1,.07-5.56,2.71,2.71,0,0,1,2.66,2.81" transform="translate(-597.23 -302.38)" style="fill:#e2b723"/></svg>