<svg id="Capa_1" data-name="Capa 1" xmlns="http://www.w3.org/2000/svg" viewBox="0 0 172.04 164.25"><defs><style>.cls-1{fill:#fff;}.cls-2{fill:none;stroke:#0eb193;stroke-miterlimit:10;stroke-width:2px;}.cls-3{font-size:14px;font-family:Byom-Bold, Byom;}.cls-15,.cls-3{fill:#0eb193;font-weight:700;}.cls-4{letter-spacing:-0.01em;}.cls-5{letter-spacing:-0.1em;}.cls-6{letter-spacing:-0.02em;}.cls-7{letter-spacing:0em;}.cls-8{letter-spacing:-0.02em;}.cls-9{font-size:14.78px;font-family:Byom;font-weight:400;}.cls-10{letter-spacing:-0.09em;}.cls-11{letter-spacing:-0.04em;}.cls-12{letter-spacing:-0.11em;}.cls-13{letter-spacing:0em;}.cls-14{letter-spacing:-0.02em;}.cls-15{font-size:37.28px;font-family:Bariol-Bold, Bariol;}.cls-16{fill:#e2b723;}</style></defs><rect class="cls-1" x="1" width="170.04" height="163.25"/><polyline class="cls-2" points="134 30.16 171.04 30.16 171.04 163.25 1 163.25 1 30.16 46.36 30.16"/><text class="cls-3" transform="translate(14.99 111.88)">E<tspan class="cls-4" x="8.64" y="0">S</tspan><tspan class="cls-5" x="17.42" y="0">T</tspan><tspan class="cls-6" x="24.69" y="0">A</tspan><tspan class="cls-7" x="33.86" y="0">CIONAMIEN</tspan><tspan class="cls-8" x="114.06" y="0">T</tspan><tspan class="cls-7" x="122.46" y="0">OS</tspan><tspan class="cls-9"><tspan x="54.83" y="17.74">POR </tspan><tspan x="13.02" y="35.48">DE</tspan><tspan class="cls-10" x="32.22" y="35.48">P</tspan><tspan x="40.11" y="35.48">A</tspan><tspan class="cls-11" x="49.72" y="35.48">R</tspan><tspan class="cls-12" x="58.65" y="35.48">T</tspan><tspan class="cls-13" x="66.1" y="35.48">AMEN</tspan><tspan class="cls-14" x="109.64" y="35.48">T</tspan><tspan x="118.34" y="35.48">O</tspan></tspan></text><text class="cls-15" transform="translate(63.87 91.03)">02</text><path class="cls-16" d="M435.88,332.41H468a21.44,21.44,0,0,1-.81-3.56c-.13-2.57-3.52-5-6.08-5-6.09,0-12.17-.08-18.26,0a6.07,6.07,0,0,0-5.7,3.84,30.86,30.86,0,0,0-1.22,4.71m16,3.8H432.22c-2.93,0-4.44,1.54-4.46,4.49,0,.88,0,1.76,0,2.63,0,3.15,1.49,4.65,4.62,4.65h27.68c4,0,7.94,0,11.91,0a3.86,3.86,0,0,0,4-4.1c0-1,0-2.06,0-3.09,0-3.08-1.47-4.56-4.53-4.57H451.86m20.49-3.81c4.92.65,7.38,3.45,7.4,8.32,0,1.08,0,2.16,0,3.25-.07,4.62-3.16,7.67-7.82,7.71h-1.4v4.87h-5.59v-4.75h-26v4.77h-5.54v-4.9h-2A7.45,7.45,0,0,1,424,344.3c0-1.45,0-2.89,0-4.33a7.2,7.2,0,0,1,6.18-7.36,1.72,1.72,0,0,0,1.7-1.53c.33-1.29.76-2.56,1.17-3.83a10.09,10.09,0,0,1,9.78-7.12h18.41a10,10,0,0,1,9.49,7c.53,1.76,1.07,3.52,1.59,5.24" transform="translate(-365.98 -303.13)"/><path class="cls-16" d="M424,313.39c0-1.25.88-1.61,1.86-1.93l18.75-6.17c2.44-.8,4.9-2.16,7.35-2.16s4.79,1.37,7.18,2.15c6.26,2.06,12.5,4.14,18.76,6.18,1.13.37,2,.87,1.82,2.26s-1.28,1.9-3,1.35c-6-2-12-4-18-6-2.3-.76-4.6-2.06-6.9-2.06s-4.59,1.33-6.89,2.08l-18,6c-1.77.58-3-.12-3-1.69" transform="translate(-365.98 -303.13)"/><path class="cls-16" d="M433.32,342a2.78,2.78,0,0,1,3-2.65,2.78,2.78,0,0,1-.39,5.55,2.79,2.79,0,0,1-2.6-2.9" transform="translate(-365.98 -303.13)"/><path class="cls-16" d="M470.46,342.13a2.71,2.71,0,0,1-2.73,2.74,2.78,2.78,0,1,1,.07-5.55,2.71,2.71,0,0,1,2.66,2.81" transform="translate(-365.98 -303.13)"/></svg>