<svg id="Capa_1" data-name="Capa 1" xmlns="http://www.w3.org/2000/svg" viewBox="0 0 168.17 28.73"><path d="M263.93,420.92a5.93,5.93,0,0,0,2.38-.49,6.23,6.23,0,0,0,1.94-1.32,6.41,6.41,0,0,0,1.32-1.94,5.85,5.85,0,0,0,.49-2.35,5.93,5.93,0,0,0-.49-2.38,6.53,6.53,0,0,0-1.32-1.94,6.21,6.21,0,0,0-1.94-1.31,5.76,5.76,0,0,0-2.38-.49h-2.85v12.22Zm0-14.78a8.32,8.32,0,0,1,3.37.68,8.59,8.59,0,0,1,4.62,4.63,8.6,8.6,0,0,1,0,6.75,8.66,8.66,0,0,1-1.85,2.74,9,9,0,0,1-2.77,1.86,8.49,8.49,0,0,1-3.37.68h-5.42V406.14Z" transform="translate(-213.42 -406.14)" style="fill:#fff"/><path d="M277.52,414.82a5.69,5.69,0,0,0,.49,2.35,6.21,6.21,0,0,0,1.31,1.94,6.35,6.35,0,0,0,1.94,1.32,5.9,5.9,0,0,0,2.36.49,6,6,0,0,0,2.39-.49,6.16,6.16,0,0,0,1.95-1.32,6,6,0,0,0,1.3-1.94,5.85,5.85,0,0,0,.48-2.35,5.92,5.92,0,0,0-.48-2.38,6.12,6.12,0,0,0-1.3-1.94,6.33,6.33,0,0,0-1.95-1.32,6,6,0,0,0-2.39-.48,5.89,5.89,0,0,0-2.36.48,6.53,6.53,0,0,0-1.94,1.32,6.32,6.32,0,0,0-1.31,1.94,5.76,5.76,0,0,0-.49,2.38m14.78,0a8.5,8.5,0,0,1-.68,3.38,8.78,8.78,0,0,1-4.61,4.6,8.59,8.59,0,0,1-3.39.68,8.47,8.47,0,0,1-3.38-.68,9,9,0,0,1-2.75-1.86,8.83,8.83,0,0,1-1.85-2.74,8.72,8.72,0,0,1,0-6.75,9.09,9.09,0,0,1,1.85-2.77,8.85,8.85,0,0,1,2.75-1.86,8.3,8.3,0,0,1,3.38-.68,8.42,8.42,0,0,1,3.39.68,8.73,8.73,0,0,1,2.75,1.86,9.11,9.11,0,0,1,1.86,2.77,8.53,8.53,0,0,1,.68,3.37" transform="translate(-213.42 -406.14)" style="fill:#fff"/><polygon points="94.74 17.34 92.12 17.34 84.59 4.76 84.59 17.34 82.03 17.34 82.03 0 84.64 0 92.18 12.61 92.18 0 94.74 0 94.74 17.34" style="fill:#fff"/><rect x="98.42" width="2.56" height="17.34" style="fill:#fff"/><polygon points="103.81 2.56 103.81 0 116.5 0 116.5 2.63 112.64 7.39 116.5 7.39 116.5 9.95 110.59 9.95 106.69 14.78 116.5 14.78 116.5 17.34 103.81 17.34 103.81 14.71 107.69 9.95 103.81 9.95 103.81 7.39 109.74 7.39 113.64 2.56 103.81 2.56" style="fill:#fff"/><polygon points="131.76 2.56 122.11 2.56 122.11 10.12 131.76 10.12 131.76 12.68 122.11 12.68 122.11 14.78 131.76 14.78 131.76 17.34 119.54 17.34 119.54 0 131.76 0 131.76 2.56" style="fill:#fff"/><polygon points="139.13 17.34 139.13 2.56 134.06 2.56 134.06 0 146.76 0 146.76 2.56 141.69 2.56 141.69 17.34 139.13 17.34" style="fill:#fff"/><polygon points="154.13 17.34 154.13 2.56 149.06 2.56 149.06 0 161.76 0 161.76 2.56 156.69 2.56 156.69 17.34 154.13 17.34" style="fill:#fff"/><rect x="164.72" width="2.56" height="17.34" style="fill:#fff"/><path d="M258.9,434.8a.71.71,0,0,1-.26,0,.38.38,0,0,1-.16-.06.15.15,0,0,1-.07-.14v-.08h0v-3.19h0v-3.08a.3.3,0,0,1,.12-.24.65.65,0,0,1,.37-.1h4.18a.21.21,0,0,1,.17.1.4.4,0,0,1,.07.24.37.37,0,0,1,0,.2.47.47,0,0,1-.12.09.42.42,0,0,1-.16,0h-3.82V431h3.18a.3.3,0,0,1,.18.1.37.37,0,0,1,.07.25.33.33,0,0,1,0,.15.41.41,0,0,1-.07.11l-.1.05-.1,0h-3.13v2.49H263l.16,0a.35.35,0,0,1,.12.1.34.34,0,0,1,0,.19.36.36,0,0,1-.07.24.19.19,0,0,1-.17.1H258.9Z" transform="translate(-213.42 -406.14)" style="fill:#fff"/><path d="M268.19,428.53h-1.83v5.59h1.9a3.56,3.56,0,0,0,.85-.08,1.84,1.84,0,0,0,.6-.26,1.35,1.35,0,0,0,.39-.4,1.91,1.91,0,0,0,.22-.53,3.27,3.27,0,0,0,.11-.65c0-.24,0-.48,0-.74v-.24c0-.26,0-.51,0-.74a3.27,3.27,0,0,0-.11-.65,1.91,1.91,0,0,0-.22-.53,1.38,1.38,0,0,0-.39-.41,1.84,1.84,0,0,0-.6-.25,3.52,3.52,0,0,0-.85-.09h-.06Zm-2.13,6.27a.71.71,0,0,1-.26,0,.38.38,0,0,1-.16-.06.17.17,0,0,1-.07-.14v-6.37a.28.28,0,0,1,.13-.24.59.59,0,0,1,.36-.1h2.15a5,5,0,0,1,1.18.13,2.37,2.37,0,0,1,.82.36,1.82,1.82,0,0,1,.53.54,2.74,2.74,0,0,1,.3.7,4.23,4.23,0,0,1,.14.83c0,.29,0,.59,0,.9v0c0,.31,0,.61,0,.9a4.12,4.12,0,0,1-.14.82,2.6,2.6,0,0,1-.3.7,1.82,1.82,0,0,1-.53.54,2.58,2.58,0,0,1-.82.36,5,5,0,0,1-1.18.13h-2.15Z" transform="translate(-213.42 -406.14)" style="fill:#fff"/><path d="M274.39,434.64a.18.18,0,0,1,0,.11.15.15,0,0,1-.09.06l-.12,0H274a.79.79,0,0,1-.28,0,.16.16,0,0,1-.11-.17v-6.58a.22.22,0,0,1,.11-.2.55.55,0,0,1,.28-.07.54.54,0,0,1,.27.06.23.23,0,0,1,.11.22Z" transform="translate(-213.42 -406.14)" style="fill:#fff"/><path d="M277.53,427.85h4.11a.24.24,0,0,1,.17.1.48.48,0,0,1,.07.24.37.37,0,0,1-.05.2.27.27,0,0,1-.12.09.42.42,0,0,1-.16,0h-3.73v2.52h3.1a.28.28,0,0,1,.17.1.33.33,0,0,1,.08.25.33.33,0,0,1,0,.15.26.26,0,0,1-.07.1.21.21,0,0,1-.1.06l-.1,0h-3.05v2.92a.18.18,0,0,1,0,.11.15.15,0,0,1-.09.06l-.12,0h-.14a.7.7,0,0,1-.27,0,.16.16,0,0,1-.12-.17v-6.46a.3.3,0,0,1,.12-.24.59.59,0,0,1,.36-.1" transform="translate(-213.42 -406.14)" style="fill:#fff"/><path d="M284.82,434.64a.18.18,0,0,1,0,.11.15.15,0,0,1-.09.06l-.12,0h-.14a.7.7,0,0,1-.27,0,.16.16,0,0,1-.12-.17v-6.58a.22.22,0,0,1,.11-.2.55.55,0,0,1,.28-.07.61.61,0,0,1,.28.06.23.23,0,0,1,.1.22Z" transform="translate(-213.42 -406.14)" style="fill:#fff"/><path d="M291,434.13a2.24,2.24,0,0,0,.45-.12l.33-.15.23-.16.17-.11a.27.27,0,0,1,.13,0,.33.33,0,0,1,.23.09.31.31,0,0,1,.09.22.56.56,0,0,1-.15.36,1.39,1.39,0,0,1-.44.32,2.69,2.69,0,0,1-.68.24,4,4,0,0,1-.88.09h-.22a4.52,4.52,0,0,1-1.18-.13,2.82,2.82,0,0,1-.82-.36,1.91,1.91,0,0,1-.54-.56,2.88,2.88,0,0,1-.3-.72,4.36,4.36,0,0,1-.14-.83c0-.3,0-.6,0-.92v0c0-.31,0-.62,0-.91a4.33,4.33,0,0,1,.14-.84,2.88,2.88,0,0,1,.3-.72,2,2,0,0,1,.54-.56,2.58,2.58,0,0,1,.82-.36,4.52,4.52,0,0,1,1.18-.13h.22a4,4,0,0,1,.88.09,2.69,2.69,0,0,1,.68.24,1.79,1.79,0,0,1,.44.32.56.56,0,0,1,.15.36.31.31,0,0,1-.09.22.33.33,0,0,1-.23.09.27.27,0,0,1-.13-.05l-.17-.12-.23-.15-.33-.15a2.24,2.24,0,0,0-.45-.12,3.7,3.7,0,0,0-.62,0h-.17a3.48,3.48,0,0,0-.85.1,1.69,1.69,0,0,0-.59.27,1.3,1.3,0,0,0-.4.41,2,2,0,0,0-.22.56,3.28,3.28,0,0,0-.1.65q0,.36,0,.75v.23q0,.39,0,.75a3.27,3.27,0,0,0,.1.66,2,2,0,0,0,.22.55,1.3,1.3,0,0,0,.4.41,1.69,1.69,0,0,0,.59.27,3.52,3.52,0,0,0,.85.09h.17a3.79,3.79,0,0,0,.62,0" transform="translate(-213.42 -406.14)" style="fill:#fff"/><path d="M295.51,434.64a.18.18,0,0,1,0,.11.15.15,0,0,1-.09.06l-.12,0h-.14a.73.73,0,0,1-.27,0,.16.16,0,0,1-.12-.17v-6.58a.24.24,0,0,1,.11-.2.64.64,0,0,1,.56,0,.23.23,0,0,1,.1.22Z" transform="translate(-213.42 -406.14)" style="fill:#fff"/><path d="M300.92,428.48a3.55,3.55,0,0,0-.86.09,2.09,2.09,0,0,0-.6.27,1.55,1.55,0,0,0-.39.42,1.81,1.81,0,0,0-.22.55,3.27,3.27,0,0,0-.1.66c0,.23,0,.48,0,.74v.24c0,.26,0,.51,0,.74a3.27,3.27,0,0,0,.1.66,1.81,1.81,0,0,0,.22.55,1.55,1.55,0,0,0,.39.42,2.09,2.09,0,0,0,.6.27,3.55,3.55,0,0,0,.86.09H301a3.55,3.55,0,0,0,.86-.09,2.15,2.15,0,0,0,.59-.27,1.41,1.41,0,0,0,.39-.42,2.12,2.12,0,0,0,.23-.55,4.17,4.17,0,0,0,.1-.66c0-.23,0-.48,0-.74v-.24c0-.26,0-.51,0-.74a4.17,4.17,0,0,0-.1-.66,2.12,2.12,0,0,0-.23-.55,1.41,1.41,0,0,0-.39-.42,2.15,2.15,0,0,0-.59-.27,3.55,3.55,0,0,0-.86-.09Zm.06-.69a5,5,0,0,1,1.18.13,2.64,2.64,0,0,1,.83.37,1.88,1.88,0,0,1,.53.56,2.73,2.73,0,0,1,.3.72,3.6,3.6,0,0,1,.14.83,9,9,0,0,1,0,.91v0a9,9,0,0,1,0,.91,3.69,3.69,0,0,1-.14.83,2.88,2.88,0,0,1-.3.72,1.88,1.88,0,0,1-.53.56,2.64,2.64,0,0,1-.83.37,5,5,0,0,1-1.18.12h0a5,5,0,0,1-1.18-.12,2.58,2.58,0,0,1-.82-.37,1.91,1.91,0,0,1-.54-.56,2.88,2.88,0,0,1-.3-.72,4.36,4.36,0,0,1-.14-.83c0-.29,0-.6,0-.91v0c0-.31,0-.62,0-.91a4.23,4.23,0,0,1,.14-.83,2.73,2.73,0,0,1,.3-.72,1.91,1.91,0,0,1,.54-.56,2.58,2.58,0,0,1,.82-.37,5,5,0,0,1,1.18-.13Z" transform="translate(-213.42 -406.14)" style="fill:#fff"/><path d="M311.72,428.53h-1.43v6.11a.14.14,0,0,1,0,.11.16.16,0,0,1-.08.06l-.13,0h-.14a.77.77,0,0,1-.27,0,.16.16,0,0,1-.12-.17v-6.46a.29.29,0,0,1,.12-.23.62.62,0,0,1,.36-.1h1.73a5.83,5.83,0,0,1,1.2.1,2.87,2.87,0,0,1,1,.36,1.79,1.79,0,0,1,.65.66,2,2,0,0,1,.24,1v0a2.19,2.19,0,0,1-.1.7,1.74,1.74,0,0,1-.29.54,1.77,1.77,0,0,1-.46.4,2.29,2.29,0,0,1-.59.28l1.45,2.58a.19.19,0,0,1,0,.17.27.27,0,0,1-.11.1l-.18.05h-.19a.48.48,0,0,1-.2,0,.31.31,0,0,1-.16-.14l-1.43-2.56-.38,0h-1.32a.21.21,0,0,1-.19-.1.48.48,0,0,1,0-.5.22.22,0,0,1,.2-.08h.92a5.32,5.32,0,0,0,.94-.08,1.94,1.94,0,0,0,.69-.25,1.14,1.14,0,0,0,.44-.43,1.21,1.21,0,0,0,.16-.65v-.13a1.38,1.38,0,0,0-.12-.59,1.12,1.12,0,0,0-.39-.45,2,2,0,0,0-.69-.27,5,5,0,0,0-1-.1Z" transform="translate(-213.42 -406.14)" style="fill:#fff"/><path d="M317.51,434.8a.62.62,0,0,1-.25,0,.38.38,0,0,1-.17-.06.17.17,0,0,1-.07-.14v-.08h0v-3.19h0v-3.08a.28.28,0,0,1,.13-.24.59.59,0,0,1,.36-.1h4.19a.2.2,0,0,1,.16.1.4.4,0,0,1,.07.24.37.37,0,0,1,0,.2.27.27,0,0,1-.12.09.42.42,0,0,1-.16,0H317.8V431H321a.27.27,0,0,1,.18.1.37.37,0,0,1,.07.25.34.34,0,0,1,0,.15.44.44,0,0,1-.08.11l-.1.05-.09,0H317.8v2.49h3.81l.16,0a.23.23,0,0,1,.12.1.34.34,0,0,1,0,.19.36.36,0,0,1-.07.24.18.18,0,0,1-.16.1h-4.19Z" transform="translate(-213.42 -406.14)" style="fill:#fff"/><path d="M324.57,429.55a.82.82,0,0,0,.14.47,1,1,0,0,0,.35.33,2.37,2.37,0,0,0,.53.25c.2.07.42.13.65.19l.7.17c.24.05.47.11.7.18a6.42,6.42,0,0,1,.66.24,2.48,2.48,0,0,1,.55.32,1.52,1.52,0,0,1,.38.45,1.41,1.41,0,0,1,.16.61,1.75,1.75,0,0,1,0,.38,1.53,1.53,0,0,1-.13.45,1.62,1.62,0,0,1-.31.46,1.85,1.85,0,0,1-.52.41,3.44,3.44,0,0,1-.79.29,5.27,5.27,0,0,1-1.13.11,6.1,6.1,0,0,1-1.07-.09,5.45,5.45,0,0,1-.87-.23,2.76,2.76,0,0,1-.6-.31.61.61,0,0,1-.25-.34.28.28,0,0,1,0-.16.21.21,0,0,1,.07-.11.22.22,0,0,1,.11-.05H324a.85.85,0,0,1,.33.11l.47.23a5.46,5.46,0,0,0,.68.22,3.79,3.79,0,0,0,.95.1,4,4,0,0,0,.84-.08,2.54,2.54,0,0,0,.59-.2,1.42,1.42,0,0,0,.38-.27,1.19,1.19,0,0,0,.22-.31,1.05,1.05,0,0,0,.1-.3,1.38,1.38,0,0,0,0-.25.68.68,0,0,0-.21-.51,1.78,1.78,0,0,0-.54-.34,4.66,4.66,0,0,0-.77-.24l-.88-.21c-.3-.07-.6-.15-.88-.24a3.47,3.47,0,0,1-.78-.34,1.89,1.89,0,0,1-.55-.5,1.23,1.23,0,0,1-.21-.73,1.78,1.78,0,0,1,.15-.74,1.72,1.72,0,0,1,.48-.6,2.39,2.39,0,0,1,.78-.4,4,4,0,0,1,1.09-.16h.28l.45,0c.18,0,.36,0,.56.08a3.08,3.08,0,0,1,.57.17,2.12,2.12,0,0,1,.49.27,1.12,1.12,0,0,1,.34.41.22.22,0,0,1,0,.22.27.27,0,0,1-.25.08.79.79,0,0,1-.34-.09l-.46-.2a4.93,4.93,0,0,0-.66-.19,4,4,0,0,0-.92-.09,2.86,2.86,0,0,0-.77.09,1.94,1.94,0,0,0-.54.25.93.93,0,0,0-.32.34.82.82,0,0,0-.11.38" transform="translate(-213.42 -406.14)" style="fill:#fff"/><path d="M332.44,434.64a.14.14,0,0,1,0,.11.16.16,0,0,1-.08.06l-.12,0h-.15a.77.77,0,0,1-.27,0,.16.16,0,0,1-.12-.17v-6.58a.24.24,0,0,1,.11-.2.58.58,0,0,1,.28-.07.55.55,0,0,1,.28.06.23.23,0,0,1,.11.22Z" transform="translate(-213.42 -406.14)" style="fill:#fff"/><path d="M337.71,428.53h-1.83v5.59h1.9a3.56,3.56,0,0,0,.85-.08,1.84,1.84,0,0,0,.6-.26,1.24,1.24,0,0,0,.39-.4,2.3,2.3,0,0,0,.23-.53,4.22,4.22,0,0,0,.1-.65c0-.24,0-.48,0-.74v-.24c0-.26,0-.51,0-.74a4.22,4.22,0,0,0-.1-.65,2.3,2.3,0,0,0-.23-.53,1.27,1.27,0,0,0-.39-.41,1.84,1.84,0,0,0-.6-.25,3.52,3.52,0,0,0-.85-.09h-.06Zm-2.13,6.27a.71.71,0,0,1-.26,0,.38.38,0,0,1-.16-.06.17.17,0,0,1-.06-.14v-6.37a.3.3,0,0,1,.12-.24.59.59,0,0,1,.36-.1h2.15a5,5,0,0,1,1.18.13,2.37,2.37,0,0,1,.82.36,1.82,1.82,0,0,1,.53.54,3.17,3.17,0,0,1,.31.7,4.24,4.24,0,0,1,.13.83,8.77,8.77,0,0,1,0,.9v0a8.77,8.77,0,0,1,0,.9,4.14,4.14,0,0,1-.13.82,3,3,0,0,1-.31.7,1.82,1.82,0,0,1-.53.54,2.58,2.58,0,0,1-.82.36,5,5,0,0,1-1.18.13h-2.15Z" transform="translate(-213.42 -406.14)" style="fill:#fff"/><path d="M343.62,434.8a.66.66,0,0,1-.25,0,.43.43,0,0,1-.17-.06.17.17,0,0,1-.06-.14v-.08h0v-3.19h0v-3.08a.3.3,0,0,1,.12-.24.59.59,0,0,1,.36-.1h4.19a.22.22,0,0,1,.17.1.4.4,0,0,1,.07.24.37.37,0,0,1-.05.2.27.27,0,0,1-.12.09.42.42,0,0,1-.15,0h-3.82V431h3.18a.28.28,0,0,1,.17.1.37.37,0,0,1,.08.25.33.33,0,0,1,0,.15.44.44,0,0,1-.08.11l-.09.05-.1,0h-3.13v2.49h3.82l.15,0a.23.23,0,0,1,.12.1.33.33,0,0,1,.05.19.36.36,0,0,1-.07.24.2.2,0,0,1-.17.1h-4.19Z" transform="translate(-213.42 -406.14)" style="fill:#fff"/><path d="M355.94,434.64c0,.09,0,.15-.09.17a.61.61,0,0,1-.24,0l-.24,0a.26.26,0,0,1-.17-.1l-4.12-5.47v5.37a.16.16,0,0,1,0,.12l-.11.07a.58.58,0,0,1-.14,0h-.15a.52.52,0,0,1-.24,0,.17.17,0,0,1-.09-.17v-6.58a.24.24,0,0,1,.08-.2.39.39,0,0,1,.25-.07.69.69,0,0,1,.2,0,.4.4,0,0,1,.16.08h0l4.15,5.51v-5.26a.34.34,0,0,1,.12-.26.5.5,0,0,1,.32-.11.42.42,0,0,1,.25.06.27.27,0,0,1,.08.22Z" transform="translate(-213.42 -406.14)" style="fill:#fff"/><path d="M362.11,434.13a2.35,2.35,0,0,0,.46-.12l.33-.15.23-.16.16-.11a.27.27,0,0,1,.14,0,.31.31,0,0,1,.22.09.32.32,0,0,1,.1.22.58.58,0,0,1-.16.36,1.29,1.29,0,0,1-.44.32,2.56,2.56,0,0,1-.68.24,3.88,3.88,0,0,1-.87.09h-.23a4.5,4.5,0,0,1-1.17-.13,2.77,2.77,0,0,1-.83-.36,1.88,1.88,0,0,1-.53-.56,2.9,2.9,0,0,1-.31-.72,5.32,5.32,0,0,1-.14-.83c0-.3,0-.6,0-.92v0c0-.31,0-.62,0-.91a5.26,5.26,0,0,1,.14-.84,2.9,2.9,0,0,1,.31-.72,2,2,0,0,1,.53-.56,2.54,2.54,0,0,1,.83-.36,4.5,4.5,0,0,1,1.17-.13h.23a3.88,3.88,0,0,1,.87.09,2.56,2.56,0,0,1,.68.24,1.61,1.61,0,0,1,.44.32.58.58,0,0,1,.16.36.32.32,0,0,1-.1.22.31.31,0,0,1-.22.09.27.27,0,0,1-.14-.05l-.16-.12-.23-.15-.33-.15a2.35,2.35,0,0,0-.46-.12,3.61,3.61,0,0,0-.62,0h-.16a3.42,3.42,0,0,0-.85.1,1.66,1.66,0,0,0-.6.27,1.38,1.38,0,0,0-.39.41,2,2,0,0,0-.23.56,4.22,4.22,0,0,0-.1.65c0,.24,0,.49,0,.75v.23c0,.26,0,.51,0,.75a4.17,4.17,0,0,0,.1.66,2.06,2.06,0,0,0,.23.55,1.38,1.38,0,0,0,.39.41,1.66,1.66,0,0,0,.6.27,3.46,3.46,0,0,0,.85.09h.16a3.72,3.72,0,0,0,.62,0" transform="translate(-213.42 -406.14)" style="fill:#fff"/><path d="M366.63,434.64a.18.18,0,0,1,0,.11.24.24,0,0,1-.09.06l-.12,0h-.15a.77.77,0,0,1-.27,0,.16.16,0,0,1-.12-.17v-6.58a.24.24,0,0,1,.11-.2.61.61,0,0,1,.28-.07.55.55,0,0,1,.28.06.23.23,0,0,1,.11.22Z" transform="translate(-213.42 -406.14)" style="fill:#fff"/><path d="M370.09,432.63h3.39l-1.4-3.89a.66.66,0,0,0-.11-.21.16.16,0,0,0-.13-.07h-.1a.15.15,0,0,0-.13.07.66.66,0,0,0-.11.21Zm3.61.62h-3.83l-.45,1.24a.51.51,0,0,1-.1.21.33.33,0,0,1-.13.11.32.32,0,0,1-.14,0h-.16a.32.32,0,0,1-.14,0,.23.23,0,0,1-.11-.08.38.38,0,0,1,0-.16.65.65,0,0,1,.05-.25l2.13-5.84a1.42,1.42,0,0,1,.18-.35.67.67,0,0,1,.2-.21.51.51,0,0,1,.24-.1,1.27,1.27,0,0,1,.28,0h.2a1.27,1.27,0,0,1,.28,0,.62.62,0,0,1,.24.1.81.81,0,0,1,.2.21,1.43,1.43,0,0,1,.17.35l2.14,5.84a.92.92,0,0,1,.05.25.38.38,0,0,1,0,.16.25.25,0,0,1-.1.08.35.35,0,0,1-.14,0h-.16l-.15,0a.4.4,0,0,1-.12-.11.68.68,0,0,1-.11-.21Z" transform="translate(-213.42 -406.14)" style="fill:#fff"/><path d="M377.38,434.8a.71.71,0,0,1-.26,0,.38.38,0,0,1-.16-.06.17.17,0,0,1-.06-.14v-6.51a.21.21,0,0,1,.1-.19.58.58,0,0,1,.28-.07h.16l.12,0a.12.12,0,0,1,.08.06.19.19,0,0,1,0,.12v6.13h3.59l.16,0a.23.23,0,0,1,.12.1.34.34,0,0,1,0,.19.53.53,0,0,1,0,.13.24.24,0,0,1-.06.11.31.31,0,0,1-.11.08.43.43,0,0,1-.17,0Z" transform="translate(-213.42 -406.14)" style="fill:#fff"/><rect x="21.23" y="6.37" width="5.39" height="1.07" style="fill:#fff"/><rect x="21.23" y="8.83" width="5.39" height="1.07" style="fill:#fff"/><rect x="21.23" y="11.28" width="5.39" height="1.07" style="fill:#fff"/><rect x="21.23" y="13.74" width="5.39" height="1.07" style="fill:#fff"/><rect x="21.23" y="16.2" width="5.39" height="1.07" style="fill:#fff"/><rect x="21.23" y="18.65" width="5.39" height="1.07" style="fill:#fff"/><rect x="21.23" y="21.11" width="5.39" height="1.07" style="fill:#fff"/><path d="M222.88,433.69H242.1V409.92H222.88Zm20.4,1.17H221.71V408.75h21.57Z" transform="translate(-213.42 -406.14)" style="fill:#fff"/><path d="M214.59,433.69h7.12v-.89h-7.12Zm8.29,1.17h-9.46v-3.23h9.46Z" transform="translate(-213.42 -406.14)" style="fill:#fff"/><path d="M243.44,433.69h7.12v-.89h-7.12Zm8.29,1.17h-9.46v-3.23h9.46Z" transform="translate(-213.42 -406.14)" style="fill:#fff"/><path d="M222.88,408.75H242.1v-1.44H222.88Zm20.4,1.17H221.71v-3.78h21.57Z" transform="translate(-213.42 -406.14)" style="fill:#fff"/></svg>