<svg id="Capa_1" data-name="Capa 1" xmlns="http://www.w3.org/2000/svg" viewBox="0 0 228.71 124.3"><path d="M583.56,322.8a2,2,0,0,1,.28-.53.8.8,0,0,1,.32-.27.93.93,0,0,1,.37-.1H585a1.09,1.09,0,0,1,.36.06.62.62,0,0,1,.26.22.8.8,0,0,1,.09.41,2.14,2.14,0,0,1-.12.63L580,338.3a3.77,3.77,0,0,1-.44.9,2.13,2.13,0,0,1-.54.54,1.78,1.78,0,0,1-.62.26,4,4,0,0,1-.71.07h-.64a4,4,0,0,1-.72-.07,1.78,1.78,0,0,1-.62-.26,2.1,2.1,0,0,1-.53-.54,4.18,4.18,0,0,1-.45-.9l-5.5-15.09a1.91,1.91,0,0,1-.13-.63.71.71,0,0,1,.1-.41.56.56,0,0,1,.26-.22,1,1,0,0,1,.36-.06h.42a1,1,0,0,1,.38.1.87.87,0,0,1,.32.27,2,2,0,0,1,.27.53l5.35,14.86a1.94,1.94,0,0,0,.28.53.46.46,0,0,0,.33.18h.39a.48.48,0,0,0,.34-.18,2,2,0,0,0,.27-.53Z" transform="translate(-569.14 -321.85)" style="fill:#fff"/><path d="M589.87,339.51a.47.47,0,0,1-.08.28.58.58,0,0,1-.23.17.94.94,0,0,1-.31.08,2.59,2.59,0,0,1-1.07-.09.43.43,0,0,1-.31-.44v-17a.57.57,0,0,1,.29-.51,1.32,1.32,0,0,1,.73-.18,1.63,1.63,0,0,1,.71.14.59.59,0,0,1,.27.58Z" transform="translate(-569.14 -321.85)" style="fill:#fff"/><path d="M606.44,322.8a2,2,0,0,1,.28-.53A.8.8,0,0,1,607,322a.93.93,0,0,1,.37-.1h.43a1,1,0,0,1,.36.06.56.56,0,0,1,.26.22.8.8,0,0,1,.1.41,2.2,2.2,0,0,1-.13.63l-5.51,15.09a3.77,3.77,0,0,1-.44.9,2.27,2.27,0,0,1-.53.54,1.86,1.86,0,0,1-.62.26,4.18,4.18,0,0,1-.72.07H600a4,4,0,0,1-.72-.07,1.78,1.78,0,0,1-.62-.26,2.1,2.1,0,0,1-.53-.54,4.18,4.18,0,0,1-.45-.9l-5.5-15.09a1.91,1.91,0,0,1-.13-.63.71.71,0,0,1,.1-.41.56.56,0,0,1,.26-.22,1,1,0,0,1,.36-.06h.43a1,1,0,0,1,.37.1.87.87,0,0,1,.32.27,1.73,1.73,0,0,1,.27.53l5.35,14.86a2.27,2.27,0,0,0,.28.53.46.46,0,0,0,.34.18h.38a.46.46,0,0,0,.34-.18,2,2,0,0,0,.27-.53Z" transform="translate(-569.14 -321.85)" style="fill:#fff"/><path d="M612,339.92a1.85,1.85,0,0,1-.65-.1,1.1,1.1,0,0,1-.43-.16.39.39,0,0,1-.17-.37V322.86a.74.74,0,0,1,.32-.61A1.52,1.52,0,0,1,612,322h10.8a.56.56,0,0,1,.44.26,1,1,0,0,1,.18.62.84.84,0,0,1-.13.51.7.7,0,0,1-.3.24,1,1,0,0,1-.41.09l-.4,0h-9.44V330h8.19a.63.63,0,0,1,.46.25,1.09,1.09,0,0,1,.12,1,.88.88,0,0,1-.19.26.73.73,0,0,1-.25.15.77.77,0,0,1-.25,0h-8.08v6.43h9.84a1.36,1.36,0,0,1,.41.09.65.65,0,0,1,.3.25.79.79,0,0,1,.13.5,1.07,1.07,0,0,1-.18.63.59.59,0,0,1-.44.26H612Z" transform="translate(-569.14 -321.85)" style="fill:#fff"/><path d="M632.68,339.92a1.81,1.81,0,0,1-.65-.1,1,1,0,0,1-.43-.16.41.41,0,0,1-.16-.37V322.52a.54.54,0,0,1,.27-.5,1.43,1.43,0,0,1,.73-.17h.4a1,1,0,0,1,.32,0,.28.28,0,0,1,.2.15.53.53,0,0,1,.07.31v15.82h9.27a1.3,1.3,0,0,1,.4.09.63.63,0,0,1,.31.25.86.86,0,0,1,.12.5,1.19,1.19,0,0,1,0,.33.65.65,0,0,1-.14.29.88.88,0,0,1-.29.2,1.17,1.17,0,0,1-.45.08Z" transform="translate(-569.14 -321.85)" style="fill:#fff"/><path d="M651.88,321.85a12.21,12.21,0,0,1,3,.33,6.73,6.73,0,0,1,2.13.94,5,5,0,0,1,1.37,1.45,6.8,6.8,0,0,1,.79,1.85,11.09,11.09,0,0,1,.36,2.15c.06.76.08,1.54.08,2.35V331c0,.81,0,1.6-.08,2.36a11.22,11.22,0,0,1-.36,2.15,6.8,6.8,0,0,1-.79,1.85,4.81,4.81,0,0,1-1.37,1.44,6.52,6.52,0,0,1-2.13.94,11.72,11.72,0,0,1-3,.34h-.07a11.61,11.61,0,0,1-3-.34,6.33,6.33,0,0,1-2.13-.94,4.72,4.72,0,0,1-1.38-1.44,7.48,7.48,0,0,1-.79-1.85,11.23,11.23,0,0,1-.35-2.15c-.06-.76-.09-1.55-.09-2.36v-.09c0-.81,0-1.59.09-2.35a11.1,11.1,0,0,1,.35-2.15,7.48,7.48,0,0,1,.79-1.85,4.87,4.87,0,0,1,1.38-1.45,6.54,6.54,0,0,1,2.13-.94,12.09,12.09,0,0,1,3-.33Zm-.18,1.77a8.89,8.89,0,0,0-2.21.24,4.56,4.56,0,0,0-1.54.69,3.57,3.57,0,0,0-1,1.08,5,5,0,0,0-.57,1.41,9.6,9.6,0,0,0-.27,1.7c0,.61-.06,1.25-.06,1.93v.6c0,.67,0,1.32.06,1.93a9.75,9.75,0,0,0,.27,1.7,5.21,5.21,0,0,0,.57,1.41,3.57,3.57,0,0,0,1,1.08,4.56,4.56,0,0,0,1.54.69,8.89,8.89,0,0,0,2.21.24h.3a8.75,8.75,0,0,0,2.2-.24,4.65,4.65,0,0,0,1.54-.69,3.54,3.54,0,0,0,1-1.08,4.92,4.92,0,0,0,.58-1.41,9.77,9.77,0,0,0,.26-1.7c0-.61.07-1.26.07-1.93v-.6c0-.68,0-1.32-.07-1.93a9.62,9.62,0,0,0-.26-1.7,4.7,4.7,0,0,0-.58-1.41,3.54,3.54,0,0,0-1-1.08,4.65,4.65,0,0,0-1.54-.69,8.75,8.75,0,0,0-2.2-.24Z" transform="translate(-569.14 -321.85)" style="fill:#fff"/><path d="M663.67,326.38a2.12,2.12,0,0,0,.34,1.2,3,3,0,0,0,.93.87,6.13,6.13,0,0,0,1.36.64c.52.17,1.07.33,1.66.48s1.19.3,1.81.44,1.23.3,1.82.47a16,16,0,0,1,1.69.61,6.47,6.47,0,0,1,1.41.83,4,4,0,0,1,1,1.15,3.55,3.55,0,0,1,.42,1.58,5,5,0,0,1-.05,1,4.51,4.51,0,0,1-1.13,2.35,4.94,4.94,0,0,1-1.35,1.05,8.83,8.83,0,0,1-2.05.75,12.8,12.8,0,0,1-2.89.28,15.11,15.11,0,0,1-2.76-.23,12.6,12.6,0,0,1-2.25-.59,5.86,5.86,0,0,1-1.55-.81,1.5,1.5,0,0,1-.66-.86.75.75,0,0,1,0-.43.56.56,0,0,1,.19-.28.7.7,0,0,1,.29-.13,1.1,1.1,0,0,1,.31,0,2.1,2.1,0,0,1,.84.29c.33.17.73.37,1.22.58a11.56,11.56,0,0,0,1.75.58,10.29,10.29,0,0,0,2.46.25,11.11,11.11,0,0,0,2.16-.2,6.19,6.19,0,0,0,1.51-.51,3.5,3.5,0,0,0,1-.71,3.38,3.38,0,0,0,.57-.8,2.86,2.86,0,0,0,.26-.78,4.22,4.22,0,0,0,.06-.64,1.71,1.71,0,0,0-.53-1.3,4.44,4.44,0,0,0-1.4-.89,12.51,12.51,0,0,0-2-.62l-2.27-.54c-.78-.18-1.54-.39-2.28-.62a9.14,9.14,0,0,1-2-.87,4.62,4.62,0,0,1-1.41-1.29,3.23,3.23,0,0,1-.55-1.87,4.46,4.46,0,0,1,.39-1.94,4.28,4.28,0,0,1,1.23-1.53,5.91,5.91,0,0,1,2-1,9.86,9.86,0,0,1,2.81-.4h.71c.33,0,.73,0,1.17.07a13.91,13.91,0,0,1,1.44.21,8.76,8.76,0,0,1,1.46.42,5.47,5.47,0,0,1,1.28.71,2.66,2.66,0,0,1,.87,1.05.52.52,0,0,1-.07.58.77.77,0,0,1-.66.22,2.24,2.24,0,0,1-.87-.25c-.32-.15-.72-.32-1.19-.5a12.37,12.37,0,0,0-1.69-.51,10.64,10.64,0,0,0-2.36-.23,7,7,0,0,0-2,.25,4.55,4.55,0,0,0-1.4.63,2.72,2.72,0,0,0-.82.88A2,2,0,0,0,663.67,326.38Z" transform="translate(-569.14 -321.85)" style="fill:#fff"/><path d="M694.16,340a2.8,2.8,0,0,1-.69-.2,2.22,2.22,0,0,1-.67-.44,1.6,1.6,0,0,1-.45-.77L688,324a.48.48,0,0,0-.29-.34,1.27,1.27,0,0,0-.37-.07l-.14,0a.41.41,0,0,0-.18.05.31.31,0,0,0-.16.12.37.37,0,0,0-.09.21l-1.39,15.37a.66.66,0,0,1-.19.37,1.08,1.08,0,0,1-.35.22,1.8,1.8,0,0,1-.4.1h-.37a.68.68,0,0,1-.59-.21,1,1,0,0,1-.08-.71l1.42-15.66a1.71,1.71,0,0,1,.37-.94,1.84,1.84,0,0,1,.68-.48,2.56,2.56,0,0,1,.75-.18l.59,0h.19a4.6,4.6,0,0,1,.69.06,3,3,0,0,1,.76.23,2.23,2.23,0,0,1,.66.49,1.66,1.66,0,0,1,.41.84l4.35,14.6c.05.13.11.21.2.23a.52.52,0,0,0,.4,0c.09,0,.15-.1.2-.23l4.35-14.6a1.66,1.66,0,0,1,.41-.84,2.23,2.23,0,0,1,.66-.49,3,3,0,0,1,.76-.23,4.6,4.6,0,0,1,.69-.06h.19l.59,0a2.56,2.56,0,0,1,.75.18,1.84,1.84,0,0,1,.68.48,1.71,1.71,0,0,1,.37.94l1.42,15.66a1,1,0,0,1-.08.71.69.69,0,0,1-.59.21h-.37a1.8,1.8,0,0,1-.4-.1,1.08,1.08,0,0,1-.35-.22.66.66,0,0,1-.19-.37L702.57,324a.37.37,0,0,0-.09-.21.33.33,0,0,0-.15-.12.37.37,0,0,0-.17-.05l-.14,0a1.46,1.46,0,0,0-.39.07.51.51,0,0,0-.29.34L697,338.62a1.58,1.58,0,0,1-.44.77,2,2,0,0,1-.65.43,2.61,2.61,0,0,1-.68.2,3,3,0,0,1-.52.05h0A3.87,3.87,0,0,1,694.16,340Z" transform="translate(-569.14 -321.85)" style="fill:#fff"/><path d="M710.27,339.92a1.85,1.85,0,0,1-.65-.1,1,1,0,0,1-.43-.16.39.39,0,0,1-.17-.37V322.86a.74.74,0,0,1,.32-.61,1.52,1.52,0,0,1,.93-.25h10.8a.56.56,0,0,1,.44.26,1,1,0,0,1,.18.62.84.84,0,0,1-.13.51.7.7,0,0,1-.3.24,1,1,0,0,1-.41.09l-.41,0H711V330h8.19a.63.63,0,0,1,.46.25,1.09,1.09,0,0,1,.12,1,.88.88,0,0,1-.19.26.73.73,0,0,1-.25.15.81.81,0,0,1-.25,0H711v6.43h9.84a1.36,1.36,0,0,1,.41.09.65.65,0,0,1,.3.25.79.79,0,0,1,.13.5,1.07,1.07,0,0,1-.18.63.59.59,0,0,1-.44.26h-10.8Z" transform="translate(-569.14 -321.85)" style="fill:#fff"/><path d="M723.78,340.07a1.28,1.28,0,0,1-.26,0,.74.74,0,0,1-.29-.12.8.8,0,0,1-.21-.26,1,1,0,0,1-.09-.46.88.88,0,0,1,.24-.7,1,1,0,0,1,.61-.2H724a8.18,8.18,0,0,0,2.15-.24,4.07,4.07,0,0,0,1.43-.7,3,3,0,0,0,.86-1.07,5.41,5.41,0,0,0,.43-1.41,12.71,12.71,0,0,0,.14-1.7c0-.61,0-1.25,0-1.93v-8.57a.7.7,0,0,1,.34-.64,1.56,1.56,0,0,1,.78-.2,1,1,0,0,1,.68.18.66.66,0,0,1,.2.51V331c0,.81,0,1.59,0,2.35a13,13,0,0,1-.24,2.14,7.22,7.22,0,0,1-.64,1.85,4.23,4.23,0,0,1-1.23,1.44,5.85,5.85,0,0,1-2,.93,11.52,11.52,0,0,1-3,.33Z" transform="translate(-569.14 -321.85)" style="fill:#fff"/><path d="M741.74,321.85a12.09,12.09,0,0,1,3,.33,6.54,6.54,0,0,1,2.13.94,4.87,4.87,0,0,1,1.38,1.45,7.48,7.48,0,0,1,.79,1.85,11.1,11.1,0,0,1,.35,2.15c.06.76.09,1.54.09,2.35V331c0,.81,0,1.6-.09,2.36a11.23,11.23,0,0,1-.35,2.15,7.48,7.48,0,0,1-.79,1.85,4.72,4.72,0,0,1-1.38,1.44,6.33,6.33,0,0,1-2.13.94,11.61,11.61,0,0,1-3,.34h-.06a11.74,11.74,0,0,1-3-.34,6.52,6.52,0,0,1-2.13-.94,4.81,4.81,0,0,1-1.37-1.44,6.8,6.8,0,0,1-.79-1.85,12.06,12.06,0,0,1-.36-2.15c-.06-.76-.08-1.55-.08-2.36v-.09c0-.81,0-1.59.08-2.35a11.91,11.91,0,0,1,.36-2.15,6.8,6.8,0,0,1,.79-1.85,5,5,0,0,1,1.37-1.45,6.73,6.73,0,0,1,2.13-.94,12.24,12.24,0,0,1,3-.33Zm-.18,1.77a8.81,8.81,0,0,0-2.2.24,4.61,4.61,0,0,0-1.55.69,3.54,3.54,0,0,0-1,1.08,4.7,4.7,0,0,0-.58,1.41,9.62,9.62,0,0,0-.26,1.7c-.05.61-.07,1.25-.07,1.93v.6c0,.67,0,1.32.07,1.93a9.77,9.77,0,0,0,.26,1.7,4.92,4.92,0,0,0,.58,1.41,3.54,3.54,0,0,0,1,1.08,4.61,4.61,0,0,0,1.55.69,8.81,8.81,0,0,0,2.2.24h.31a8.72,8.72,0,0,0,2.19-.24,4.56,4.56,0,0,0,1.54-.69,3.57,3.57,0,0,0,1-1.08,5.21,5.21,0,0,0,.57-1.41,9.75,9.75,0,0,0,.27-1.7c0-.61.06-1.26.06-1.93v-.6c0-.68,0-1.32-.06-1.93a9.6,9.6,0,0,0-.27-1.7,5,5,0,0,0-.57-1.41,3.57,3.57,0,0,0-1-1.08,4.56,4.56,0,0,0-1.54-.69,8.72,8.72,0,0,0-2.19-.24Z" transform="translate(-569.14 -321.85)" style="fill:#fff"/><path d="M758.24,323.76h-3.69v15.75a.47.47,0,0,1-.08.28.58.58,0,0,1-.23.17,1,1,0,0,1-.32.08,2.23,2.23,0,0,1-.37,0,2.15,2.15,0,0,1-.7-.1.43.43,0,0,1-.3-.45V322.85a.76.76,0,0,1,.32-.6,1.5,1.5,0,0,1,.92-.25h4.45a15.26,15.26,0,0,1,3.09.24,7.33,7.33,0,0,1,2.52.93,4.83,4.83,0,0,1,1.68,1.71,5.13,5.13,0,0,1,.61,2.6v.14a5.59,5.59,0,0,1-.26,1.8,4.19,4.19,0,0,1-.75,1.4,4.69,4.69,0,0,1-1.17,1,6.76,6.76,0,0,1-1.54.7l3.75,6.66c.1.18.13.32.07.43a.57.57,0,0,1-.29.26,1.3,1.3,0,0,1-.47.13l-.46,0a1.39,1.39,0,0,1-.53-.1.8.8,0,0,1-.41-.36L760.4,333c-.33,0-.65.07-1,.08l-1,0H756a.6.6,0,0,1-.51-.24,1.08,1.08,0,0,1-.17-.64,1,1,0,0,1,.18-.65.61.61,0,0,1,.51-.22h2.39a13.41,13.41,0,0,0,2.41-.2,5.44,5.44,0,0,0,1.8-.64,3,3,0,0,0,1.13-1.12,3.2,3.2,0,0,0,.4-1.67v-.34a3.58,3.58,0,0,0-.32-1.53,2.76,2.76,0,0,0-1-1.14,5.13,5.13,0,0,0-1.78-.71,12.55,12.55,0,0,0-2.65-.24h-.17Z" transform="translate(-569.14 -321.85)" style="fill:#fff"/><path d="M770.19,339.92a1.81,1.81,0,0,1-.65-.1,1,1,0,0,1-.43-.16.4.4,0,0,1-.18-.37V322.86a.76.76,0,0,1,.32-.61,1.57,1.57,0,0,1,.94-.25H781a.53.53,0,0,1,.43.26,1,1,0,0,1,.18.62.92.92,0,0,1-.12.51.67.67,0,0,1-.31.24.87.87,0,0,1-.4.09l-.41,0h-9.43V330h8.19a.61.61,0,0,1,.45.25.89.89,0,0,1,.2.64,1,1,0,0,1-.07.4.75.75,0,0,1-.2.26.69.69,0,0,1-.24.15.81.81,0,0,1-.25,0h-8.08v6.43h9.84a1.24,1.24,0,0,1,.4.09.63.63,0,0,1,.31.25.86.86,0,0,1,.12.5,1.07,1.07,0,0,1-.18.63.56.56,0,0,1-.43.26h-10.8Z" transform="translate(-569.14 -321.85)" style="fill:#fff"/><path d="M785.42,326.38a2,2,0,0,0,.34,1.2,2.85,2.85,0,0,0,.92.87,6.35,6.35,0,0,0,1.36.64c.52.17,1.08.33,1.66.48l1.82.44c.61.14,1.22.3,1.81.47a15.21,15.21,0,0,1,1.69.61,6.31,6.31,0,0,1,1.42.83,4,4,0,0,1,1,1.15,3.55,3.55,0,0,1,.42,1.58,5,5,0,0,1-.05,1,4.17,4.17,0,0,1-.34,1.17,4.64,4.64,0,0,1-.78,1.18,5.1,5.1,0,0,1-1.35,1.05,8.92,8.92,0,0,1-2.06.75,12.8,12.8,0,0,1-2.89.28,15.11,15.11,0,0,1-2.76-.23,12.6,12.6,0,0,1-2.25-.59,6,6,0,0,1-1.55-.81,1.5,1.5,0,0,1-.66-.86,1,1,0,0,1,0-.43.56.56,0,0,1,.19-.28.7.7,0,0,1,.29-.13,1.13,1.13,0,0,1,.31,0,2.19,2.19,0,0,1,.85.29c.32.17.73.37,1.21.58a11.56,11.56,0,0,0,1.75.58,10.41,10.41,0,0,0,2.46.25,11,11,0,0,0,2.16-.2,6,6,0,0,0,1.51-.51,3.5,3.5,0,0,0,1-.71,3.12,3.12,0,0,0,.57-.8,2.86,2.86,0,0,0,.26-.78,4.41,4.41,0,0,0,.07-.64,1.75,1.75,0,0,0-.53-1.3,4.61,4.61,0,0,0-1.41-.89,12.51,12.51,0,0,0-2-.62l-2.27-.54c-.77-.18-1.53-.39-2.28-.62a9.14,9.14,0,0,1-2-.87,4.62,4.62,0,0,1-1.41-1.29,3.23,3.23,0,0,1-.55-1.87,4.33,4.33,0,0,1,.4-1.94,4.25,4.25,0,0,1,1.22-1.53,6,6,0,0,1,2-1,9.79,9.79,0,0,1,2.8-.4h.71c.34,0,.73,0,1.18.07a13.74,13.74,0,0,1,1.43.21,8.88,8.88,0,0,1,1.47.42,5.91,5.91,0,0,1,1.28.71,2.84,2.84,0,0,1,.87,1.05.56.56,0,0,1-.07.58.79.79,0,0,1-.66.22,2.15,2.15,0,0,1-.87-.25c-.33-.15-.72-.32-1.19-.5a12.82,12.82,0,0,0-1.69-.51,10.8,10.8,0,0,0-2.37-.23,7,7,0,0,0-2,.25,4.66,4.66,0,0,0-1.4.63,2.68,2.68,0,0,0-.81.88A2,2,0,0,0,785.42,326.38Z" transform="translate(-569.14 -321.85)" style="fill:#fff"/><path d="M572.74,369h-.2c-.24,0-.48,0-.69,0a2,2,0,0,1-.58-.13.83.83,0,0,1-.4-.28.78.78,0,0,1-.14-.48V352.57a.92.92,0,0,1,0-.19,2.27,2.27,0,0,1,.13-.43,1.34,1.34,0,0,1,.31-.42,1.61,1.61,0,0,1,.54-.34,2.17,2.17,0,0,1,.82-.13H582l.58,0h.26a.76.76,0,0,1,.41.15,1.2,1.2,0,0,1,.32.35,1.72,1.72,0,0,1,.19.48,2,2,0,0,1,.08.53,1.87,1.87,0,0,1-.22,1,1.17,1.17,0,0,1-.53.46,2,2,0,0,1-.75.14h-8v4h6.57a.91.91,0,0,1,.43.14,1.21,1.21,0,0,1,.35.33,1.23,1.23,0,0,1,.24.47,1.79,1.79,0,0,1,.08.57,2.57,2.57,0,0,1-.09.72,1.73,1.73,0,0,1-.25.49,1,1,0,0,1-.36.29,1.06,1.06,0,0,1-.42.09h-6.55v4.53h8a2,2,0,0,1,.75.14,1.13,1.13,0,0,1,.53.47,1.81,1.81,0,0,1,.22,1,2,2,0,0,1-.08.54,1.72,1.72,0,0,1-.19.48,1.16,1.16,0,0,1-.32.34.76.76,0,0,1-.41.15l-.21,0h-9.86Z" transform="translate(-569.14 -321.85)" style="fill:#fff"/><path d="M596.87,368.21a.71.71,0,0,1-.16.49,1,1,0,0,1-.41.28,1.92,1.92,0,0,1-.57.12l-.65,0c-.25,0-.48,0-.7,0a2.18,2.18,0,0,1-.57-.13,1,1,0,0,1-.4-.28.76.76,0,0,1-.15-.48V352a.94.94,0,0,1,.14-.5,1.2,1.2,0,0,1,.39-.35,2.27,2.27,0,0,1,.59-.21,3.86,3.86,0,0,1,.7-.07,5.12,5.12,0,0,1,.7.05,2,2,0,0,1,.57.17,1,1,0,0,1,.38.35,1,1,0,0,1,.14.56Z" transform="translate(-569.14 -321.85)" style="fill:#fff"/><path d="M616,368.21a1,1,0,0,1-.1.49.65.65,0,0,1-.29.28,1.14,1.14,0,0,1-.45.12,5.41,5.41,0,0,1-.59,0l-.58,0a3.39,3.39,0,0,1-.57-.09,3.25,3.25,0,0,1-.5-.18,1.11,1.11,0,0,1-.36-.26,0,0,0,0,1,0,0h0l-8.41-11V368.1a.66.66,0,0,1-.21.51,1.42,1.42,0,0,1-.54.31,3.08,3.08,0,0,1-.71.16,5.59,5.59,0,0,1-1.33,0,1.47,1.47,0,0,1-.46-.13.66.66,0,0,1-.27-.28,1.14,1.14,0,0,1-.09-.48V352a1,1,0,0,1,.35-.85,1.81,1.81,0,0,1,1.11-.28,4.63,4.63,0,0,1,1,.13,1.74,1.74,0,0,1,.83.44l0,0,8.49,11.1v-9.95a1.35,1.35,0,0,1,.18-.67,1.92,1.92,0,0,1,.48-.55,2.53,2.53,0,0,1,.69-.37,2.31,2.31,0,0,1,.83-.15,2.17,2.17,0,0,1,1.09.22,1,1,0,0,1,.34.91Z" transform="translate(-569.14 -321.85)" style="fill:#fff"/><path d="M627.24,369.15a13,13,0,0,1-3.14-.33,6.89,6.89,0,0,1-2.19-.93,4.8,4.8,0,0,1-1.42-1.42,6.42,6.42,0,0,1-.81-1.85,11.06,11.06,0,0,1-.37-2.16c0-.77-.08-1.56-.08-2.39V360c0-.82,0-1.61.08-2.39a11.29,11.29,0,0,1,.37-2.17,6.48,6.48,0,0,1,.81-1.84,5,5,0,0,1,1.42-1.43,7.12,7.12,0,0,1,2.19-.92,12.94,12.94,0,0,1,3.14-.34h.1a12.94,12.94,0,0,1,3.14.34,7.12,7.12,0,0,1,2.19.92,5,5,0,0,1,1.42,1.43,6.8,6.8,0,0,1,.82,1.84,12.13,12.13,0,0,1,.36,2.17c.06.78.08,1.57.08,2.39v.08c0,.82,0,1.61-.08,2.38a11.84,11.84,0,0,1-.36,2.17,6.73,6.73,0,0,1-.82,1.85,4.8,4.8,0,0,1-1.42,1.42,6.89,6.89,0,0,1-2.19.93,13,13,0,0,1-3.14.33Zm0-15.1a6.82,6.82,0,0,0-2.28.32,2.64,2.64,0,0,0-1.33,1,4.15,4.15,0,0,0-.61,1.74,18.35,18.35,0,0,0-.15,2.54v.8A18.45,18.45,0,0,0,623,363a4.15,4.15,0,0,0,.61,1.74,2.7,2.7,0,0,0,1.33,1,6.82,6.82,0,0,0,2.28.32h.16a6.78,6.78,0,0,0,2.28-.32,2.7,2.7,0,0,0,1.33-1,4.15,4.15,0,0,0,.61-1.74,18.45,18.45,0,0,0,.15-2.54v-.8a18.35,18.35,0,0,0-.15-2.54,4.15,4.15,0,0,0-.61-1.74,2.64,2.64,0,0,0-1.33-1,6.78,6.78,0,0,0-2.28-.32Z" transform="translate(-569.14 -321.85)" style="fill:#fff"/><path d="M640.41,369c-.25,0-.48,0-.7,0a2,2,0,0,1-.58-.13.85.85,0,0,1-.39-.28.73.73,0,0,1-.15-.48V352a.94.94,0,0,1,.14-.5,1.2,1.2,0,0,1,.39-.35,2.33,2.33,0,0,1,.58-.21,4.07,4.07,0,0,1,.71-.07h.7a1.63,1.63,0,0,1,.56.06.69.69,0,0,1,.39.23.8.8,0,0,1,.14.51v14.15h7.34a1.91,1.91,0,0,1,.74.14,1.11,1.11,0,0,1,.54.47,1.81,1.81,0,0,1,.21,1,2.62,2.62,0,0,1-.06.57,1.51,1.51,0,0,1-.22.48,1.13,1.13,0,0,1-.4.35,1.21,1.21,0,0,1-.6.13Z" transform="translate(-569.14 -321.85)" style="fill:#fff"/><path d="M662.61,352.67a5,5,0,0,1,.46-1,1.87,1.87,0,0,1,.55-.54,1.66,1.66,0,0,1,.66-.22c.25,0,.53,0,.84,0a1.86,1.86,0,0,1,.67.13,1.08,1.08,0,0,1,.48.42,1.59,1.59,0,0,1,.18.75,3.37,3.37,0,0,1-.23,1.16l-4.71,13.44a4.35,4.35,0,0,1-.7,1.37,2.71,2.71,0,0,1-.84.68,2.46,2.46,0,0,1-.92.24c-.31,0-.63,0-.94,0h-.57c-.31,0-.63,0-.94,0a2.51,2.51,0,0,1-.92-.24,2.71,2.71,0,0,1-.84-.68,4.57,4.57,0,0,1-.7-1.37l-4.71-13.44a3.37,3.37,0,0,1-.23-1.16,1.48,1.48,0,0,1,.19-.75,1,1,0,0,1,.48-.42,1.76,1.76,0,0,1,.66-.13c.32,0,.6,0,.84,0a1.77,1.77,0,0,1,.67.22,1.73,1.73,0,0,1,.54.54,5,5,0,0,1,.46,1l4.35,12.87a2,2,0,0,0,.12.31.17.17,0,0,0,.16.1H658a.17.17,0,0,0,.16-.1,2,2,0,0,0,.12-.31Z" transform="translate(-569.14 -321.85)" style="fill:#fff"/><path d="M672,368.21a.71.71,0,0,1-.16.49.94.94,0,0,1-.41.28,1.85,1.85,0,0,1-.57.12c-.22,0-.43,0-.65,0s-.48,0-.7,0A2.38,2.38,0,0,1,669,369a1,1,0,0,1-.4-.28.76.76,0,0,1-.14-.48V352a.86.86,0,0,1,.14-.5,1,1,0,0,1,.39-.35,2.19,2.19,0,0,1,.58-.21,3.86,3.86,0,0,1,.7-.07,5.12,5.12,0,0,1,.7.05,1.82,1.82,0,0,1,.57.17,1,1,0,0,1,.38.35,1,1,0,0,1,.14.56Z" transform="translate(-569.14 -321.85)" style="fill:#fff"/><path d="M677.47,369c-.25,0-.48,0-.7,0a1.84,1.84,0,0,1-.57-.13.83.83,0,0,1-.4-.28.73.73,0,0,1-.15-.48V352.52a.37.37,0,0,1,0-.14,2.27,2.27,0,0,1,.13-.43,1.2,1.2,0,0,1,.31-.42,1.67,1.67,0,0,1,.53-.34,2.23,2.23,0,0,1,.83-.13h5.32a13,13,0,0,1,3.14.32,6.87,6.87,0,0,1,2.19.9,4.63,4.63,0,0,1,1.42,1.4,6.42,6.42,0,0,1,.82,1.8,10.74,10.74,0,0,1,.36,2.14q.09,1.14.09,2.37v.08q0,1.23-.09,2.37a11,11,0,0,1-.36,2.13,6.23,6.23,0,0,1-.82,1.79,4.83,4.83,0,0,1-1.42,1.39,7.1,7.1,0,0,1-2.21.9,13,13,0,0,1-3.14.32h-5.3Zm5.25-14.79h-3.46v11.67h3.83a6.72,6.72,0,0,0,2.14-.33,2.52,2.52,0,0,0,1.24-.94,3.83,3.83,0,0,0,.59-1.66,19.08,19.08,0,0,0,.14-2.47v-.8a16.4,16.4,0,0,0-.16-2.52,3.76,3.76,0,0,0-.61-1.68,2.63,2.63,0,0,0-1.33-.94,7.43,7.43,0,0,0-2.28-.28h-.1Z" transform="translate(-569.14 -321.85)" style="fill:#fff"/><path d="M704.59,365.44h-8.18l-.63,1.87a3.78,3.78,0,0,1-.46,1,1.73,1.73,0,0,1-.54.54,1.66,1.66,0,0,1-.67.22,6.88,6.88,0,0,1-.83,0,1.81,1.81,0,0,1-.67-.12,1,1,0,0,1-.48-.41,1.52,1.52,0,0,1-.19-.76,3.42,3.42,0,0,1,.24-1.17l4.7-13.44a4.46,4.46,0,0,1,.71-1.37,2.5,2.5,0,0,1,.84-.68,2.46,2.46,0,0,1,.91-.24c.32,0,.63,0,.95,0h.43c.32,0,.64,0,.95,0a2.51,2.51,0,0,1,.92.24,2.57,2.57,0,0,1,.83.68,4.46,4.46,0,0,1,.71,1.37l4.71,13.44a3.38,3.38,0,0,1,.23,1.17,1.52,1.52,0,0,1-.19.76.92.92,0,0,1-.48.41,1.76,1.76,0,0,1-.66.12,7.24,7.24,0,0,1-.85,0,1.66,1.66,0,0,1-.67-.22,1.73,1.73,0,0,1-.54-.54,3.51,3.51,0,0,1-.45-1Zm-7.21-2.86h6.25l-2.75-8.14-.12-.3a.18.18,0,0,0-.16-.11h-.18a.16.16,0,0,0-.16.11,1.54,1.54,0,0,0-.12.3Z" transform="translate(-569.14 -321.85)" style="fill:#fff"/><path d="M717,351.06l.3,0h.37c.41,0,.86,0,1.37.08a9.2,9.2,0,0,1,1.52.28A8.93,8.93,0,0,1,722,352a5,5,0,0,1,1.29.94,4.61,4.61,0,0,1,.9,1.41,5.23,5.23,0,0,1,.34,1.95v.06a4.06,4.06,0,0,1-.19,1.31,3.09,3.09,0,0,1-.51,1,3.34,3.34,0,0,1-.78.72,5.24,5.24,0,0,1-1,.48,7.3,7.3,0,0,1,1.34.46,4,4,0,0,1,1.11.78,3.53,3.53,0,0,1,.76,1.17,4.47,4.47,0,0,1,.27,1.64v.05a5.91,5.91,0,0,1-.29,1.94,4.41,4.41,0,0,1-.79,1.38,3.89,3.89,0,0,1-1.15.91,7.49,7.49,0,0,1-1.38.55,9.39,9.39,0,0,1-1.48.27c-.51,0-1,.07-1.44.07s-.88,0-1.28,0l-1,0H712.6a4.89,4.89,0,0,1-1-.08.84.84,0,0,1-.5-.34,1.41,1.41,0,0,1-.19-.68c0-.28,0-.64,0-1.1V352.49a1.32,1.32,0,0,1,.09-.43,1.25,1.25,0,0,1,.29-.47,1.62,1.62,0,0,1,.57-.38,2.19,2.19,0,0,1,.87-.15Zm.23,7.45a6.1,6.1,0,0,0,2.7-.5,1.81,1.81,0,0,0,1-1.6v-.13a1.89,1.89,0,0,0-.26-1,1.85,1.85,0,0,0-.78-.64,4.32,4.32,0,0,0-1.3-.33,13.39,13.39,0,0,0-1.78-.1h-2.31v11.67h3c.89,0,1.62,0,2.2-.09a4.82,4.82,0,0,0,1.38-.28,1.29,1.29,0,0,0,.7-.58,2.1,2.1,0,0,0,.2-1,2.49,2.49,0,0,0-.2-1.05,1.58,1.58,0,0,0-.72-.7,4.23,4.23,0,0,0-1.38-.39,18.87,18.87,0,0,0-2.2-.11h-1.18a.9.9,0,0,1-.53-.15,1.28,1.28,0,0,1-.34-.39,1.43,1.43,0,0,1-.18-.5,3.37,3.37,0,0,1-.05-.52,3.2,3.2,0,0,1,0-.52,1.75,1.75,0,0,1,.14-.51,1.15,1.15,0,0,1,.31-.38.86.86,0,0,1,.53-.15Z" transform="translate(-569.14 -321.85)" style="fill:#fff"/><path d="M730.13,369c-.24,0-.48,0-.69,0a2,2,0,0,1-.58-.13.83.83,0,0,1-.4-.28.72.72,0,0,1-.14-.48V352a.86.86,0,0,1,.14-.5,1,1,0,0,1,.39-.35,2.19,2.19,0,0,1,.58-.21,4,4,0,0,1,.7-.07h.7a1.66,1.66,0,0,1,.57.06.7.7,0,0,1,.38.23.74.74,0,0,1,.14.51v14.15h7.34a2,2,0,0,1,.75.14,1.13,1.13,0,0,1,.53.47,1.81,1.81,0,0,1,.22,1,2.62,2.62,0,0,1-.07.57,1.17,1.17,0,0,1-.22.48,1.1,1.1,0,0,1-.39.35,1.28,1.28,0,0,1-.61.13Z" transform="translate(-569.14 -321.85)" style="fill:#fff"/><path d="M745.12,369h-.19c-.25,0-.48,0-.7,0a2,2,0,0,1-.58-.13.8.8,0,0,1-.39-.28.73.73,0,0,1-.15-.48V352.57a.92.92,0,0,1,0-.19,2.37,2.37,0,0,1,.14-.43,1.17,1.17,0,0,1,.3-.42,1.61,1.61,0,0,1,.54-.34,2.19,2.19,0,0,1,.83-.13h9.42l.58,0h.26a.82.82,0,0,1,.42.15,1.32,1.32,0,0,1,.31.35,2.1,2.1,0,0,1,.2.48,1.93,1.93,0,0,1,.07.53,1.88,1.88,0,0,1-.21,1,1.14,1.14,0,0,1-.54.46,2,2,0,0,1-.74.14h-8v4h6.58a.91.91,0,0,1,.42.14,1.24,1.24,0,0,1,.36.33,1.38,1.38,0,0,1,.23.47,1.79,1.79,0,0,1,.09.57,2.55,2.55,0,0,1-.1.72,1.5,1.5,0,0,1-.25.49,1,1,0,0,1-.36.29,1,1,0,0,1-.42.09h-6.55v4.53h8a2,2,0,0,1,.74.14,1.11,1.11,0,0,1,.54.47,1.81,1.81,0,0,1,.21,1,2,2,0,0,1-.07.54,2.1,2.1,0,0,1-.2.48,1.27,1.27,0,0,1-.31.34.82.82,0,0,1-.42.15l-.21,0h-9.86Z" transform="translate(-569.14 -321.85)" style="fill:#fff"/><path d="M761.59,355.69a1.51,1.51,0,0,0,.44,1.11,3.62,3.62,0,0,0,1.17.74,10.88,10.88,0,0,0,1.66.52c.63.14,1.27.3,1.93.47s1.32.37,2,.6a7,7,0,0,1,1.78.91,5.29,5.29,0,0,1,1.35,1.36,4.57,4.57,0,0,1,.71,2,4.73,4.73,0,0,1,0,1.18,4.21,4.21,0,0,1-.4,1.28,4.93,4.93,0,0,1-.89,1.22,5.17,5.17,0,0,1-1.46,1.05,8.45,8.45,0,0,1-2.15.73,13.37,13.37,0,0,1-2.93.28,23.3,23.3,0,0,1-2.62-.13,9.44,9.44,0,0,1-2.07-.42,4.38,4.38,0,0,1-1.45-.74,2.15,2.15,0,0,1-.75-1.12,1.05,1.05,0,0,1,0-.66,1,1,0,0,1,.32-.44,1.22,1.22,0,0,1,.5-.24,1.64,1.64,0,0,1,.53,0,6.85,6.85,0,0,1,1.06.21l1.16.3c.41.1.87.2,1.36.28a12,12,0,0,0,1.69.13,8.35,8.35,0,0,0,1.89-.17,4.62,4.62,0,0,0,1.38-.52,2.6,2.6,0,0,0,.85-.79,1.92,1.92,0,0,0,.28-1,1.29,1.29,0,0,0-.46-1,4,4,0,0,0-1.24-.7,12.19,12.19,0,0,0-1.75-.53l-2-.49c-.69-.18-1.36-.38-2-.6a8.07,8.07,0,0,1-1.77-.85,4.36,4.36,0,0,1-1.27-1.22,3.17,3.17,0,0,1-.52-1.75,5.9,5.9,0,0,1,.33-2,5,5,0,0,1,1.13-1.76,5.85,5.85,0,0,1,1.92-1.27A7.83,7.83,0,0,1,764,351l1,0c.45,0,.95,0,1.51.05s1.14.12,1.73.22a7.21,7.21,0,0,1,1.63.47,3.65,3.65,0,0,1,1.22.83,1.8,1.8,0,0,1,.47,1.26,2,2,0,0,1,0,.43.69.69,0,0,1-.19.33.8.8,0,0,1-.39.2,2.2,2.2,0,0,1-.66,0c-.33,0-.73-.07-1.19-.14l-1.48-.21c-.52-.08-1.06-.14-1.62-.2a15.48,15.48,0,0,0-1.65-.09,6.63,6.63,0,0,0-1,.08,3.69,3.69,0,0,0-.87.27,1.86,1.86,0,0,0-.61.48A1.18,1.18,0,0,0,761.59,355.69Z" transform="translate(-569.14 -321.85)" style="fill:#fff"/><path d="M582,398.18h-.36c-.17,0-.38,0-.63-.08a5.59,5.59,0,0,1-.79-.22,3.35,3.35,0,0,1-.82-.42,2.87,2.87,0,0,1-1.17-1.7l-3.15-12.41a.37.37,0,0,0-.09-.21.25.25,0,0,0-.16-.05.23.23,0,0,0-.26.26l-.77,13.59a1.18,1.18,0,0,1-.33.68,1.69,1.69,0,0,1-.61.38,2.57,2.57,0,0,1-.74.16l-.72,0a1.1,1.1,0,0,1-1-.43,1.78,1.78,0,0,1-.18-1.15l.81-14.21a2.67,2.67,0,0,1,.47-1.37,2.4,2.4,0,0,1,.9-.72,3.36,3.36,0,0,1,1.09-.27c.38,0,.73,0,1,0h.39a6.52,6.52,0,0,1,1.12.11,3.92,3.92,0,0,1,1.11.37,2.8,2.8,0,0,1,.91.73,2.27,2.27,0,0,1,.49,1.17l3.2,12.55c0,.12.06.18.11.2l.15,0,.14,0s.09-.08.11-.2l3.2-12.55a2.27,2.27,0,0,1,.49-1.17,2.8,2.8,0,0,1,.91-.73,3.88,3.88,0,0,1,1.12-.37,6.43,6.43,0,0,1,1.12-.11h.38l.69,0a4.65,4.65,0,0,1,.74.08,3.64,3.64,0,0,1,.71.22,2.53,2.53,0,0,1,.64.42,2.28,2.28,0,0,1,.47.67,3.31,3.31,0,0,1,.26,1l.81,14.21a1.78,1.78,0,0,1-.18,1.15,1.09,1.09,0,0,1-1,.43l-.72,0a2.57,2.57,0,0,1-.74-.16,1.69,1.69,0,0,1-.61-.38,1.18,1.18,0,0,1-.33-.68l-.77-13.59c0-.17-.08-.26-.23-.26a.35.35,0,0,0-.18.05.37.37,0,0,0-.1.21l-3.15,12.41a2.82,2.82,0,0,1-.47,1,3,3,0,0,1-.7.68,3.35,3.35,0,0,1-.82.42,5.59,5.59,0,0,1-.79.22c-.25,0-.46.07-.64.08Z" transform="translate(-569.14 -321.85)" style="fill:#fff"/><path d="M604,398.21a12.9,12.9,0,0,1-3.13-.33,7.55,7.55,0,0,1-2.2-.93,5,5,0,0,1-1.42-1.43,7,7,0,0,1-.81-1.84,10.59,10.59,0,0,1-.36-2.16q-.09-1.15-.09-2.4v-.07c0-.82,0-1.62.09-2.39a10.46,10.46,0,0,1,.36-2.17,7,7,0,0,1,.81-1.84,5,5,0,0,1,1.42-1.43,7,7,0,0,1,2.2-.93A12.9,12.9,0,0,1,604,380h.11a12.9,12.9,0,0,1,3.13.33,7,7,0,0,1,2.2.93,5,5,0,0,1,1.42,1.43,7,7,0,0,1,.81,1.84,10.46,10.46,0,0,1,.36,2.17c.06.77.09,1.57.09,2.39v.07c0,.82,0,1.62-.09,2.39a10.58,10.58,0,0,1-.36,2.17,7,7,0,0,1-.81,1.84,5,5,0,0,1-1.42,1.43,7.55,7.55,0,0,1-2.2.93,12.9,12.9,0,0,1-3.13.33Zm0-15.1a6.87,6.87,0,0,0-2.29.31,2.67,2.67,0,0,0-1.32,1,3.93,3.93,0,0,0-.61,1.73,17,17,0,0,0-.16,2.55v.79a17,17,0,0,0,.16,2.55,4,4,0,0,0,.61,1.73,2.67,2.67,0,0,0,1.32,1,6.87,6.87,0,0,0,2.29.31h.15a6.87,6.87,0,0,0,2.29-.31,2.67,2.67,0,0,0,1.32-1,4.11,4.11,0,0,0,.62-1.73,18.61,18.61,0,0,0,.15-2.55v-.79a18.61,18.61,0,0,0-.15-2.55,4.06,4.06,0,0,0-.62-1.73,2.67,2.67,0,0,0-1.32-1,6.87,6.87,0,0,0-2.29-.31Z" transform="translate(-569.14 -321.85)" style="fill:#fff"/><path d="M626.26,398.18h-.36c-.17,0-.38,0-.63-.08a5.59,5.59,0,0,1-.79-.22,3.35,3.35,0,0,1-.82-.42,3,3,0,0,1-.7-.68,2.82,2.82,0,0,1-.47-1l-3.15-12.41a.37.37,0,0,0-.09-.21.25.25,0,0,0-.16-.05.23.23,0,0,0-.26.26l-.77,13.59a1.18,1.18,0,0,1-.33.68,1.69,1.69,0,0,1-.61.38,2.57,2.57,0,0,1-.74.16l-.72,0a1.1,1.1,0,0,1-1-.43,1.78,1.78,0,0,1-.18-1.15l.81-14.21a2.67,2.67,0,0,1,.47-1.37,2.4,2.4,0,0,1,.9-.72,3.36,3.36,0,0,1,1.09-.27c.37,0,.73,0,1,0h.39a6.41,6.41,0,0,1,1.11.11,3.88,3.88,0,0,1,1.12.37,2.8,2.8,0,0,1,.91.73,2.27,2.27,0,0,1,.49,1.17l3.2,12.55c0,.12.06.18.11.2l.15,0,.14,0c.05,0,.09-.08.11-.2l3.2-12.55a2.27,2.27,0,0,1,.49-1.17,2.8,2.8,0,0,1,.91-.73,3.88,3.88,0,0,1,1.12-.37,6.43,6.43,0,0,1,1.12-.11h.38l.69,0a4.65,4.65,0,0,1,.74.08,3.64,3.64,0,0,1,.71.22,2.53,2.53,0,0,1,.64.42,2.28,2.28,0,0,1,.47.67,3.31,3.31,0,0,1,.26,1l.81,14.21a1.78,1.78,0,0,1-.18,1.15,1.1,1.1,0,0,1-1,.43l-.72,0a2.57,2.57,0,0,1-.74-.16,1.69,1.69,0,0,1-.61-.38,1.18,1.18,0,0,1-.33-.68l-.77-13.59c0-.17-.08-.26-.23-.26a.35.35,0,0,0-.18.05.37.37,0,0,0-.1.21L630,395.75a2.82,2.82,0,0,1-.47,1,3,3,0,0,1-.7.68,3.35,3.35,0,0,1-.82.42,5.59,5.59,0,0,1-.79.22c-.25,0-.46.07-.64.08Z" transform="translate(-569.14 -321.85)" style="fill:#fff"/><path d="M643.06,398h-.19c-.25,0-.48,0-.7,0a2.36,2.36,0,0,1-.58-.13.87.87,0,0,1-.39-.28.76.76,0,0,1-.15-.48V381.62a1,1,0,0,1,0-.19,2.07,2.07,0,0,1,.14-.42,1.12,1.12,0,0,1,.3-.43,1.77,1.77,0,0,1,.54-.33,2.17,2.17,0,0,1,.83-.14h10.26a.91.91,0,0,1,.42.14,1.32,1.32,0,0,1,.31.35,2.1,2.1,0,0,1,.2.48,2.5,2.5,0,0,1,.07.54,1.81,1.81,0,0,1-.21,1,1.16,1.16,0,0,1-.54.47,2.16,2.16,0,0,1-.74.14h-8v4h6.58a.9.9,0,0,1,.42.13,1.24,1.24,0,0,1,.36.33,1.47,1.47,0,0,1,.23.47,1.81,1.81,0,0,1,.09.58,2.48,2.48,0,0,1-.1.71,1.5,1.5,0,0,1-.25.49.91.91,0,0,1-.36.29,1,1,0,0,1-.42.1h-6.55v4.53h8a2.16,2.16,0,0,1,.74.14,1.16,1.16,0,0,1,.54.47,1.84,1.84,0,0,1,.21,1,2.5,2.5,0,0,1-.07.54,2.1,2.1,0,0,1-.2.48,1.32,1.32,0,0,1-.31.35.73.73,0,0,1-.42.14l-.21,0h-9.86Z" transform="translate(-569.14 -321.85)" style="fill:#fff"/><path d="M672.36,397.26a1,1,0,0,1-.1.49.68.68,0,0,1-.29.29,1.34,1.34,0,0,1-.45.12l-.59,0-.58,0a3.39,3.39,0,0,1-.57-.1,3.25,3.25,0,0,1-.5-.18,1.11,1.11,0,0,1-.36-.26,0,0,0,0,1,0,0h0l-8.41-11v10.55a.66.66,0,0,1-.21.5,1.44,1.44,0,0,1-.54.32,3.77,3.77,0,0,1-.7.16,6,6,0,0,1-.7,0,5.85,5.85,0,0,1-.64,0,1.24,1.24,0,0,1-.46-.13.61.61,0,0,1-.27-.28,1.08,1.08,0,0,1-.09-.48V381.08a1,1,0,0,1,.35-.85,1.83,1.83,0,0,1,1.11-.27,4.06,4.06,0,0,1,1,.13,1.73,1.73,0,0,1,.83.43l0,0,8.5,11.09V381.7a1.31,1.31,0,0,1,.17-.67,1.8,1.8,0,0,1,.48-.55,2.36,2.36,0,0,1,.7-.38,2.48,2.48,0,0,1,.82-.14,2,2,0,0,1,1.09.22c.23.14.34.44.34.9Z" transform="translate(-569.14 -321.85)" style="fill:#fff"/><path d="M688.51,380.11a2.08,2.08,0,0,1,.64.08.6.6,0,0,1,.34.25,1,1,0,0,1,.13.49c0,.2,0,.45,0,.74a1.8,1.8,0,0,1-.17.89,1.21,1.21,0,0,1-.39.46,1.1,1.1,0,0,1-.46.16l-.36,0h-4.58v14.05a.74.74,0,0,1-.16.49,1.09,1.09,0,0,1-.41.29,2.37,2.37,0,0,1-.58.12l-.64,0c-.25,0-.48,0-.7,0a2,2,0,0,1-.58-.13.87.87,0,0,1-.39-.28.73.73,0,0,1-.15-.48V383.21h-4.43a1.93,1.93,0,0,1-.35,0,1,1,0,0,1-.42-.2,1.48,1.48,0,0,1-.38-.46,1.88,1.88,0,0,1-.16-.83,8,8,0,0,1,0-.8,1.14,1.14,0,0,1,.14-.48.6.6,0,0,1,.32-.22,2,2,0,0,1,.55-.06Z" transform="translate(-569.14 -321.85)" style="fill:#fff"/><path d="M699,398.21a13,13,0,0,1-3.14-.33,7.37,7.37,0,0,1-2.19-.93,4.72,4.72,0,0,1-1.42-1.43,6.66,6.66,0,0,1-.82-1.84,11.33,11.33,0,0,1-.36-2.16c-.06-.77-.08-1.57-.08-2.4v-.07c0-.82,0-1.62.08-2.39a11.17,11.17,0,0,1,.36-2.17,6.66,6.66,0,0,1,.82-1.84,4.72,4.72,0,0,1,1.42-1.43,6.89,6.89,0,0,1,2.19-.93A13,13,0,0,1,699,380h.1a13,13,0,0,1,3.14.33,6.89,6.89,0,0,1,2.19.93,4.83,4.83,0,0,1,1.42,1.43,7,7,0,0,1,.81,1.84,11.16,11.16,0,0,1,.37,2.17c0,.77.08,1.57.08,2.39v.07c0,.82,0,1.62-.08,2.39a11.29,11.29,0,0,1-.37,2.17,7,7,0,0,1-.81,1.84,4.83,4.83,0,0,1-1.42,1.43,7.37,7.37,0,0,1-2.19.93,13,13,0,0,1-3.14.33Zm0-15.1a6.77,6.77,0,0,0-2.28.31,2.65,2.65,0,0,0-1.33,1,4.06,4.06,0,0,0-.61,1.73,18.61,18.61,0,0,0-.15,2.55v.79a18.61,18.61,0,0,0,.15,2.55,4.11,4.11,0,0,0,.61,1.73,2.65,2.65,0,0,0,1.33,1,6.77,6.77,0,0,0,2.28.31h.16a6.85,6.85,0,0,0,2.28-.31,2.59,2.59,0,0,0,1.32-1,4,4,0,0,0,.62-1.73,18.61,18.61,0,0,0,.15-2.55v-.79a18.61,18.61,0,0,0-.15-2.55,3.93,3.93,0,0,0-.62-1.73,2.59,2.59,0,0,0-1.32-1,6.85,6.85,0,0,0-2.28-.31Z" transform="translate(-569.14 -321.85)" style="fill:#fff"/><path d="M713,384.74a1.48,1.48,0,0,0,.44,1.12,3.55,3.55,0,0,0,1.16.73,9.15,9.15,0,0,0,1.67.52l1.93.48c.66.17,1.32.37,2,.6a7.44,7.44,0,0,1,1.78.9,5.45,5.45,0,0,1,1.35,1.36,4.49,4.49,0,0,1,.7,2,4.28,4.28,0,0,1,0,1.18,4.18,4.18,0,0,1-.41,1.27,5.11,5.11,0,0,1-.88,1.23,5.17,5.17,0,0,1-1.46,1.05,9.31,9.31,0,0,1-2.15.73,14.13,14.13,0,0,1-2.93.27,23.3,23.3,0,0,1-2.62-.13,10.1,10.1,0,0,1-2.07-.41,4.35,4.35,0,0,1-1.46-.75,2.21,2.21,0,0,1-.74-1.11,1,1,0,0,1,0-.66,1,1,0,0,1,.32-.45,1.29,1.29,0,0,1,.5-.24,2,2,0,0,1,.53,0,8.33,8.33,0,0,1,1.06.22l1.16.3c.41.1.87.19,1.36.27a11.76,11.76,0,0,0,1.69.14,8.31,8.31,0,0,0,1.89-.18,4.37,4.37,0,0,0,1.38-.52,2.38,2.38,0,0,0,.84-.79,1.83,1.83,0,0,0,.29-1,1.3,1.3,0,0,0-.47-1,4.19,4.19,0,0,0-1.23-.7,12.24,12.24,0,0,0-1.75-.52l-2-.5c-.68-.17-1.36-.37-2-.6a8,8,0,0,1-1.77-.84,4.52,4.52,0,0,1-1.27-1.23,3.15,3.15,0,0,1-.52-1.75,5.38,5.38,0,0,1,.33-2,4.76,4.76,0,0,1,1.12-1.76,6,6,0,0,1,1.93-1.28,7.77,7.77,0,0,1,2.76-.56l1,0c.45,0,1,0,1.51.06a15.75,15.75,0,0,1,1.73.22,7.36,7.36,0,0,1,1.63.47,3.59,3.59,0,0,1,1.21.82,1.78,1.78,0,0,1,.48,1.27,1.86,1.86,0,0,1,0,.42.66.66,0,0,1-.18.34,1,1,0,0,1-.39.2,2.24,2.24,0,0,1-.66,0c-.33,0-.73-.07-1.19-.14l-1.48-.21-1.63-.2a15.16,15.16,0,0,0-1.64-.09,5.55,5.55,0,0,0-1,.09,3,3,0,0,0-.87.27,1.63,1.63,0,0,0-.61.48A1.07,1.07,0,0,0,713,384.74Z" transform="translate(-569.14 -321.85)" style="fill:#fff"/><path d="M574.53,422.65c-.25.07-.53.13-.85.19l-1,.17-1,.16-.93.12a5.48,5.48,0,0,0,.11.81,1.25,1.25,0,0,0,.31.58,1.36,1.36,0,0,0,.61.36,3.31,3.31,0,0,0,1,.12,5,5,0,0,0,1-.09,6.31,6.31,0,0,0,.68-.21,3.57,3.57,0,0,0,.44-.22.82.82,0,0,1,.25-.11.34.34,0,0,1,.28.1.36.36,0,0,1,.11.28.61.61,0,0,1-.19.44,1.55,1.55,0,0,1-.54.37,3.43,3.43,0,0,1-.85.25,5.62,5.62,0,0,1-1.14.1,6.45,6.45,0,0,1-1.25-.11,2.84,2.84,0,0,1-.88-.32,2,2,0,0,1-.55-.52,2.63,2.63,0,0,1-.32-.7,4.65,4.65,0,0,1-.13-.88c0-.32,0-.66,0-1a11.07,11.07,0,0,1,.11-1.6,3,3,0,0,1,.46-1.22,2.19,2.19,0,0,1,1-.78,4.12,4.12,0,0,1,1.67-.28,6.1,6.1,0,0,1,1.25.12,3.21,3.21,0,0,1,1,.39,2,2,0,0,1,.67.67,2.09,2.09,0,0,1,.28,1,3,3,0,0,1,0,.7,1.18,1.18,0,0,1-.23.51,1.69,1.69,0,0,1-.48.37A3.65,3.65,0,0,1,574.53,422.65Zm-1.37-3.15a4.51,4.51,0,0,0-1,.09,2.22,2.22,0,0,0-.66.26,1.4,1.4,0,0,0-.41.43,1.76,1.76,0,0,0-.23.58,5,5,0,0,0-.11.74c0,.27,0,.56,0,.87l.75-.11.9-.13.9-.15.8-.15a1.35,1.35,0,0,0,.72-.35.94.94,0,0,0,.19-.74,1.23,1.23,0,0,0-.17-.58,1.4,1.4,0,0,0-.42-.42,2,2,0,0,0-.58-.26A2.46,2.46,0,0,0,573.16,419.5Z" transform="translate(-569.14 -321.85)" style="fill:#fff"/><path d="M578.92,425.77a.25.25,0,0,1,0,.16.27.27,0,0,1-.12.09.53.53,0,0,1-.18,0h-.2A1.46,1.46,0,0,1,578,426a.23.23,0,0,1-.17-.25v-6a.74.74,0,0,1,.3-.61,2.23,2.23,0,0,1,.82-.35,6.76,6.76,0,0,1,1.23-.17c.47,0,1,0,1.51,0a3,3,0,0,1,1.33.26,1.9,1.9,0,0,1,.81.75,3.23,3.23,0,0,1,.41,1.17,10.53,10.53,0,0,1,.1,1.55v3.41a.25.25,0,0,1,0,.16.3.3,0,0,1-.13.09.43.43,0,0,1-.17,0h-.2a1.48,1.48,0,0,1-.39-.05.23.23,0,0,1-.16-.25v-3c0-.55,0-1-.06-1.43a2.71,2.71,0,0,0-.25-1,1.24,1.24,0,0,0-.55-.58,2.23,2.23,0,0,0-1-.18l-1,0c-.28,0-.51.05-.7.08a2.19,2.19,0,0,0-.43.11.83.83,0,0,0-.22.15.34.34,0,0,0-.09.18,1.21,1.21,0,0,0,0,.19Z" transform="translate(-569.14 -321.85)" style="fill:#fff"/><path d="M593.84,422.65c-.24.07-.52.13-.84.19l-1,.17-1,.16-.92.12a3.69,3.69,0,0,0,.11.81,1.17,1.17,0,0,0,.31.58,1.27,1.27,0,0,0,.6.36,3.31,3.31,0,0,0,1,.12,5,5,0,0,0,1-.09,6.57,6.57,0,0,0,.69-.21,3.35,3.35,0,0,0,.43-.22.82.82,0,0,1,.25-.11.37.37,0,0,1,.29.1.39.39,0,0,1,.1.28.64.64,0,0,1-.18.44,1.7,1.7,0,0,1-.55.37,3.31,3.31,0,0,1-.85.25,5.52,5.52,0,0,1-1.13.1,6.48,6.48,0,0,1-1.26-.11,2.68,2.68,0,0,1-.87-.32,1.88,1.88,0,0,1-.56-.52,2.33,2.33,0,0,1-.31-.7,4,4,0,0,1-.14-.88c0-.32,0-.66,0-1a11.07,11.07,0,0,1,.11-1.6,3,3,0,0,1,.46-1.22,2.19,2.19,0,0,1,1-.78,4.17,4.17,0,0,1,1.68-.28,6.17,6.17,0,0,1,1.25.12,3.15,3.15,0,0,1,1,.39,2,2,0,0,1,.68.67,2.21,2.21,0,0,1,.27,1,3.08,3.08,0,0,1,0,.7,1.2,1.2,0,0,1-.24.51,1.45,1.45,0,0,1-.48.37A3.65,3.65,0,0,1,593.84,422.65Zm-1.37-3.15a4.41,4.41,0,0,0-1,.09,2.18,2.18,0,0,0-.67.26,1.4,1.4,0,0,0-.41.43,2,2,0,0,0-.23.58,4,4,0,0,0-.1.74c0,.27,0,.56,0,.87l.74-.11.9-.13.91-.15.79-.15a1.43,1.43,0,0,0,.73-.35.94.94,0,0,0,.18-.74,1.13,1.13,0,0,0-.17-.58,1.4,1.4,0,0,0-.42-.42,2.12,2.12,0,0,0-.57-.26A2.53,2.53,0,0,0,592.47,419.5Z" transform="translate(-569.14 -321.85)" style="fill:#fff"/><path d="M598.23,425.75a.25.25,0,0,1-.05.16.27.27,0,0,1-.12.09.48.48,0,0,1-.18.05h-.2a1.12,1.12,0,0,1-.38-.06.24.24,0,0,1-.17-.25V416a.31.31,0,0,1,.08-.25.44.44,0,0,1,.29-.07l.24,0a.85.85,0,0,1,.24.09.55.55,0,0,1,.18.16.44.44,0,0,1,.07.26Z" transform="translate(-569.14 -321.85)" style="fill:#fff"/><path d="M609.06,421.81c0,.11,0,.21,0,.31v3.65a.25.25,0,0,1,0,.16.38.38,0,0,1-.13.09.47.47,0,0,1-.17,0h-.2a1.48,1.48,0,0,1-.39-.05.23.23,0,0,1-.16-.25v-3.1c0-.56,0-1-.06-1.43a2.67,2.67,0,0,0-.26-1,1.17,1.17,0,0,0-.56-.56,2.4,2.4,0,0,0-1-.17,5.27,5.27,0,0,0-1,.08,1.29,1.29,0,0,0-.51.22.44.44,0,0,0-.18.29c0,.11,0,.22,0,.32v5.32a.21.21,0,0,1,0,.16.27.27,0,0,1-.12.09.47.47,0,0,1-.17,0h-.2a1.48,1.48,0,0,1-.39-.05.24.24,0,0,1-.17-.25v-5.71a1.44,1.44,0,0,1,.13-.61,1,1,0,0,1,.46-.45,3,3,0,0,1,1-.27,9.51,9.51,0,0,1,1.57-.1,3.12,3.12,0,0,1,1.26.23,2,2,0,0,1,.8.67,1.25,1.25,0,0,1,.29-.37,1.68,1.68,0,0,1,.5-.28,3.21,3.21,0,0,1,.74-.18,6.51,6.51,0,0,1,1-.07,3.07,3.07,0,0,1,1.34.26,2,2,0,0,1,.83.75,3.23,3.23,0,0,1,.42,1.17,9.21,9.21,0,0,1,.12,1.55v3.41a.25.25,0,0,1,0,.16.38.38,0,0,1-.13.09.47.47,0,0,1-.17,0h-.2a1.48,1.48,0,0,1-.39-.05.23.23,0,0,1-.16-.25v-3a10.26,10.26,0,0,0-.06-1.43,2.7,2.7,0,0,0-.27-1,1.3,1.3,0,0,0-.58-.58,2.31,2.31,0,0,0-1-.18,3.5,3.5,0,0,0-.88.09,1.23,1.23,0,0,0-.51.27.75.75,0,0,0-.25.39,2,2,0,0,0-.06.5Z" transform="translate(-569.14 -321.85)" style="fill:#fff"/><path d="M620.53,422.65c-.25.07-.53.13-.85.19l-1,.17-1,.16-.93.12a4.41,4.41,0,0,0,.11.81,1.25,1.25,0,0,0,.31.58,1.38,1.38,0,0,0,.6.36,3.43,3.43,0,0,0,1,.12,5,5,0,0,0,1-.09,6.31,6.31,0,0,0,.68-.21,2.79,2.79,0,0,0,.43-.22.86.86,0,0,1,.26-.11.35.35,0,0,1,.28.1.39.39,0,0,1,.11.28.61.61,0,0,1-.19.44,1.55,1.55,0,0,1-.54.37,3.43,3.43,0,0,1-.85.25,5.69,5.69,0,0,1-1.14.1,6.38,6.38,0,0,1-1.25-.11,2.84,2.84,0,0,1-.88-.32,1.84,1.84,0,0,1-.55-.52,2.35,2.35,0,0,1-.32-.7,4,4,0,0,1-.13-.88c0-.32,0-.66,0-1a9.81,9.81,0,0,1,.11-1.6,2.83,2.83,0,0,1,.46-1.22,2.14,2.14,0,0,1,1-.78,4.12,4.12,0,0,1,1.67-.28,6.1,6.1,0,0,1,1.25.12,3.21,3.21,0,0,1,1,.39,2,2,0,0,1,.67.67,2.09,2.09,0,0,1,.28,1,3,3,0,0,1,0,.7,1.18,1.18,0,0,1-.23.51,1.62,1.62,0,0,1-.49.37A3.38,3.38,0,0,1,620.53,422.65Zm-1.37-3.15a4.51,4.51,0,0,0-1,.09,2,2,0,0,0-.66.26,1.43,1.43,0,0,0-.42.43,2,2,0,0,0-.22.58,4,4,0,0,0-.11.74c0,.27,0,.56,0,.87l.75-.11.89-.13.91-.15.8-.15a1.35,1.35,0,0,0,.72-.35,1,1,0,0,0,.19-.74,1.23,1.23,0,0,0-.17-.58,1.4,1.4,0,0,0-.42-.42,2,2,0,0,0-.58-.26A2.46,2.46,0,0,0,619.16,419.5Z" transform="translate(-569.14 -321.85)" style="fill:#fff"/><path d="M623.82,416.05a.25.25,0,0,1,0-.16.41.41,0,0,1,.13-.1l.17-.05h.2a1.14,1.14,0,0,1,.39.06.25.25,0,0,1,.16.26v1.13a.25.25,0,0,1,0,.16.3.3,0,0,1-.13.09.42.42,0,0,1-.17.05h-.2a1.18,1.18,0,0,1-.39-.06.24.24,0,0,1-.16-.25Zm1.09,13.11a.26.26,0,0,1-.08.2.52.52,0,0,1-.19.12l-.25,0-.24,0a.43.43,0,0,1-.24-.06c-.06,0-.09-.11-.09-.23V418.93a.23.23,0,0,1,.17-.25,1.1,1.1,0,0,1,.37-.06.94.94,0,0,1,.39.07.23.23,0,0,1,.16.24Z" transform="translate(-569.14 -321.85)" style="fill:#fff"/><path d="M630,426.07a5.27,5.27,0,0,1-1.28-.14,2.69,2.69,0,0,1-.89-.39,2.07,2.07,0,0,1-.59-.59,2.89,2.89,0,0,1-.34-.76,4,4,0,0,1-.15-.87c0-.31,0-.63,0-1v0c0-.33,0-.65,0-1a4,4,0,0,1,.15-.87,2.76,2.76,0,0,1,.34-.76,2,2,0,0,1,.59-.59,2.69,2.69,0,0,1,.89-.39,5.27,5.27,0,0,1,1.28-.14h0a5.18,5.18,0,0,1,1.27.14,2.66,2.66,0,0,1,.9.39,2.07,2.07,0,0,1,.59.59,2.76,2.76,0,0,1,.34.76,4.63,4.63,0,0,1,.16.87c0,.31,0,.63,0,1v0c0,.33,0,.65,0,1a4.63,4.63,0,0,1-.16.87,2.89,2.89,0,0,1-.34.76,2.21,2.21,0,0,1-.59.59,2.66,2.66,0,0,1-.9.39,5.18,5.18,0,0,1-1.27.14Zm.09-.91a2.91,2.91,0,0,0,1.12-.18,1.41,1.41,0,0,0,.65-.52,2.09,2.09,0,0,0,.3-.85,7.78,7.78,0,0,0,.08-1.15v-.23a7.63,7.63,0,0,0-.08-1.14,2.09,2.09,0,0,0-.3-.85,1.35,1.35,0,0,0-.65-.52,2.91,2.91,0,0,0-1.12-.18h-.15a2.86,2.86,0,0,0-1.11.18,1.35,1.35,0,0,0-.65.52,2,2,0,0,0-.31.85,9.41,9.41,0,0,0-.07,1.14v.23a9.72,9.72,0,0,0,.07,1.15,2,2,0,0,0,.31.84,1.43,1.43,0,0,0,.65.53,2.86,2.86,0,0,0,1.11.18Z" transform="translate(-569.14 -321.85)" style="fill:#fff"/><path d="M638.41,418.63a3.41,3.41,0,0,1,.7.09,1.72,1.72,0,0,1,.49.2.81.81,0,0,1,.28.27.59.59,0,0,1,.09.31.45.45,0,0,1,0,.11.5.5,0,0,1-.05.13.33.33,0,0,1-.11.09.49.49,0,0,1-.19,0,.38.38,0,0,1-.22-.06l-.22-.11a1.48,1.48,0,0,0-.32-.11,2.61,2.61,0,0,0-.56,0,5.32,5.32,0,0,0-1.1.09,2.28,2.28,0,0,0-.65.2.92.92,0,0,0-.31.24.37.37,0,0,0-.07.19v5.5a.28.28,0,0,1,0,.16.38.38,0,0,1-.12.09l-.18.05h-.2a1.12,1.12,0,0,1-.38-.06.25.25,0,0,1-.17-.25v-5.82a.68.68,0,0,1,.15-.43,1.47,1.47,0,0,1,.39-.34,3.48,3.48,0,0,1,.58-.26,4.92,4.92,0,0,1,.71-.17c.25,0,.5-.07.76-.09S638.16,418.63,638.41,418.63Z" transform="translate(-569.14 -321.85)" style="fill:#fff"/><path d="M646.47,418.64l.71,0c.26,0,.51.06.76.1s.5.11.74.18a3.54,3.54,0,0,1,.65.29V416.1a1.44,1.44,0,0,1,0-.24.26.26,0,0,1,.06-.13.16.16,0,0,1,.1-.05h.4a.73.73,0,0,1,.25.08.54.54,0,0,1,.19.18.61.61,0,0,1,.08.32v8.6a.63.63,0,0,1-.18.46,1.46,1.46,0,0,1-.48.33,3.73,3.73,0,0,1-.71.22c-.27.05-.55.1-.84.13s-.59,0-.89.05l-.86,0a2.51,2.51,0,0,1-1.27-.29,2.12,2.12,0,0,1-.77-.8,3.93,3.93,0,0,1-.38-1.24,12.57,12.57,0,0,1-.1-1.57v-.07a9.6,9.6,0,0,1,.09-1.36,2.92,2.92,0,0,1,.37-1.1,1.91,1.91,0,0,1,.76-.73A2.7,2.7,0,0,1,646.47,418.64Zm.44,6.51c.33,0,.64,0,.94,0a5.17,5.17,0,0,0,.77-.1,1.5,1.5,0,0,0,.52-.18.33.33,0,0,0,.19-.27V420.4c0-.1-.09-.2-.25-.29a2.8,2.8,0,0,0-.62-.27,5.77,5.77,0,0,0-.84-.2,7.47,7.47,0,0,0-.94-.09,2.28,2.28,0,0,0-.65.06.9.9,0,0,0-.51.3,1.47,1.47,0,0,0-.34.66,4.25,4.25,0,0,0-.12,1.12v.82a5.67,5.67,0,0,0,.08,1.08,3,3,0,0,0,.21.74,1.5,1.5,0,0,0,.32.46,1.33,1.33,0,0,0,.39.24,1.58,1.58,0,0,0,.43.1Z" transform="translate(-569.14 -321.85)" style="fill:#fff"/><path d="M657.08,422.65c-.24.07-.52.13-.84.19l-1,.17-1,.16-.92.12a3.69,3.69,0,0,0,.11.81,1.25,1.25,0,0,0,.31.58,1.38,1.38,0,0,0,.6.36,3.31,3.31,0,0,0,1,.12,4.82,4.82,0,0,0,1-.09,5.9,5.9,0,0,0,.69-.21,3.35,3.35,0,0,0,.43-.22.94.94,0,0,1,.25-.11.36.36,0,0,1,.29.1.39.39,0,0,1,.11.28.65.65,0,0,1-.19.44,1.76,1.76,0,0,1-.54.37,3.52,3.52,0,0,1-.86.25,5.52,5.52,0,0,1-1.13.1,6.48,6.48,0,0,1-1.26-.11,2.68,2.68,0,0,1-.87-.32,2,2,0,0,1-.56-.52,2.61,2.61,0,0,1-.31-.7,4.63,4.63,0,0,1-.14-.88c0-.32,0-.66,0-1a9.74,9.74,0,0,1,.12-1.6,2.82,2.82,0,0,1,.45-1.22,2.19,2.19,0,0,1,1-.78,4.2,4.2,0,0,1,1.68-.28,6.17,6.17,0,0,1,1.25.12,3.31,3.31,0,0,1,1,.39,2,2,0,0,1,.67.67,2.21,2.21,0,0,1,.27,1,2.6,2.6,0,0,1,0,.7,1.2,1.2,0,0,1-.24.51,1.45,1.45,0,0,1-.48.37A3.47,3.47,0,0,1,657.08,422.65Zm-1.36-3.15a4.45,4.45,0,0,0-1,.09,2,2,0,0,0-.66.26,1.32,1.32,0,0,0-.42.43,2,2,0,0,0-.23.58,5.1,5.1,0,0,0-.1.74c0,.27,0,.56,0,.87l.75-.11.89-.13.91-.15.8-.15a1.35,1.35,0,0,0,.72-.35,1,1,0,0,0,.19-.74,1.13,1.13,0,0,0-.18-.58,1.27,1.27,0,0,0-.41-.42,2.18,2.18,0,0,0-.58-.26A2.51,2.51,0,0,0,655.72,419.5Z" transform="translate(-569.14 -321.85)" style="fill:#fff"/><path d="M664.3,426.06h-.71c-.26,0-.51,0-.77-.05a5.55,5.55,0,0,1-.73-.13,3.11,3.11,0,0,1-.65-.23v3a.82.82,0,0,1,0,.24.39.39,0,0,1,0,.13.19.19,0,0,1-.11,0h-.4a.81.81,0,0,1-.25-.08.54.54,0,0,1-.19-.18.56.56,0,0,1-.07-.32v-8.37a.72.72,0,0,1,.18-.48,1.69,1.69,0,0,1,.48-.37,3,3,0,0,1,.7-.27,7.35,7.35,0,0,1,.84-.19l.89-.1.86,0a2.5,2.5,0,0,1,1.26.29,2,2,0,0,1,.77.8,3.93,3.93,0,0,1,.38,1.24,10.84,10.84,0,0,1,.11,1.57v.07a9.6,9.6,0,0,1-.09,1.36,3,3,0,0,1-.37,1.09,1.87,1.87,0,0,1-.76.74A2.7,2.7,0,0,1,664.3,426.06Zm-2.86-1.53c0,.1.1.19.26.26a3.72,3.72,0,0,0,.61.19,8.47,8.47,0,0,0,.84.12c.32,0,.63,0,.94,0a2.68,2.68,0,0,0,.65,0,1.14,1.14,0,0,0,.51-.31,1.64,1.64,0,0,0,.34-.66,4.19,4.19,0,0,0,.13-1.12v-.82a6.54,6.54,0,0,0-.08-1.08,3,3,0,0,0-.21-.74,1.38,1.38,0,0,0-.32-.46,1.15,1.15,0,0,0-.39-.24,1.67,1.67,0,0,0-.43-.1l-.43,0a6.76,6.76,0,0,0-.93.07,4.33,4.33,0,0,0-.77.19,1.74,1.74,0,0,0-.53.26.43.43,0,0,0-.19.3Z" transform="translate(-569.14 -321.85)" style="fill:#fff"/><path d="M673.37,425.9l-1.08.1a11.89,11.89,0,0,1-1.38.07,3.1,3.1,0,0,1-1.41-.27,2,2,0,0,1-.81-.74,3,3,0,0,1-.36-1.09,11.45,11.45,0,0,1-.08-1.36v-.07a7.89,7.89,0,0,1,.16-1.71,3.16,3.16,0,0,1,.5-1.22,2.24,2.24,0,0,1,.88-.74,3.16,3.16,0,0,1,1.29-.24l.85,0a7.54,7.54,0,0,1,.83.12,3.74,3.74,0,0,1,.76.24,2.23,2.23,0,0,1,.63.39,1.63,1.63,0,0,1,.42.58,2,2,0,0,1,.16.8v4.63a.66.66,0,0,1-.07.3.58.58,0,0,1-.19.19.85.85,0,0,1-.28.1l-.35,0Zm.26-4.86c0-.09,0-.2,0-.31a1,1,0,0,0-.09-.33,1.52,1.52,0,0,0-.21-.33,1.42,1.42,0,0,0-.38-.27,2.5,2.5,0,0,0-.6-.19,4.33,4.33,0,0,0-.86-.07l-.5,0a2.07,2.07,0,0,0-.49.12,1.65,1.65,0,0,0-.44.26,1.54,1.54,0,0,0-.36.46,3,3,0,0,0-.24.72,4.44,4.44,0,0,0-.1,1v.74a4.58,4.58,0,0,0,.12,1.16,1.61,1.61,0,0,0,.36.69,1.15,1.15,0,0,0,.59.33,3.2,3.2,0,0,0,.8.09,8.55,8.55,0,0,0,1.21-.08l1-.11h.14l.12,0Z" transform="translate(-569.14 -321.85)" style="fill:#fff"/><path d="M680.16,418.63a3.41,3.41,0,0,1,.7.09,1.72,1.72,0,0,1,.49.2.81.81,0,0,1,.28.27.59.59,0,0,1,.09.31.45.45,0,0,1,0,.11.5.5,0,0,1-.05.13.33.33,0,0,1-.11.09.49.49,0,0,1-.19,0,.38.38,0,0,1-.22-.06l-.22-.11a1.48,1.48,0,0,0-.32-.11,2.61,2.61,0,0,0-.56,0,5.32,5.32,0,0,0-1.1.09,2.28,2.28,0,0,0-.65.2.92.92,0,0,0-.31.24.37.37,0,0,0-.07.19v5.5a.28.28,0,0,1,0,.16.38.38,0,0,1-.12.09l-.18.05h-.2A1.12,1.12,0,0,1,677,426a.25.25,0,0,1-.17-.25v-5.82a.68.68,0,0,1,.15-.43,1.47,1.47,0,0,1,.39-.34,3.48,3.48,0,0,1,.58-.26,4.92,4.92,0,0,1,.71-.17c.25,0,.5-.07.76-.09S679.91,418.63,680.16,418.63Z" transform="translate(-569.14 -321.85)" style="fill:#fff"/><path d="M684.2,419.62v4.18a2,2,0,0,0,.09.64.85.85,0,0,0,.28.42,1,1,0,0,0,.48.23,2.77,2.77,0,0,0,.69.07,2.32,2.32,0,0,0,.64-.08,2.14,2.14,0,0,0,.42-.17,2,2,0,0,0,.28-.18.37.37,0,0,1,.21-.08.31.31,0,0,1,.28.11.44.44,0,0,1,.07.26.61.61,0,0,1-.15.38,1.68,1.68,0,0,1-.43.33,2.59,2.59,0,0,1-.65.24,3,3,0,0,1-.81.1,5.26,5.26,0,0,1-.89-.08,2.4,2.4,0,0,1-.81-.31,1.7,1.7,0,0,1-.58-.61,2.17,2.17,0,0,1-.22-1v-4.42h-.26a.77.77,0,0,1-.23-.06.39.39,0,0,1-.15-.16.57.57,0,0,1-.06-.29.46.46,0,0,1,0-.22.22.22,0,0,1,.12-.13,1,1,0,0,1,.22,0h.32v-1.2a.24.24,0,0,1,.17-.25,1.46,1.46,0,0,1,.38-.05h.2l.18,0a.23.23,0,0,1,.12.1.25.25,0,0,1,.05.15v1.2h2.61a1.36,1.36,0,0,1,.29,0,.46.46,0,0,1,.23.12.33.33,0,0,1,.1.27.63.63,0,0,1-.09.33.28.28,0,0,1-.24.16h-2.9Z" transform="translate(-569.14 -321.85)" style="fill:#fff"/><path d="M693.74,425.9l-1.08.1a12.07,12.07,0,0,1-1.39.07,3.1,3.1,0,0,1-1.41-.27,2,2,0,0,1-.8-.74,2.86,2.86,0,0,1-.36-1.09,9.6,9.6,0,0,1-.09-1.36v-.07a8.57,8.57,0,0,1,.16-1.71,3.33,3.33,0,0,1,.51-1.22,2.18,2.18,0,0,1,.88-.74,3.1,3.1,0,0,1,1.29-.24c.27,0,.56,0,.84,0a7.38,7.38,0,0,1,.84.12,3.74,3.74,0,0,1,.76.24,2.23,2.23,0,0,1,.63.39,1.92,1.92,0,0,1,.42.58,2,2,0,0,1,.15.8v4.63a.56.56,0,0,1-.07.3.47.47,0,0,1-.18.19.83.83,0,0,1-.29.1l-.34,0ZM694,421c0-.09,0-.2,0-.31a1,1,0,0,0-.09-.33,1.26,1.26,0,0,0-.22-.33,1.28,1.28,0,0,0-.38-.27,2.56,2.56,0,0,0-.59-.19,4.37,4.37,0,0,0-.87-.07l-.49,0a2.07,2.07,0,0,0-.49.12,1.5,1.5,0,0,0-.44.26,1.54,1.54,0,0,0-.36.46,2.64,2.64,0,0,0-.25.72,5.12,5.12,0,0,0-.09,1v.74a4.58,4.58,0,0,0,.12,1.16,1.61,1.61,0,0,0,.36.69,1.12,1.12,0,0,0,.58.33,3.23,3.23,0,0,0,.81.09,8.66,8.66,0,0,0,1.21-.08l1-.11h.14l.12,0Z" transform="translate(-569.14 -321.85)" style="fill:#fff"/><path d="M703,421.81c0,.11,0,.21,0,.31s0,.22,0,.33v3.32a.25.25,0,0,1-.05.16.27.27,0,0,1-.12.09.48.48,0,0,1-.18,0h-.2A1.48,1.48,0,0,1,702,426a.25.25,0,0,1-.16-.25v-3.1c0-.56,0-1-.06-1.43a2.69,2.69,0,0,0-.25-1,1.22,1.22,0,0,0-.56-.56,2.48,2.48,0,0,0-1-.17,5.16,5.16,0,0,0-1,.08,1.34,1.34,0,0,0-.52.22.49.49,0,0,0-.18.29c0,.11,0,.22,0,.32v5.32a.25.25,0,0,1-.18.25.43.43,0,0,1-.17,0h-.2a1.46,1.46,0,0,1-.38-.05.23.23,0,0,1-.17-.25v-5.71a1.44,1.44,0,0,1,.12-.61,1,1,0,0,1,.47-.45,3,3,0,0,1,.94-.27,9.59,9.59,0,0,1,1.57-.1,3.05,3.05,0,0,1,1.26.23,2,2,0,0,1,.8.67,1.43,1.43,0,0,1,.29-.37,1.82,1.82,0,0,1,.5-.28,3.44,3.44,0,0,1,.75-.18,6.3,6.3,0,0,1,1-.07,3.07,3.07,0,0,1,1.34.26,2,2,0,0,1,.83.75,3.06,3.06,0,0,1,.43,1.17,9.21,9.21,0,0,1,.12,1.55v3.41a.25.25,0,0,1,0,.16.27.27,0,0,1-.12.09.48.48,0,0,1-.18,0h-.2a1.48,1.48,0,0,1-.39-.05.25.25,0,0,1-.16-.25l0-3c0-.55,0-1-.06-1.43a3.14,3.14,0,0,0-.27-1,1.35,1.35,0,0,0-.58-.58,2.35,2.35,0,0,0-1-.18,3.41,3.41,0,0,0-.87.09,1.34,1.34,0,0,0-.52.27.9.9,0,0,0-.25.39,2,2,0,0,0-.06.5Z" transform="translate(-569.14 -321.85)" style="fill:#fff"/><path d="M714.42,422.65c-.24.07-.52.13-.84.19l-1,.17-1,.16-.92.12a3.69,3.69,0,0,0,.11.81,1.17,1.17,0,0,0,.31.58,1.27,1.27,0,0,0,.6.36,3.31,3.31,0,0,0,1,.12,5,5,0,0,0,1-.09q.4-.1.69-.21a3.35,3.35,0,0,0,.43-.22.82.82,0,0,1,.25-.11.37.37,0,0,1,.29.1.39.39,0,0,1,.1.28.64.64,0,0,1-.18.44,1.7,1.7,0,0,1-.55.37,3.43,3.43,0,0,1-.85.25,5.52,5.52,0,0,1-1.13.1,6.48,6.48,0,0,1-1.26-.11,2.68,2.68,0,0,1-.87-.32,1.88,1.88,0,0,1-.56-.52,2.33,2.33,0,0,1-.31-.7,4,4,0,0,1-.14-.88c0-.32,0-.66,0-1a11.07,11.07,0,0,1,.11-1.6,3,3,0,0,1,.46-1.22,2.19,2.19,0,0,1,1-.78,4.17,4.17,0,0,1,1.68-.28,6,6,0,0,1,1.24.12,3.12,3.12,0,0,1,1,.39,2,2,0,0,1,.68.67,2.21,2.21,0,0,1,.27,1,3.08,3.08,0,0,1,0,.7,1.2,1.2,0,0,1-.24.51,1.45,1.45,0,0,1-.48.37A3.65,3.65,0,0,1,714.42,422.65Zm-1.37-3.15a4.35,4.35,0,0,0-1,.09,2.18,2.18,0,0,0-.67.26,1.4,1.4,0,0,0-.41.43,2,2,0,0,0-.23.58,4,4,0,0,0-.1.74c0,.27,0,.56,0,.87l.74-.11.9-.13.91-.15.79-.15a1.35,1.35,0,0,0,.72-.35.9.9,0,0,0,.19-.74,1.13,1.13,0,0,0-.17-.58,1.4,1.4,0,0,0-.42-.42,2.12,2.12,0,0,0-.57-.26A2.53,2.53,0,0,0,713.05,419.5Z" transform="translate(-569.14 -321.85)" style="fill:#fff"/><path d="M718.81,425.77a.25.25,0,0,1,0,.16.27.27,0,0,1-.12.09.48.48,0,0,1-.18,0h-.2a1.46,1.46,0,0,1-.38-.05.24.24,0,0,1-.17-.25v-6a.74.74,0,0,1,.3-.61,2.23,2.23,0,0,1,.82-.35,6.76,6.76,0,0,1,1.23-.17c.47,0,1,0,1.51,0a3,3,0,0,1,1.33.26,1.9,1.9,0,0,1,.81.75,3.05,3.05,0,0,1,.41,1.17,10.46,10.46,0,0,1,.11,1.55v3.41a.25.25,0,0,1-.05.16.27.27,0,0,1-.12.09.48.48,0,0,1-.18,0h-.2a1.48,1.48,0,0,1-.39-.05.23.23,0,0,1-.16-.25v-3c0-.55,0-1,0-1.43a3.17,3.17,0,0,0-.25-1,1.31,1.31,0,0,0-.56-.58,2.23,2.23,0,0,0-1-.18l-1,0c-.28,0-.51.05-.7.08a2.07,2.07,0,0,0-.42.11.76.76,0,0,0-.23.15.34.34,0,0,0-.09.18,1.21,1.21,0,0,0,0,.19Z" transform="translate(-569.14 -321.85)" style="fill:#fff"/><path d="M727.34,419.62v4.18a2,2,0,0,0,.09.64.85.85,0,0,0,.28.42,1,1,0,0,0,.48.23,2.77,2.77,0,0,0,.69.07,2.32,2.32,0,0,0,.64-.08,2.43,2.43,0,0,0,.42-.17,2.77,2.77,0,0,0,.28-.18.37.37,0,0,1,.2-.08.33.33,0,0,1,.29.11.44.44,0,0,1,.07.26.57.57,0,0,1-.16.38,1.39,1.39,0,0,1-.43.33,2.51,2.51,0,0,1-.64.24,3,3,0,0,1-.81.1,5.47,5.47,0,0,1-.9-.08,2.42,2.42,0,0,1-.8-.31,1.7,1.7,0,0,1-.58-.61,2.06,2.06,0,0,1-.22-1v-4.42H726a.71.71,0,0,1-.22-.06.41.41,0,0,1-.16-.16.57.57,0,0,1-.06-.29.62.62,0,0,1,0-.22.27.27,0,0,1,.13-.13.9.9,0,0,1,.22,0h.32v-1.2a.23.23,0,0,1,.17-.25,1.46,1.46,0,0,1,.38-.05h.2l.18,0a.23.23,0,0,1,.12.1.25.25,0,0,1,.05.15v1.2H730a1.36,1.36,0,0,1,.29,0,.51.51,0,0,1,.23.12.33.33,0,0,1,.1.27.63.63,0,0,1-.09.33.28.28,0,0,1-.24.16h-2.9Z" transform="translate(-569.14 -321.85)" style="fill:#fff"/><path d="M735,426.07a5.18,5.18,0,0,1-1.27-.14,2.85,2.85,0,0,1-.9-.39,2.21,2.21,0,0,1-.59-.59,2.87,2.87,0,0,1-.33-.76,4.63,4.63,0,0,1-.16-.87c0-.31,0-.63,0-1v0c0-.33,0-.65,0-1a4.63,4.63,0,0,1,.16-.87,2.74,2.74,0,0,1,.33-.76,2.07,2.07,0,0,1,.59-.59,2.85,2.85,0,0,1,.9-.39,5.18,5.18,0,0,1,1.27-.14h0a5.27,5.27,0,0,1,1.28.14,2.85,2.85,0,0,1,.9.39,2,2,0,0,1,.58.59,2.78,2.78,0,0,1,.35.76,4.64,4.64,0,0,1,.15.87c0,.31,0,.63,0,1v0c0,.33,0,.65,0,1a4.64,4.64,0,0,1-.15.87,2.92,2.92,0,0,1-.35.76,2.17,2.17,0,0,1-.58.59,2.85,2.85,0,0,1-.9.39,5.27,5.27,0,0,1-1.28.14Zm.09-.91a2.88,2.88,0,0,0,1.12-.18,1.41,1.41,0,0,0,.65-.52,2,2,0,0,0,.31-.85,7.78,7.78,0,0,0,.08-1.15v-.23a7.63,7.63,0,0,0-.08-1.14,2,2,0,0,0-.31-.85,1.35,1.35,0,0,0-.65-.52,2.88,2.88,0,0,0-1.12-.18H735a2.88,2.88,0,0,0-1.12.18,1.35,1.35,0,0,0-.65.52,2.09,2.09,0,0,0-.3.85,7.74,7.74,0,0,0-.07,1.14v.23a8,8,0,0,0,.07,1.15,2.09,2.09,0,0,0,.3.84,1.43,1.43,0,0,0,.65.53,2.88,2.88,0,0,0,1.12.18Z" transform="translate(-569.14 -321.85)" style="fill:#fff"/><path d="M740.18,424.64a.41.41,0,0,1,.22-.23,1,1,0,0,1,.32,0l.24,0a.49.49,0,0,1,.18.08.3.3,0,0,1,.11.14.26.26,0,0,1,0,.17L740.07,427a.62.62,0,0,1-.26.27,1,1,0,0,1-.35.05.83.83,0,0,1-.22,0,.37.37,0,0,1-.18-.08.23.23,0,0,1-.11-.13.2.2,0,0,1,0-.18Z" transform="translate(-569.14 -321.85)" style="fill:#fff"/><path d="M747.56,425.75a.25.25,0,0,1,0,.16.27.27,0,0,1-.12.09.53.53,0,0,1-.18.05H747a1.12,1.12,0,0,1-.38-.06.24.24,0,0,1-.17-.25V416c0-.13,0-.21.07-.25a.49.49,0,0,1,.29-.07l.25,0a.85.85,0,0,1,.24.09.55.55,0,0,1,.18.16.53.53,0,0,1,.07.26Z" transform="translate(-569.14 -321.85)" style="fill:#fff"/><path d="M754.45,425.9l-1.08.1a11.78,11.78,0,0,1-1.38.07,3.1,3.1,0,0,1-1.41-.27,1.92,1.92,0,0,1-.8-.74,2.87,2.87,0,0,1-.37-1.09,11.45,11.45,0,0,1-.08-1.36v-.07a7.89,7.89,0,0,1,.16-1.71,3.16,3.16,0,0,1,.5-1.22,2.24,2.24,0,0,1,.88-.74,3.16,3.16,0,0,1,1.29-.24l.85,0a7.21,7.21,0,0,1,.83.12,3.84,3.84,0,0,1,.77.24,2.18,2.18,0,0,1,.62.39,1.63,1.63,0,0,1,.42.58,1.84,1.84,0,0,1,.16.8v4.63a.66.66,0,0,1-.07.3.58.58,0,0,1-.19.19.77.77,0,0,1-.28.1l-.35,0Zm.26-4.86c0-.09,0-.2,0-.31a1,1,0,0,0-.09-.33,1.52,1.52,0,0,0-.21-.33,1.42,1.42,0,0,0-.38-.27,2.5,2.5,0,0,0-.6-.19,4.26,4.26,0,0,0-.86-.07l-.5,0a2.07,2.07,0,0,0-.49.12,1.65,1.65,0,0,0-.44.26,1.54,1.54,0,0,0-.36.46,3,3,0,0,0-.24.72,5.12,5.12,0,0,0-.09,1v.74a4.58,4.58,0,0,0,.12,1.16,1.5,1.5,0,0,0,.35.69,1.15,1.15,0,0,0,.59.33,3.2,3.2,0,0,0,.8.09,8.55,8.55,0,0,0,1.21-.08l1-.11h.14l.12,0Z" transform="translate(-569.14 -321.85)" style="fill:#fff"/><path d="M766.62,421.81c0,.11,0,.21,0,.31v3.65a.25.25,0,0,1,0,.16.27.27,0,0,1-.12.09.48.48,0,0,1-.18,0h-.19a1.42,1.42,0,0,1-.39-.05.24.24,0,0,1-.17-.25v-3.1c0-.56,0-1,0-1.43a2.67,2.67,0,0,0-.26-1,1.22,1.22,0,0,0-.56-.56,2.45,2.45,0,0,0-1-.17,5.23,5.23,0,0,0-1,.08,1.34,1.34,0,0,0-.52.22.47.47,0,0,0-.17.29,1.77,1.77,0,0,0,0,.32v5.32a.25.25,0,0,1-.05.16.27.27,0,0,1-.12.09.48.48,0,0,1-.18,0h-.2A1.46,1.46,0,0,1,761,426a.24.24,0,0,1-.17-.25v-5.71a1.44,1.44,0,0,1,.12-.61,1,1,0,0,1,.47-.45,3,3,0,0,1,.94-.27,9.67,9.67,0,0,1,1.57-.1,3.05,3.05,0,0,1,1.26.23,2.12,2.12,0,0,1,.81.67,1.1,1.1,0,0,1,.29-.37,1.62,1.62,0,0,1,.49-.28,3.44,3.44,0,0,1,.75-.18,6.3,6.3,0,0,1,1-.07,3,3,0,0,1,1.34.26,2,2,0,0,1,.84.75,3.23,3.23,0,0,1,.42,1.17,9.21,9.21,0,0,1,.12,1.55v3.41a.25.25,0,0,1,0,.16.27.27,0,0,1-.12.09.47.47,0,0,1-.17,0h-.2a1.48,1.48,0,0,1-.39-.05.24.24,0,0,1-.17-.25l0-3c0-.55,0-1-.06-1.43a2.7,2.7,0,0,0-.27-1,1.3,1.3,0,0,0-.58-.58,2.31,2.31,0,0,0-1-.18,3.44,3.44,0,0,0-.88.09,1.34,1.34,0,0,0-.52.27.8.8,0,0,0-.24.39,2,2,0,0,0-.06.5Z" transform="translate(-569.14 -321.85)" style="fill:#fff"/><path d="M778.08,422.65c-.24.07-.52.13-.84.19l-1,.17-1,.16-.92.12a3.69,3.69,0,0,0,.11.81,1.25,1.25,0,0,0,.31.58,1.38,1.38,0,0,0,.6.36,3.36,3.36,0,0,0,1,.12,4.82,4.82,0,0,0,1-.09,5.9,5.9,0,0,0,.69-.21,3.35,3.35,0,0,0,.43-.22.94.94,0,0,1,.25-.11.36.36,0,0,1,.29.1.39.39,0,0,1,.11.28.65.65,0,0,1-.19.44,1.76,1.76,0,0,1-.54.37,3.52,3.52,0,0,1-.86.25,5.52,5.52,0,0,1-1.13.1,6.48,6.48,0,0,1-1.26-.11,2.77,2.77,0,0,1-.87-.32,2,2,0,0,1-.56-.52,2.61,2.61,0,0,1-.31-.7,4.63,4.63,0,0,1-.14-.88c0-.32,0-.66,0-1a9.74,9.74,0,0,1,.12-1.6,2.82,2.82,0,0,1,.45-1.22,2.19,2.19,0,0,1,1-.78,4.2,4.2,0,0,1,1.68-.28,6.17,6.17,0,0,1,1.25.12,3.31,3.31,0,0,1,1,.39,2,2,0,0,1,.67.67,2.21,2.21,0,0,1,.27,1,2.6,2.6,0,0,1,0,.7,1.31,1.31,0,0,1-.23.51,1.62,1.62,0,0,1-.49.37A3.47,3.47,0,0,1,778.08,422.65Zm-1.36-3.15a4.45,4.45,0,0,0-1,.09,2,2,0,0,0-.66.26,1.32,1.32,0,0,0-.42.43,2,2,0,0,0-.23.58,5.1,5.1,0,0,0-.1.74c0,.27,0,.56,0,.87l.75-.11.89-.13.91-.15.8-.15a1.35,1.35,0,0,0,.72-.35,1,1,0,0,0,.19-.74,1.13,1.13,0,0,0-.18-.58,1.27,1.27,0,0,0-.41-.42,2.18,2.18,0,0,0-.58-.26A2.51,2.51,0,0,0,776.72,419.5Z" transform="translate(-569.14 -321.85)" style="fill:#fff"/><path d="M781.37,416.05a.25.25,0,0,1,0-.16.29.29,0,0,1,.12-.1l.18-.05h.2a1.14,1.14,0,0,1,.39.06.25.25,0,0,1,.16.26v1.13a.21.21,0,0,1-.05.16.27.27,0,0,1-.12.09.48.48,0,0,1-.17.05h-.2a1.14,1.14,0,0,1-.39-.06.25.25,0,0,1-.17-.25Zm1.1,13.11a.3.3,0,0,1-.08.2.62.62,0,0,1-.19.12l-.26,0-.23,0a.43.43,0,0,1-.24-.06c-.07,0-.1-.11-.1-.23V418.93a.24.24,0,0,1,.17-.25,1.16,1.16,0,0,1,.38-.06.92.92,0,0,1,.38.07.23.23,0,0,1,.17.24Z" transform="translate(-569.14 -321.85)" style="fill:#fff"/><path d="M787.51,426.07a5.18,5.18,0,0,1-1.27-.14,2.85,2.85,0,0,1-.9-.39,2,2,0,0,1-.58-.59,2.89,2.89,0,0,1-.34-.76,4.63,4.63,0,0,1-.16-.87c0-.31,0-.63,0-1v0c0-.33,0-.65,0-1a4.63,4.63,0,0,1,.16-.87,2.76,2.76,0,0,1,.34-.76,1.92,1.92,0,0,1,.58-.59,2.85,2.85,0,0,1,.9-.39,5.18,5.18,0,0,1,1.27-.14h0a5.24,5.24,0,0,1,1.27.14,2.75,2.75,0,0,1,.9.39,2.07,2.07,0,0,1,.59.59,2.76,2.76,0,0,1,.34.76,4.64,4.64,0,0,1,.15.87c0,.31,0,.63,0,1v0c0,.33,0,.65,0,1a4.64,4.64,0,0,1-.15.87,2.89,2.89,0,0,1-.34.76,2.21,2.21,0,0,1-.59.59,2.75,2.75,0,0,1-.9.39,5.24,5.24,0,0,1-1.27.14Zm.1-.91a2.86,2.86,0,0,0,1.11-.18,1.36,1.36,0,0,0,.65-.52,2,2,0,0,0,.31-.85,7.78,7.78,0,0,0,.08-1.15v-.23a7.63,7.63,0,0,0-.08-1.14,2,2,0,0,0-.31-.85,1.31,1.31,0,0,0-.65-.52,2.86,2.86,0,0,0-1.11-.18h-.15a2.91,2.91,0,0,0-1.12.18,1.35,1.35,0,0,0-.65.52,2.09,2.09,0,0,0-.3.85,7.74,7.74,0,0,0-.07,1.14v.23a8,8,0,0,0,.07,1.15,2.09,2.09,0,0,0,.3.84,1.43,1.43,0,0,0,.65.53,2.91,2.91,0,0,0,1.12.18Z" transform="translate(-569.14 -321.85)" style="fill:#fff"/><path d="M796,418.63a3.41,3.41,0,0,1,.7.09,1.65,1.65,0,0,1,.48.2.85.85,0,0,1,.29.27.59.59,0,0,1,.09.31.52.52,0,0,1,0,.11.29.29,0,0,1,0,.13.25.25,0,0,1-.11.09.49.49,0,0,1-.19,0,.4.4,0,0,1-.22-.06l-.21-.11a1.48,1.48,0,0,0-.32-.11,2.68,2.68,0,0,0-.56,0,5.5,5.5,0,0,0-1.11.09,2.2,2.2,0,0,0-.64.2.75.75,0,0,0-.31.24.41.41,0,0,0-.08.19v5.5a.27.27,0,0,1,0,.16.43.43,0,0,1-.13.09l-.17.05h-.2a1.18,1.18,0,0,1-.39-.06.24.24,0,0,1-.16-.25v-5.82a.74.74,0,0,1,.14-.43,1.52,1.52,0,0,1,.4-.34,3.48,3.48,0,0,1,.58-.26,5.11,5.11,0,0,1,.7-.17c.25,0,.51-.07.77-.09S795.72,418.63,796,418.63Z" transform="translate(-569.14 -321.85)" style="fill:#fff"/><path d="M575.31,435.51a.24.24,0,0,1,0-.15.38.38,0,0,1,.13-.09.33.33,0,0,1,.17,0h.2a1.54,1.54,0,0,1,.39,0,.22.22,0,0,1,.16.24v6a.68.68,0,0,1-.3.59,2.16,2.16,0,0,1-.82.34,7.91,7.91,0,0,1-1.22.14c-.47,0-1,0-1.51,0a3,3,0,0,1-1.34-.26,2.09,2.09,0,0,1-.81-.75,3.05,3.05,0,0,1-.4-1.17,9.23,9.23,0,0,1-.11-1.56v-3.41a.18.18,0,0,1,.05-.15.27.27,0,0,1,.12-.09.33.33,0,0,1,.17,0h.2a1.48,1.48,0,0,1,.39,0,.22.22,0,0,1,.16.24v3q0,.84.06,1.44a3,3,0,0,0,.25,1,1.22,1.22,0,0,0,.55.57,2.11,2.11,0,0,0,1,.19l1,0c.28,0,.52,0,.7-.07a2.3,2.3,0,0,0,.43-.1.47.47,0,0,0,.22-.14.29.29,0,0,0,.09-.16,1.23,1.23,0,0,0,0-.2Z" transform="translate(-569.14 -321.85)" style="fill:#fff"/><path d="M579.24,435.86a3.85,3.85,0,0,1,.65-.28,5.72,5.72,0,0,1,.74-.19,6.63,6.63,0,0,1,.76-.11,6,6,0,0,1,.72,0,2.73,2.73,0,0,1,1.3.27,1.93,1.93,0,0,1,.76.74,3,3,0,0,1,.36,1.09,8.27,8.27,0,0,1,.1,1.36v.07a10.74,10.74,0,0,1-.11,1.57,3.47,3.47,0,0,1-.38,1.24,2,2,0,0,1-.77.8,2.38,2.38,0,0,1-1.26.29h-.86c-.3,0-.6,0-.89-.06a7,7,0,0,1-.84-.13,3.13,3.13,0,0,1-.71-.22,1.61,1.61,0,0,1-.48-.32.67.67,0,0,1-.18-.47v-8.59a.54.54,0,0,1,.08-.33.47.47,0,0,1,.19-.18.67.67,0,0,1,.25-.08h.4l.1.05a.64.64,0,0,1,.06.14,1.42,1.42,0,0,1,0,.23Zm2.65.29a7.65,7.65,0,0,0-.94.09,7.44,7.44,0,0,0-.84.2,2.7,2.7,0,0,0-.61.27c-.16.1-.25.19-.26.29v4.16a.31.31,0,0,0,.2.27,1.43,1.43,0,0,0,.52.18,6.77,6.77,0,0,0,.77.11q.43,0,.93,0l.43,0a1.46,1.46,0,0,0,.83-.34,1.24,1.24,0,0,0,.31-.46,3,3,0,0,0,.22-.74,6.54,6.54,0,0,0,.08-1.08v-.82a4.19,4.19,0,0,0-.13-1.12,1.58,1.58,0,0,0-.34-.66,1,1,0,0,0-.51-.3A2.25,2.25,0,0,0,581.89,436.15Z" transform="translate(-569.14 -321.85)" style="fill:#fff"/><path d="M586.43,432.65a.25.25,0,0,1,.05-.16.4.4,0,0,1,.12-.1.53.53,0,0,1,.18,0l.2,0a1.13,1.13,0,0,1,.39.07.23.23,0,0,1,.16.25v1.14a.21.21,0,0,1,0,.16.27.27,0,0,1-.12.09.48.48,0,0,1-.17,0H587a1.14,1.14,0,0,1-.39-.06.25.25,0,0,1-.17-.25Zm1.1,9.7a.21.21,0,0,1,0,.16.4.4,0,0,1-.12.1.47.47,0,0,1-.17,0H587a1.14,1.14,0,0,1-.39-.06.24.24,0,0,1-.17-.25v-6.8a.25.25,0,0,1,.05-.15.32.32,0,0,1,.13-.1.48.48,0,0,1,.17-.05h.2a1.14,1.14,0,0,1,.39.06.24.24,0,0,1,.16.25Z" transform="translate(-569.14 -321.85)" style="fill:#fff"/><path d="M592.46,442.67a6.48,6.48,0,0,1-1.26-.11,2.84,2.84,0,0,1-.88-.32,1.87,1.87,0,0,1-.56-.52,2.48,2.48,0,0,1-.31-.7,4.63,4.63,0,0,1-.14-.88c0-.32,0-.66,0-1v-.27c0-.37,0-.72,0-1a4.4,4.4,0,0,1,.14-.87,2.48,2.48,0,0,1,.31-.7,1.75,1.75,0,0,1,.56-.52,2.84,2.84,0,0,1,.88-.32,5.79,5.79,0,0,1,1.26-.11,7.88,7.88,0,0,1,1.15.08,4.23,4.23,0,0,1,.86.24,1.63,1.63,0,0,1,.54.35.58.58,0,0,1,.19.42.53.53,0,0,1,0,.12.34.34,0,0,1-.06.12.4.4,0,0,1-.12.1.54.54,0,0,1-.19,0,.52.52,0,0,1-.28-.08,2.93,2.93,0,0,0-.42-.19,3.69,3.69,0,0,0-.7-.18,5.12,5.12,0,0,0-1.11-.07,6.27,6.27,0,0,0-.8.07,1.22,1.22,0,0,0-.61.28,1.46,1.46,0,0,0-.38.65,3.6,3.6,0,0,0-.14,1.15v1.14a8.08,8.08,0,0,0,0,.89,1.87,1.87,0,0,0,.25.72,1.27,1.27,0,0,0,.57.47,2.41,2.41,0,0,0,1,.17,8.07,8.07,0,0,0,1-.06,4.32,4.32,0,0,0,.84-.2l.23-.11.18-.12.14-.09.15,0c.16,0,.26,0,.31.11a.44.44,0,0,1,.07.26.62.62,0,0,1-.19.43,1.5,1.5,0,0,1-.54.36,3.64,3.64,0,0,1-.86.26A5.73,5.73,0,0,1,592.46,442.67Z" transform="translate(-569.14 -321.85)" style="fill:#fff"/><path d="M601.85,442.5l-1.08.11c-.43,0-.89.06-1.39.06a3,3,0,0,1-1.4-.27,1.94,1.94,0,0,1-.81-.74,3,3,0,0,1-.36-1.09,9.66,9.66,0,0,1-.08-1.36v-.07a7.89,7.89,0,0,1,.16-1.71,3.23,3.23,0,0,1,.5-1.22,2.08,2.08,0,0,1,.88-.73,3,3,0,0,1,1.29-.25,8.32,8.32,0,0,1,.85,0,7.53,7.53,0,0,1,.83.11,4.5,4.5,0,0,1,.76.24,2.23,2.23,0,0,1,.63.39,1.92,1.92,0,0,1,.42.58,2,2,0,0,1,.16.81V442a.63.63,0,0,1-.07.3.58.58,0,0,1-.19.19.83.83,0,0,1-.29.1,1.83,1.83,0,0,1-.34,0Zm.26-4.85c0-.1,0-.2,0-.32A1,1,0,0,0,602,437a1.26,1.26,0,0,0-.21-.32,1.3,1.3,0,0,0-.39-.28,2.93,2.93,0,0,0-.59-.19,5.27,5.27,0,0,0-.87-.07,4,4,0,0,0-.49,0,1.66,1.66,0,0,0-.49.11,1.5,1.5,0,0,0-.44.26,1.46,1.46,0,0,0-.36.47,2.74,2.74,0,0,0-.25.72,5,5,0,0,0-.09,1v.74a4.58,4.58,0,0,0,.12,1.16,1.5,1.5,0,0,0,.36.69,1.18,1.18,0,0,0,.58.34,3.9,3.9,0,0,0,.81.08,8.66,8.66,0,0,0,1.21-.08l1-.11H602l.12,0Z" transform="translate(-569.14 -321.85)" style="fill:#fff"/><path d="M608.11,442.67a6.52,6.52,0,0,1-1.27-.11,2.77,2.77,0,0,1-.87-.32,1.76,1.76,0,0,1-.56-.52,2.5,2.5,0,0,1-.32-.7,4.65,4.65,0,0,1-.13-.88c0-.32,0-.66,0-1v-.27c0-.37,0-.72,0-1a4.43,4.43,0,0,1,.13-.87,2.5,2.5,0,0,1,.32-.7,1.65,1.65,0,0,1,.56-.52,2.77,2.77,0,0,1,.87-.32,5.82,5.82,0,0,1,1.27-.11,7.73,7.73,0,0,1,1.14.08,3.89,3.89,0,0,1,.86.24,1.68,1.68,0,0,1,.55.35.62.62,0,0,1,.19.42.6.6,0,0,1,0,.12.34.34,0,0,1-.06.12.4.4,0,0,1-.12.1.5.5,0,0,1-.19,0,.51.51,0,0,1-.27-.08,3.81,3.81,0,0,0-.43-.19,3.5,3.5,0,0,0-.7-.18,5,5,0,0,0-1.1-.07,6.11,6.11,0,0,0-.8.07,1.19,1.19,0,0,0-.61.28,1.38,1.38,0,0,0-.39.65,3.9,3.9,0,0,0-.14,1.15v1.14a6.13,6.13,0,0,0,.06.89,1.86,1.86,0,0,0,.24.72,1.25,1.25,0,0,0,.58.47,2.41,2.41,0,0,0,1,.17,8.19,8.19,0,0,0,1-.06,4,4,0,0,0,.83-.2,1.67,1.67,0,0,0,.23-.11l.18-.12.15-.09a.35.35,0,0,1,.14,0c.16,0,.27,0,.31.11a.45.45,0,0,1,.08.26.67.67,0,0,1-.19.43,1.54,1.54,0,0,1-.55.36,3.37,3.37,0,0,1-.86.26A5.62,5.62,0,0,1,608.11,442.67Z" transform="translate(-569.14 -321.85)" style="fill:#fff"/><path d="M612.71,432.65a.25.25,0,0,1,0-.16.45.45,0,0,1,.13-.1.47.47,0,0,1,.17,0l.2,0a1.13,1.13,0,0,1,.39.07.23.23,0,0,1,.16.25v1.14a.25.25,0,0,1,0,.16.38.38,0,0,1-.13.09.48.48,0,0,1-.17,0h-.2a1.14,1.14,0,0,1-.39-.06.24.24,0,0,1-.16-.25Zm1.09,9.7a.25.25,0,0,1,0,.16l-.13.1a.47.47,0,0,1-.17,0h-.2a1.14,1.14,0,0,1-.39-.06.23.23,0,0,1-.16-.25v-6.8a.24.24,0,0,1,0-.15.32.32,0,0,1,.13-.1.48.48,0,0,1,.17-.05h.2a1.14,1.14,0,0,1,.39.06.24.24,0,0,1,.16.25Z" transform="translate(-569.14 -321.85)" style="fill:#fff"/><path d="M618.85,442.67a5.18,5.18,0,0,1-1.27-.14,2.85,2.85,0,0,1-.9-.39,2.07,2.07,0,0,1-.59-.59,2.74,2.74,0,0,1-.33-.76,4.63,4.63,0,0,1-.16-.87c0-.31,0-.63,0-.95v0c0-.33,0-.64,0-.95a4.74,4.74,0,0,1,.16-.88,3,3,0,0,1,.33-.76,2.36,2.36,0,0,1,.59-.59,2.85,2.85,0,0,1,.9-.39,5.18,5.18,0,0,1,1.27-.14h0a5.27,5.27,0,0,1,1.28.14,2.75,2.75,0,0,1,.9.39,2.32,2.32,0,0,1,.58.59,3.08,3.08,0,0,1,.35.76,4.75,4.75,0,0,1,.15.88c0,.31,0,.62,0,.95v0c0,.32,0,.64,0,.95a4.64,4.64,0,0,1-.15.87,2.78,2.78,0,0,1-.35.76,2,2,0,0,1-.58.59,2.75,2.75,0,0,1-.9.39,5.27,5.27,0,0,1-1.28.14Zm.1-.91a3.08,3.08,0,0,0,1.11-.17,1.43,1.43,0,0,0,.65-.53,2,2,0,0,0,.31-.84,7.92,7.92,0,0,0,.08-1.16v-.22a7.78,7.78,0,0,0-.08-1.15,2,2,0,0,0-.31-.85,1.41,1.41,0,0,0-.65-.52,2.86,2.86,0,0,0-1.11-.18h-.15a2.88,2.88,0,0,0-1.12.18,1.41,1.41,0,0,0-.65.52,2.09,2.09,0,0,0-.3.85,7.88,7.88,0,0,0-.07,1.15v.22a8,8,0,0,0,.07,1.15,2.14,2.14,0,0,0,.3.85,1.41,1.41,0,0,0,.65.52,2.88,2.88,0,0,0,1.12.18Zm.11-9.1a.41.41,0,0,1,.24-.23,1.09,1.09,0,0,1,.34,0,.76.76,0,0,1,.21,0,.51.51,0,0,1,.18.09.26.26,0,0,1,.1.13.21.21,0,0,1,0,.17l-.77,1.36a.45.45,0,0,1-.25.27,1.25,1.25,0,0,1-.36.05.76.76,0,0,1-.21,0,.49.49,0,0,1-.18-.08.24.24,0,0,1-.1-.13.26.26,0,0,1,0-.19Z" transform="translate(-569.14 -321.85)" style="fill:#fff"/><path d="M625.05,442.37a.25.25,0,0,1,0,.16.3.3,0,0,1-.13.09.47.47,0,0,1-.17,0h-.2a1.54,1.54,0,0,1-.39-.05.23.23,0,0,1-.16-.25v-6a.71.71,0,0,1,.3-.6,2,2,0,0,1,.82-.36,7.63,7.63,0,0,1,1.22-.17c.47,0,1,0,1.51,0a3,3,0,0,1,1.34.26,2.09,2.09,0,0,1,.81.75,3,3,0,0,1,.4,1.18,9.18,9.18,0,0,1,.11,1.55v3.4a.25.25,0,0,1,0,.16.38.38,0,0,1-.13.09.33.33,0,0,1-.17,0h-.2a1.48,1.48,0,0,1-.39-.05.23.23,0,0,1-.16-.25v-3c0-.55,0-1-.06-1.43a3,3,0,0,0-.25-1,1.22,1.22,0,0,0-.55-.57,2.11,2.11,0,0,0-1-.19c-.41,0-.76,0-1,0a5.47,5.47,0,0,0-.7.07,1.61,1.61,0,0,0-.43.12.56.56,0,0,0-.22.14.38.38,0,0,0-.09.18,1.23,1.23,0,0,0,0,.2Z" transform="translate(-569.14 -321.85)" style="fill:#fff"/><path d="M637.93,441.54a.56.56,0,0,0,.11.17.27.27,0,0,0,.19.06h0a.36.36,0,0,0,.19,0,.4.4,0,0,0,.11-.14v0l0-.12,2.06-5.68c.05-.13.08-.23.11-.3a.49.49,0,0,1,.09-.15.17.17,0,0,1,.12-.05h.19a.66.66,0,0,1,.23,0,.55.55,0,0,1,.24.12.53.53,0,0,1,.14.23.69.69,0,0,1,0,.34l-1.94,5.19-1.49,4.15a1.16,1.16,0,0,1-.2.39.46.46,0,0,1-.36.12l-.24,0a.45.45,0,0,1-.21-.12.57.57,0,0,1-.12-.22.66.66,0,0,1,0-.35l.9-2.43a2.34,2.34,0,0,1-.39,0,.93.93,0,0,1-.33-.12.83.83,0,0,1-.28-.25,1.57,1.57,0,0,1-.21-.43L634.75,436a.52.52,0,0,1,0-.34.53.53,0,0,1,.14-.23.51.51,0,0,1,.23-.12.75.75,0,0,1,.24,0h.19a.17.17,0,0,1,.12.05.49.49,0,0,1,.09.15c0,.07.06.17.1.3Z" transform="translate(-569.14 -321.85)" style="fill:#fff"/><path d="M647.19,442.35a.25.25,0,0,1,0,.16l-.13.1a.47.47,0,0,1-.17,0h-.2a1.14,1.14,0,0,1-.39-.06.23.23,0,0,1-.16-.25v-9.71c0-.13,0-.21.07-.25a.48.48,0,0,1,.29-.06l.25,0,.24.09a.52.52,0,0,1,.17.16.45.45,0,0,1,.07.27Z" transform="translate(-569.14 -321.85)" style="fill:#fff"/><path d="M654.09,442.5l-1.08.11c-.43,0-.89.06-1.39.06a3.1,3.1,0,0,1-1.41-.27,2,2,0,0,1-.8-.74,2.65,2.65,0,0,1-.36-1.09,9.6,9.6,0,0,1-.09-1.36v-.07a8.57,8.57,0,0,1,.16-1.71,3.4,3.4,0,0,1,.51-1.22,2.08,2.08,0,0,1,.88-.73,2.94,2.94,0,0,1,1.29-.25,8,8,0,0,1,.84,0,7.4,7.4,0,0,1,.84.11,4.5,4.5,0,0,1,.76.24,2.23,2.23,0,0,1,.63.39,1.92,1.92,0,0,1,.42.58,2,2,0,0,1,.15.81V442a.53.53,0,0,1-.07.3.47.47,0,0,1-.18.19.83.83,0,0,1-.29.1,1.88,1.88,0,0,1-.34,0Zm.26-4.85c0-.1,0-.2,0-.32a1,1,0,0,0-.09-.33,1.08,1.08,0,0,0-.22-.32,1.14,1.14,0,0,0-.38-.28,3.15,3.15,0,0,0-.59-.19,5.27,5.27,0,0,0-.87-.07l-.5,0a1.67,1.67,0,0,0-.48.11,1.7,1.7,0,0,0-.45.26,1.6,1.6,0,0,0-.35.47,2.42,2.42,0,0,0-.25.72,5,5,0,0,0-.09,1v.74a4.58,4.58,0,0,0,.12,1.16,1.5,1.5,0,0,0,.36.69,1.14,1.14,0,0,0,.58.34,3.83,3.83,0,0,0,.81.08,8.66,8.66,0,0,0,1.21-.08l1-.11h.14l.12,0Z" transform="translate(-569.14 -321.85)" style="fill:#fff"/><path d="M666.25,438.42c0,.1,0,.2,0,.31s0,.21,0,.32v3.32a.25.25,0,0,1,0,.16.27.27,0,0,1-.12.09.53.53,0,0,1-.18,0h-.2a1.48,1.48,0,0,1-.39-.05.23.23,0,0,1-.16-.25v-3.1c0-.56,0-1-.06-1.43a2.69,2.69,0,0,0-.25-1,1.17,1.17,0,0,0-.57-.55,2.23,2.23,0,0,0-1-.18,5.09,5.09,0,0,0-1,.08,1.34,1.34,0,0,0-.52.22.44.44,0,0,0-.18.3c0,.1,0,.21,0,.31v5.32a.25.25,0,0,1,0,.16.3.3,0,0,1-.13.09.47.47,0,0,1-.17,0H661a1.54,1.54,0,0,1-.39-.05.23.23,0,0,1-.16-.25v-5.71a1.48,1.48,0,0,1,.12-.61,1,1,0,0,1,.47-.45,3,3,0,0,1,.94-.27,9.51,9.51,0,0,1,1.57-.1,2.89,2.89,0,0,1,1.26.24,2,2,0,0,1,.8.66,1.39,1.39,0,0,1,.29-.36,1.69,1.69,0,0,1,.5-.29,3.3,3.3,0,0,1,.75-.18,6.3,6.3,0,0,1,1-.07,3.07,3.07,0,0,1,1.34.26,2.08,2.08,0,0,1,.83.75,3.05,3.05,0,0,1,.43,1.18,9.12,9.12,0,0,1,.12,1.55v3.4a.25.25,0,0,1-.05.16.27.27,0,0,1-.12.09.37.37,0,0,1-.18,0h-.2a1.48,1.48,0,0,1-.39-.05.23.23,0,0,1-.16-.25v-3a12.3,12.3,0,0,0-.05-1.43,3.22,3.22,0,0,0-.27-1,1.28,1.28,0,0,0-.58-.57,2.23,2.23,0,0,0-1-.19,3,3,0,0,0-.87.1,1.27,1.27,0,0,0-.52.26.82.82,0,0,0-.25.39,2,2,0,0,0-.06.5Z" transform="translate(-569.14 -321.85)" style="fill:#fff"/><path d="M677.72,439.26l-.85.18-1,.18-1,.15-.92.13a3.68,3.68,0,0,0,.11.8,1.27,1.27,0,0,0,.3.59,1.44,1.44,0,0,0,.61.35,3.31,3.31,0,0,0,1,.12,5,5,0,0,0,1-.09,3.68,3.68,0,0,0,.68-.21,3,3,0,0,0,.44-.22.82.82,0,0,1,.25-.11.37.37,0,0,1,.28.1.38.38,0,0,1,.11.29.64.64,0,0,1-.19.44,1.54,1.54,0,0,1-.54.36,3.89,3.89,0,0,1-.85.26,6.39,6.39,0,0,1-1.13.09,6.48,6.48,0,0,1-1.26-.11,2.68,2.68,0,0,1-.87-.32,1.76,1.76,0,0,1-.56-.52,2.23,2.23,0,0,1-.31-.7,4,4,0,0,1-.14-.88c0-.32,0-.66,0-1a11.17,11.17,0,0,1,.11-1.6,3,3,0,0,1,.46-1.22,2.19,2.19,0,0,1,1-.78,4.12,4.12,0,0,1,1.67-.28,5.45,5.45,0,0,1,1.25.13,3.11,3.11,0,0,1,1,.38,1.9,1.9,0,0,1,.67.68,2,2,0,0,1,.28,1,2.54,2.54,0,0,1,0,.7,1.08,1.08,0,0,1-.23.51,1.42,1.42,0,0,1-.48.37A4.24,4.24,0,0,1,677.72,439.26Zm-1.37-3.16a4.51,4.51,0,0,0-1,.09,2.22,2.22,0,0,0-.66.26,1.4,1.4,0,0,0-.41.43,2.07,2.07,0,0,0-.23.59,3.9,3.9,0,0,0-.1.73c0,.27,0,.56,0,.87l.74-.11.9-.13.91-.15.79-.15a1.35,1.35,0,0,0,.72-.35.93.93,0,0,0,.19-.74,1.23,1.23,0,0,0-.17-.58,1.68,1.68,0,0,0-.42-.42,2,2,0,0,0-.58-.26A2.93,2.93,0,0,0,676.35,436.1Z" transform="translate(-569.14 -321.85)" style="fill:#fff"/><path d="M681,432.65a.25.25,0,0,1,0-.16.4.4,0,0,1,.12-.1.48.48,0,0,1,.18,0l.2,0a1,1,0,0,1,.38.07.24.24,0,0,1,.17.25v1.13a.25.25,0,0,1-.05.16.27.27,0,0,1-.12.09.48.48,0,0,1-.18.05h-.2a1.12,1.12,0,0,1-.38-.06.24.24,0,0,1-.17-.25Zm1.1,13.12a.27.27,0,0,1-.08.19.67.67,0,0,1-.2.12,1,1,0,0,1-.25.06h-.24a.54.54,0,0,1-.24,0,.26.26,0,0,1-.09-.23V435.53a.25.25,0,0,1,.17-.25,1.52,1.52,0,0,1,.38,0,1.12,1.12,0,0,1,.38.06.24.24,0,0,1,.17.24Z" transform="translate(-569.14 -321.85)" style="fill:#fff"/><path d="M687.15,442.67a5.12,5.12,0,0,1-1.27-.14,2.66,2.66,0,0,1-.9-.39,2.07,2.07,0,0,1-.59-.59,2.76,2.76,0,0,1-.34-.76,4.64,4.64,0,0,1-.15-.87c0-.31,0-.63,0-.95v0c0-.33,0-.64,0-.95a4.75,4.75,0,0,1,.15-.88,3,3,0,0,1,.34-.76,2.36,2.36,0,0,1,.59-.59,2.66,2.66,0,0,1,.9-.39,5.12,5.12,0,0,1,1.27-.14h0a5.27,5.27,0,0,1,1.28.14,2.69,2.69,0,0,1,.89.39,2.21,2.21,0,0,1,.59.59,2.73,2.73,0,0,1,.34.76,4.74,4.74,0,0,1,.16.88c0,.31,0,.62,0,.95v0c0,.32,0,.64,0,.95a4.63,4.63,0,0,1-.16.87,2.49,2.49,0,0,1-.34.76,2,2,0,0,1-.59.59,2.69,2.69,0,0,1-.89.39,5.27,5.27,0,0,1-1.28.14Zm.09-.91a3.1,3.1,0,0,0,1.12-.17,1.43,1.43,0,0,0,.65-.53,2.1,2.1,0,0,0,.31-.84,8,8,0,0,0,.07-1.16v-.22a7.88,7.88,0,0,0-.07-1.15,2.09,2.09,0,0,0-.31-.85,1.41,1.41,0,0,0-.65-.52,2.88,2.88,0,0,0-1.12-.18h-.14a2.88,2.88,0,0,0-1.12.18,1.41,1.41,0,0,0-.65.52,2.09,2.09,0,0,0-.3.85,7.78,7.78,0,0,0-.08,1.15v.22a7.88,7.88,0,0,0,.08,1.15,2.14,2.14,0,0,0,.3.85,1.41,1.41,0,0,0,.65.52,2.88,2.88,0,0,0,1.12.18Z" transform="translate(-569.14 -321.85)" style="fill:#fff"/><path d="M695.6,435.23a3.32,3.32,0,0,1,.7.09,1.72,1.72,0,0,1,.49.2.81.81,0,0,1,.28.27.59.59,0,0,1,.09.31.49.49,0,0,1,0,.12.61.61,0,0,1,0,.12.2.2,0,0,1-.11.09.36.36,0,0,1-.19,0,.48.48,0,0,1-.22-.05l-.21-.12-.33-.11a2.57,2.57,0,0,0-.55-.05,5.5,5.5,0,0,0-1.11.09,2.8,2.8,0,0,0-.65.2.78.78,0,0,0-.3.24.45.45,0,0,0-.08.19v5.5a.21.21,0,0,1-.05.16.27.27,0,0,1-.12.09.48.48,0,0,1-.17.05h-.2a1.14,1.14,0,0,1-.39-.06.25.25,0,0,1-.17-.25v-5.82a.66.66,0,0,1,.15-.42,1.38,1.38,0,0,1,.4-.35,2.59,2.59,0,0,1,.58-.25,4.77,4.77,0,0,1,.7-.18c.25,0,.51-.07.76-.09S695.36,435.23,695.6,435.23Z" transform="translate(-569.14 -321.85)" style="fill:#fff"/><path d="M704.31,442.67a6.48,6.48,0,0,1-1.26-.11,2.84,2.84,0,0,1-.88-.32,1.87,1.87,0,0,1-.56-.52,2.48,2.48,0,0,1-.31-.7,4,4,0,0,1-.14-.88c0-.32,0-.66,0-1v-.27c0-.37,0-.72,0-1a3.77,3.77,0,0,1,.14-.87,2.48,2.48,0,0,1,.31-.7,1.75,1.75,0,0,1,.56-.52,2.84,2.84,0,0,1,.88-.32,5.79,5.79,0,0,1,1.26-.11,7.88,7.88,0,0,1,1.15.08,4.23,4.23,0,0,1,.86.24,1.74,1.74,0,0,1,.54.35.58.58,0,0,1,.19.42.53.53,0,0,1,0,.12.34.34,0,0,1-.06.12.4.4,0,0,1-.12.1.56.56,0,0,1-.2,0,.51.51,0,0,1-.27-.08,2.93,2.93,0,0,0-.42-.19,3.69,3.69,0,0,0-.7-.18,5.12,5.12,0,0,0-1.11-.07,6.27,6.27,0,0,0-.8.07,1.19,1.19,0,0,0-.61.28,1.46,1.46,0,0,0-.38.65,3.6,3.6,0,0,0-.14,1.15v1.14a8.08,8.08,0,0,0,0,.89,1.87,1.87,0,0,0,.25.72,1.27,1.27,0,0,0,.57.47,2.41,2.41,0,0,0,1,.17,8.07,8.07,0,0,0,1-.06,4.32,4.32,0,0,0,.84-.2l.23-.11.17-.12.15-.09.14,0c.17,0,.27,0,.32.11a.44.44,0,0,1,.07.26.62.62,0,0,1-.19.43,1.59,1.59,0,0,1-.54.36,3.64,3.64,0,0,1-.86.26A5.73,5.73,0,0,1,704.31,442.67Z" transform="translate(-569.14 -321.85)" style="fill:#fff"/><path d="M711.52,442.67a5.12,5.12,0,0,1-1.27-.14,2.66,2.66,0,0,1-.9-.39,2,2,0,0,1-.59-.59,2.76,2.76,0,0,1-.34-.76,4.64,4.64,0,0,1-.15-.87c0-.31,0-.63,0-.95v0c0-.33,0-.64,0-.95a4.75,4.75,0,0,1,.15-.88,3,3,0,0,1,.34-.76,2.21,2.21,0,0,1,.59-.59,2.66,2.66,0,0,1,.9-.39,5.12,5.12,0,0,1,1.27-.14h0a5.33,5.33,0,0,1,1.28.14,2.69,2.69,0,0,1,.89.39,2.36,2.36,0,0,1,.59.59,3,3,0,0,1,.34.76,4.74,4.74,0,0,1,.16.88c0,.31,0,.62,0,.95v0c0,.32,0,.64,0,.95a4.63,4.63,0,0,1-.16.87,2.76,2.76,0,0,1-.34.76,2.07,2.07,0,0,1-.59.59,2.69,2.69,0,0,1-.89.39,5.33,5.33,0,0,1-1.28.14Zm.09-.91a3.1,3.1,0,0,0,1.12-.17,1.43,1.43,0,0,0,.65-.53,2.26,2.26,0,0,0,.31-.84,8,8,0,0,0,.07-1.16v-.22a7.88,7.88,0,0,0-.07-1.15,2.25,2.25,0,0,0-.31-.85,1.41,1.41,0,0,0-.65-.52,2.88,2.88,0,0,0-1.12-.18h-.14a2.88,2.88,0,0,0-1.12.18,1.41,1.41,0,0,0-.65.52,1.83,1.83,0,0,0-.3.85,7.78,7.78,0,0,0-.08,1.15v.22a7.88,7.88,0,0,0,.08,1.15,1.87,1.87,0,0,0,.3.85,1.41,1.41,0,0,0,.65.52,2.88,2.88,0,0,0,1.12.18Z" transform="translate(-569.14 -321.85)" style="fill:#fff"/><path d="M722.4,438.42c0,.1,0,.2,0,.31v3.64a.21.21,0,0,1,0,.16.27.27,0,0,1-.12.09.47.47,0,0,1-.17,0h-.2a1.48,1.48,0,0,1-.39-.05.23.23,0,0,1-.16-.25v-3.1c0-.56,0-1-.06-1.43a2.67,2.67,0,0,0-.26-1,1.19,1.19,0,0,0-.56-.55,2.23,2.23,0,0,0-1-.18,5.27,5.27,0,0,0-1,.08,1.22,1.22,0,0,0-.51.22.44.44,0,0,0-.18.3c0,.1,0,.21,0,.31v5.32a.25.25,0,0,1-.05.16.27.27,0,0,1-.12.09.48.48,0,0,1-.18,0h-.2a1.46,1.46,0,0,1-.38-.05.23.23,0,0,1-.17-.25v-5.71a1.33,1.33,0,0,1,.13-.61,1,1,0,0,1,.46-.45,3,3,0,0,1,.95-.27,9.45,9.45,0,0,1,1.56-.1,2.89,2.89,0,0,1,1.26.24,2,2,0,0,1,.81.66,1.21,1.21,0,0,1,.29-.36,1.57,1.57,0,0,1,.5-.29,3.21,3.21,0,0,1,.74-.18,6.43,6.43,0,0,1,1-.07,3.11,3.11,0,0,1,1.34.26,2.15,2.15,0,0,1,.83.75,3.22,3.22,0,0,1,.42,1.18,9.12,9.12,0,0,1,.12,1.55v3.4a.25.25,0,0,1,0,.16.38.38,0,0,1-.13.09.33.33,0,0,1-.17,0h-.2a1.48,1.48,0,0,1-.39-.05.23.23,0,0,1-.16-.25v-3a10.26,10.26,0,0,0-.06-1.43,2.75,2.75,0,0,0-.27-1,1.23,1.23,0,0,0-.58-.57,2.16,2.16,0,0,0-1-.19,3,3,0,0,0-.88.1,1.22,1.22,0,0,0-.51.26.75.75,0,0,0-.25.39,2,2,0,0,0-.06.5Z" transform="translate(-569.14 -321.85)" style="fill:#fff"/><path d="M733.24,442.66h-.71a6.47,6.47,0,0,1-.76,0,5.71,5.71,0,0,1-.74-.13,3,3,0,0,1-.64-.22v3a1.4,1.4,0,0,1,0,.23.23.23,0,0,1-.06.13.14.14,0,0,1-.1.05h-.4a.73.73,0,0,1-.25-.08.52.52,0,0,1-.19-.17.62.62,0,0,1-.08-.33v-8.37a.72.72,0,0,1,.18-.48,1.69,1.69,0,0,1,.48-.37,3.63,3.63,0,0,1,.71-.27,5.69,5.69,0,0,1,.84-.18,8.65,8.65,0,0,1,.89-.1,8.45,8.45,0,0,1,.85,0,2.51,2.51,0,0,1,1.27.29,2,2,0,0,1,.77.81,3.79,3.79,0,0,1,.38,1.23,10.91,10.91,0,0,1,.1,1.57v.08a9.56,9.56,0,0,1-.09,1.35,3,3,0,0,1-.36,1.1,2,2,0,0,1-.77.74A2.83,2.83,0,0,1,733.24,442.66Zm-2.85-1.52c0,.09.09.18.25.25a3.16,3.16,0,0,0,.61.19c.25.05.54.09.85.12s.62.05.94.06a2.21,2.21,0,0,0,.64-.06,1,1,0,0,0,.51-.31,1.47,1.47,0,0,0,.34-.66,3.78,3.78,0,0,0,.13-1.12v-.81a6.79,6.79,0,0,0-.07-1.09,2.7,2.7,0,0,0-.22-.74,1.21,1.21,0,0,0-.32-.45,1.36,1.36,0,0,0-.39-.25,2.07,2.07,0,0,0-.43-.1h-.42a7.07,7.07,0,0,0-.94.06,4.56,4.56,0,0,0-.77.19,2.28,2.28,0,0,0-.52.26.4.4,0,0,0-.19.31Z" transform="translate(-569.14 -321.85)" style="fill:#fff"/><path d="M742.31,442.5l-1.08.11q-.63.06-1.38.06a3.1,3.1,0,0,1-1.41-.27,1.91,1.91,0,0,1-.8-.74,2.65,2.65,0,0,1-.36-1.09,9.6,9.6,0,0,1-.09-1.36v-.07a8.57,8.57,0,0,1,.16-1.71,3.4,3.4,0,0,1,.51-1.22,2.08,2.08,0,0,1,.88-.73,2.92,2.92,0,0,1,1.28-.25,8.19,8.19,0,0,1,.85,0,7.4,7.4,0,0,1,.84.11,4.5,4.5,0,0,1,.76.24,2,2,0,0,1,.62.39,1.79,1.79,0,0,1,.43.58,2,2,0,0,1,.15.81V442a.53.53,0,0,1-.07.3.5.5,0,0,1-.19.19.77.77,0,0,1-.28.1,1.88,1.88,0,0,1-.34,0Zm.26-4.85c0-.1,0-.2,0-.32a2,2,0,0,0-.09-.33,1.08,1.08,0,0,0-.22-.32,1.14,1.14,0,0,0-.38-.28,3,3,0,0,0-.6-.19,5.05,5.05,0,0,0-.86-.07l-.5,0a1.6,1.6,0,0,0-.48.11,1.7,1.7,0,0,0-.45.26,1.62,1.62,0,0,0-.36.47,2.75,2.75,0,0,0-.24.72,5,5,0,0,0-.09,1v.74a4.58,4.58,0,0,0,.12,1.16,1.6,1.6,0,0,0,.35.69,1.21,1.21,0,0,0,.59.34,3.83,3.83,0,0,0,.81.08,8.77,8.77,0,0,0,1.21-.08l.94-.11h.15l.11,0Z" transform="translate(-569.14 -321.85)" style="fill:#fff"/><path d="M746.85,442.37a.25.25,0,0,1,0,.16.38.38,0,0,1-.13.09.47.47,0,0,1-.17,0h-.2a1.48,1.48,0,0,1-.39-.05.23.23,0,0,1-.16-.25v-6a.71.71,0,0,1,.3-.6,2,2,0,0,1,.82-.36,7.47,7.47,0,0,1,1.22-.17c.47,0,1,0,1.51,0a3,3,0,0,1,1.34.26,2.09,2.09,0,0,1,.81.75,3,3,0,0,1,.4,1.18,9.18,9.18,0,0,1,.11,1.55v3.4a.21.21,0,0,1,0,.16.27.27,0,0,1-.12.09.33.33,0,0,1-.17,0h-.2a1.48,1.48,0,0,1-.39-.05.23.23,0,0,1-.17-.25l0-3c0-.55,0-1-.06-1.43a3,3,0,0,0-.25-1,1.19,1.19,0,0,0-.56-.57,2.06,2.06,0,0,0-1-.19c-.4,0-.75,0-1,0a5.47,5.47,0,0,0-.7.07,1.51,1.51,0,0,0-.43.12.7.7,0,0,0-.23.14.48.48,0,0,0-.08.18,1.23,1.23,0,0,0,0,.2Zm2.5-9.11a1.58,1.58,0,0,0,.29.22.34.34,0,0,0,.28,0,.83.83,0,0,0,.33-.16,5.52,5.52,0,0,0,.42-.38l0,0a.18.18,0,0,1,.22,0,.62.62,0,0,1,.26.17.76.76,0,0,1,.16.25.16.16,0,0,1,0,.2,5.59,5.59,0,0,1-.75.64,1.92,1.92,0,0,1-.67.29,1.06,1.06,0,0,1-.61-.06,1.91,1.91,0,0,1-.59-.42,1.31,1.31,0,0,0-.29-.22.39.39,0,0,0-.28,0,.74.74,0,0,0-.32.16,4.23,4.23,0,0,0-.42.38l0,0a.19.19,0,0,1-.23,0,.63.63,0,0,1-.24-.16.66.66,0,0,1-.17-.25c0-.09,0-.16,0-.2a4.94,4.94,0,0,1,.75-.64,1.75,1.75,0,0,1,.66-.3,1.06,1.06,0,0,1,.61.06A1.76,1.76,0,0,1,749.35,433.26Z" transform="translate(-569.14 -321.85)" style="fill:#fff"/><path d="M755.47,442.35a.25.25,0,0,1-.05.16.4.4,0,0,1-.12.1.48.48,0,0,1-.18,0h-.2a1.12,1.12,0,0,1-.38-.06.24.24,0,0,1-.17-.25v-6.8a.25.25,0,0,1,0-.15.27.27,0,0,1,.13-.1.48.48,0,0,1,.17-.05h.2a1.08,1.08,0,0,1,.38.06.25.25,0,0,1,.17.25Zm-.22-9.69a.41.41,0,0,1,.24-.23,1.06,1.06,0,0,1,.33,0,.78.78,0,0,1,.22,0,.51.51,0,0,1,.18.09.32.32,0,0,1,.1.13.21.21,0,0,1,0,.17l-.77,1.36a.46.46,0,0,1-.26.27,1.13,1.13,0,0,1-.35.05.76.76,0,0,1-.21,0,.49.49,0,0,1-.18-.08.22.22,0,0,1-.08-.32Z" transform="translate(-569.14 -321.85)" style="fill:#fff"/><path d="M762.28,442.5l-1.08.11q-.63.06-1.38.06a3.1,3.1,0,0,1-1.41-.27,1.85,1.85,0,0,1-.8-.74,2.81,2.81,0,0,1-.37-1.09,11.45,11.45,0,0,1-.08-1.36v-.07a7.89,7.89,0,0,1,.16-1.71,3.4,3.4,0,0,1,.5-1.22,2.14,2.14,0,0,1,.88-.73,3,3,0,0,1,1.29-.25,8.19,8.19,0,0,1,.85,0,6.94,6.94,0,0,1,.83.11,4.61,4.61,0,0,1,.77.24,2.18,2.18,0,0,1,.62.39,1.63,1.63,0,0,1,.42.58,1.86,1.86,0,0,1,.16.81V442a.53.53,0,0,1-.07.3.58.58,0,0,1-.19.19.77.77,0,0,1-.28.1,2,2,0,0,1-.35,0Zm.26-4.85a1.83,1.83,0,0,0,0-.32,1,1,0,0,0-.09-.33,1.21,1.21,0,0,0-.59-.6,3,3,0,0,0-.6-.19,5.14,5.14,0,0,0-.86-.07,4.19,4.19,0,0,0-.5,0,1.66,1.66,0,0,0-.49.11,1.82,1.82,0,0,0-.44.26,1.46,1.46,0,0,0-.36.47,2.75,2.75,0,0,0-.24.72,5,5,0,0,0-.09,1v.74a4.58,4.58,0,0,0,.12,1.16,1.5,1.5,0,0,0,.35.69,1.17,1.17,0,0,0,.59.34,3.8,3.8,0,0,0,.8.08,8.55,8.55,0,0,0,1.21-.08l.95-.11h.15l.11,0Z" transform="translate(-569.14 -321.85)" style="fill:#fff"/><path d="M765.81,441.29a.25.25,0,0,1,.05-.16.29.29,0,0,1,.12-.1l.18,0h.2a1.08,1.08,0,0,1,.38.06.25.25,0,0,1,.17.26v1.07a.25.25,0,0,1,0,.16.27.27,0,0,1-.12.09.48.48,0,0,1-.18.05h-.2a1.12,1.12,0,0,1-.38-.06.25.25,0,0,1-.17-.25Z" transform="translate(-569.14 -321.85)" style="fill:#fff"/></svg>