<svg id="Capa_1" data-name="Capa 1" xmlns="http://www.w3.org/2000/svg" viewBox="0 0 32 32"><path d="M667.47,400.07l1.52-4.49c.42-1.24.85-2.47,1.25-3.71a.43.43,0,0,0,0-.35,14.77,14.77,0,0,1-1.79-4.66,15.2,15.2,0,0,1,4.53-14.48,14.67,14.67,0,0,1,9.29-4.25,15.4,15.4,0,0,1,14.37,6.5,14.13,14.13,0,0,1,2.85,7.85,15.68,15.68,0,0,1-17.35,16.67,15.59,15.59,0,0,1-5.69-1.72.52.52,0,0,0-.47,0l-8.17,2.6Zm4-3.87.28-.08,4.55-1.45a.5.5,0,0,1,.46.06,12.87,12.87,0,0,0,5.1,1.89,13.07,13.07,0,0,0,9.84-2.46,12.89,12.89,0,0,0,3.84-4.46,12.61,12.61,0,0,0,1.38-7.72A13.22,13.22,0,0,0,685,370.59a13.27,13.27,0,0,0-12.18,5.73,12.67,12.67,0,0,0-2.09,5.19,13,13,0,0,0,0,4.31,12.63,12.63,0,0,0,2.17,5.26.57.57,0,0,1,.07.56c-.31.89-.61,1.78-.92,2.68C671.86,394.93,671.65,395.54,671.43,396.2Z" transform="translate(-667.47 -368.07)" style="fill:#fff"/><path d="M671.43,396.2c.22-.66.43-1.27.63-1.88.31-.9.61-1.79.92-2.68a.57.57,0,0,0-.07-.56,12.63,12.63,0,0,1-2.17-5.26,13,13,0,0,1,0-4.31,12.67,12.67,0,0,1,2.09-5.19A13.27,13.27,0,0,1,685,370.59,13.22,13.22,0,0,1,696.88,382a12.61,12.61,0,0,1-1.38,7.72,12.89,12.89,0,0,1-3.84,4.46,13.07,13.07,0,0,1-9.84,2.46,12.87,12.87,0,0,1-5.1-1.89.5.5,0,0,0-.46-.06l-4.55,1.45Zm7.46-19.65a1.52,1.52,0,0,0-1.23.28,4.32,4.32,0,0,0-1.28,1.79,4.75,4.75,0,0,0,.25,3.75A17.81,17.81,0,0,0,680,387a11.15,11.15,0,0,0,3.42,2.53c1.14.51,2.34.9,3.53,1.31a3.8,3.8,0,0,0,2.9-.27,3,3,0,0,0,1.92-3,.55.55,0,0,0-.32-.57l-3.08-1.46c-.45-.21-.64-.14-1,.25l-1.11,1.36a.56.56,0,0,1-.74.21,10.37,10.37,0,0,1-5.35-4.54.55.55,0,0,1,.08-.78c.27-.32.55-.64.79-1a.93.93,0,0,0,.22-1l-1.21-2.91c-.19-.46-.47-.75-1-.66Z" transform="translate(-667.47 -368.07)" style="fill:#00af8e"/><path d="M678.89,376.55h.2c.54-.09.82.2,1,.66l1.21,2.91a.93.93,0,0,1-.22,1c-.24.34-.52.66-.79,1a.55.55,0,0,0-.08.78,10.37,10.37,0,0,0,5.35,4.54.56.56,0,0,0,.74-.21l1.11-1.36c.31-.39.5-.46,1-.25l3.08,1.46a.55.55,0,0,1,.32.57,3,3,0,0,1-1.92,3,3.8,3.8,0,0,1-2.9.27c-1.19-.41-2.39-.8-3.53-1.31A11.15,11.15,0,0,1,680,387a17.81,17.81,0,0,1-3.37-4.62,4.75,4.75,0,0,1-.25-3.75,4.32,4.32,0,0,1,1.28-1.79A1.52,1.52,0,0,1,678.89,376.55Z" transform="translate(-667.47 -368.07)" style="fill:#fff"/></svg>